<svg width="184" height="63" viewBox="0 0 184 63" fill="none" xmlns="http://www.w3.org/2000/svg">
<path d="M51.146 28.562L52.3563 28.5835C52.4194 28.5844 52.4814 28.5993 52.538 28.6272C52.5945 28.6551 52.6442 28.6952 52.6833 28.7446C52.7225 28.7941 52.7501 28.8516 52.7642 28.913C52.7784 28.9745 52.7787 29.0383 52.7652 29.0999C52.3922 30.8213 52.0694 32.5139 51.7969 34.1779C51.614 35.2932 51.7306 36.378 52.1466 37.4323C52.2111 37.5973 52.1645 37.7246 52.0067 37.8143C44.9061 41.7358 37.6064 44.1026 29.7096 45.6357C28.3541 45.8975 27.0272 46.0338 25.7291 46.0445C23.7979 46.0607 21.7807 46.136 20.0002 45.8509C17.7445 45.4887 15.7541 44.7015 14.0292 43.4894C12.8637 42.6682 12.03 41.4291 11.5279 39.7723C10.5919 36.69 12.6682 32.6287 14.6639 30.2457C17.1599 27.2656 20.0324 24.7355 23.2815 22.6556C23.5648 22.4762 23.676 22.5516 23.615 22.8815L20.8823 37.8251C20.8713 37.8865 20.8737 37.9495 20.8894 38.0098C20.9052 38.0701 20.9338 38.1261 20.9734 38.1738C21.0129 38.2216 21.0624 38.2599 21.1182 38.2861C21.1741 38.3123 21.235 38.3257 21.2966 38.3253L23.061 38.3361C23.3622 38.3396 23.5612 38.198 23.658 37.9111L24.0507 36.7438C24.0629 36.706 24.0853 36.6721 24.1153 36.6459C24.1452 36.6197 24.1817 36.602 24.2209 36.5949C24.26 36.5877 24.3003 36.5912 24.3376 36.6051C24.3749 36.6191 24.4078 36.6428 24.4327 36.6739C25.8851 38.4275 28.0959 38.9547 30.2368 38.293C33.1021 37.4037 34.7465 35.3058 35.1697 31.9993C35.5068 29.3742 34.664 27.5058 32.6414 26.3941C30.6242 25.286 28.8598 25.598 27.0685 26.7976C26.6848 27.0522 26.2813 27.2835 25.8582 27.4915C25.6824 27.5776 25.6178 27.5256 25.6644 27.3355C26.188 25.1802 26.631 23.0178 26.9932 20.8481C27.0578 20.4537 27.3644 20.1309 27.9131 19.8799C28.3183 19.697 28.5316 19.6002 28.5532 19.5894C34.7393 16.3834 41.2428 14.0542 48.0637 12.6018C50.1042 12.1678 52.1609 11.9222 54.2337 11.8648C57.8163 11.768 60.7802 11.811 63.7818 13.145C65.8152 14.0488 67.2281 15.2017 68.0206 16.6039C71.9798 23.5915 60.3607 32.7094 55.4602 35.7863C55.3832 35.8353 55.2938 35.8613 55.2025 35.8612C55.1112 35.8611 55.0218 35.835 54.945 35.7858C54.8681 35.7366 54.8069 35.6664 54.7686 35.5836C54.7302 35.5008 54.7163 35.4087 54.7285 35.3183C54.9939 33.2312 55.3543 31.1261 55.8098 29.0031C55.8383 28.8722 55.9112 28.7552 56.0161 28.6719C56.121 28.5885 56.2514 28.544 56.3854 28.5459L57.9615 28.5566C58.4994 28.5566 58.7989 28.2912 58.8599 27.7605L58.9728 26.7546C59.0374 26.1987 58.7917 25.9315 58.2358 25.953L56.5845 26.0176C56.5338 26.0194 56.4833 26.0093 56.4373 25.988C56.3912 25.9667 56.3508 25.9349 56.3193 25.895C56.2879 25.8552 56.2663 25.8085 56.2563 25.7588C56.2463 25.7091 56.2481 25.6577 56.2617 25.6088L56.8265 23.4463C56.9843 22.8582 56.7584 22.5569 56.1487 22.5426L54.8147 22.5157C54.223 22.5014 53.875 22.7865 53.771 23.371L53.3837 25.5765C53.3443 25.8168 53.2026 25.9477 52.9587 25.9692L51.458 26.109C51.347 26.1194 51.243 26.1674 51.1636 26.2448C51.0842 26.3222 51.0343 26.4244 51.0223 26.534L50.8232 28.1908C50.7945 28.4347 50.9021 28.5584 51.146 28.562ZM39.9787 34.3178C39.5663 33.4894 39.8226 33.077 40.7479 33.0806L48.4348 33.1074C48.5594 33.1087 48.6807 33.068 48.7793 32.9919C48.8779 32.9158 48.9479 32.8087 48.9781 32.6878C50.947 24.861 41.4472 23.6776 38.0582 29.03C36.1486 32.0531 36.3585 36.4372 40.0379 38.0779C42.6737 39.2505 45.6269 38.4974 47.7678 36.6954C48.2161 36.3188 48.2179 35.9423 47.7732 35.5658L47.1708 35.0547C46.7154 34.6674 46.2671 34.6764 45.826 35.0816C45.1661 35.6877 44.1852 36.0337 42.8834 36.1198C42.0156 36.1736 41.2177 35.8186 40.4897 35.0547C40.2889 34.8431 40.1185 34.5975 39.9787 34.3178Z" fill="#B2B2B2"/>
<path d="M152.233 25.6838L152.438 23.4944C152.495 22.9099 152.818 22.6158 153.406 22.6122L154.713 22.6015C155.312 22.5979 155.559 22.8901 155.455 23.4783C155.344 24.0951 155.161 24.7388 154.906 25.4094C154.878 25.4843 154.868 25.565 154.877 25.6446C154.886 25.7242 154.915 25.8004 154.96 25.8668C155.004 25.9332 155.064 25.9879 155.135 26.0263C155.205 26.0646 155.284 26.0855 155.364 26.0872L157.16 26.1195C157.659 26.1266 157.827 26.3651 157.666 26.8349L157.22 28.1206C157.083 28.515 156.809 28.6872 156.397 28.637L154.998 28.4702C154.896 28.4573 154.793 28.4833 154.709 28.5431C154.625 28.6029 154.567 28.6922 154.546 28.793C154.159 30.6506 153.766 32.5854 153.368 34.5972C153.083 36.0496 154.541 36.1948 155.547 35.9958C155.773 35.9492 155.927 36.0334 156.009 36.2486C156.235 36.8511 156.19 37.4087 155.875 37.9216C155.778 38.0794 155.642 38.1816 155.466 38.2282C153.653 38.6962 151.077 38.5079 150.506 36.4476C150.366 35.9312 150.404 35.1369 150.619 34.0646C150.946 32.4257 151.285 30.7564 151.636 29.0565C151.65 28.9915 151.649 28.9242 151.633 28.8596C151.617 28.795 151.587 28.7348 151.544 28.6836C151.502 28.6324 151.448 28.5914 151.388 28.5638C151.327 28.5362 151.261 28.5226 151.195 28.524L149.979 28.5455C149.921 28.547 149.863 28.5366 149.809 28.515C149.755 28.4933 149.705 28.4609 149.664 28.4196C149.623 28.3784 149.59 28.3292 149.569 28.275C149.547 28.2208 149.537 28.1628 149.538 28.1044C149.552 27.5629 149.656 27.0304 149.85 26.5068C149.95 26.2414 150.141 26.1015 150.42 26.0872L151.889 26.0119C152.097 26.0011 152.211 25.8918 152.233 25.6838Z" fill="#B2B2B2"/>
<path d="M76.9344 37.1037C76.1114 37.4587 75.3745 38.0558 74.5999 38.2656C73.1403 38.6493 71.8008 38.5202 70.5815 37.8783C67.1226 36.0493 67.3701 31.3801 69.4088 28.5668C71.7327 25.3554 75.665 24.769 78.7634 27.5447C78.9499 27.7133 79.0844 27.4927 79.1669 26.8831C79.2001 26.6515 79.3146 26.4393 79.4901 26.2845C79.6655 26.1298 79.8903 26.0426 80.1243 26.0385L81.1787 26.0278C81.7381 26.017 81.9729 26.2896 81.8833 26.8454C81.2414 30.7615 80.5743 34.4947 79.8822 38.045C78.5535 44.8229 72.3137 45.6405 67.1496 42.6282C66.73 42.3843 66.6762 42.0741 66.9882 41.6975L67.9672 40.5248C68.2936 40.134 68.6522 40.0999 69.0431 40.4226C70.0365 41.2439 71.1715 41.6778 72.4482 41.7244C75.041 41.8177 76.6314 40.3545 77.2195 37.335C77.2697 37.0732 77.1747 36.9961 76.9344 37.1037ZM72.3165 35.6193C72.7011 35.8662 73.1408 36.0192 73.6103 36.0694C74.0799 36.1196 74.5701 36.0662 75.0531 35.9121C75.5361 35.758 76.0023 35.5062 76.4252 35.1712C76.8481 34.8363 77.2195 34.4246 77.5179 33.9597C77.8163 33.4948 78.036 32.9859 78.1646 32.4619C78.2931 31.9379 78.3279 31.4092 78.267 30.9059C78.2061 30.4026 78.0506 29.9346 77.8094 29.5285C77.5683 29.1225 77.2463 28.7865 76.8616 28.5396C76.477 28.2927 76.0375 28.1397 75.5679 28.0895C75.0984 28.0392 74.608 28.0927 74.125 28.2468C73.642 28.4009 73.1758 28.6527 72.7529 28.9876C72.33 29.3226 71.9588 29.7343 71.6603 30.1992C71.3619 30.664 71.1421 31.173 71.0135 31.697C70.885 32.2209 70.8502 32.7496 70.9111 33.2529C70.972 33.7563 71.1275 34.2243 71.3687 34.6303C71.6098 35.0363 71.9319 35.3724 72.3165 35.6193Z" fill="#B2B2B2"/>
<path d="M90.3818 37.3511C88.4094 38.6099 86.464 38.7892 84.5454 37.8891C83.7923 37.534 83.3476 36.9029 83.2113 35.9956C82.5174 31.3748 87.9019 30.5087 91.4415 30.5679C92.3057 30.5822 92.5281 30.211 92.1085 29.4544L91.9095 29.0994C91.5007 28.3642 90.8785 28.0289 90.0429 28.0934C88.5045 28.2118 87.425 28.4879 86.8046 28.9218C86.3886 29.2123 86.0426 29.1442 85.7665 28.7174L85.3415 28.0665C85.0689 27.6434 85.1478 27.3027 85.5781 27.0445C87.2099 26.0547 89.0316 25.6692 91.0434 25.8879C94.0881 26.2143 95.2787 27.9751 94.6153 31.1704C94.1383 33.4655 93.7546 35.68 93.4641 37.8137C93.4426 37.9751 93.3565 38.0899 93.2059 38.158C92.1515 38.6206 91.3573 38.3875 90.8229 37.4587C90.7117 37.2686 90.5647 37.2328 90.3818 37.3511ZM91.6244 33.1284C91.7212 32.7411 91.5688 32.5421 91.1671 32.5313C89.1338 32.4883 87.529 32.9168 86.3527 33.817C85.6211 34.3764 85.5709 34.9896 86.2021 35.6567L86.568 36.0439C86.7897 36.2801 87.0747 36.4477 87.3893 36.5268C87.7039 36.6059 88.0349 36.5933 88.343 36.4904C90.1289 35.9023 91.2228 34.7816 91.6244 33.1284Z" fill="#B2B2B2"/>
<path d="M101.684 27.5834C102.319 27.1423 102.76 26.4645 103.459 26.1794C105.693 25.2578 107.436 25.8244 108.688 27.8793C108.711 27.9191 108.744 27.9525 108.784 27.9765C108.824 28.0005 108.869 28.0144 108.915 28.017C108.962 28.0197 109.009 28.011 109.051 27.9916C109.094 27.9723 109.132 27.943 109.161 27.9062C110.61 26.0378 112.389 25.4084 114.497 26.018C116.463 26.5882 117.334 27.8793 117.112 29.8911C116.864 32.1647 116.463 34.7486 115.907 37.6426C115.828 38.0371 115.589 38.2343 115.191 38.2343L113.309 38.2451C112.936 38.2487 112.796 38.0693 112.889 37.7071C113.366 35.8244 113.771 33.5275 114.105 30.8163C114.325 29.0466 113.26 27.7824 111.447 28.4011C110.027 28.8852 109.145 29.9592 108.801 31.6232C108.31 34.0152 107.947 35.9786 107.714 37.5135C107.635 38.0156 107.343 38.263 106.837 38.2558L105.369 38.2397C104.87 38.2325 104.67 37.9851 104.766 37.4973C105.222 35.1592 105.613 32.9286 105.939 30.8056C106.144 29.493 105.776 28.6826 104.836 28.3742C102.803 27.7125 101.146 29.8104 100.813 31.6286C100.451 33.5866 100.094 35.6146 99.7422 37.7125C99.7185 37.8547 99.6457 37.9841 99.5367 38.0783C99.4277 38.1726 99.2892 38.2259 99.1451 38.2289L97.3645 38.2612C96.9342 38.2684 96.7567 38.0604 96.832 37.6372L98.8223 26.5075C98.8546 26.3139 98.9658 26.192 99.1559 26.1418C99.7978 25.9768 100.442 25.966 101.087 26.1095C101.281 26.1525 101.379 26.2744 101.383 26.4753L101.388 27.4328C101.388 27.6695 101.487 27.7197 101.684 27.5834Z" fill="#B2B2B2"/>
<path d="M122.41 33.0796C122.335 33.0803 122.261 33.0993 122.195 33.1351C122.129 33.1709 122.072 33.2222 122.03 33.2848C121.989 33.3473 121.962 33.4191 121.955 33.494C121.947 33.5688 121.957 33.6445 121.985 33.7143C123.131 36.5169 126.213 36.9687 128.403 35.0484C128.539 34.9273 128.714 34.8595 128.896 34.8575C129.078 34.8556 129.254 34.9195 129.393 35.0376L130.054 35.597C130.467 35.9449 130.467 36.2928 130.054 36.6406C127.992 38.3692 125.715 38.9357 123.223 38.3404C118.806 37.2861 118.322 32.1704 120.667 28.8891C122.435 26.4218 124.768 25.4159 127.666 25.8714C129.294 26.1296 130.433 27.0028 131.082 28.491C131.544 29.5669 131.491 30.8472 131.442 32.036C131.417 32.7245 131.058 33.0706 130.366 33.0742L122.41 33.0796ZM125.224 28.0338C125.058 28.0206 124.894 28.0727 124.767 28.179L122.593 29.9865C122.491 30.0705 122.418 30.1842 122.384 30.3118C122.35 30.4394 122.356 30.5744 122.402 30.6981C122.449 30.8219 122.532 30.9281 122.642 31.0021C122.751 31.076 122.881 31.114 123.013 31.1107L128.328 31.0139C128.434 31.0113 128.538 30.9819 128.63 30.9285C128.722 30.8751 128.8 30.7994 128.855 30.7083C128.91 30.6172 128.941 30.5137 128.946 30.4073C128.951 30.3009 128.929 30.195 128.882 30.0994L128.123 28.5771C128.074 28.4803 128 28.3978 127.91 28.3376C127.819 28.2773 127.715 28.2412 127.607 28.2329L125.224 28.0338Z" fill="#B2B2B2"/>
<path d="M139.42 34.3335C137.968 32.7412 134.799 32.908 134.003 30.7455C133.379 29.0349 134.73 27.163 136.3 26.4475C138.638 25.386 140.889 25.6084 143.051 27.1145C143.672 27.5449 143.646 27.9376 142.976 28.2926L142.164 28.7229C141.604 29.017 141.088 28.9579 140.614 28.5454C139.824 27.8677 136.897 27.7224 136.714 29.4492C136.694 29.6357 136.734 29.8239 136.829 29.9857C136.924 30.1476 137.069 30.2745 137.242 30.3475C139.635 31.3642 143.126 31.8268 142.131 35.49C141.389 38.2281 138.984 38.7284 136.494 38.6315C135.02 38.5742 133.689 38.0272 132.502 36.9908C132.083 36.6286 132.094 36.2808 132.535 35.9473C132.822 35.7321 133.085 35.5331 133.326 35.3502C133.767 35.0167 134.215 35.0077 134.67 35.3233C136.908 36.8582 138.513 36.7022 139.485 34.8553C139.529 34.7722 139.546 34.6776 139.535 34.5842C139.523 34.4908 139.483 34.4033 139.42 34.3335Z" fill="#B2B2B2"/>
<path d="M162.609 34.4193C162.853 34.4588 163.036 34.3745 163.158 34.1665C164.585 31.7351 165.993 29.2553 167.38 26.727C167.631 26.2752 168.015 26.0456 168.532 26.0385L170.221 26.017C170.751 26.0098 170.877 26.2303 170.597 26.6786C168.496 30.0353 166.401 33.5372 164.314 37.1843C163.48 38.6528 162.189 38.2817 160.791 38.2279C160.666 38.2234 160.546 38.1757 160.451 38.0926C160.356 38.0094 160.292 37.8958 160.269 37.7706L158.279 26.7055C158.207 26.3074 158.374 26.1012 158.779 26.0869L160.49 26.0385C160.666 26.0324 160.839 26.0913 160.975 26.2042C161.112 26.3171 161.203 26.4762 161.232 26.6517L162.469 34.2849C162.475 34.3191 162.492 34.3504 162.517 34.3745C162.543 34.3986 162.575 34.4143 162.609 34.4193Z" fill="#B2B2B2"/>
<path d="M40.5167 29.6635L43.2656 27.8722C43.378 27.7989 43.5089 27.7589 43.6431 27.757C43.7774 27.7551 43.9095 27.7913 44.024 27.8614L46.1703 29.1793C46.279 29.2458 46.3678 29.3403 46.4274 29.4529C46.4871 29.5656 46.5153 29.6922 46.5091 29.8195L46.4823 30.3144C46.4727 30.4961 46.3936 30.6671 46.2614 30.7923C46.1293 30.9174 45.9542 30.987 45.7722 30.9868L40.8986 30.9653C40.747 30.963 40.6 30.9123 40.4793 30.8205C40.3586 30.7287 40.2705 30.6007 40.2278 30.4551C40.1851 30.3096 40.1901 30.1543 40.2421 30.0118C40.2941 29.8693 40.3903 29.7473 40.5167 29.6635Z" fill="#B2B2B2"/>
<path d="M25.7029 30.197C24.3994 32.0587 24.6092 34.4547 26.1715 35.5487C27.7339 36.6427 30.0572 36.0203 31.3608 34.1586C32.6644 32.2969 32.4546 29.9009 30.8922 28.8069C29.3298 27.7129 27.0065 28.3353 25.7029 30.197Z" fill="#B2B2B2"/>
<path d="M146.409 38.1211C147.378 37.7136 147.853 36.6416 147.468 35.7269C147.084 34.8122 145.986 34.401 145.016 34.8085C144.047 35.2161 143.573 36.288 143.957 37.2028C144.342 38.1175 145.439 38.5287 146.409 38.1211Z" fill="#B2B2B2"/>
</svg>
