<svg width="184" height="63" viewBox="0 0 184 63" fill="none" xmlns="http://www.w3.org/2000/svg">
<path d="M55.005 19.0457C54.9763 19.5442 55.1287 19.607 55.4622 19.234C56.7747 17.778 58.3778 17.0985 60.2713 17.1953C63.7947 17.3782 66.1077 20.2292 66.6242 23.6074C67.2804 27.9269 66.7533 33.6127 61.4977 34.8016C59.4357 35.2678 57.4023 35.1494 55.3977 34.4465C51.3525 33.0318 50.5886 30.3045 50.6263 26.4261C50.6729 21.4054 50.6729 16.9855 50.6263 13.1662C50.6191 12.7287 50.8325 12.4849 51.2664 12.4346C56.2691 11.8268 55.1986 16.0549 55.005 19.0457ZM62.3322 24.4535C62.3353 23.579 61.9908 22.739 61.3746 22.1185C60.7583 21.4979 59.9208 21.1476 59.0463 21.1445L58.5622 21.1428C58.1291 21.1413 57.7 21.2251 57.2994 21.3894C56.8987 21.5538 56.5344 21.7954 56.2271 22.1005C55.9199 22.4056 55.6757 22.7683 55.5086 23.1678C55.3415 23.5673 55.2547 23.9958 55.2532 24.4288L55.241 27.936C55.2379 28.8106 55.5824 29.6505 56.1986 30.2711C56.8148 30.8916 57.6523 31.2419 58.5269 31.245L59.011 31.2467C59.444 31.2482 59.8731 31.1644 60.2738 31.0001C60.6744 30.8358 61.0388 30.5942 61.3461 30.289C61.6533 29.9839 61.8975 29.6212 62.0646 29.2217C62.2317 28.8223 62.3185 28.3938 62.32 27.9607L62.3322 24.4535Z" fill="#B2B2B2"/>
<path d="M68.3682 34.7539C68.2971 34.7539 68.2267 34.7396 68.1613 34.7118C68.0959 34.684 68.0368 34.6432 67.9876 34.5919C67.9383 34.5407 67.9 34.48 67.8748 34.4135C67.8496 34.3471 67.8381 34.2762 67.841 34.2052C67.9701 31.0207 68.0257 28.0979 68.0078 25.437C67.9755 20.983 67.9307 16.9862 67.8733 13.4467C67.8589 12.6075 68.2642 12.2596 69.089 12.4031C69.7166 12.5107 70.3459 12.6183 70.9771 12.7258C71.8055 12.8693 72.2663 13.3588 72.3596 14.1944C72.4743 15.2451 72.4976 16.2833 72.4295 17.309C72.2287 20.203 72.2448 25.8494 72.4779 34.2482C72.4887 34.5961 72.3201 34.7682 71.9723 34.7646L68.3682 34.7539Z" fill="#B2B2B2"/>
<path d="M138.024 16.0998L134.872 16.1321C134.759 16.1328 134.647 16.111 134.542 16.068C134.437 16.025 134.342 15.9616 134.262 15.8816C134.182 15.8015 134.118 15.7063 134.075 15.6016C134.032 15.4969 134.011 15.3846 134.011 15.2714L134.028 13.2488C134.029 13.1282 134.056 13.0092 134.106 12.8997C134.157 12.7902 134.23 12.6926 134.321 12.6133C134.412 12.5341 134.518 12.475 134.634 12.4398C134.749 12.4047 134.871 12.3944 134.99 12.4096L137.4 12.7162C137.548 12.7351 137.688 12.7921 137.807 12.8817C137.926 12.9714 138.019 13.0905 138.078 13.2273L138.799 14.911C138.854 15.04 138.876 15.1805 138.863 15.3201C138.851 15.4597 138.805 15.5941 138.728 15.7115C138.651 15.8289 138.547 15.9257 138.425 15.9934C138.302 16.0611 138.164 16.0977 138.024 16.0998Z" fill="#B2B2B2"/>
<path d="M160.993 31.1613C161.621 31.3586 162.139 31.4285 162.548 31.3711C162.96 31.3174 163.167 31.4967 163.167 31.9091L163.188 34.249C163.188 34.3255 163.173 34.4013 163.143 34.4718C163.114 34.5424 163.07 34.6063 163.016 34.6599C162.961 34.7135 162.896 34.7557 162.825 34.7839C162.754 34.8122 162.678 34.826 162.602 34.8246C161.361 34.8067 160.127 34.7798 158.901 34.7439C157.714 34.7081 156.873 34.2132 156.378 33.2593C156.127 32.7787 156.009 31.8893 156.023 30.5912C156.07 25.0792 156.057 19.4669 155.985 13.7541C155.971 12.6675 156.5 12.2246 157.572 12.4254C158.085 12.5187 158.514 12.5976 158.858 12.6621C159.927 12.8629 160.493 13.5049 160.558 14.5879C160.626 15.7068 160.617 16.519 160.531 17.0247C160.517 17.1101 160.522 17.1977 160.547 17.2807C160.572 17.3637 160.615 17.4399 160.673 17.5037C160.732 17.5675 160.804 17.6171 160.885 17.6487C160.966 17.6804 161.052 17.6932 161.139 17.6863L162.72 17.5572C162.939 17.5393 163.073 17.6379 163.124 17.8531C163.403 19.0437 163.061 19.8936 162.096 20.4029C161.682 20.6234 161.257 20.5696 160.859 20.7202C160.775 20.7519 160.703 20.8079 160.652 20.881C160.601 20.954 160.574 21.0405 160.574 21.1291L160.611 30.645C160.611 30.9103 160.739 31.0825 160.993 31.1613Z" fill="#B2B2B2"/>
<path d="M27.6685 42.8655C27.5358 42.3455 27.3009 42.2953 26.9638 42.7149L23.3059 47.3195C22.5708 48.2447 22.3108 48.1264 22.5259 46.9645L23.8761 39.6003C23.8815 39.5655 23.8773 39.5299 23.8639 39.4974C23.8506 39.4649 23.8286 39.4366 23.8004 39.4156C23.7722 39.3945 23.7388 39.3816 23.7038 39.3782C23.6689 39.3747 23.6336 39.3808 23.6018 39.3959L16.2107 43.0645C15.6297 43.355 15.5437 43.2474 15.9525 42.7418L20.697 36.873C21.0735 36.4032 20.9642 36.2149 20.3689 36.3082L13.3113 37.384C12.5618 37.4952 12.5008 37.3392 13.1284 36.916C14.6453 35.8832 16.3129 34.958 18.1311 34.1404C18.4216 34.0112 18.5847 33.8104 18.6206 33.5378C18.63 33.4616 18.6119 33.3845 18.5695 33.3204C18.5271 33.2563 18.4632 33.2094 18.3893 33.1882C16.2519 32.5606 14.1361 31.9133 12.0418 31.2463C11.9999 31.2324 11.9615 31.2096 11.9294 31.1795C11.8972 31.1494 11.872 31.1128 11.8556 31.0723C11.8391 31.0318 11.8319 30.9883 11.8343 30.9449C11.8368 30.9015 11.8488 30.8593 11.8697 30.8213C11.8948 30.7783 11.9898 30.7424 12.1548 30.7137C14.6615 30.2332 17.1288 29.767 19.5566 29.3151C19.6235 29.303 19.6856 29.2723 19.7357 29.2264C19.7859 29.1806 19.8223 29.1214 19.8407 29.0555C19.8591 28.9896 19.8589 28.9196 19.8401 28.8533C19.8213 28.7871 19.7846 28.7272 19.7341 28.6804L14.4463 23.8445C13.8725 23.3209 13.964 23.1452 14.7207 23.3173L20.4657 24.6406C20.508 24.6507 20.5523 24.6488 20.5936 24.6349C20.6348 24.6209 20.6713 24.5957 20.6988 24.562C20.7264 24.5283 20.7438 24.4875 20.7492 24.4443C20.7546 24.4011 20.7477 24.3573 20.7293 24.3178L17.7599 17.938C17.3941 17.1491 17.5555 17.0164 18.2441 17.54L24.2527 22.0801C24.7081 22.4243 24.9018 22.3132 24.8336 21.7465L24.0052 14.9149C24.0015 14.8799 24.0049 14.8445 24.0153 14.811C24.0257 14.7775 24.0428 14.7465 24.0656 14.7202C24.0884 14.6939 24.1163 14.6727 24.1476 14.6581C24.1789 14.6434 24.2129 14.6356 24.2473 14.6352C24.4015 14.6316 24.5503 14.7374 24.6938 14.9526C25.8951 16.7277 27.0589 18.5477 28.1849 20.4125C28.2271 20.4817 28.2869 20.5385 28.3582 20.577C28.4295 20.6155 28.5098 20.6343 28.5908 20.6316C28.6718 20.6289 28.7507 20.6046 28.8192 20.5614C28.8878 20.5182 28.9436 20.4575 28.981 20.3856C30.0497 18.363 31.1471 16.3171 32.2731 14.2479C32.4381 13.943 32.63 13.6795 32.8487 13.4571C32.8766 13.4301 32.9116 13.4113 32.9497 13.403C32.9877 13.3947 33.0271 13.3972 33.0633 13.4102C33.0994 13.4232 33.1309 13.4462 33.1539 13.4764C33.1768 13.5066 33.1904 13.5429 33.193 13.5808C33.358 15.6537 33.41 17.5436 33.349 19.2506C33.3131 20.2045 33.6359 20.3462 34.3172 19.6755L37.4211 16.5986C38.2925 15.7343 38.5382 15.885 38.158 17.0505C37.5878 18.8113 37.0194 20.8375 36.4528 23.129C36.4424 23.1733 36.4447 23.2197 36.4594 23.2628C36.4742 23.3059 36.5008 23.3439 36.5361 23.3726C36.5715 23.4012 36.6143 23.4193 36.6595 23.4247C36.7047 23.4302 36.7505 23.4228 36.7917 23.4034L43.7632 20.1382C44.7243 19.6899 44.8731 19.8799 44.2097 20.7084L39.6588 26.4211C39.6228 26.4653 39.5998 26.5187 39.5924 26.5752C39.585 26.6317 39.5935 26.6892 39.6169 26.7412C39.6404 26.7932 39.6779 26.8376 39.7252 26.8694C39.7725 26.9012 39.8278 26.9192 39.8848 26.9214L47.1737 27.2549C47.9339 27.2908 47.9913 27.5095 47.3458 27.9112L40.498 32.1715C40.461 32.1943 40.431 32.2269 40.4113 32.2657C40.3916 32.3044 40.3829 32.3478 40.3862 32.3912C40.3896 32.4345 40.4048 32.4761 40.4302 32.5114C40.4556 32.5466 40.4902 32.5742 40.5303 32.5911C42.6067 33.5164 44.4625 34.2748 46.0978 34.8665C47.5072 35.3722 47.4623 35.625 45.9633 35.625H40.1753C40.1225 35.6244 40.0705 35.637 40.0239 35.6615C39.9772 35.686 39.9374 35.7218 39.9081 35.7656C39.8787 35.8094 39.8607 35.8597 39.8557 35.9122C39.8507 35.9647 39.8588 36.0176 39.8794 36.0661L42.9509 43.4733C42.9701 43.5194 42.9739 43.5704 42.9617 43.6188C42.9495 43.6672 42.922 43.7103 42.8833 43.7417C42.8445 43.7732 42.7967 43.7913 42.7468 43.7933C42.697 43.7954 42.6478 43.7813 42.6067 43.7531C40.4442 42.272 38.3391 40.8339 36.2914 39.4389C36.2161 39.3887 36.1265 39.3708 36.0225 39.3851C35.9615 39.3944 35.9066 39.4272 35.8694 39.4764C35.8322 39.5257 35.8157 39.5875 35.8234 39.6487L36.6949 47.4271C36.8204 48.5459 36.5407 48.6571 35.8557 47.7606L31.9127 42.5804C31.8715 42.5252 31.8158 42.4828 31.7516 42.4579C31.6874 42.4331 31.6174 42.4267 31.5494 42.4395C31.4813 42.4523 31.4179 42.4839 31.3662 42.5306C31.3145 42.5773 31.2765 42.6374 31.2565 42.7041L29.8148 47.5723C29.7903 47.6527 29.7403 47.7229 29.6724 47.7724C29.6045 47.8219 29.5223 47.848 29.4383 47.8467C29.1837 47.8467 29.0133 47.7014 28.9272 47.4109C28.4431 45.7792 28.0235 44.2641 27.6685 42.8655Z" fill="#B2B2B2"/>
<path d="M93.9726 27.7443C94.1502 30.1434 96.119 31.8971 98.5665 31.1817C99.6477 30.8589 100.299 29.7185 101.364 29.5356C102.508 29.3419 103.636 29.315 104.747 29.4549C104.778 29.4585 104.807 29.4686 104.834 29.4846C104.86 29.5006 104.883 29.5221 104.9 29.5476C104.917 29.5731 104.929 29.602 104.934 29.6325C104.94 29.6629 104.938 29.694 104.93 29.7239C103.65 34.4899 98.4051 36.0983 94.134 34.506C89.7553 32.8707 89.0937 27.868 89.637 23.882C90.261 19.3365 93.3971 16.8513 98.1362 17.244C103.693 17.7066 105.118 21.6335 105.334 26.4371C105.339 26.557 105.321 26.6768 105.279 26.7892C105.237 26.9017 105.172 27.0043 105.089 27.0909C105.006 27.1775 104.906 27.2463 104.796 27.2929C104.685 27.3396 104.566 27.3632 104.446 27.3624L94.3438 27.3462C94.0784 27.3462 93.9547 27.4789 93.9726 27.7443ZM94.1394 24.393L100.551 24.3715C100.584 24.3715 100.616 24.3585 100.639 24.3353C100.662 24.3121 100.675 24.2806 100.675 24.2478V24.1725C100.672 23.3065 100.327 22.4771 99.7144 21.8668C99.102 21.2565 98.2731 20.9152 97.41 20.918H97.2594C96.832 20.9194 96.4091 21.0053 96.0147 21.1707C95.6204 21.3361 95.2625 21.5778 94.9613 21.882C94.66 22.1862 94.4215 22.5469 94.2593 22.9436C94.097 23.3403 94.0143 23.7652 94.0157 24.194V24.2693C94.0157 24.3021 94.0287 24.3336 94.0519 24.3568C94.0751 24.38 94.1066 24.393 94.1394 24.393Z" fill="#B2B2B2"/>
<path d="M110.289 33.3613C110.443 34.7384 110.475 36.6713 110.385 39.1601C110.353 40.1032 109.874 40.6645 108.949 40.8438C108.131 41.0052 107.592 41.111 107.33 41.1612C106.455 41.3333 106.016 40.9729 106.012 40.08C105.969 31.0464 106.055 25.2296 106.27 22.6297C106.62 18.4554 112.091 16.8846 115.56 17.2988C119.677 17.7866 121.888 20.3435 122.193 24.9696C122.467 29.1386 121.095 34.1574 116.276 35.045C114.174 35.4287 112.361 34.785 110.837 33.1138C110.396 32.6297 110.213 32.7122 110.289 33.3613ZM114.137 31.3546C115.144 31.3458 116.106 30.7865 116.809 29.7998C117.513 28.8131 117.901 27.4797 117.889 26.093C117.877 24.7064 117.465 23.38 116.745 22.4057C116.024 21.4314 115.053 20.889 114.046 20.8978C113.039 20.9066 112.078 21.4658 111.374 22.4526C110.67 23.4393 110.282 24.7726 110.294 26.1593C110.306 27.546 110.718 28.8723 111.439 29.8466C112.159 30.8209 113.13 31.3634 114.137 31.3546Z" fill="#B2B2B2"/>
<path d="M150.342 23.4678C150.385 19.9444 144.295 19.6701 144.328 23.8766C144.356 27.4628 144.394 30.9288 144.441 34.2747C144.448 34.6046 144.287 34.7696 143.957 34.7696L140.32 34.7642C140.005 34.7642 139.849 34.6064 139.852 34.2908C139.906 30.5863 139.929 26.7993 139.922 22.9299C139.919 22.227 140.141 21.438 140.589 20.563C142.192 17.4269 146.808 16.819 149.933 17.5721C153.542 18.4436 154.823 20.832 154.807 24.35C154.792 27.7246 154.833 30.832 154.93 33.6722C154.966 34.6333 154.511 35.026 153.564 34.8503C153.008 34.7463 152.454 34.6441 151.902 34.5437C150.89 34.3536 150.376 33.7458 150.358 32.7201C150.311 29.575 150.306 26.4909 150.342 23.4678Z" fill="#B2B2B2"/>
<path d="M78.0728 28.8432C78.1804 32.458 84.0922 32.3989 84.0975 28.6334C84.1083 25.5995 84.1191 22.5351 84.1298 19.4403C84.1298 18.4828 84.6014 17.9197 85.5445 17.7512C86.0861 17.6579 86.6652 17.5575 87.2821 17.4499C88.2252 17.285 88.6771 17.6795 88.6376 18.6334C88.53 21.5095 88.4906 24.3587 88.5193 27.181C88.5623 31.011 87.9383 33.5124 84.0599 34.6044C80.7427 35.5368 77.8845 35.067 75.4854 33.195C74.3055 32.2769 73.7102 30.9232 73.6995 29.1337C73.6779 25.8308 73.6708 22.1263 73.6779 18.0201C73.6779 17.701 73.8375 17.5414 74.1567 17.5414L77.6586 17.5575C77.7177 17.5575 77.7762 17.5692 77.8307 17.592C77.8852 17.6148 77.9347 17.6482 77.9762 17.6902C78.0177 17.7322 78.0505 17.7821 78.0726 17.8369C78.0948 17.8917 78.1058 17.9503 78.1051 18.0094C78.0333 23.6325 78.0226 27.2438 78.0728 28.8432Z" fill="#B2B2B2"/>
<path d="M123.123 25.5061C123.156 20.2936 127.195 17.4426 132.069 17.5448C132.485 17.5519 132.697 17.7635 132.704 18.1795L132.763 21.7191C132.764 21.7852 132.751 21.8508 132.726 21.9122C132.702 21.9735 132.665 22.0293 132.618 22.0763C132.572 22.1233 132.516 22.1606 132.455 22.1861C132.394 22.2116 132.329 22.2247 132.263 22.2247C129.896 22.2301 127.938 22.2893 127.599 25.1564C127.434 26.5622 127.446 29.5835 127.636 34.2204C127.651 34.5755 127.48 34.7548 127.125 34.7584L123.511 34.7799C123.439 34.7807 123.368 34.7669 123.301 34.7394C123.235 34.712 123.175 34.6714 123.125 34.6202C123.074 34.5689 123.035 34.5081 123.009 34.4412C122.983 34.3744 122.971 34.3029 122.973 34.2312C123.055 31.3372 123.105 28.4288 123.123 25.5061Z" fill="#B2B2B2"/>
<path d="M133.963 18.0356C133.963 17.9723 133.975 17.9095 133.998 17.8508C134.022 17.7921 134.057 17.7386 134.102 17.6936C134.146 17.6486 134.199 17.6128 134.258 17.5885C134.316 17.5641 134.379 17.5515 134.442 17.5515L137.105 17.5354C137.507 17.5328 137.894 17.7076 138.18 18.0213C138.467 18.335 138.629 18.762 138.633 19.2083L138.729 33.0975C138.731 33.3188 138.693 33.5381 138.618 33.743C138.544 33.9479 138.433 34.1343 138.293 34.2917C138.153 34.449 137.987 34.5743 137.803 34.6601C137.62 34.7459 137.422 34.7907 137.223 34.792L134.56 34.8081C134.434 34.8081 134.313 34.7584 134.224 34.6698C134.134 34.5812 134.083 34.4608 134.082 34.3348L133.963 18.0356Z" fill="#B2B2B2"/>
<path d="M164.678 36.9496L164.21 37.2509C164.17 37.2771 164.123 37.2934 164.075 37.2984C164.027 37.3034 163.979 37.297 163.934 37.2797C163.889 37.2624 163.848 37.2347 163.816 37.1989C163.784 37.163 163.76 37.12 163.747 37.0733C163.694 36.8904 163.708 36.7183 163.791 36.5569C163.835 36.4731 163.911 36.4103 164.002 36.3821C164.092 36.3539 164.19 36.3626 164.275 36.4063C164.744 36.6538 165.229 36.7524 165.727 36.7022C165.935 36.6806 166.089 36.7631 166.19 36.9496C166.333 37.2186 166.328 37.4732 166.174 37.7135C166.077 37.8641 165.966 37.8748 165.84 37.7457L165.151 37.0034C165.008 36.8528 164.85 36.8349 164.678 36.9496Z" fill="#B2B2B2"/>
<path d="M167.314 38.3727C167.64 37.9818 167.812 37.4457 167.83 36.7643C167.83 36.646 167.889 36.5832 168.008 36.576C168.072 36.5689 168.13 36.585 168.18 36.6245C168.219 36.6567 168.244 36.7033 168.255 36.7643C168.433 37.6734 167.803 39.4593 166.641 39.3356C166.451 39.3141 166.365 39.2083 166.383 39.0182L166.399 38.8031C166.41 38.6919 166.467 38.6471 166.571 38.6686C166.855 38.726 167.102 38.6273 167.314 38.3727Z" fill="#B2B2B2"/>
<path d="M164.08 38.917C164.191 39.1927 164.46 39.3439 164.68 39.2548C164.901 39.1657 164.99 38.87 164.878 38.5943C164.767 38.3187 164.498 38.1674 164.277 38.2565C164.057 38.3456 163.968 38.6413 164.08 38.917Z" fill="#B2B2B2"/>
<path d="M119.638 45.3359C119.536 45.2835 119.419 45.2665 119.304 45.2874C118.178 45.4918 117.273 45.5474 116.588 45.4542C116.515 45.4445 116.445 45.4201 116.382 45.3825C116.319 45.3449 116.265 45.2948 116.222 45.2354C116.179 45.176 116.149 45.1084 116.133 45.0369C116.118 44.9654 116.116 44.8914 116.13 44.8194C116.148 44.7262 116.161 44.6329 116.168 44.5397C116.193 44.1201 116.414 43.9085 116.83 43.905L121.3 43.8781C122.247 43.8709 122.567 44.3174 122.263 45.2175C122.04 45.8702 121.739 46.5175 121.359 47.1594C121.065 47.6508 120.665 48.0711 120.189 48.39C119.713 48.709 119.172 48.9188 118.605 49.0045C111.278 50.1341 110.138 40.2632 116.652 39.2573C118.682 38.9417 120.373 39.6643 121.725 41.4251C122.026 41.8196 121.94 42.0868 121.467 42.2266C120.595 42.4795 119.476 41.7963 118.659 41.4036C116.937 40.5752 115.297 41.3606 114.64 43.0981C113.451 46.218 117.152 48.5795 119.675 46.4063C120.177 45.9724 120.165 45.6156 119.638 45.3359Z" fill="#B2B2B2"/>
<path d="M124.204 47.385C124.003 47.7365 123.869 48.1077 123.801 48.4985C123.75 48.8141 123.564 48.9791 123.241 48.9934L122.058 49.0418C121.742 49.0562 121.647 48.9199 121.773 48.633C122.931 45.9219 124.005 43.1354 124.995 40.2737C125.346 39.2516 125.929 38.9432 126.743 39.3484C126.982 39.4696 127.166 39.675 127.26 39.924L130.342 48.0574C130.532 48.5667 130.367 48.8948 129.847 49.0418C129.757 49.0669 129.702 49.0813 129.68 49.0849C129.178 49.2283 128.828 49.058 128.631 48.5738C128.455 48.1363 128.185 47.697 127.819 47.2559C127.679 47.0909 127.502 47.0085 127.286 47.0085L124.844 47.0193C124.715 47.0192 124.588 47.0529 124.476 47.1171C124.363 47.1812 124.27 47.2736 124.204 47.385ZM125.511 45.2226L126.775 45.2656C127.12 45.2764 127.252 45.1132 127.173 44.7761C127.017 44.1091 126.915 42.7965 126.081 42.6298C125.902 42.5903 125.777 42.6567 125.705 42.8288C125.493 43.3309 125.292 43.9459 125.102 44.6739C125.009 45.0289 125.145 45.2118 125.511 45.2226Z" fill="#B2B2B2"/>
<path d="M139.213 42.9204C138.158 44.5126 137.809 46.6374 137.142 48.4664C137.077 48.6429 136.96 48.7961 136.807 48.9061C136.655 49.0162 136.473 49.0782 136.285 49.084C136.098 49.0898 135.913 49.0391 135.755 48.9386C135.597 48.8381 135.473 48.6924 135.399 48.5202C134.628 46.7307 134.015 44.9035 133.559 43.0387C133.539 42.9546 133.492 42.8798 133.424 42.8269C133.357 42.774 133.273 42.7463 133.188 42.7483H133.037C133.019 42.749 133.002 42.7532 132.985 42.7607C132.969 42.7682 132.954 42.7788 132.942 42.7919C132.93 42.8049 132.921 42.8202 132.915 42.8368C132.909 42.8533 132.907 42.8707 132.908 42.8881L133.21 48.3534C133.238 48.8483 133.005 49.0796 132.51 49.0474L132.026 49.0205C131.553 48.9882 131.314 48.7354 131.311 48.262L131.257 39.7789C131.257 39.6776 131.292 39.5795 131.357 39.5018C131.422 39.424 131.512 39.3717 131.612 39.354C132.275 39.2392 132.901 39.2482 133.489 39.3809C133.669 39.4203 133.791 39.5261 133.855 39.6982C134.389 41.1112 134.913 42.5188 135.426 43.9209C135.508 44.1397 135.559 44.4194 135.576 44.7601C135.594 45.1582 135.679 45.4433 135.829 45.6154C136.195 46.0314 136.462 45.974 136.631 45.4433C137.169 43.7291 137.705 42.0561 138.239 40.4244C138.573 39.4096 139.387 39.0473 140.681 39.3378C140.889 39.3809 140.997 39.5082 141.004 39.7198C141.13 42.8003 141.151 45.7033 141.069 48.4288C141.054 48.9201 140.801 49.137 140.31 49.0796L139.987 49.0474C139.543 48.9936 139.326 48.7426 139.337 48.2943L139.46 43.0011C139.471 42.6855 139.389 42.6586 139.213 42.9204Z" fill="#B2B2B2"/>
<path d="M143.43 39.2246H142.86C142.554 39.2246 142.306 39.4727 142.306 39.7787V48.4823C142.306 48.7883 142.554 49.0364 142.86 49.0364H143.43C143.736 49.0364 143.984 48.7883 143.984 48.4823V39.7787C143.984 39.4727 143.736 39.2246 143.43 39.2246Z" fill="#B2B2B2"/>
<path d="M146.916 43.1293C146.878 43.1274 146.84 43.1338 146.804 43.1482C146.769 43.1625 146.737 43.1844 146.711 43.2122C146.686 43.24 146.666 43.273 146.655 43.3089C146.644 43.3448 146.641 43.3827 146.647 43.4198C146.887 45.2559 146.973 46.936 146.905 48.4601C146.891 48.8188 146.704 48.9998 146.346 49.0034L145.566 49.0142C145.496 49.0149 145.427 49.0018 145.362 48.9756C145.298 48.9494 145.239 48.9107 145.19 48.8617C145.14 48.8127 145.101 48.7543 145.074 48.69C145.047 48.6257 145.033 48.5567 145.033 48.487L145.017 39.891C145.017 39.5001 145.213 39.2831 145.604 39.2401C146.321 39.1612 146.852 39.3835 147.196 39.9071C148.107 41.3057 149.068 42.8352 150.079 44.4956C150.201 44.7036 150.368 44.8578 150.579 44.9582C150.617 44.9757 150.658 44.9833 150.699 44.9803C150.74 44.9773 150.78 44.9639 150.814 44.9412C150.849 44.9186 150.877 44.8875 150.896 44.851C150.915 44.8144 150.925 44.7736 150.924 44.7323L150.692 40.0631C150.667 39.5324 150.92 39.2634 151.451 39.2562L151.989 39.2455C152.523 39.2383 152.77 39.5019 152.731 40.0362C152.516 42.9482 152.521 45.7185 152.747 48.3472C152.759 48.4912 152.72 48.6348 152.638 48.7535C152.555 48.8722 152.434 48.9587 152.295 48.9981C151.472 49.2348 150.827 48.8797 150.353 48.1535C149.382 46.6724 148.464 45.1644 147.599 43.6296C147.416 43.3068 147.189 43.1401 146.916 43.1293Z" fill="#B2B2B2"/>
<path d="M160.783 45.5171C160.618 45.3808 160.387 45.3342 160.089 45.3772C159.178 45.5171 158.353 45.5494 157.615 45.474C157.17 45.431 156.96 45.1872 156.985 44.7425L156.996 44.4897C157.004 44.3298 157.074 44.1793 157.19 44.0691C157.306 43.959 157.46 43.8977 157.62 43.8979L162.741 43.8925C163.071 43.8925 163.223 44.0557 163.198 44.3821C163.127 45.3324 162.888 46.1608 162.483 46.8673C160.729 49.9227 155.678 49.8904 153.973 46.8619C152.198 43.715 153.806 39.8151 157.464 39.218C159.626 38.8684 161.622 39.8635 162.746 41.7408C162.879 41.9596 162.818 42.0941 162.563 42.1443C160.724 42.4939 160.024 41.4343 158.728 41.1007C156.216 40.4499 154.618 43.4031 155.56 45.5386C156.517 47.7172 159.449 47.8409 160.837 45.9797C160.889 45.9103 160.912 45.8237 160.902 45.7377C160.892 45.6517 160.849 45.5727 160.783 45.5171Z" fill="#B2B2B2"/>
</svg>
