<svg width="184" height="63" viewBox="0 0 184 63" fill="none" xmlns="http://www.w3.org/2000/svg">
<path d="M143.645 7.03486L120.201 6.99394C119.947 6.9935 119.74 7.19905 119.74 7.45304L119.74 7.49582C119.739 7.74982 119.945 7.95609 120.199 7.95653L143.643 7.99745C143.897 7.99789 144.104 7.79235 144.104 7.53835L144.104 7.49557C144.105 7.24157 143.899 7.03531 143.645 7.03486Z" fill="#B2B2B2"/>
<path d="M143.452 10.6347H120.446C120.053 10.6347 119.735 10.9531 119.735 11.3459V11.7951C119.735 12.1879 120.053 12.5063 120.446 12.5063H143.452C143.845 12.5063 144.163 12.1879 144.163 11.7951V11.3459C144.163 10.9531 143.845 10.6347 143.452 10.6347Z" fill="#B2B2B2"/>
<path d="M142.249 15.0819L121.628 15.1179C120.58 15.1197 119.731 15.9712 119.733 17.0196L119.734 17.5651C119.736 18.6136 120.588 19.462 121.636 19.4602L142.257 19.4242C143.305 19.4224 144.154 18.571 144.152 17.5225L144.151 16.977C144.149 15.9285 143.298 15.0801 142.249 15.0819Z" fill="#B2B2B2"/>
<path d="M144.164 43.5072C144.165 43.8232 144.103 44.1363 143.983 44.4285C143.862 44.7206 143.685 44.9862 143.462 45.2101C143.239 45.4339 142.974 45.6117 142.682 45.7331C142.391 45.8546 142.078 45.9174 141.762 45.9179L122.147 45.9521C121.831 45.9527 121.517 45.891 121.225 45.7706C120.933 45.6501 120.668 45.4733 120.444 45.2503C120.22 45.0272 120.042 44.7622 119.921 44.4704C119.799 44.1787 119.736 43.8659 119.736 43.5498L119.701 23.4746C119.7 23.1586 119.762 22.8456 119.882 22.5534C120.003 22.2612 120.18 21.9956 120.403 21.7717C120.626 21.5479 120.891 21.3702 121.183 21.2487C121.474 21.1273 121.787 21.0645 122.103 21.0639L141.718 21.0297C142.034 21.0291 142.348 21.0909 142.64 21.2113C142.932 21.3317 143.197 21.5085 143.421 21.7316C143.645 21.9547 143.823 22.2196 143.944 22.5114C144.066 22.8031 144.129 23.116 144.129 23.432L144.164 43.5072ZM133.379 26.5623C133.378 26.476 133.36 26.3907 133.326 26.3113C133.291 26.232 133.242 26.1602 133.18 26.0999C133.118 26.0397 133.045 25.9923 132.965 25.9604C132.884 25.9284 132.799 25.9126 132.712 25.9138L131.247 25.9343C131.073 25.9367 130.906 26.0084 130.785 26.1334C130.663 26.2585 130.596 26.4267 130.599 26.6011L130.614 27.7241C130.615 27.8104 130.634 27.8957 130.668 27.9751C130.702 28.0544 130.751 28.1262 130.813 28.1864C130.875 28.2467 130.948 28.2941 131.029 28.326C131.109 28.358 131.195 28.3738 131.281 28.3726L132.746 28.3521C132.921 28.3497 133.087 28.278 133.209 28.153C133.33 28.0279 133.397 27.8597 133.395 27.6852L133.379 26.5623ZM133.182 30.1605C133.182 30.1261 133.175 30.0921 133.161 30.0603C133.148 30.0286 133.129 29.9998 133.104 29.9755C133.08 29.9513 133.051 29.9321 133.019 29.919C132.987 29.9059 132.953 29.8993 132.919 29.8994L131.068 29.9059C131.034 29.906 131 29.9129 130.968 29.9262C130.936 29.9394 130.908 29.9588 130.883 29.9833C130.859 30.0077 130.84 30.0366 130.827 30.0685C130.814 30.1003 130.807 30.1344 130.807 30.1688L130.844 40.6075C130.844 40.6419 130.851 40.6759 130.864 40.7077C130.877 40.7394 130.897 40.7683 130.921 40.7925C130.946 40.8168 130.975 40.836 131.006 40.849C131.038 40.8621 131.072 40.8687 131.107 40.8686L132.957 40.8621C132.991 40.862 133.025 40.8551 133.057 40.8419C133.089 40.8286 133.118 40.8092 133.142 40.7848C133.166 40.7603 133.185 40.7314 133.199 40.6995C133.212 40.6677 133.218 40.6336 133.218 40.5992L133.182 30.1605Z" fill="#B2B2B2"/>
<path d="M67.1089 51.8639C67.11 52.5447 66.8407 53.1981 66.3602 53.6803C65.8796 54.1625 65.2272 54.4341 64.5464 54.4353L45.1022 54.4692C44.7652 54.4698 44.4312 54.404 44.1196 54.2756C43.8079 54.1471 43.5246 53.9585 43.2859 53.7206C43.0471 53.4826 42.8575 53.2 42.728 52.8888C42.5984 52.5776 42.5314 52.2439 42.5308 51.9068L42.4965 32.2059C42.4953 31.5251 42.7646 30.8718 43.2451 30.3895C43.7257 29.9073 44.3781 29.6357 45.0589 29.6345L64.5031 29.6006C64.8402 29.6 65.1741 29.6658 65.4857 29.7943C65.7974 29.9227 66.0807 30.1113 66.3195 30.3492C66.5582 30.5872 66.7478 30.8698 66.8774 31.181C67.0069 31.4922 67.0739 31.8259 67.0745 32.163L67.1089 51.8639ZM52.947 38.3182C52.3801 38.4537 52.1163 38.7906 52.1555 39.329C52.209 40.1258 53.1021 40.6659 53.2251 41.682C53.4176 43.2292 53.5014 44.7836 53.4764 46.3452C53.4622 47.0867 53.7189 47.6179 54.2465 47.9388C54.7135 48.2204 55.1003 48.1776 55.4069 47.8104C55.5995 47.5787 55.726 47.2703 55.7866 46.8853C56.0897 44.9352 56.2537 42.9636 56.2786 40.9707C56.2786 40.7889 56.3517 40.6463 56.4979 40.5429C56.9097 40.2434 57.4177 40.1739 57.6637 39.7568C57.8491 39.4395 57.8473 39.0919 57.6583 38.714C57.5835 38.5643 57.464 38.4787 57.3 38.4573L56.4604 38.3343C56.2751 38.3093 56.1681 38.2042 56.1396 38.0188C56.0861 37.6694 56.1628 37.3343 56.3695 37.0134C56.4658 36.8637 56.6013 36.771 56.776 36.7353C57.7207 36.5464 58.0737 35.9617 57.8348 34.9813C57.7742 34.7282 57.6138 34.5784 57.3535 34.5321C55.0968 34.1203 53.4657 34.9225 53.3962 37.1257C53.3855 37.4323 53.3445 37.7247 53.2732 38.0027C53.2269 38.1739 53.1181 38.279 52.947 38.3182Z" fill="#B2B2B2"/>
<path d="M92.7821 51.9834C92.7821 52.6401 92.5212 53.2699 92.0569 53.7342C91.5925 54.1986 90.9628 54.4594 90.3061 54.4594H70.8084C70.1517 54.4594 69.5219 54.1986 69.0576 53.7342C68.5932 53.2699 68.3324 52.6401 68.3324 51.9834V32.0793C68.3324 31.4226 68.5932 30.7928 69.0576 30.3285C69.5219 29.8641 70.1517 29.6033 70.8084 29.6033H90.3061C90.9628 29.6033 91.5925 29.8641 92.0569 30.3285C92.5212 30.7928 92.7821 31.4226 92.7821 32.0793V51.9834ZM81.8086 48.6732C82.4717 49.3114 83.3077 49.4914 84.3167 49.2133C84.4949 49.167 84.5787 49.0511 84.568 48.8657C84.429 46.2097 84.3666 43.5786 84.3808 40.9725C84.3915 39.2506 83.543 38.247 81.8353 37.9618C79.4609 37.5607 76.5037 38.0901 76.5251 41.0902C76.5251 41.3362 76.6427 41.4948 76.878 41.5661C77.4449 41.7444 77.985 41.7283 78.4984 41.518C78.7112 41.4321 78.8819 41.2671 78.9743 41.0581C79.1597 40.6338 79.4146 40.2773 79.739 39.9885C79.8533 39.8868 79.9874 39.8098 80.1329 39.7625C80.2784 39.7151 80.4321 39.6985 80.5844 39.7135C80.7366 39.7286 80.8841 39.7751 81.0175 39.85C81.1509 39.925 81.2673 40.0268 81.3594 40.149C82.3648 41.4859 81.4663 42.1597 80.2043 42.518C79.0242 42.8496 78.2025 43.1151 77.739 43.3148C76.0972 44.026 75.9422 46.2614 76.4074 47.6946C77.1026 49.8604 79.7069 50.0743 81.2952 48.6625C81.4699 48.5092 81.641 48.5128 81.8086 48.6732Z" fill="#B2B2B2"/>
<path d="M117.825 51.8864C117.825 52.5786 117.55 53.2423 117.061 53.7318C116.571 54.2212 115.908 54.4961 115.215 54.4961H95.8781C95.186 54.4961 94.5222 54.2212 94.0328 53.7318C93.5434 53.2423 93.2684 52.5786 93.2684 51.8864V32.2604C93.2684 31.9177 93.3359 31.5783 93.4671 31.2617C93.5982 30.9451 93.7904 30.6574 94.0328 30.415C94.2751 30.1727 94.5628 29.9805 94.8794 29.8493C95.196 29.7182 95.5354 29.6507 95.8781 29.6507H115.215C115.558 29.6507 115.897 29.7182 116.214 29.8493C116.531 29.9805 116.818 30.1727 117.061 30.415C117.303 30.6574 117.495 30.9451 117.626 31.2617C117.758 31.5783 117.825 31.9177 117.825 32.2604V51.8864ZM106.857 40.9397C105.509 42.8328 104.229 44.7383 103.017 46.6564C102.625 47.2696 102.445 48.0272 102.477 48.9292C102.491 49.3784 102.723 49.5994 103.172 49.5923L109.584 49.48C110.19 49.4693 110.479 49.1609 110.451 48.5548L110.418 47.9666C110.39 47.4033 110.094 47.1306 109.531 47.1484L106.301 47.2553C105.962 47.266 105.889 47.1323 106.082 46.8543C107.301 45.0824 108.513 43.2891 109.718 41.4745C110.301 40.5974 110.509 39.683 110.365 38.7043C110.333 38.4904 110.208 38.3817 109.991 38.3781L103.413 38.3567C102.925 38.3532 102.686 38.5938 102.696 39.0787L102.712 40.1001C102.72 40.5493 102.95 40.765 103.402 40.7472L106.68 40.6188C106.719 40.6168 106.757 40.6255 106.79 40.6441C106.824 40.6627 106.851 40.6903 106.869 40.7238C106.888 40.7573 106.897 40.7954 106.894 40.8336C106.892 40.8718 106.879 40.9085 106.857 40.9397Z" fill="#B2B2B2"/>
<path d="M80.9743 47.3099L79.7711 47.5452C79.6841 47.562 79.5946 47.5609 79.508 47.542C79.4215 47.5231 79.3397 47.4868 79.2677 47.4353C79.1956 47.3837 79.1348 47.318 79.089 47.2422C79.0431 47.1664 79.0132 47.0821 79.001 46.9943L78.8138 45.62C78.7965 45.4917 78.8178 45.3611 78.875 45.2449C78.9321 45.1288 79.0225 45.0322 79.1347 44.9676L80.9208 43.9408C81.0284 43.8789 81.1515 43.8489 81.2755 43.8545C81.3995 43.86 81.5194 43.9008 81.6211 43.9722C81.7227 44.0435 81.8019 44.1423 81.8493 44.257C81.8967 44.3718 81.9104 44.4977 81.8888 44.62L81.493 46.7858C81.4695 46.9153 81.4074 47.0346 81.3148 47.1281C81.2222 47.2217 81.1035 47.285 80.9743 47.3099Z" fill="#B2B2B2"/>
</svg>
