<svg width="184" height="63" viewBox="0 0 184 63" fill="none" xmlns="http://www.w3.org/2000/svg">
<path d="M115.062 35.1479L102.595 35.1708C102.573 35.1711 102.551 35.1768 102.532 35.1875C102.513 35.1982 102.496 35.2135 102.484 35.2321L100.521 38.2023C100.509 38.2209 100.492 38.2362 100.473 38.2469C100.454 38.2576 100.432 38.2633 100.41 38.2636L20.0371 38.2559C20.0015 38.2559 19.9674 38.2418 19.9423 38.2167C19.9172 38.1916 19.9031 38.1575 19.9031 38.1219L19.9069 18.9646C19.9069 18.9471 19.9104 18.9296 19.9171 18.9134C19.9239 18.8971 19.9337 18.8824 19.9461 18.8699C19.9586 18.8575 19.9733 18.8476 19.9896 18.8409C20.0058 18.8341 20.0233 18.8307 20.0408 18.8307L109.412 18.8268C109.433 18.8273 109.454 18.8327 109.473 18.8427C109.491 18.8527 109.507 18.8669 109.519 18.8843L122.74 38.0492C122.754 38.0694 122.762 38.093 122.764 38.1175C122.765 38.1421 122.76 38.1665 122.749 38.1883C122.737 38.21 122.72 38.2282 122.699 38.2408C122.678 38.2534 122.654 38.2599 122.629 38.2597L117.305 38.2559C117.283 38.2561 117.262 38.2509 117.242 38.2409C117.223 38.2309 117.206 38.2164 117.194 38.1985L115.173 35.2053C115.16 35.1874 115.144 35.1728 115.124 35.1628C115.105 35.1528 115.084 35.1477 115.062 35.1479ZM57.678 33.2073L58.8837 34.9718C58.9798 35.1118 59.1079 35.2271 59.2576 35.3082C59.4072 35.3894 59.5742 35.4341 59.7449 35.4388L61.9305 35.4924C62.2061 35.5 62.266 35.3916 62.1104 35.167L52.5949 21.3914C52.5081 21.2638 52.3997 21.2446 52.2696 21.3339C52.0424 21.4947 51.823 21.7333 51.6112 22.0497C48.6971 26.4311 45.76 30.7767 42.8 35.0866C42.6214 35.3469 42.689 35.4758 43.0029 35.4732L45.1387 35.4503C45.4755 35.4452 45.7256 35.2971 45.8889 35.0062C46.2512 34.3556 46.6876 33.724 47.1979 33.1116C47.2821 33.007 47.3906 32.9559 47.5233 32.9585L57.2187 32.9623C57.4151 32.9623 57.5683 33.044 57.678 33.2073ZM38.0575 30.2064L38.069 31.8906C38.069 32.0284 38.0218 32.147 37.9274 32.2465C37.7309 32.4558 37.4872 32.6076 37.1963 32.702C34.5667 33.5518 29.2195 34.0723 27.2942 31.4734C26.8069 30.815 26.5236 29.9869 26.4445 28.9892C26.0541 23.9214 31.3018 23.6458 34.9342 23.998C36.3606 24.1383 37.5485 24.6206 38.4977 25.4448C38.5419 25.4836 38.5936 25.5128 38.6496 25.5308C38.7057 25.5487 38.7648 25.555 38.8236 25.5493C38.8823 25.5436 38.9394 25.5259 38.9913 25.4974C39.0432 25.4689 39.0889 25.4302 39.1255 25.3836L40.1627 24.0477C40.3439 23.813 40.3146 23.6101 40.0747 23.4391C39.1893 22.814 38.2604 22.3636 37.2882 22.088C33.384 20.978 27.7 21.2459 24.8866 24.6104C22.8389 27.0639 23.1221 31.2743 25.5106 33.4101C29.1238 36.6407 36.7217 36.4072 40.4116 33.6551C40.5174 33.5755 40.6033 33.4725 40.6625 33.3543C40.7216 33.236 40.7523 33.1058 40.7522 32.9738L40.7561 27.8639C40.7566 27.8244 40.7491 27.7851 40.7341 27.7485C40.7192 27.7118 40.6969 27.6784 40.6688 27.6503C40.6407 27.6222 40.6072 27.5999 40.5702 27.5846C40.5333 27.5694 40.4937 27.5615 40.4537 27.5615L31.7955 27.55C31.7567 27.55 31.7182 27.5578 31.6824 27.5729C31.6466 27.588 31.6142 27.6101 31.5871 27.6379C31.5599 27.6657 31.5387 27.6987 31.5245 27.7349C31.5104 27.7711 31.5036 27.8097 31.5046 27.8486L31.5391 29.7279C31.5442 29.9244 31.6437 30.0227 31.8376 30.0227L37.8662 30.0188C37.9912 30.0188 38.055 30.0814 38.0575 30.2064ZM68.0279 27.0984L74.2746 32.7441C74.4992 32.9457 74.7199 32.9419 74.9368 32.7326L80.5481 27.3969C80.7778 27.18 80.8913 27.2285 80.8888 27.5424L80.8581 35.1211C80.8581 35.1658 80.8669 35.2101 80.8841 35.2514C80.9012 35.2928 80.9263 35.3303 80.9579 35.362C80.9896 35.3936 81.0271 35.4187 81.0684 35.4358C81.1098 35.4529 81.1541 35.4617 81.1988 35.4617L83.4073 35.4541C83.637 35.4515 83.7506 35.3354 83.748 35.1058C83.7046 30.755 83.6982 26.3635 83.7289 21.9311C83.7314 21.5534 83.5286 21.4322 83.1203 21.5674C83.0724 21.5825 83.0279 21.6087 82.9902 21.644L74.887 29.3222C74.8134 29.3926 74.7155 29.4321 74.6132 29.4328C74.5109 29.4335 74.4118 29.3953 74.3359 29.326L65.9112 21.6478C65.846 21.5885 65.7649 21.5495 65.6778 21.5354C65.5908 21.5213 65.5015 21.5328 65.4208 21.5684C65.3402 21.6041 65.2716 21.6624 65.2234 21.7363C65.1753 21.8102 65.1496 21.8965 65.1496 21.9846L65.1534 35.0866C65.1534 35.3316 65.2759 35.4541 65.5208 35.4541L67.6299 35.4579C67.8825 35.4579 68.0088 35.3303 68.0088 35.0752L67.9437 27.1328C67.944 27.1232 67.947 27.1138 67.9525 27.1059C67.958 27.098 67.9657 27.0918 67.9746 27.0882C67.9835 27.0845 67.9933 27.0836 68.0028 27.0854C68.0122 27.0872 68.021 27.0917 68.0279 27.0984ZM91.4377 24.4305C91.4377 24.4074 91.4423 24.3845 91.4511 24.3631C91.46 24.3418 91.4729 24.3223 91.4893 24.306C91.5056 24.2896 91.525 24.2767 91.5464 24.2678C91.5678 24.259 91.5907 24.2544 91.6138 24.2544L102.97 24.2353C102.999 24.2353 103.027 24.2284 103.053 24.215C103.078 24.2017 103.1 24.1824 103.116 24.1587L104.547 22.0382C104.565 22.0118 104.576 21.9809 104.578 21.9488C104.58 21.9168 104.573 21.8849 104.558 21.8565C104.543 21.8282 104.52 21.8044 104.493 21.7879C104.465 21.7713 104.434 21.7626 104.402 21.7626L88.8273 21.7703C88.7806 21.7703 88.7358 21.7888 88.7028 21.8219C88.6698 21.8549 88.6512 21.8997 88.6512 21.9464L88.6627 35.2818C88.6627 35.3285 88.6812 35.3733 88.7143 35.4063C88.7473 35.4394 88.7921 35.4579 88.8388 35.4579L95.5563 35.4464C95.5846 35.4469 95.6126 35.4405 95.6379 35.4279C95.6632 35.4152 95.6851 35.3966 95.7017 35.3737L97.2098 33.2532C97.2288 33.227 97.2402 33.196 97.2428 33.1638C97.2453 33.1315 97.2389 33.0991 97.2243 33.0702C97.2097 33.0414 97.1874 33.0171 97.1598 33.0001C97.1323 32.983 97.1006 32.9739 97.0682 32.9738L91.6329 32.9776C91.6098 32.9776 91.5869 32.9731 91.5656 32.9642C91.5442 32.9554 91.5248 32.9424 91.5085 32.926C91.4921 32.9097 91.4791 32.8903 91.4703 32.8689C91.4614 32.8476 91.4569 32.8247 91.4569 32.8015L91.4454 29.8275C91.4454 29.7808 91.4639 29.736 91.497 29.703C91.53 29.6699 91.5747 29.6514 91.6214 29.6514L99.4069 29.6897C99.4362 29.6903 99.4651 29.6837 99.4912 29.6703C99.5173 29.6569 99.5396 29.6373 99.5562 29.6131L100.969 27.5156C100.987 27.4888 100.997 27.4576 100.999 27.4252C101.001 27.3928 100.994 27.3606 100.978 27.3322C100.963 27.3037 100.94 27.28 100.912 27.2637C100.884 27.2475 100.852 27.2392 100.819 27.24L91.6329 27.2476C91.6098 27.2476 91.5869 27.2431 91.5656 27.2342C91.5442 27.2254 91.5248 27.2124 91.5085 27.1961C91.4921 27.1797 91.4791 27.1603 91.4703 27.1389C91.4614 27.1176 91.4569 27.0947 91.4569 27.0716L91.4377 24.4305ZM105.623 30.6083C105.611 30.6266 105.603 30.6479 105.602 30.67C105.601 30.6921 105.605 30.7141 105.616 30.7337C105.626 30.7533 105.641 30.7698 105.66 30.7815C105.679 30.7931 105.7 30.7994 105.722 30.7997L111.881 30.7805C111.904 30.7807 111.926 30.7746 111.946 30.7628C111.965 30.751 111.981 30.734 111.991 30.7137C112.002 30.6934 112.006 30.6707 112.004 30.648C112.002 30.6253 111.994 30.6036 111.981 30.5853L108.888 26.1108C108.877 26.0943 108.862 26.0807 108.844 26.0713C108.826 26.0619 108.807 26.057 108.786 26.057C108.766 26.057 108.747 26.0619 108.729 26.0713C108.711 26.0807 108.696 26.0943 108.685 26.1108L105.623 30.6083Z" fill="#B2B2B2"/>
<path d="M142.471 31.4042L148.53 38.0068C148.622 38.1063 148.6 38.1612 148.465 38.1714C146.52 38.3067 144.567 38.3156 142.605 38.1982C142.487 38.1906 142.389 38.1433 142.31 38.0566L136.821 32.0204C136.725 31.9142 136.607 31.8291 136.475 31.7705C136.344 31.7119 136.201 31.681 136.056 31.6797L130.008 31.6721C129.835 31.6721 129.748 31.7588 129.748 31.9324L129.782 38.0719C129.782 38.1893 129.724 38.2492 129.606 38.2518L125.07 38.2633C124.948 38.2658 124.887 38.2059 124.887 38.0834L124.914 19.5002C124.914 19.4746 124.919 19.4492 124.929 19.4255C124.939 19.4018 124.953 19.3803 124.972 19.3622C124.99 19.3441 125.012 19.3297 125.036 19.3199C125.061 19.3101 125.086 19.305 125.113 19.305C129.172 19.2948 133.262 19.2986 137.38 19.3165C139.159 19.3241 140.754 19.4747 142.165 19.7681C148.622 21.1078 148.928 29.3679 142.567 31.075C142.355 31.1311 142.323 31.2408 142.471 31.4042ZM129.744 24.0207L129.736 27.0751C129.736 27.1644 129.772 27.2501 129.835 27.3133C129.898 27.3764 129.984 27.4119 130.073 27.4119L138.253 27.4272C139.291 27.4292 140.287 27.2649 141.022 26.9706C141.757 26.6763 142.171 26.2761 142.172 25.8579V25.2838C142.173 25.0766 142.072 24.8713 141.876 24.6796C141.68 24.4879 141.392 24.3134 141.028 24.1663C140.665 24.0191 140.234 23.9021 139.759 23.822C139.284 23.7418 138.775 23.7001 138.26 23.6991L130.081 23.6838C130.037 23.6838 129.993 23.6925 129.952 23.7095C129.911 23.7264 129.874 23.7512 129.843 23.7825C129.811 23.8138 129.787 23.8509 129.77 23.8918C129.753 23.9326 129.744 23.9764 129.744 24.0207Z" fill="#B2B2B2"/>
<path d="M163.213 24.0088L163.217 38.06C163.217 38.1138 163.196 38.1654 163.158 38.2035C163.12 38.2415 163.068 38.2629 163.014 38.2629L158.555 38.2514C158.423 38.2514 158.355 38.1851 158.352 38.0524C158.345 34.115 158.347 30.1828 158.36 26.2556C158.363 25.4926 158.346 24.8241 158.31 24.2499C158.292 23.9667 158.142 23.8251 157.859 23.8251L149.782 23.8365C149.734 23.837 149.686 23.8278 149.641 23.8094C149.595 23.7909 149.555 23.7637 149.52 23.7292C149.485 23.6946 149.458 23.6535 149.439 23.6082C149.421 23.5629 149.411 23.5143 149.411 23.4653L149.415 19.5496C149.415 19.5169 149.421 19.4846 149.434 19.4544C149.446 19.4242 149.464 19.3968 149.487 19.3737C149.509 19.3506 149.536 19.3322 149.566 19.3197C149.596 19.3072 149.628 19.3008 149.66 19.3008H171.929C171.98 19.3008 172.028 19.3206 172.064 19.3557C172.1 19.3909 172.12 19.4386 172.12 19.4884L172.136 23.6605C172.136 23.7779 172.077 23.8365 171.96 23.8365L163.397 23.8212C163.275 23.8212 163.213 23.8838 163.213 24.0088Z" fill="#B2B2B2"/>
<path d="M48.9825 30.3515L52.2169 25.632C52.2281 25.6144 52.2434 25.5999 52.2616 25.5897C52.2798 25.5795 52.3003 25.574 52.3211 25.5736C52.3419 25.5732 52.3625 25.578 52.3811 25.5875C52.3996 25.597 52.4156 25.611 52.4274 25.6282L55.6771 30.34C55.6904 30.3589 55.6983 30.3811 55.6998 30.4042C55.7014 30.4273 55.6966 30.4504 55.6859 30.4709C55.6752 30.4915 55.6591 30.5087 55.6393 30.5207C55.6195 30.5327 55.5968 30.539 55.5737 30.539L49.0897 30.5467C49.0668 30.5469 49.0444 30.541 49.0246 30.5294C49.0049 30.5179 48.9887 30.5012 48.9777 30.4812C48.9667 30.4611 48.9613 30.4385 48.9622 30.4156C48.963 30.3928 48.9701 30.3706 48.9825 30.3515Z" fill="#B2B2B2"/>
</svg>
