<svg width="184" height="63" viewBox="0 0 184 63" fill="none" xmlns="http://www.w3.org/2000/svg">
<path d="M97.1646 33.5961L98.305 22.4557C98.3169 22.3496 98.3678 22.2515 98.4481 22.1801C98.5284 22.1087 98.6326 22.0689 98.7407 22.0684L102.097 22.1007C102.338 22.1007 102.454 22.219 102.447 22.4557C102.382 26.1244 101.624 30.2718 101.355 33.3917C101.133 35.9415 100.873 38.5558 100.575 41.2347C100.553 41.414 100.451 41.5037 100.268 41.5037H95.1474C94.5055 41.5037 94.1505 41.1863 94.0823 40.5515C93.5624 35.6743 93.0118 31.102 92.4309 26.8344C92.2731 25.694 92.144 24.4837 92.0436 23.2035C91.9432 21.9555 91.7639 20.7559 91.5057 19.6047C91.3586 18.9556 91.5039 18.8821 91.9414 19.3842C93.1948 20.8312 94.0392 21.9716 96.121 22.1599C96.1875 22.1662 96.2501 22.1945 96.2988 22.2403C96.3475 22.286 96.3795 22.3467 96.3899 22.4127C97.0247 26.0921 96.8688 29.9652 97.1377 33.5961C97.1449 33.6966 97.1539 33.6966 97.1646 33.5961Z" fill="#B2B2B2"/>
<path d="M130.57 25.4026L130.366 25.408C130.266 25.4108 130.172 25.4517 130.103 25.522C130.033 25.5924 129.995 25.6865 129.995 25.7846L129.973 37.4898C129.973 37.8592 130.129 38.1425 130.441 38.3397C130.541 38.4079 130.662 38.4222 130.802 38.3828C130.88 38.3624 130.95 38.3182 131.001 38.2563C131.052 38.1944 131.082 38.1182 131.087 38.0385L131.248 35.4349C131.266 35.166 131.408 35.0136 131.673 34.9777C132.785 34.8307 133.737 34.2676 134.529 33.2886C134.924 32.8045 135.152 32.8726 135.213 33.493C135.363 34.949 135.383 36.4427 135.272 37.9739C135.191 39.0659 134.615 39.9535 133.83 40.5936C131.89 42.1751 129.9 42.2989 127.859 40.9648C126.98 40.391 126.496 39.6021 126.407 38.5979C126.342 37.8664 126.303 37.0899 126.288 36.2687C126.224 32.471 126.229 29.1269 126.304 26.2364C126.376 23.5611 127.7 22.1231 130.274 21.9223C131.146 21.8506 131.994 22.0442 132.819 22.5032C135.309 23.8857 135.277 25.8168 135.358 28.3827C135.379 28.9673 135.098 29.2578 134.513 29.2542L131.958 29.2434C131.47 29.2434 131.219 28.9978 131.205 28.5065L131.13 25.9352C131.119 25.573 130.932 25.3955 130.57 25.4026Z" fill="#B2B2B2"/>
<path d="M78.8699 32.4071C78.6439 33.5475 78.3857 34.6663 78.2727 35.8874C78.1113 37.6411 77.8065 39.375 77.3582 41.0892C77.3116 41.2613 77.2004 41.3653 77.0247 41.4012C76.4007 41.5303 75.7893 41.5195 75.1904 41.3689C75.0147 41.3259 74.9036 41.2183 74.8569 41.0461C74.1899 38.4641 73.8205 35.8354 73.7488 33.1602C73.7488 33.1386 73.738 33.1279 73.7165 33.1279H73.5389C73.4529 33.1315 73.4098 33.1745 73.4098 33.257L73.4744 40.9439C73.4752 41.0084 73.4629 41.0724 73.4386 41.1321C73.4142 41.1918 73.3782 41.2461 73.3326 41.2917C73.287 41.3373 73.2328 41.3733 73.173 41.3977C73.1133 41.422 73.0495 41.4342 72.985 41.4334L70.1984 41.4227C69.8183 41.4227 69.6282 41.2308 69.6282 40.8471L69.6551 22.5684C69.6551 22.321 69.7772 22.1865 70.021 22.165C71.7388 22.0287 73.3668 22.0395 74.9053 22.1972C75.0774 22.2152 75.1779 22.3084 75.2066 22.477C75.5401 24.3705 75.7534 26.298 75.8466 28.2597C75.8466 28.2812 75.8574 28.2919 75.879 28.2919L76.0941 28.3027C76.1278 28.3044 76.1611 28.2933 76.1878 28.2716C76.2145 28.2498 76.2328 28.2188 76.2393 28.1843L76.9871 22.5684C77.0301 22.26 77.2059 22.1058 77.5143 22.1058L81.9198 22.1004C82.1924 22.1004 82.3323 22.2367 82.3394 22.5092C82.4972 29.3696 82.4362 36.1869 82.1565 42.9611C82.1549 43.017 82.1746 43.0714 82.2115 43.1134C82.2485 43.1553 82.3 43.1817 82.3556 43.1871L82.5116 43.2032C82.5726 43.2068 82.6066 43.1799 82.6138 43.1225C83.8134 35.4679 84.206 29.271 85.2657 22.5092C85.2824 22.4 85.3377 22.3003 85.4216 22.2282C85.5055 22.1562 85.6124 22.1166 85.723 22.1166L90.7794 22.0735C90.8842 22.073 90.9856 22.1117 91.064 22.1822C91.1425 22.2527 91.1925 22.35 91.2044 22.4555L93.2216 40.761C93.279 41.2703 93.0513 41.5195 92.5385 41.5088L89.5745 41.4334C89.0545 41.4191 88.825 41.1537 88.8859 40.6373C88.9505 40.085 88.9272 39.3732 88.8161 38.5017C88.7766 38.179 88.5955 38.0212 88.2728 38.0284L87.9823 38.0338C87.7061 38.0373 87.5609 38.179 87.5465 38.4587L87.4174 41.1053C87.4067 41.2739 87.3224 41.385 87.1646 41.4388C87.0212 41.489 86.8723 41.5052 86.7181 41.4872C85.809 41.385 84.4858 42.0305 83.9532 42.7621C83.6771 43.1422 83.3417 43.4489 82.9472 43.682C82.8768 43.7239 82.8166 43.7814 82.771 43.8503C82.7254 43.9192 82.6955 43.9977 82.6836 44.08C82.6729 44.184 82.6389 44.2791 82.5815 44.3651C82.4595 44.5444 82.3179 44.5606 82.1565 44.4136C81.6795 43.9904 81.2546 43.5224 80.8817 43.0096C80.3061 42.2188 79.8273 41.8907 79.0796 41.3904C78.929 41.29 78.8375 41.1519 78.8052 40.9762C78.712 40.4419 78.6869 39.8268 78.73 39.1311C78.8412 37.3488 78.9038 35.1092 78.9182 32.4124C78.9218 32.2296 78.9057 32.2278 78.8699 32.4071ZM87.9715 27.8993L87.7779 27.9315C87.7564 27.9351 87.7474 27.9477 87.751 27.9692C88.0666 29.9954 88.0199 32.0305 87.6111 34.0746C87.5984 34.1377 87.6004 34.2028 87.6172 34.2649C87.634 34.327 87.6651 34.3844 87.7079 34.4324C87.7507 34.4804 87.804 34.5178 87.8638 34.5416C87.9236 34.5654 87.988 34.575 88.0521 34.5695C88.1525 34.5588 88.2548 34.557 88.3588 34.5641C88.7712 34.5785 88.9505 34.3813 88.8967 33.9724L88.1437 28.023C88.1293 27.9226 88.0719 27.8813 87.9715 27.8993Z" fill="#B2B2B2"/>
<path d="M120.614 43.495L119.78 42.4138C119.694 42.3026 119.594 42.2058 119.479 42.1233C119.016 41.7826 118.511 41.5621 117.962 41.4617C117.755 41.424 117.567 41.3147 117.432 41.1527C117.296 40.9906 117.221 40.786 117.22 40.5741C117.213 38.4582 117.209 36.2384 117.209 33.9146C117.209 33.6277 117.083 33.3282 116.832 33.0162C116.707 32.8692 116.551 32.8047 116.364 32.8226C116.309 32.8304 116.258 32.8576 116.222 32.8992C116.185 32.9407 116.165 32.9938 116.165 33.0485L116.182 41.1013C116.182 41.2949 116.083 41.3935 115.886 41.3971C114.383 41.4186 113.42 41.4007 112.997 41.3433C112.416 41.268 111.93 41.259 111.539 41.3164C108.903 41.7037 105.923 41.58 103.465 41.4401C103.024 41.415 102.805 41.1819 102.809 40.7408L102.965 22.6074C102.965 22.4714 103.018 22.3408 103.114 22.2441C103.21 22.1474 103.34 22.0924 103.476 22.091C106.018 22.0515 108.679 22.082 111.459 22.1824C111.875 22.1968 112.289 22.1896 112.701 22.1609C114.336 22.0462 116.049 22.0677 117.838 22.2255C120.985 22.5052 121.147 26.3191 120.985 28.9173C120.921 29.9447 120.512 30.6386 119.721 31.1927C119.682 31.2189 119.65 31.253 119.625 31.2928C119.601 31.3327 119.585 31.3774 119.579 31.424C119.573 31.4707 119.577 31.5182 119.59 31.5636C119.603 31.609 119.626 31.6512 119.657 31.6876C120.35 32.516 120.98 32.9678 120.991 34.1566C121.016 36.4482 121 38.7416 120.942 41.0367C120.921 41.8866 121.217 42.4945 121.066 43.382C121.005 43.7658 120.854 43.8034 120.614 43.495ZM109.662 29.4337C110.903 29.3476 111.017 29.665 110.006 30.3858C109.106 31.0277 108.577 31.8436 108.419 32.8334C108.387 33.0234 108.278 33.1418 108.091 33.1884L107.381 33.3605C107.191 33.4071 107.096 33.5291 107.096 33.7263L107.08 37.0776C107.08 37.2605 107.171 37.3573 107.354 37.3681C108.383 37.4183 109.413 37.4326 110.442 37.4111C111.381 37.3896 111.783 37.8253 111.647 38.7183C111.607 38.9765 111.64 39.4175 111.744 40.0415C111.747 40.0559 111.756 40.0613 111.771 40.0577L111.905 40.0415C111.995 40.0272 112.038 39.9752 112.034 39.8855C111.805 35.8726 111.719 31.8561 111.776 27.836C111.797 26.484 111.907 25.1392 112.104 23.8016C112.158 23.4322 112.093 23.0951 111.91 22.7903C111.756 22.5321 111.679 22.5536 111.679 22.8548L111.701 25.1733C111.702 25.3665 111.633 25.5535 111.506 25.6992C111.379 25.8449 111.204 25.9391 111.012 25.964C109.832 26.1218 108.708 26.1057 107.639 25.9156C107.288 25.8511 107.109 25.9981 107.101 26.3567L107.064 29.0464C107.057 29.4265 107.243 29.6022 107.623 29.5735L109.662 29.4337ZM116.672 29.8639C116.832 29.8631 116.984 29.6299 117.095 29.2157C117.205 28.8015 117.266 28.2403 117.263 27.6553C117.261 27.3657 117.244 27.079 117.212 26.8116C117.181 26.5442 117.135 26.3013 117.078 26.0968C117.021 25.8923 116.954 25.7302 116.88 25.6197C116.807 25.5093 116.728 25.4526 116.649 25.4531C116.489 25.4539 116.337 25.6871 116.226 26.1013C116.115 26.5155 116.055 27.0768 116.058 27.6617C116.059 27.9513 116.076 28.238 116.108 28.5054C116.14 28.7729 116.185 29.0158 116.242 29.2203C116.299 29.4248 116.367 29.5869 116.441 29.6973C116.514 29.8078 116.593 29.8644 116.672 29.8639Z" fill="#B2B2B2"/>
<path d="M121.512 44.0313L121.378 22.6003C121.377 22.5356 121.389 22.4714 121.413 22.4114C121.438 22.3514 121.474 22.2967 121.519 22.2507C121.565 22.2047 121.619 22.1682 121.679 22.1432C121.738 22.1183 121.802 22.1054 121.867 22.1055L125.304 22.1216C125.505 22.1252 125.609 22.2274 125.616 22.4282C125.882 28.6143 125.898 34.7987 125.665 40.9812C125.661 41.1605 125.572 41.2645 125.396 41.2932C123.352 41.659 122.561 43.176 121.485 44.6875C121.406 44.7951 121.322 44.8005 121.232 44.7037C121.157 44.6212 121.103 44.5261 121.071 44.4186C121.062 44.3891 121.06 44.3579 121.066 44.3276C121.072 44.2973 121.085 44.269 121.105 44.2454C121.125 44.2218 121.151 44.2035 121.179 44.1924C121.208 44.1813 121.239 44.1777 121.27 44.1819C121.342 44.1891 121.406 44.1729 121.464 44.1335C121.496 44.1048 121.512 44.0707 121.512 44.0313Z" fill="#B2B2B2"/>
<path d="M139.876 27.9205C139.969 28.548 140.084 28.5516 140.221 27.9312L141.388 22.5681C141.452 22.2705 141.635 22.1216 141.936 22.1216L144.976 22.0947C145.04 22.0942 145.103 22.1084 145.16 22.1363C145.218 22.1642 145.268 22.205 145.307 22.2556C145.346 22.3061 145.373 22.3649 145.385 22.4276C145.398 22.4902 145.396 22.5548 145.379 22.6165L143.287 30.2927C143.184 30.6664 143.181 31.0611 143.276 31.4385L145.707 41.1211C145.768 41.3578 145.677 41.4762 145.433 41.4762L141.748 41.4493C141.44 41.4493 141.26 41.2969 141.21 40.992L140.14 34.4455C140.129 34.386 140.077 34.3672 140.017 34.3718L139.968 34.3756C139.842 34.3863 139.783 34.4527 139.79 34.5746C139.883 37.067 139.864 40.1977 139.731 43.9668C139.724 44.1747 139.659 44.3702 139.537 44.5531C139.52 44.5778 139.495 44.5968 139.467 44.6078C139.439 44.6188 139.408 44.6213 139.378 44.615C139.348 44.6088 139.321 44.594 139.3 44.5724C139.278 44.5509 139.264 44.5236 139.258 44.4939C138.971 42.9375 137.994 41.9226 136.326 41.4493C136.154 41.4014 136.003 41.2971 135.897 41.1529C135.79 41.0087 135.735 40.8328 135.74 40.6531C135.783 38.8565 135.8 36.9988 135.793 35.0802C135.793 35.0551 135.716 34.4419 135.562 33.2405C135.449 32.3691 135.734 31.5676 135.761 30.6746C135.836 27.9312 135.835 25.3026 135.756 22.7887C135.745 22.3583 135.955 22.1396 136.385 22.1324L139.112 22.0894C139.586 22.0822 139.813 22.3171 139.796 22.794C139.769 23.6171 139.941 24.4885 139.855 25.3976C139.761 26.3659 139.769 27.2068 139.876 27.9205Z" fill="#B2B2B2"/>
<path d="M49.6228 46.5288C58.6097 46.5288 65.895 39.2435 65.895 30.2566C65.895 21.2697 58.6097 13.9844 49.6228 13.9844C40.6359 13.9844 33.3506 21.2697 33.3506 30.2566C33.3506 39.2435 40.6359 46.5288 49.6228 46.5288Z" fill="#B2B2B2"/>
</svg>
