<svg width="184" height="63" viewBox="0 0 184 63" fill="none" xmlns="http://www.w3.org/2000/svg">
<path d="M53.4274 21.1672C52.513 19.6288 51.464 18.0688 50.1676 16.8854C45.1506 12.3166 39.1097 10.9341 32.0449 12.738C31.6756 12.8312 31.2542 12.573 30.7808 11.9634C30.476 11.5725 30.6499 11.0077 31.3026 10.2689C31.4878 10.0556 31.7365 9.90675 32.0127 9.84394C42.4 7.35335 51.8459 11.5868 56.6389 20.9198C58.0303 23.6202 58.7224 26.6218 58.7152 29.9247C58.7152 30.7889 58.2867 31.2766 57.4296 31.3878L57.0423 31.4416C56.9096 31.4588 56.7747 31.4487 56.646 31.412C56.5173 31.3754 56.3975 31.3128 56.2938 31.2283C56.19 31.1437 56.1047 31.0388 56.0428 30.9201C55.981 30.8014 55.944 30.6714 55.9342 30.5379C55.6921 27.1813 55.1757 24.1097 53.4274 21.1672Z" fill="#B2B2B2"/>
<path d="M31.9159 41.6347C33.6049 42.542 35.6275 43.0297 37.9836 43.0979C38.1567 43.1029 38.3263 43.1466 38.4799 43.2258C38.6335 43.3049 38.7673 43.4175 38.8712 43.5551C39.6566 44.5915 39.2603 45.3769 37.6824 45.9112C37.4835 45.9751 37.2751 45.9989 37.0692 45.9812C30.8992 45.4379 25.2187 41.8069 23.1154 35.8036C22.5918 34.3082 22.2565 33.1319 22.1095 32.2748C21.7831 30.3527 21.8011 28.7837 22.1633 27.568C22.7496 25.5884 23.2015 23.4475 24.2719 21.7638C25.7494 19.4471 27.6071 17.6684 29.8448 16.4276C36.0059 13.0064 41.9876 13.4475 47.79 17.7509C48.4355 18.2278 48.5592 18.8142 48.1612 19.5099C48.1002 19.6175 48.0572 19.6928 48.0321 19.7358C47.634 20.4315 47.0835 20.5839 46.3806 20.193C45.6024 19.7591 44.8296 19.3019 44.0622 18.8213C38.9627 15.6261 31.9912 17.1107 28.0374 21.6562C22.4914 28.0252 24.3957 37.6003 31.9159 41.6347Z" fill="#B2B2B2"/>
<path d="M32.3406 24.6905C30.2642 26.8368 29.7478 29.9138 30.6515 32.7486C31.141 34.2979 32.3083 35.3199 33.3895 36.5087C34.0063 37.1865 33.9041 37.728 33.0829 38.1333C32.9968 38.1763 32.8946 38.2265 32.7763 38.2839C31.9586 38.6891 31.2522 38.5439 30.6569 37.8481C27.0456 33.6021 26.3373 29.3938 28.5321 25.2231C33.2604 16.2451 46.3535 18.386 48.204 28.3861C48.8459 31.8575 47.6427 35.0922 44.5945 38.0902C43.9705 38.707 43.3411 38.7088 42.7064 38.0956L42.4589 37.8535C42.3469 37.7461 42.2587 37.6164 42.1999 37.4727C42.1411 37.3289 42.1132 37.1744 42.1177 37.0189C42.1223 36.8634 42.1593 36.7104 42.2264 36.5697C42.2935 36.4291 42.3892 36.3039 42.5073 36.2021C45.0499 34.0145 45.8855 31.1869 45.0141 27.719C43.6208 22.1999 36.1383 20.7583 32.3406 24.6905Z" fill="#B2B2B2"/>
<path d="M74.8077 39.4123C72.3525 39.3908 70.0065 38.374 68.2859 36.5854C66.5653 34.7969 65.611 32.3831 65.6329 29.8751C65.6548 27.3672 66.6511 24.9704 68.4026 23.2122C70.1542 21.4539 72.5175 20.4782 74.9727 20.4996C77.4279 20.521 79.7738 21.5379 81.4945 23.3264C83.2151 25.115 84.1694 27.5288 84.1475 30.0367C84.1256 32.5447 83.1293 34.9414 81.3777 36.6997C79.6262 38.4579 77.2629 39.4337 74.8077 39.4123ZM80.7267 28.8801C80.7267 28.1758 80.588 27.4784 80.3184 26.8277C80.0489 26.177 79.6538 25.5858 79.1558 25.0878C78.6578 24.5898 78.0666 24.1948 77.4159 23.9252C76.7652 23.6557 76.0678 23.517 75.3635 23.517H74.363C72.9406 23.517 71.5765 24.082 70.5707 25.0878C69.5649 26.0936 68.9999 27.4577 68.9999 28.8801V30.9995C68.9999 32.4219 69.5649 33.786 70.5707 34.7918C71.5765 35.7976 72.9406 36.3626 74.363 36.3626H75.3635C76.0678 36.3626 76.7652 36.2239 77.4159 35.9544C78.0666 35.6848 78.6578 35.2898 79.1558 34.7918C79.6538 34.2938 80.0489 33.7026 80.3184 33.0519C80.588 32.4012 80.7267 31.7038 80.7267 30.9995V28.8801Z" fill="#B2B2B2"/>
<path d="M114.402 23.7594L109.076 23.8239C109.04 23.8247 109.005 23.8182 108.972 23.805C108.938 23.7918 108.908 23.7722 108.882 23.7471C108.857 23.7221 108.837 23.6922 108.823 23.6592C108.809 23.6262 108.802 23.5908 108.802 23.555L108.796 21.1989C108.796 21.1275 108.825 21.0591 108.875 21.0087C108.926 20.9583 108.994 20.9299 109.065 20.9299L123.261 20.9783C123.333 20.9783 123.401 21.0067 123.451 21.0571C123.502 21.1075 123.53 21.176 123.53 21.2473L123.509 23.5066C123.507 23.5761 123.479 23.6423 123.43 23.6914C123.381 23.7406 123.315 23.7688 123.245 23.7702L117.844 23.7917C117.773 23.7917 117.705 23.82 117.654 23.8705C117.604 23.9209 117.575 23.9893 117.575 24.0606L117.602 38.7567C117.602 38.7925 117.595 38.8279 117.581 38.8609C117.567 38.8939 117.547 38.9238 117.522 38.9489C117.496 38.9739 117.466 38.9936 117.432 39.0068C117.399 39.02 117.364 39.0264 117.328 39.0257L114.923 38.9719C114.853 38.9705 114.786 38.9415 114.737 38.8913C114.687 38.841 114.66 38.7734 114.66 38.703L114.676 24.0284C114.676 23.9926 114.669 23.9572 114.655 23.9242C114.641 23.8912 114.621 23.8613 114.595 23.8363C114.57 23.8112 114.539 23.7915 114.506 23.7783C114.473 23.7651 114.437 23.7587 114.402 23.7594Z" fill="#B2B2B2"/>
<path d="M89.0435 27.5743C91.4696 25.6054 94.9607 25.6646 96.3162 28.72C96.6175 29.4014 96.7735 30.3625 96.7842 31.6033C96.8093 34.0311 96.8291 36.3891 96.8434 38.677C96.8434 38.8814 96.743 38.9854 96.5422 38.989L94.3797 39.0267C94.1179 39.0338 93.987 38.9065 93.987 38.6448C94.0014 36.3891 93.9888 33.9738 93.9494 31.3989C93.8956 27.9347 88.8014 28.0476 88.7315 31.7862C88.6885 34.1567 88.7154 36.4177 88.8122 38.5694C88.8151 38.6256 88.8066 38.6818 88.7871 38.7345C88.7676 38.7873 88.7375 38.8355 88.6987 38.8763C88.66 38.9171 88.6133 38.9495 88.5616 38.9717C88.5099 38.9938 88.4543 39.0052 88.398 39.0052H86.3377C85.9971 39.0052 85.8267 38.8348 85.8267 38.4941L85.8482 26.9072C85.8482 26.6956 85.9522 26.588 86.1602 26.5845L88.0107 26.563C88.1864 26.5594 88.3083 26.6383 88.3765 26.7996L88.6616 27.4774C88.7477 27.6783 88.875 27.7105 89.0435 27.5743Z" fill="#B2B2B2"/>
<path d="M101.454 34.8299L101.718 35.314C102.231 36.2643 103.027 36.7628 104.106 36.8094C105.734 36.8776 106.792 36.4024 107.28 35.3839C107.509 34.9141 107.875 34.751 108.377 34.8944L109.346 35.1687C109.905 35.3265 110.056 35.6672 109.797 36.1908C108.901 38.0233 107.483 39.0615 105.542 39.3054C101.535 39.8057 98.2804 37.0515 98.1352 32.9363C97.9738 28.3963 102.03 25.2709 106.435 26.5189C109.27 27.3204 110.405 30.5964 110.217 33.2806C110.211 33.3719 110.171 33.4576 110.104 33.5197C110.037 33.5819 109.948 33.6157 109.857 33.6141L102.186 33.6034C101.253 33.5998 101.009 34.0086 101.454 34.8299ZM101.352 31.4786L107.323 31.4678C107.346 31.4678 107.368 31.4587 107.384 31.4426C107.4 31.4265 107.409 31.4046 107.409 31.3818V31.3387C107.408 30.6404 107.095 29.9712 106.541 29.478C105.986 28.9848 105.234 28.708 104.45 28.7083H104.224C103.836 28.7084 103.45 28.7769 103.091 28.9097C102.732 29.0426 102.406 29.2372 102.131 29.4826C101.856 29.7279 101.638 30.019 101.49 30.3394C101.341 30.6597 101.265 31.003 101.266 31.3495V31.3925C101.266 31.4153 101.275 31.4372 101.291 31.4534C101.307 31.4695 101.329 31.4786 101.352 31.4786Z" fill="#B2B2B2"/>
<path d="M127.598 39.4331C126.756 39.4346 125.922 39.2642 125.143 38.9317C124.364 38.5992 123.657 38.1111 123.06 37.4953C122.464 36.8794 121.99 36.1479 121.667 35.3424C121.343 34.537 121.176 33.6734 121.174 32.8009C121.171 31.039 121.844 29.3481 123.044 28.1001C124.244 26.8521 125.874 26.1494 127.574 26.1464C128.417 26.1449 129.251 26.3153 130.029 26.6478C130.808 26.9803 131.515 27.4684 132.112 28.0843C132.708 28.7001 133.182 29.4316 133.506 30.2371C133.829 31.0425 133.997 31.9062 133.998 32.7786C134.001 34.5405 133.329 36.2314 132.128 37.4794C130.928 38.7274 129.298 39.4302 127.598 39.4331ZM127.477 36.7593C128.408 36.7723 129.308 36.3665 129.977 35.6313C130.646 34.8961 131.03 33.8916 131.045 32.8388C131.052 32.3175 130.968 31.8001 130.798 31.316C130.629 30.8319 130.376 30.3907 130.055 30.0176C129.734 29.6444 129.351 29.3466 128.928 29.1412C128.504 28.9358 128.049 28.8267 127.588 28.8203C126.656 28.8072 125.757 29.213 125.088 29.9482C124.419 30.6834 124.035 31.6879 124.02 32.7407C124.013 33.262 124.096 33.7795 124.266 34.2635C124.436 34.7476 124.688 35.1888 125.009 35.562C125.331 35.9351 125.714 36.2329 126.137 36.4384C126.56 36.6438 127.016 36.7528 127.477 36.7593Z" fill="#B2B2B2"/>
<path d="M154.762 28.9639C151.131 28.4959 150.415 32.2076 151.367 34.8703C151.683 35.7597 152.397 36.3281 153.508 36.5755C155.176 36.9449 156.485 36.294 157.435 34.6228C157.525 34.4686 157.65 34.4238 157.812 34.4883L159.619 35.1608C159.7 35.191 159.766 35.2521 159.802 35.3307C159.839 35.4093 159.842 35.499 159.813 35.5804C158.694 38.5605 156.37 39.6471 153.449 39.3028C150.561 38.9639 148.371 36.6454 147.941 33.8375C147.697 32.2452 147.989 30.7336 148.818 29.3027C151.152 25.2898 158.226 24.8488 159.657 29.9321C159.697 30.0704 159.681 30.2189 159.613 30.3465C159.545 30.474 159.429 30.5704 159.291 30.6153L157.817 31.094C157.638 31.155 157.485 31.112 157.36 30.965C156.542 29.9913 156.289 29.1575 154.762 28.9639Z" fill="#B2B2B2"/>
<path d="M143.38 38.0483C142.34 39.0811 141.029 39.5025 139.447 39.3124C136.586 38.9681 135.338 36.5797 135.397 33.9224C135.443 31.5699 135.443 29.2299 135.397 26.9025C135.396 26.8592 135.404 26.8162 135.42 26.776C135.436 26.7359 135.461 26.6994 135.491 26.6688C135.522 26.6382 135.558 26.6141 135.598 26.5978C135.639 26.5816 135.682 26.5736 135.725 26.5744L138.054 26.6066C138.291 26.6102 138.406 26.7321 138.398 26.9724C138.323 28.9161 138.334 31.3888 138.431 34.3904C138.538 37.7255 143.369 37.4028 143.433 34.1429C143.494 31.0839 143.501 28.7045 143.455 27.0047C143.444 26.7393 143.573 26.6048 143.842 26.6012L145.988 26.5851C146.085 26.5851 146.177 26.6229 146.245 26.6903C146.314 26.7578 146.353 26.8495 146.354 26.9455L146.408 38.6185C146.408 38.8049 146.318 38.9251 146.139 38.9789C144.888 39.3447 144.09 39.0614 143.745 38.129C143.666 37.9102 143.544 37.8833 143.38 38.0483Z" fill="#B2B2B2"/>
<path d="M49.9525 34.8145C50.4043 33.7745 50.7235 32.2253 50.91 30.1668C50.9278 29.9716 50.9845 29.7831 51.0767 29.6128C51.733 28.3899 52.4628 28.302 53.2661 29.3492C53.4164 29.5447 53.4994 29.7844 53.5028 30.0324C53.535 35.1247 51.672 39.2075 47.9137 42.2809C46.9401 43.077 45.4769 43.701 44.8422 42.453C44.7225 42.215 44.6825 41.9449 44.728 41.6824C44.7735 41.4199 44.9022 41.1791 45.095 40.9953C47.1069 39.0856 48.7045 37.687 49.9525 34.8145Z" fill="#B2B2B2"/>
<path d="M31.1084 46.9713C35.6234 48.8469 40.2119 48.8021 44.8739 46.8368C46.8158 46.0192 48.4027 44.825 50.1617 43.7707C50.278 43.7013 50.408 43.658 50.5427 43.6437C50.6775 43.6295 50.8138 43.6445 50.9425 43.6879C51.0712 43.7313 51.1891 43.802 51.2883 43.8952C51.3875 43.9884 51.4656 44.1019 51.5172 44.2279L51.6194 44.4753C51.9601 45.3109 51.7754 46.0084 51.0654 46.5679C39.7905 55.4006 23.6258 51.0918 18.252 37.7244C17.4558 35.7448 17.2084 33.5017 16.735 31.2693C16.5378 30.3333 16.8283 29.5892 17.6065 29.0369C17.7571 28.9293 17.9238 28.8594 18.1067 28.8271C19.0212 28.6658 19.5161 29.0477 19.5914 29.9729C20.2584 38.3896 24.0974 44.0558 31.1084 46.9713Z" fill="#B2B2B2"/>
<path d="M130.614 46.2351C130.649 46.407 130.615 46.5857 130.518 46.732C130.421 46.8782 130.27 46.9801 130.098 47.0151L130.012 47.0366C129.726 47.0943 129.435 47.1093 129.155 47.0807C128.874 47.0522 128.61 46.9806 128.378 46.8702C128.145 46.7598 127.949 46.6126 127.801 46.4372C127.652 46.2617 127.553 46.0614 127.511 45.8478L127.473 45.6703C127.387 45.2397 127.533 44.781 127.879 44.3947C128.225 44.0084 128.742 43.7261 129.318 43.61L129.41 43.5885C129.581 43.5536 129.76 43.5884 129.906 43.6852C130.053 43.7821 130.155 43.933 130.19 44.1049L130.614 46.2351ZM129.474 46.4287L129.964 44.745C129.982 44.6822 129.975 44.6148 129.943 44.5573C129.912 44.4999 129.859 44.4571 129.797 44.4384L129.738 44.4223C129.427 44.3323 129.098 44.352 128.824 44.4771C128.55 44.6022 128.352 44.8224 128.275 45.0893L128.231 45.2345C128.155 45.5009 128.204 45.7919 128.368 46.0439C128.533 46.2958 128.799 46.4884 129.108 46.5794L129.162 46.6009C129.194 46.6107 129.227 46.614 129.26 46.6106C129.293 46.6072 129.326 46.5972 129.355 46.5811C129.384 46.565 129.409 46.5433 129.43 46.5171C129.45 46.4909 129.465 46.4608 129.474 46.4287Z" fill="#B2B2B2"/>
<path d="M143.588 46.0613C143.893 46.237 144.137 46.4557 144.32 46.7175C144.347 46.7574 144.363 46.8039 144.366 46.852C144.369 46.9001 144.359 46.9481 144.337 46.991C144.315 47.0339 144.281 47.0701 144.241 47.0958C144.2 47.1215 144.153 47.1358 144.105 47.1371C143.613 47.1443 143.197 47.0726 142.857 46.9219C142.663 46.8323 142.572 46.6817 142.582 46.4701L142.663 44.4367C142.674 44.2359 142.76 44.0763 142.921 43.958C143.215 43.7392 143.497 43.6334 143.766 43.6406C144.34 43.655 144.428 43.8683 144.029 44.2807C143.657 44.668 143.425 45.0715 143.336 45.4911C143.278 45.7457 143.362 45.9358 143.588 46.0613Z" fill="#B2B2B2"/>
<path d="M147.356 44.5033L146.952 45.0039C146.812 45.1762 146.683 45.169 146.565 44.9824C146.514 44.9035 146.482 44.8155 146.468 44.7186C146.439 44.532 146.491 44.3723 146.624 44.2395C146.965 43.895 147.381 43.6904 147.873 43.6258C148.063 43.6007 148.167 43.6814 148.185 43.868C148.214 44.1121 148.176 44.34 148.072 44.5517C147.997 44.7133 147.925 44.7097 147.857 44.541C147.81 44.4333 147.706 44.3866 147.544 44.401C147.509 44.4043 147.473 44.4151 147.441 44.4326C147.409 44.4502 147.38 44.4742 147.356 44.5033Z" fill="#B2B2B2"/>
<path d="M73.3793 45.3962C73.2933 45.9018 73.356 46.3591 73.5676 46.7679C73.6465 46.9257 73.5981 47.0064 73.4224 47.01C72.9741 47.0207 72.5904 46.9633 72.2712 46.8378C72.0919 46.7661 72.004 46.6352 72.0076 46.4452L72.0614 44.2128C72.0624 44.1254 72.0866 44.04 72.1317 43.9652C72.1767 43.8904 72.241 43.8288 72.318 43.7868C72.3951 43.7447 72.482 43.7236 72.5702 43.7257C72.6583 43.7278 72.7445 43.7529 72.8199 43.7985L73.9603 44.4925C74.2113 44.6467 74.2006 44.7794 73.928 44.8905L73.7075 44.9874C73.622 45.022 73.547 45.0778 73.4895 45.1494C73.432 45.221 73.3941 45.306 73.3793 45.3962Z" fill="#B2B2B2"/>
<path d="M77.4561 46.5779C77.7394 46.9544 77.6462 47.1337 77.1764 47.1158L76.4663 47.0889C76.0934 47.0745 75.9123 46.8809 75.923 46.5079L75.9983 44.2863C76.0018 44.2089 76.0243 44.1338 76.0638 44.068C76.1033 44.0022 76.1585 43.9478 76.2243 43.9098C76.5363 43.7269 76.8949 43.6569 77.3001 43.7C77.5225 43.7215 77.5744 43.8255 77.4561 44.012C76.8716 44.9372 76.8716 45.7925 77.4561 46.5779Z" fill="#B2B2B2"/>
<path d="M93.2171 46.1088L92.7545 46.9426C92.6469 47.1327 92.5465 47.1309 92.4533 46.9372C92.4318 46.887 92.4121 46.8278 92.3941 46.7597C92.3798 46.6951 92.378 46.627 92.3887 46.5553C92.5394 45.7663 92.5824 45.1388 92.5178 44.6726C92.3565 43.4999 92.6129 43.3995 93.2871 44.3713C93.5632 44.7694 94.0384 45.3414 94.7126 46.0873C94.9098 46.3025 94.9224 46.5302 94.7502 46.7705L94.6373 46.9265C94.6184 46.953 94.5939 46.9751 94.5656 46.9911C94.5372 47.007 94.5058 47.0163 94.4737 47.0184C94.4416 47.0205 94.4096 47.0152 94.3802 47.003C94.3507 46.9908 94.3246 46.972 94.3038 46.948L93.513 46.0712C93.3983 45.9457 93.2996 45.9582 93.2171 46.1088Z" fill="#B2B2B2"/>
<path d="M107.407 47.2336C106.972 47.2321 106.556 47.0413 106.249 46.7033C105.943 46.3653 105.771 45.9077 105.773 45.4312C105.774 45.1953 105.817 44.9618 105.9 44.7441C105.984 44.5264 106.105 44.3287 106.258 44.1624C106.411 43.9961 106.592 43.8644 106.792 43.7748C106.991 43.6852 107.205 43.6395 107.42 43.6403C107.855 43.6418 108.272 43.8325 108.578 44.1705C108.885 44.5086 109.056 44.9661 109.054 45.4426C109.054 45.6786 109.01 45.9121 108.927 46.1298C108.844 46.3475 108.722 46.5451 108.569 46.7114C108.417 46.8777 108.235 47.0095 108.036 47.0991C107.836 47.1887 107.623 47.2344 107.407 47.2336ZM108.484 45.4477C108.484 45.3099 108.457 45.1735 108.404 45.0463C108.352 44.919 108.274 44.8034 108.177 44.706C108.08 44.6086 107.964 44.5313 107.837 44.4786C107.709 44.4259 107.573 44.3987 107.435 44.3987C107.157 44.3987 106.89 44.5093 106.694 44.706C106.497 44.9027 106.386 45.1695 106.386 45.4477C106.386 45.7259 106.497 45.9927 106.694 46.1894C106.89 46.3861 107.157 46.4967 107.435 46.4967C107.573 46.4967 107.709 46.4695 107.837 46.4168C107.964 46.3641 108.08 46.2868 108.177 46.1894C108.274 46.092 108.352 45.9764 108.404 45.8491C108.457 45.7218 108.484 45.5854 108.484 45.4477Z" fill="#B2B2B2"/>
<path d="M112.518 45.2399C112.246 44.8597 111.921 44.693 111.545 44.7396C111.498 44.7458 111.451 44.7411 111.406 44.726C111.361 44.7109 111.321 44.6857 111.288 44.6525C111.254 44.6192 111.229 44.5787 111.214 44.5341C111.199 44.4895 111.194 44.442 111.201 44.3953C111.279 43.7678 111.617 43.5777 112.212 43.8251C112.437 43.9182 112.634 44.0698 112.782 44.2644C112.931 44.459 113.025 44.6898 113.056 44.9333L113.218 46.1812C113.239 46.3677 113.178 46.5201 113.035 46.6385C112.544 47.033 111.993 47.18 111.383 47.0796C111.197 47.0473 111.086 46.9379 111.05 46.7514C111.007 46.5363 111.032 46.3462 111.125 46.1812C111.226 46.0055 111.364 45.9679 111.539 46.0683C111.636 46.1257 111.712 46.1902 111.765 46.2619C111.776 46.2799 111.792 46.2853 111.814 46.2781C112.172 46.1454 112.42 45.9033 112.556 45.5519C112.599 45.4407 112.587 45.3367 112.518 45.2399Z" fill="#B2B2B2"/>
<path d="M122.734 44.4595C122.339 45.3417 122.481 46.1038 123.159 46.7457C123.306 46.8856 123.282 46.986 123.089 47.047C122.633 47.1868 122.199 47.1904 121.787 47.0577C121.615 47.0039 121.529 46.8856 121.529 46.7027V44.2874C121.529 44.0686 121.627 43.9108 121.825 43.814C122.187 43.6311 122.546 43.6132 122.901 43.7602C123.087 43.8391 123.125 43.9611 123.014 44.126C122.981 44.1726 122.945 44.2121 122.906 44.2444C122.831 44.3017 122.773 44.3735 122.734 44.4595Z" fill="#B2B2B2"/>
<path d="M69.0436 44.2762C68.9934 44.2582 68.9612 44.2206 68.9468 44.1632C68.9253 44.0843 68.9576 44.0449 69.0436 44.0449C69.2911 44.052 69.5296 44.1596 69.7591 44.3676C69.8176 44.4211 69.8644 44.4862 69.8967 44.5586C69.9289 44.6311 69.9457 44.7094 69.9462 44.7887C69.9467 44.868 69.9309 44.9466 69.8996 45.0194C69.8683 45.0923 69.8223 45.1579 69.7645 45.2122C69.5063 45.456 69.223 45.6425 68.9145 45.7716C68.7603 45.8362 68.6564 45.9473 68.6026 46.1051C68.4699 46.4996 68.2637 46.8134 67.9839 47.0465C67.9492 47.0758 67.9068 47.0948 67.8618 47.1012C67.8167 47.1075 67.7708 47.1011 67.7292 47.0826C67.6877 47.0641 67.6522 47.0342 67.6268 46.9964C67.6015 46.9586 67.5873 46.9145 67.5859 46.869C67.5644 46.1051 67.5715 45.3646 67.6074 44.6473C67.6253 44.2385 67.81 43.9893 68.1615 43.8996C68.1816 43.8939 68.2028 43.8933 68.2232 43.898C68.2436 43.9027 68.2625 43.9125 68.2781 43.9264C68.2937 43.9404 68.3055 43.9581 68.3124 43.9779C68.3192 43.9977 68.321 44.0189 68.3175 44.0395C68.2457 44.5272 68.2493 44.8733 68.3282 45.0777C68.4107 45.2893 68.5362 45.3162 68.7048 45.1584C68.902 44.9755 69.049 44.7513 69.1458 44.486C69.1817 44.382 69.1476 44.312 69.0436 44.2762Z" fill="#B2B2B2"/>
<path d="M81.4954 45.4161C81.8757 45.5893 82.1894 46.0377 82.3356 46.4292C82.3569 46.4821 82.3622 46.5399 82.3509 46.5957C82.3396 46.6515 82.3121 46.7029 82.2718 46.7438C82.2315 46.7847 82.1801 46.8133 82.1237 46.8262C82.0672 46.839 82.0082 46.8357 81.9537 46.8165L80.738 46.3754C80.5838 46.318 80.4583 46.3557 80.3614 46.4883C80.322 46.5385 80.2933 46.5941 80.2754 46.6551C80.2144 46.8488 80.1642 46.847 80.1248 46.6497C80.0853 46.4417 80.1301 46.2499 80.2592 46.0742C80.338 45.9709 80.3755 45.8419 80.3645 45.7119C80.3536 45.5818 80.2951 45.4599 80.2001 45.3695C79.9024 45.0862 79.793 44.7993 79.8719 44.5088C80.1158 43.5656 80.374 43.5638 80.6465 44.5034C80.7625 44.907 81.0455 45.2112 81.4954 45.4161Z" fill="#B2B2B2"/>
<path d="M82.6638 45.6045C82.5221 45.5155 82.2467 45.3678 82.2426 45.2004C82.2292 44.6539 82.2871 44.2972 82.4164 44.1306C82.6567 43.8258 82.9221 43.7558 83.2125 43.9208C83.3703 44.0105 83.4546 44.1449 83.4653 44.3243L83.616 46.7772C83.6232 46.8633 83.5855 46.9134 83.503 46.9278L83.234 46.9708C83.1958 46.9774 83.1566 46.9752 83.1193 46.9645C83.082 46.9537 83.0476 46.9348 83.0187 46.9089C82.9897 46.8831 82.967 46.851 82.9521 46.8152C82.9373 46.7793 82.9306 46.7406 82.9328 46.7019C82.9543 46.4186 82.9292 46.1406 82.8575 45.8681C82.8252 45.7569 82.7607 45.6691 82.6638 45.6045Z" fill="#B2B2B2"/>
<path d="M85.4131 45.4919C85.3979 46.4603 85.53 47.2476 85.7082 47.2504C85.8865 47.2532 86.0433 46.4704 86.0585 45.502C86.0737 44.5336 85.9416 43.7463 85.7633 43.7435C85.5851 43.7407 85.4283 44.5235 85.4131 45.4919Z" fill="#B2B2B2"/>
<path d="M89.0915 46.4929C89.9898 46.3154 89.9252 44.8953 89.8553 44.2229C89.8338 44.0113 89.927 43.8804 90.135 43.8302C90.1817 43.8158 90.2319 43.8122 90.2857 43.8194C90.4076 43.8302 90.4883 43.8947 90.5277 44.0131C90.8505 45.0513 90.5654 47.2406 89.0753 47.1599C87.4938 47.0792 87.51 45.0835 87.8273 43.9216C87.8335 43.8996 87.844 43.8791 87.8582 43.8611C87.8724 43.8432 87.8901 43.8283 87.9101 43.8173C87.9301 43.8063 87.9522 43.7994 87.9749 43.797C87.9976 43.7945 88.0206 43.7967 88.0425 43.8033L88.2146 43.8463C88.3053 43.8713 88.3851 43.926 88.4415 44.002C88.498 44.0779 88.5279 44.1707 88.5266 44.2659L88.4836 45.9765C88.4814 46.053 88.4964 46.1291 88.5276 46.199C88.5587 46.269 88.6052 46.3311 88.6636 46.3806C88.7219 46.4302 88.7907 46.466 88.8647 46.4855C88.9388 46.5049 89.0163 46.5074 89.0915 46.4929Z" fill="#B2B2B2"/>
<path d="M95.4659 46.2057C95.3189 45.7431 95.1306 45.3558 94.9011 45.0438C94.8256 44.9433 94.7753 44.8262 94.7545 44.7023C94.7336 44.5784 94.7428 44.4512 94.7813 44.3316C94.8198 44.212 94.8864 44.1033 94.9756 44.0148C95.0647 43.9262 95.1739 43.8603 95.2938 43.8227C95.3727 43.7976 95.4695 43.8084 95.5843 43.855C95.7528 43.9267 95.8496 44.054 95.8747 44.2369C95.9859 45.0546 96.0522 45.7987 96.0737 46.4693C96.0881 47.0037 95.9429 47.0539 95.638 46.6199C95.5842 46.5446 95.5269 46.4066 95.4659 46.2057Z" fill="#B2B2B2"/>
<path d="M101.045 46.1254C100.984 46.4841 100.852 46.7674 100.647 46.9754C100.454 47.169 100.337 47.1296 100.298 46.857C100.154 45.8529 100.215 44.9366 100.48 44.1082C100.538 43.9289 100.66 43.8482 100.846 43.8662C101.68 43.9522 101.847 44.9689 101.357 45.4907C101.189 45.67 101.085 45.8816 101.045 46.1254Z" fill="#B2B2B2"/>
<path d="M103.234 45.8516C103.205 45.7117 103.121 45.6543 102.981 45.6794L102.847 45.701C102.778 45.713 102.717 45.7505 102.676 45.8057C102.635 45.8608 102.617 45.9293 102.626 45.9968C102.68 46.42 102.535 46.7302 102.19 46.9274C102.14 46.9558 102.084 46.9708 102.026 46.9708C101.969 46.9709 101.912 46.956 101.863 46.9276C101.813 46.8993 101.772 46.8585 101.744 46.8093C101.715 46.7602 101.7 46.7044 101.701 46.6477V46.1044C101.701 45.9215 101.782 45.787 101.943 45.701L102.486 45.3997C102.559 45.3589 102.62 45.2994 102.662 45.2274C102.703 45.1554 102.724 45.0737 102.723 44.9909C102.712 44.4279 102.969 44.0406 103.492 43.829C103.543 43.8092 103.597 43.8018 103.651 43.8072C103.704 43.8127 103.756 43.8309 103.801 43.8604C103.846 43.8899 103.884 43.9297 103.911 43.9767C103.937 44.0236 103.953 44.0762 103.955 44.1302L104.03 46.3949C104.062 47.3596 103.844 47.4008 103.374 46.5186C103.367 46.5043 103.32 46.2819 103.234 45.8516Z" fill="#B2B2B2"/>
<path d="M115.39 43.8632L115.357 43.8638C115.188 43.8667 115.053 44.0064 115.056 44.1757L115.103 46.8326C115.106 47.002 115.245 47.1368 115.415 47.1339L115.447 47.1333C115.616 47.1303 115.751 46.9907 115.748 46.8214L115.702 44.1644C115.699 43.9951 115.559 43.8603 115.39 43.8632Z" fill="#B2B2B2"/>
<path d="M118.598 46.3567C118.806 46.4428 119.019 46.4966 119.238 46.5181C119.349 46.5289 119.433 46.5791 119.491 46.6688C119.519 46.719 119.534 46.7745 119.534 46.8355C119.53 46.9646 119.464 47.0417 119.335 47.0668C118.847 47.1529 118.361 47.1439 117.877 47.0399C117.697 47.0005 117.581 46.8929 117.527 46.7171C117.247 45.7955 117.271 44.8954 117.597 44.0168C117.665 43.8375 117.791 43.7801 117.974 43.8447C118.099 43.8913 118.16 43.9845 118.156 44.1244C118.139 44.7484 118.174 45.3526 118.264 45.9372C118.279 46.0304 118.317 46.1182 118.376 46.1918C118.434 46.2653 118.511 46.3222 118.598 46.3567Z" fill="#B2B2B2"/>
<path d="M133.895 45.906C133.447 46.1642 133.117 46.4314 132.906 46.7075C132.393 47.3817 132.21 47.301 132.357 46.4655C132.425 46.0746 132.64 45.7124 133.002 45.3788C133.146 45.2461 133.237 45.083 133.277 44.8893L133.427 44.1954C133.47 43.9982 133.591 43.8709 133.788 43.8135C133.942 43.7669 134.085 43.8009 134.218 43.9157C134.308 43.991 134.374 44.1201 134.417 44.303C134.55 44.8624 134.804 45.5097 135.181 46.2449C135.285 46.4493 135.299 46.677 135.224 46.9281C135.16 47.1361 135.059 47.154 134.923 46.9819L134.116 45.9544C134.055 45.8719 133.981 45.8558 133.895 45.906Z" fill="#B2B2B2"/>
<path d="M139.011 45.7402C139.162 45.6575 139.354 45.7291 139.359 45.9014C139.367 46.173 139.271 46.4814 139.071 46.8268C138.877 47.1639 138.723 47.146 138.608 46.773C138.493 46.4072 138.294 46.0342 138.011 45.6541C137.889 45.4856 137.799 45.5017 137.742 45.7025L137.419 46.8698C137.383 46.9953 137.303 47.0402 137.177 47.0043C137.112 46.9828 137.06 46.938 137.021 46.8698C136.999 46.8268 136.992 46.7748 136.999 46.7138C137.103 45.8747 137.139 45.0301 137.107 44.1802C137.1 43.9865 137.191 43.8843 137.381 43.8736C137.579 43.8664 137.738 43.9597 137.86 44.1533C138.151 44.6123 138.38 45.0803 138.549 45.5573C138.564 45.6014 138.589 45.6417 138.621 45.6754C138.654 45.7091 138.693 45.7355 138.737 45.7529C138.781 45.7702 138.828 45.778 138.875 45.7758C138.922 45.7736 138.969 45.7615 139.011 45.7402Z" fill="#B2B2B2"/>
<path d="M139.538 45.6321C139.395 45.6035 139.287 45.4828 139.287 45.337C139.285 44.5619 139.561 44.0524 140.114 43.8085C140.163 43.7868 140.216 43.7771 140.269 43.7804C140.323 43.7836 140.374 43.7996 140.42 43.827C140.466 43.8544 140.505 43.8925 140.533 43.9379C140.561 43.9834 140.578 44.0349 140.582 44.0882L140.765 46.5304C140.822 47.2978 140.627 47.3678 140.178 46.7402C140.081 46.6003 139.983 46.3403 139.882 45.9602C139.836 45.7773 139.721 45.6679 139.538 45.6321Z" fill="#B2B2B2"/>
<path d="M147.145 46.4936C147.396 46.5187 147.586 46.4327 147.715 46.2354C147.876 45.9826 147.769 45.52 147.882 45.1703C147.95 44.9587 148.049 44.9426 148.178 45.1219C148.486 45.5523 148.633 45.9844 148.619 46.4183C148.612 46.6012 148.525 46.7339 148.361 46.8164C147.891 47.0531 147.399 47.1643 146.887 47.1499C146.693 47.1463 146.569 47.0513 146.515 46.8648C146.447 46.6353 146.465 46.4094 146.569 46.187C146.695 45.9216 146.806 45.927 146.903 46.2032L146.951 46.3377C146.983 46.4309 147.048 46.4829 147.145 46.4936Z" fill="#B2B2B2"/>
<path d="M164.288 27.2626C164.287 27.309 164.3 27.3547 164.325 27.394C164.35 27.4332 164.386 27.4642 164.428 27.4831C164.471 27.5021 164.518 27.5081 164.564 27.5004C164.609 27.4928 164.652 27.4718 164.686 27.4401C165.439 26.7121 166.293 26.3212 167.246 26.2674C170.499 26.0917 172.12 27.6319 172.109 30.8882C172.102 33.5921 172.091 36.2083 172.077 38.7365C172.076 38.7846 172.066 38.832 172.047 38.8759C172.027 38.9198 171.999 38.9593 171.964 38.992C171.928 39.0246 171.887 39.0498 171.842 39.066C171.796 39.0822 171.748 39.0891 171.7 39.0861L169.785 38.9678C169.52 38.9535 169.393 38.8136 169.404 38.5482C169.472 36.3642 169.45 33.9131 169.339 31.1948C169.21 27.9135 164.455 28.3008 164.369 31.5229C164.293 34.356 164.288 36.7283 164.352 38.6397C164.36 38.8728 164.247 38.9911 164.014 38.9947L161.625 39.0216C161.349 39.0252 161.211 38.8871 161.211 38.6074L161.206 21.0011C161.206 20.6533 161.38 20.4865 161.727 20.5009L163.874 20.5816C164.196 20.5923 164.356 20.7609 164.352 21.0872L164.288 27.2626Z" fill="#B2B2B2"/>
</svg>
