<svg width="184" height="63" viewBox="0 0 184 63" fill="none" xmlns="http://www.w3.org/2000/svg">
<path d="M73.6099 38.6821L73.5453 14.3732C73.5448 14.2938 73.5735 14.2169 73.6261 14.1574C73.6787 14.0978 73.7515 14.0597 73.8304 14.0505L78.661 13.448C78.7068 13.4418 78.7535 13.4456 78.7978 13.459C78.842 13.4725 78.8829 13.4953 78.9176 13.5259C78.9523 13.5565 78.98 13.5942 78.9988 13.6364C79.0177 13.6787 79.0272 13.7245 79.0268 13.7708L78.9945 38.2033C78.9936 38.2827 78.9634 38.3589 78.9098 38.4174C78.8563 38.476 78.783 38.5127 78.704 38.5207L73.9649 38.9994C73.9203 39.0039 73.8753 38.9991 73.8327 38.9852C73.7901 38.9713 73.7509 38.9488 73.7175 38.9189C73.6841 38.8891 73.6573 38.8526 73.6387 38.8118C73.6202 38.771 73.6104 38.7269 73.6099 38.6821Z" fill="#B2B2B2"/>
<path d="M123.373 38.7565L123.281 14.3132C123.281 14.2477 123.305 14.1844 123.349 14.1357C123.393 14.087 123.453 14.0563 123.518 14.0496L128.365 13.5386C128.401 13.5348 128.439 13.5388 128.474 13.5503C128.509 13.5619 128.541 13.5807 128.569 13.6056C128.596 13.6304 128.618 13.6608 128.633 13.6947C128.648 13.7285 128.655 13.7652 128.655 13.8022L128.628 38.2939C128.627 38.3584 128.603 38.4204 128.559 38.468C128.515 38.5156 128.456 38.5455 128.392 38.5521L123.663 39.0201C123.626 39.0238 123.589 39.0198 123.554 39.0083C123.519 38.9967 123.487 38.9779 123.459 38.9531C123.432 38.9282 123.41 38.8978 123.395 38.864C123.38 38.8301 123.373 38.7935 123.373 38.7565Z" fill="#B2B2B2"/>
<path d="M50.5166 26.9221C50.4704 28.5759 50.0914 30.2041 49.4013 31.7139C48.7111 33.2237 47.7234 34.5855 46.4943 35.7215C45.2653 36.8575 43.8191 37.7454 42.2383 38.3346C40.6575 38.9239 38.973 39.2028 37.2811 39.1555C35.5892 39.1083 33.923 38.7357 32.3776 38.0592C30.8321 37.3827 29.4377 36.4154 28.274 35.2126C27.1103 34.0098 26.2001 32.595 25.5953 31.049C24.9905 29.503 24.703 27.8561 24.7492 26.2023C24.7954 24.5486 25.1744 22.9203 25.8645 21.4105C26.5547 19.9007 27.5425 18.5389 28.7715 17.403C30.0005 16.267 31.4467 15.379 33.0275 14.7898C34.6083 14.2006 36.2928 13.9217 37.9847 13.9689C39.6766 14.0162 41.3428 14.3887 42.8882 15.0652C44.4337 15.7418 45.8281 16.7091 46.9918 17.9119C48.1555 19.1147 49.0657 20.5295 49.6705 22.0755C50.2753 23.6214 50.5628 25.2683 50.5166 26.9221ZM37.6799 33.8726C39.553 33.866 41.3468 33.0941 42.6666 31.7266C43.9864 30.3591 44.724 28.508 44.7173 26.5806C44.714 25.6262 44.528 24.6819 44.17 23.8014C43.812 22.9209 43.2889 22.1216 42.6307 21.4491C41.9725 20.7765 41.192 20.2439 40.3338 19.8817C39.4756 19.5195 38.5565 19.3347 37.629 19.338C35.7558 19.3445 33.962 20.1164 32.6423 21.4839C31.3225 22.8515 30.5848 24.7025 30.5915 26.6299C30.5949 27.5842 30.7808 28.5286 31.1389 29.4091C31.4969 30.2896 32.02 31.0889 32.6782 31.7615C33.3364 32.434 34.1169 32.9666 34.9751 33.3288C35.8332 33.6911 36.7523 33.8758 37.6799 33.8726Z" fill="#B2B2B2"/>
<path d="M58.4291 22.5987C58.9384 22.3584 59.3597 22.0105 59.6932 21.5551C60.8175 20.0166 63.222 19.7261 64.938 20.1511C68.6604 21.071 69.5104 23.6745 69.6395 27.1065C69.7757 30.6102 69.7991 34.1892 69.7094 37.8435C69.7051 38.0285 69.6332 38.2056 69.5074 38.3413C69.3816 38.477 69.2104 38.5621 69.0262 38.5804L64.7713 38.9946C64.7126 38.9999 64.6534 38.9929 64.5977 38.9741C64.5419 38.9554 64.4908 38.9252 64.4477 38.8856C64.4046 38.846 64.3704 38.7979 64.3474 38.7444C64.3243 38.6909 64.3129 38.6332 64.314 38.575C64.3463 34.8813 64.3481 31.2395 64.3194 27.6498C64.305 25.8818 63.4677 24.9171 61.8073 24.7557C59.0854 24.4922 58.6712 26.4018 58.6658 28.5804C58.655 31.6717 58.6443 34.736 58.6335 37.7735C58.6335 38.2792 58.3807 38.5535 57.8751 38.5965L53.7169 38.957C53.6584 38.9614 53.5996 38.9539 53.5442 38.9348C53.4888 38.9157 53.4381 38.8855 53.3951 38.8461C53.3522 38.8067 53.318 38.7589 53.2947 38.7058C53.2714 38.6526 53.2594 38.5953 53.2597 38.5374L53.2651 21.1839C53.2651 20.6926 53.5071 20.4254 53.9913 20.3824L57.5846 20.0543C58.0974 20.0041 58.3287 20.2372 58.2785 20.7536L58.1225 22.3835C58.0974 22.6381 58.1996 22.7098 58.4291 22.5987Z" fill="#B2B2B2"/>
<path d="M105.988 37.3364C105.925 37.3633 105.873 37.4094 105.838 37.4683C105.804 37.5272 105.788 37.5959 105.794 37.6645C106.034 39.9776 106.108 42.1723 106.015 44.2487C105.997 44.654 105.785 44.862 105.38 44.8727C103.87 44.905 102.418 45.07 101.023 45.3676C100.966 45.3797 100.907 45.3789 100.851 45.3653C100.795 45.3516 100.742 45.3256 100.697 45.2889C100.652 45.2522 100.616 45.206 100.591 45.1535C100.567 45.101 100.554 45.0437 100.555 44.9857L100.673 21.3332C100.677 20.8132 100.937 20.5244 101.453 20.4671L104.971 20.0583C105.538 19.9937 105.771 20.2412 105.67 20.8006L105.364 22.5219C105.345 22.6327 105.365 22.7464 105.421 22.8422C105.478 22.938 105.566 23.0096 105.67 23.0438C105.878 23.1119 106.047 23.0617 106.176 22.8931C108.213 20.2429 110.739 19.4235 113.755 20.4348C116.829 21.4604 118.857 23.657 119.839 27.0244C120.725 30.0654 120.184 32.8662 118.215 35.4268C116.529 37.6143 114.263 38.8785 111.415 39.2192C109.572 39.4415 107.87 38.8318 106.31 37.3902C106.214 37.3005 106.106 37.2826 105.988 37.3364ZM110.54 34.4518C111.766 34.3875 112.916 33.8154 113.736 32.8612C114.556 31.9071 114.978 30.6491 114.911 29.364C114.878 28.7277 114.725 28.1039 114.462 27.5282C114.198 26.9525 113.83 26.4362 113.377 26.0088C112.924 25.5814 112.395 25.2512 111.821 25.0371C111.247 24.823 110.639 24.7292 110.032 24.761C108.805 24.8253 107.655 25.3975 106.836 26.3516C106.016 27.3058 105.593 28.5637 105.661 29.8488C105.694 30.4851 105.847 31.1089 106.11 31.6846C106.373 32.2603 106.742 32.7766 107.195 33.204C107.648 33.6315 108.176 33.9617 108.75 34.1758C109.324 34.3899 109.932 34.4837 110.54 34.4518Z" fill="#B2B2B2"/>
<path d="M141.991 27.9403C142.04 27.9548 142.092 27.9583 142.142 27.9508C142.193 27.9432 142.242 27.9247 142.285 27.8966C142.328 27.8685 142.364 27.8314 142.391 27.7879C142.418 27.7443 142.436 27.6954 142.442 27.6445C142.98 23.4379 137.262 24.3631 134.901 25.1593C134.331 25.3529 134.094 25.1521 134.191 24.5568L134.68 21.5928C134.781 20.9904 135.125 20.6156 135.713 20.4686C139.366 19.5433 145.358 19.6509 146.902 23.6208C147.164 24.295 147.312 25.292 147.348 26.6117C147.452 30.4525 147.468 34.2717 147.397 38.0695C147.394 38.1933 147.347 38.3118 147.265 38.4029C147.183 38.4939 147.071 38.5513 146.95 38.5644L143.378 38.9624C143.192 38.9839 143.049 38.9176 142.948 38.7634C142.744 38.4514 142.633 38.1053 142.615 37.7252C142.612 37.6765 142.596 37.6295 142.567 37.59C142.538 37.5505 142.499 37.52 142.453 37.5024C142.408 37.4848 142.358 37.4807 142.311 37.4906C142.263 37.5005 142.219 37.5241 142.184 37.5584C140.122 39.5093 137.71 39.8357 134.949 38.5375C133.059 37.6481 131.996 36.0307 131.759 33.6854C131.291 29.0323 135.412 25.9984 139.683 26.9613C140.463 27.1388 141.178 27.709 141.991 27.9403ZM142.446 32.76C142.471 32.0814 142.186 31.4192 141.654 30.9192C141.122 30.4192 140.387 30.1223 139.61 30.0938C138.833 30.0653 138.078 30.3075 137.511 30.7673C136.944 31.227 136.611 31.8665 136.586 32.5451C136.562 33.2238 136.846 33.8859 137.378 34.3859C137.91 34.886 138.645 35.1829 139.422 35.2114C140.199 35.2398 140.954 34.9976 141.521 34.5379C142.088 34.0781 142.421 33.4386 142.446 32.76Z" fill="#B2B2B2"/>
<path d="M162.447 20.0687L167.246 21.3651C167.27 21.3721 167.293 21.3843 167.312 21.4008C167.331 21.4172 167.346 21.4376 167.357 21.4605C167.368 21.4834 167.373 21.5084 167.374 21.5337C167.374 21.5589 167.369 21.584 167.359 21.6072L156.697 45.2489C156.681 45.2832 156.655 45.3115 156.622 45.3299C156.589 45.3483 156.551 45.3557 156.514 45.3511L151.286 44.7863C151.257 44.7826 151.23 44.7722 151.207 44.7558C151.183 44.7394 151.164 44.7176 151.151 44.6923C151.138 44.6669 151.131 44.6388 151.131 44.6102C151.131 44.5816 151.138 44.5535 151.151 44.5281L155.099 37.0564C155.112 37.0325 155.119 37.006 155.12 36.979C155.121 36.9519 155.116 36.9251 155.105 36.9004L148.257 21.5157C148.246 21.4919 148.24 21.466 148.24 21.4398C148.24 21.4136 148.246 21.3877 148.258 21.364C148.269 21.3404 148.285 21.3195 148.306 21.3029C148.326 21.2864 148.35 21.2746 148.375 21.2683L153.168 20.0472C153.21 20.0363 153.255 20.0413 153.294 20.0611C153.332 20.0809 153.362 20.1143 153.378 20.1548L157.719 30.8057C157.733 30.8379 157.756 30.8653 157.786 30.8844C157.815 30.9035 157.85 30.9133 157.885 30.9128C157.92 30.9122 157.954 30.9012 157.983 30.8811C158.012 30.8611 158.034 30.833 158.047 30.8003L162.238 20.1709C162.254 20.1314 162.285 20.0993 162.323 20.0805C162.362 20.0617 162.406 20.0575 162.447 20.0687Z" fill="#B2B2B2"/>
<path d="M90.4037 30.6784C90.4662 30.6753 90.5267 30.6539 90.5782 30.6168C90.6296 30.5796 90.6699 30.5282 90.6942 30.4686L94.5726 20.6783C94.7484 20.2372 95.0676 20.0759 95.5302 20.1942L99.1935 21.1302C99.2823 21.1538 99.365 21.1962 99.4359 21.2545C99.5068 21.3128 99.5642 21.3857 99.6041 21.468C99.644 21.5504 99.6654 21.6403 99.667 21.7315C99.6685 21.8226 99.6501 21.913 99.613 21.9962L89.2257 45.2884C89.2001 45.3459 89.1552 45.3927 89.0984 45.4211C89.0416 45.4495 88.9764 45.4577 88.9137 45.4444C87.2533 45.0894 85.5051 44.9011 83.669 44.8795C83.6512 44.8798 83.6336 44.8754 83.618 44.8668C83.6024 44.8582 83.5894 44.8456 83.5801 44.8304C83.5709 44.8152 83.5658 44.7978 83.5653 44.78C83.5649 44.7622 83.5691 44.7446 83.5775 44.7289L87.499 37.1657C87.5922 36.9792 87.5976 36.791 87.5151 36.6009L80.9201 21.9371C80.8827 21.8521 80.8643 21.76 80.8664 21.6673C80.8684 21.5746 80.8909 21.4836 80.932 21.4008C80.9731 21.3181 81.0319 21.2456 81.1043 21.1885C81.1767 21.1315 81.2607 21.0914 81.3505 21.071L85.1697 20.1996C85.6252 20.0956 85.939 20.2605 86.1111 20.6945C87.3232 23.7427 88.6053 26.9416 89.9573 30.291C90.0649 30.5564 90.2137 30.6855 90.4037 30.6784Z" fill="#B2B2B2"/>
</svg>
