
<svg width="184" height="63" viewBox="0 0 184 63" fill="none" xmlns="http://www.w3.org/2000/svg">
<path d="M49.2088 21.0077C48.8538 21.0041 48.7785 21.1457 48.9829 21.4326L55.013 29.8673C55.1062 29.9964 55.108 30.1273 55.0184 30.26C53.3974 32.5838 51.7281 34.8753 50.0103 37.1346C49.5046 37.7963 49.51 38.1728 49.4831 38.9582C49.476 39.1447 49.4204 39.3132 49.3164 39.4639L44.4374 46.4999C44.4219 46.5219 44.4022 46.5405 44.3796 46.5547C44.357 46.5689 44.332 46.5783 44.3062 46.5824C44.2804 46.5864 44.2544 46.585 44.2297 46.5782C44.2051 46.5714 44.1824 46.5594 44.1631 46.5429C40.2792 43.3979 37.76 39.376 36.6052 34.4773C34.3459 24.9184 39.042 15.4832 47.5789 10.9323C54.3567 7.32286 62.7053 8.09207 69.3164 12.0135C69.3383 12.0263 69.3574 12.0436 69.3722 12.064C69.387 12.0845 69.3974 12.1078 69.4025 12.1322C69.4076 12.1567 69.4073 12.1818 69.4017 12.2059C69.3962 12.2299 69.3854 12.2524 69.3702 12.2718C67.4659 14.8646 65.5491 17.4591 63.6198 20.0555C63.0657 20.8086 61.8177 21.1852 61.1077 22.0459C59.8956 23.5234 58.7516 25.1013 57.6757 26.7796C57.5251 27.0127 57.3709 27.0163 57.2131 26.7903L53.3293 21.3896C53.2493 21.2782 53.1441 21.1875 53.0226 21.1248C52.901 21.0622 52.7664 21.0294 52.63 21.0292L49.2088 21.0077ZM40.8871 22.8366C41.8822 22.9065 43.1034 23.1163 43.098 24.3643C43.08 28.6032 43.0513 32.7882 43.0119 36.9195C43.0119 37.1992 43.15 37.3408 43.4261 37.3444L47.24 37.3767C47.2939 37.3774 47.3473 37.3673 47.3973 37.3471C47.4472 37.3268 47.4926 37.2967 47.5307 37.2586C47.5688 37.2205 47.5989 37.1751 47.6191 37.1252C47.6394 37.0753 47.6495 37.0218 47.6488 36.9679C47.6129 32.79 47.6022 28.5763 47.6165 24.3266C47.6273 20.5289 43.4745 21.1905 41.0808 21.2659C40.6899 21.2766 40.4693 21.4756 40.4191 21.8629L40.3707 22.2018C40.3169 22.5999 40.489 22.8115 40.8871 22.8366Z" fill="#B2B2B2"/>
<path d="M65.9054 38.8028C66.4361 38.8136 66.5473 38.6037 66.2389 38.1734L60.2249 29.7818C60.1998 29.7458 60.1868 29.7026 60.1878 29.6582C60.1888 29.6138 60.2036 29.5705 60.2303 29.5343C61.9588 27.2069 63.6855 24.858 65.4105 22.4875C65.6866 22.1074 65.8408 21.5533 65.8731 20.8253C65.8839 20.6353 65.943 20.4613 66.0506 20.3036L70.6499 13.6225C70.8005 13.4038 70.978 13.3787 71.1824 13.5472C76.9328 18.3939 79.956 25.1341 79.0415 32.7081C78.1593 40.0185 73.1458 46.5597 66.2927 49.4591C59.773 52.2133 52.5594 51.5785 46.4325 48.0551C46.3974 48.035 46.3668 48.008 46.3427 47.9757C46.3185 47.9434 46.3013 47.9067 46.2922 47.8677C46.2831 47.8287 46.2822 47.7884 46.2897 47.7493C46.2972 47.7103 46.3129 47.6734 46.3357 47.6409C48.0427 45.1342 49.7856 42.6059 51.5643 40.0561C52.3335 38.9588 53.5277 38.6199 54.2808 37.7431C55.2132 36.6529 56.3751 35.066 57.7666 32.9824C57.8741 32.8247 57.9818 32.8229 58.0893 32.9771L61.6396 38.0873C61.9301 38.5105 62.3317 38.7275 62.8446 38.7382L65.9054 38.8028ZM70.6176 34.9781C69.9506 32.6597 72.9253 30.6532 74.8564 29.2869C76.7876 27.9206 76.6693 26.8931 76.68 24.9727C76.6962 22.9179 75.9915 21.8743 73.8451 21.4924C71.0963 20.9975 67.2556 21.1589 67.0404 24.7791C66.9866 25.6756 66.9633 26.608 66.9704 27.5763C66.9697 27.6422 66.9873 27.7071 67.0213 27.7636C67.0554 27.82 67.1045 27.8659 67.1631 27.8961C67.2217 27.9263 67.2876 27.9395 67.3534 27.9343C67.4191 27.9291 67.4821 27.9057 67.5353 27.8668C68.4354 27.2213 69.3391 26.5094 70.2464 25.7312C70.5405 25.4802 70.6696 24.9602 70.6337 24.1712C70.6015 23.4755 70.935 23.1133 71.6343 23.0846C71.7132 23.081 71.7903 23.0792 71.8656 23.0792C72.5649 23.0505 72.9701 23.3823 73.0813 24.0744C73.3072 25.4461 73.3556 26.4198 72.2959 27.4526C71.2739 28.4423 70.1819 29.3514 69.02 30.1798C67.8043 31.0513 66.9167 32.0895 66.9866 33.7517C67.0261 34.7092 67.0261 35.7223 66.9866 36.7909C66.9844 36.8594 66.9961 36.9276 67.0208 36.9915C67.0455 37.0553 67.0828 37.1136 67.1304 37.1628C67.1781 37.212 67.2352 37.2511 67.2983 37.2777C67.3614 37.3044 67.4291 37.3182 67.4976 37.3181L75.7817 37.2805C76.4487 37.2769 76.7894 36.9434 76.8037 36.2799L76.8091 36.0701C76.8113 35.9631 76.792 35.8566 76.7523 35.7572C76.7127 35.6577 76.6535 35.5672 76.5783 35.491C76.5031 35.4148 76.4133 35.3544 76.3144 35.3134C76.2154 35.2724 76.1093 35.2517 76.0022 35.2525L71.021 35.274C70.93 35.2755 70.8412 35.2472 70.7683 35.1938C70.6954 35.1403 70.6424 35.0645 70.6176 34.9781Z" fill="#B2B2B2"/>
<path d="M123.355 20.7857C124.408 20.8391 125.301 20.115 125.349 19.1685C125.397 18.222 124.582 17.4115 123.529 17.3581C122.475 17.3048 121.583 18.0288 121.535 18.9753C121.487 19.9218 122.302 20.7324 123.355 20.7857Z" fill="#B2B2B2"/>
<path d="M90.4517 31.8423C90.4599 31.7987 90.4553 31.7537 90.4386 31.7126C90.4219 31.6715 90.3937 31.6361 90.3574 31.6106C90.3211 31.5851 90.2783 31.5705 90.2339 31.5687C90.1896 31.5669 90.1457 31.5778 90.1074 31.6002C87.2098 33.3539 84.9721 32.9325 83.3941 30.3361C82.7988 29.3535 82.5801 28.1288 82.7379 26.6621C82.9889 24.3096 84.1472 22.7388 86.2129 21.9499C87.1058 21.6128 88.0113 21.6253 88.9294 21.9875C89.3382 22.1489 89.6556 22.6061 90.1236 22.7944C90.2886 22.8625 90.4338 22.8338 90.5593 22.7083C91.3734 21.8835 92.3488 21.6916 93.4856 22.1327C93.6542 22.1973 93.7151 22.3174 93.6685 22.4932C93.5555 22.945 93.448 23.2516 93.491 23.7465C93.6847 25.9251 93.3296 28.0499 93.3834 30.0994C93.4372 32.235 93.7438 34.2414 92.0332 35.8875C90.1343 37.7164 86.5679 37.5604 84.1688 36.8073C83.742 36.6711 83.5914 36.3895 83.7169 35.9628L84.1688 34.4297C84.2943 33.9994 84.5507 33.8972 84.938 34.1231C87.364 35.5217 89.8492 34.7847 90.4517 31.8423ZM88.1988 30.2445C88.4701 30.2469 88.7394 30.1726 88.9913 30.0258C89.2432 29.8791 89.4728 29.6627 89.667 29.3892C89.8612 29.1156 90.0162 28.7903 90.1232 28.4316C90.2301 28.0729 90.2869 27.6879 90.2903 27.2987C90.2937 26.9095 90.2436 26.5236 90.143 26.1631C90.0423 25.8026 89.893 25.4745 89.7036 25.1977C89.5142 24.9208 89.2884 24.7004 89.0391 24.5493C88.7898 24.3982 88.5218 24.3192 88.2506 24.3168C87.9793 24.3145 87.7101 24.3888 87.4582 24.5355C87.2063 24.6823 86.9766 24.8986 86.7824 25.1721C86.5882 25.4457 86.4332 25.7711 86.3263 26.1298C86.2193 26.4885 86.1625 26.8734 86.1591 27.2626C86.1557 27.6519 86.2058 28.0378 86.3065 28.3982C86.4071 28.7587 86.5564 29.0868 86.7458 29.3637C86.9352 29.6406 87.161 29.8609 87.4104 30.012C87.6597 30.1632 87.9276 30.2422 88.1988 30.2445Z" fill="#B2B2B2"/>
<path d="M99.1817 25.6605C100.645 25.5529 100.736 25.1423 99.4561 24.4287C98.3444 23.8083 96.9816 23.975 95.3678 24.9289C95.3629 24.9318 95.3575 24.9337 95.3518 24.9344C95.3461 24.9351 95.3404 24.9348 95.3349 24.9333C95.3294 24.9318 95.3242 24.9292 95.3197 24.9256C95.3152 24.9221 95.3115 24.9178 95.3087 24.9128C95.0433 24.4538 94.8371 23.7581 94.6901 22.8257C94.6757 22.736 94.7116 22.6697 94.7976 22.6266C97.4227 21.3894 102.065 20.8999 103.173 24.3695C103.406 25.1047 103.507 25.9671 103.474 26.9569C103.417 28.7105 103.456 30.5072 103.593 32.3469C103.607 32.5262 103.528 32.6428 103.356 32.6966C102.667 32.9225 101.975 32.935 101.28 32.7342C101.104 32.6876 100.953 32.5997 100.828 32.4706C100.663 32.3057 100.476 32.1891 100.268 32.121C100.093 32.0636 99.9312 32.0905 99.7842 32.2017C96.7126 34.5255 92.1188 31.3679 94.4157 27.8068C95.5023 26.1231 97.2828 25.795 99.1817 25.6605ZM100.232 28.0633C100.032 27.7886 99.6877 27.6364 99.274 27.6402C98.8603 27.644 98.4113 27.8035 98.0258 28.0836C97.8349 28.2223 97.6653 28.3864 97.5268 28.5666C97.3883 28.7468 97.2835 28.9395 97.2184 29.1337C97.1533 29.3279 97.1292 29.5199 97.1474 29.6987C97.1657 29.8774 97.2259 30.0394 97.3248 30.1754C97.5243 30.4501 97.8689 30.6023 98.2826 30.5985C98.6963 30.5947 99.1453 30.4352 99.5308 30.1551C99.7217 30.0165 99.8912 29.8523 100.03 29.6721C100.168 29.492 100.273 29.2993 100.338 29.105C100.403 28.9108 100.427 28.7188 100.409 28.5401C100.391 28.3613 100.331 28.1993 100.232 28.0633Z" fill="#B2B2B2"/>
<path d="M107.94 23.0184C109.109 21.67 110.513 21.3491 112.152 22.0555C112.684 22.2869 112.953 22.8194 113.421 23.1798C113.568 23.291 113.723 23.2999 113.884 23.2067C114.551 22.814 115.089 22.1631 115.794 21.9533C119.306 20.9205 120.807 23.5725 120.716 26.6602C120.658 28.6756 120.676 30.5727 120.769 32.3514C120.773 32.4082 120.765 32.4652 120.746 32.5189C120.726 32.5726 120.696 32.6218 120.657 32.6636C120.617 32.7053 120.57 32.7388 120.517 32.7619C120.464 32.785 120.407 32.7972 120.35 32.7979L117.778 32.8087C117.506 32.8087 117.375 32.6724 117.386 32.3998C117.483 30.1872 117.465 27.9655 117.332 25.7349C117.303 25.2257 116.925 24.8151 116.197 24.5031C116.064 24.4457 115.928 24.435 115.788 24.4708C114.784 24.7326 114.282 25.3315 114.282 26.2675C114.282 28.3654 114.312 30.3862 114.373 32.3299C114.375 32.3908 114.364 32.4515 114.342 32.5082C114.319 32.5649 114.286 32.6166 114.243 32.6602C114.201 32.7038 114.15 32.7385 114.094 32.7621C114.037 32.7857 113.977 32.7979 113.916 32.7979L111.377 32.8033C111.32 32.8033 111.262 32.7919 111.209 32.77C111.156 32.748 111.108 32.7159 111.067 32.6753C111.027 32.6348 110.995 32.5867 110.973 32.5339C110.951 32.4811 110.941 32.4245 110.941 32.3676C110.967 30.3736 110.979 28.3277 110.979 26.2298C110.979 25.4158 110.508 24.8384 109.564 24.4977C109.364 24.426 109.175 24.4314 109 24.5139C108.275 24.8545 107.899 25.2956 107.87 25.8371C107.755 28.039 107.755 30.1836 107.87 32.2707C107.891 32.6509 107.712 32.8355 107.332 32.8248L104.992 32.7656C104.68 32.7584 104.522 32.5988 104.519 32.2868L104.438 22.4052C104.434 22.233 104.513 22.1219 104.675 22.0717C105.385 21.8565 106.089 21.8655 106.789 22.0986C106.954 22.1559 107.07 22.2653 107.138 22.4267C107.232 22.6491 107.355 22.8463 107.51 23.0184C107.657 23.1798 107.8 23.1798 107.94 23.0184Z" fill="#B2B2B2"/>
<path d="M129.472 23.0755L130.763 22.0965C130.895 21.9961 131.042 21.9297 131.204 21.8975C135.351 21.0906 136.373 23.9577 136.266 27.4811C136.226 28.9084 136.266 30.4577 136.384 32.1288C136.39 32.2153 136.378 32.302 136.349 32.3837C136.32 32.4654 136.275 32.5403 136.216 32.6038C136.157 32.6673 136.086 32.718 136.006 32.7529C135.927 32.7878 135.841 32.8061 135.755 32.8066L133.517 32.8227C133.047 32.8263 132.827 32.595 132.855 32.1288C132.959 30.429 132.947 28.3813 132.818 25.9857C132.767 25.0856 132.224 24.5817 131.188 24.4742C131.044 24.4598 130.904 24.4921 130.768 24.571C129.94 25.0479 129.522 25.5356 129.515 26.0341C129.49 28.297 129.493 30.4075 129.526 32.3655C129.529 32.6596 129.386 32.8066 129.095 32.8066L126.621 32.812C126.316 32.812 126.163 32.6614 126.163 32.3601L126.137 22.5645C126.137 22.3099 126.26 22.1431 126.508 22.0642C127.881 21.6411 128.719 21.9298 129.02 22.9303C129.099 23.1957 129.249 23.2441 129.472 23.0755Z" fill="#B2B2B2"/>
<path d="M143.856 31.7664C143.281 31.987 142.802 32.385 142.205 32.5141C139.96 33.0054 138.316 32.2254 137.272 30.1742C136.659 28.9692 136.724 27.3716 136.885 26.016C137.197 23.3318 139.881 21.0509 142.657 21.8955C143.168 22.0515 143.539 22.4818 144.055 22.7293C144.217 22.8082 144.364 22.7831 144.497 22.654C145.278 21.8937 146.223 21.7054 147.331 22.0892C147.504 22.1465 147.59 22.2667 147.59 22.4496C147.572 24.9742 147.556 27.4989 147.541 30.0236C147.527 32.2219 147.342 33.7119 146.987 34.4937C145.454 37.8181 141.124 37.6836 138.074 36.8337C137.992 36.8113 137.915 36.7729 137.848 36.7206C137.781 36.6683 137.725 36.6033 137.684 36.5292C137.642 36.4551 137.616 36.3734 137.606 36.289C137.596 36.2046 137.604 36.1191 137.627 36.0375L138.111 34.413C138.223 34.0365 138.457 33.9307 138.816 34.0956C141.689 35.4225 143.528 34.7949 144.335 32.2129C144.486 31.7324 144.326 31.5835 143.856 31.7664ZM142.148 30.2116C142.695 30.2183 143.225 29.9153 143.619 29.3692C144.013 28.8232 144.239 28.0789 144.249 27.3C144.258 26.5211 144.05 25.7714 143.669 25.2159C143.289 24.6604 142.767 24.3446 142.219 24.3379C141.672 24.3312 141.142 24.6342 140.748 25.1802C140.354 25.7263 140.127 26.4706 140.118 27.2495C140.108 28.0284 140.317 28.7781 140.698 29.3336C141.078 29.8891 141.6 30.2049 142.148 30.2116Z" fill="#B2B2B2"/>
<path d="M124.598 21.9901L122.113 21.9857C121.899 21.9854 121.725 22.1585 121.725 22.3724L121.707 32.367C121.707 32.5809 121.88 32.7546 122.094 32.755L124.579 32.7593C124.793 32.7597 124.967 32.5866 124.967 32.3727L124.984 22.3781C124.985 22.1642 124.812 21.9905 124.598 21.9901Z" fill="#B2B2B2"/>
</svg>
