<svg width="184" height="63" viewBox="0 0 184 63" fill="none" xmlns="http://www.w3.org/2000/svg">
<path d="M45.4395 20.9997L33.6804 20.9792C33.6002 20.979 33.5351 21.044 33.535 21.1242L33.5328 22.3506C33.5327 22.4309 33.5976 22.496 33.6778 22.4961L45.4368 22.5167C45.517 22.5168 45.5822 22.4519 45.5823 22.3717L45.5844 21.1452C45.5846 21.065 45.5197 20.9999 45.4395 20.9997Z" fill="#B2B2B2"/>
<path d="M30.0007 29.8932L32.2922 24.9443C32.3674 24.7806 32.4879 24.6419 32.6395 24.5446C32.7911 24.4474 32.9674 24.3957 33.1475 24.3956L46.1384 24.3902C46.2908 24.39 46.4404 24.4345 46.5692 24.5185C46.698 24.6024 46.8005 24.7223 46.8646 24.8636L49.1777 29.947C49.1919 29.9787 49.1976 30.0135 49.1942 30.048C49.1908 30.0825 49.1784 30.1156 49.1583 30.1438C49.1381 30.1721 49.111 30.1946 49.0795 30.2092C49.048 30.2237 49.0132 30.2298 48.9787 30.2267C42.6921 29.8071 36.4486 29.8161 30.2481 30.2536C30.204 30.2569 30.1598 30.2486 30.1199 30.2295C30.0799 30.2104 30.0457 30.1811 30.0207 30.1446C29.9956 30.1081 29.9806 30.0657 29.9771 30.0216C29.9736 29.9775 29.9817 29.9332 30.0007 29.8932Z" fill="#B2B2B2"/>
<path d="M66.3329 35.2123C65.6982 36.116 64.6169 36.4226 63.0892 36.1321C62.8526 36.0855 62.7844 35.9528 62.8848 35.734L66.0532 28.7303C66.1113 28.6027 66.1999 28.491 66.3114 28.4048C66.4229 28.3186 66.5539 28.2605 66.6933 28.2354C67.805 28.0453 68.9526 28.065 70.136 28.2945C70.3333 28.334 70.4732 28.447 70.5556 28.6334L73.767 35.89C73.7747 35.9072 73.7784 35.9258 73.7781 35.9446C73.7778 35.9634 73.7735 35.9819 73.7653 35.9988C73.7571 36.0157 73.7453 36.0306 73.7307 36.0425C73.7162 36.0543 73.6992 36.0629 73.681 36.0676C72.4689 36.3401 71.454 36.1518 70.6363 35.5027C69.5713 34.6528 68.0597 34.6636 66.8063 34.9056C66.6055 34.9415 66.4477 35.0437 66.3329 35.2123ZM67.4356 32.0546C67.4157 32.1075 67.4071 32.1639 67.4103 32.2203C67.4135 32.2766 67.4286 32.3317 67.4545 32.3819C67.4804 32.4321 67.5165 32.4763 67.5605 32.5117C67.6045 32.547 67.6554 32.5728 67.71 32.5872C68.1045 32.6912 68.5043 32.675 68.9096 32.5388C69.0889 32.4778 69.1785 32.3523 69.1785 32.1622C69.1857 31.7857 69.0548 31.4396 68.7858 31.124C68.5169 30.812 68.2426 30.8049 67.9629 31.1025C67.7943 31.2782 67.6185 31.5956 67.4356 32.0546Z" fill="#B2B2B2"/>
<path d="M107.938 32.4609C107.934 32.9461 107.834 33.4259 107.644 33.8726C107.455 34.3193 107.179 34.7243 106.833 35.0645C106.487 35.4046 106.077 35.6733 105.627 35.8551C105.177 36.0369 104.696 36.1283 104.21 36.124L100.962 36.0957C100.476 36.0914 99.9965 35.9917 99.5498 35.802C99.1031 35.6124 98.6981 35.3367 98.3579 34.9905C98.0178 34.6444 97.7491 34.2346 97.5673 33.7846C97.3855 33.3347 97.2941 32.8533 97.2984 32.368L97.3036 31.7763C97.3078 31.291 97.4076 30.8113 97.5972 30.3646C97.7868 29.9179 98.0625 29.5128 98.4087 29.1727C98.7548 28.8325 99.1646 28.5639 99.6146 28.3821C100.065 28.2003 100.546 28.1089 101.031 28.1131L104.28 28.1415C104.765 28.1457 105.245 28.2455 105.692 28.4351C106.139 28.6247 106.544 28.9005 106.884 29.2466C107.224 29.5928 107.493 30.0025 107.674 30.4525C107.856 30.9025 107.947 31.3839 107.943 31.8691L107.938 32.4609ZM105.116 32.1724C105.126 31.6503 104.87 31.1445 104.404 30.7663C103.938 30.3881 103.301 30.1684 102.632 30.1555C102.3 30.1492 101.971 30.1938 101.664 30.2868C101.356 30.3799 101.075 30.5195 100.837 30.6978C100.599 30.8761 100.409 31.0896 100.278 31.3259C100.147 31.5623 100.076 31.817 100.072 32.0755C100.062 32.5976 100.318 33.1034 100.784 33.4816C101.25 33.8598 101.887 34.0795 102.556 34.0924C102.887 34.0987 103.216 34.0541 103.524 33.9611C103.832 33.868 104.113 33.7284 104.351 33.5501C104.589 33.3718 104.778 33.1584 104.91 32.922C105.041 32.6856 105.111 32.4309 105.116 32.1724Z" fill="#B2B2B2"/>
<path d="M79.2481 31.2255L79.3073 35.6473C79.3087 35.7132 79.2969 35.7787 79.2727 35.84C79.2485 35.9013 79.2122 35.9571 79.1661 36.0042C79.12 36.0513 79.065 36.0887 79.0043 36.1143C78.9435 36.1398 78.8782 36.153 78.8123 36.1529L77.1072 36.1583C76.9759 36.1583 76.85 36.1062 76.7572 36.0134C76.6644 35.9206 76.6122 35.7947 76.6122 35.6634L76.6445 31.2309C76.6453 31.1636 76.6323 31.0969 76.6065 31.0348C76.5806 30.9726 76.5423 30.9165 76.494 30.8696C76.4456 30.8228 76.3883 30.7863 76.3254 30.7624C76.2624 30.7385 76.1953 30.7277 76.1281 30.7307L73.2932 30.8705C73.1646 30.8765 73.0387 30.8321 72.9422 30.7467C72.8458 30.6613 72.7865 30.5417 72.7768 30.4133L72.6639 28.7403C72.6595 28.6727 72.669 28.6048 72.6919 28.541C72.7147 28.4772 72.7505 28.4188 72.7969 28.3693C72.8433 28.3199 72.8994 28.2805 72.9616 28.2537C73.0239 28.2268 73.0909 28.213 73.1587 28.2132L82.7231 28.2078C82.7904 28.2077 82.857 28.2213 82.9189 28.2479C82.9807 28.2744 83.0365 28.3133 83.0828 28.3621C83.1292 28.411 83.1651 28.4687 83.1883 28.5319C83.2115 28.5951 83.2216 28.6624 83.218 28.7296L83.1211 30.4187C83.1177 30.4837 83.1015 30.5474 83.0734 30.6061C83.0453 30.6649 83.0058 30.7175 82.9574 30.7609C82.9089 30.8044 82.8523 30.8379 82.7909 30.8595C82.7295 30.881 82.6644 30.8903 82.5993 30.8867L79.7752 30.7253C79.7071 30.7208 79.6388 30.7305 79.5746 30.7537C79.5105 30.7769 79.4518 30.8131 79.4023 30.8601C79.3528 30.9071 79.3135 30.9638 79.287 31.0267C79.2604 31.0896 79.2472 31.1573 79.2481 31.2255Z" fill="#B2B2B2"/>
<path d="M93.05 33.2588C91.8505 34.383 91.7806 36.9382 89.446 36.1367C89.2846 36.0829 89.1591 35.9825 89.0695 35.8354L87.5363 33.3179C87.4323 33.1494 87.2961 33.1135 87.1275 33.2104C86.9733 33.2964 86.9141 33.4202 86.95 33.5815C87.1293 34.3633 87.2208 34.9963 87.2243 35.4804C87.2279 35.9502 86.9948 36.1851 86.525 36.1851H84.9759C84.8617 36.1851 84.7522 36.1397 84.6715 36.059C84.5908 35.9783 84.5455 35.8689 84.5455 35.7547L84.567 28.4443C84.5684 28.3768 84.5962 28.3125 84.6445 28.2652C84.6928 28.218 84.7577 28.1915 84.8252 28.1915L87.1598 28.1808C87.5292 28.1808 87.8053 28.3421 87.9882 28.6649L89.8548 31.9678C90.1489 32.4842 90.4357 32.4806 90.7155 31.957L92.4422 28.7294C92.5348 28.5577 92.6731 28.4147 92.8419 28.3161C93.0108 28.2174 93.2037 28.1669 93.3997 28.17L95.6375 28.213C95.6922 28.2143 95.746 28.2268 95.7957 28.2497C95.8453 28.2727 95.8897 28.3057 95.926 28.3465C95.9624 28.3874 95.9899 28.4354 96.0069 28.4874C96.0239 28.5394 96.03 28.5943 96.0248 28.6488C95.7989 30.9224 95.7917 33.1566 96.0033 35.3513C96.0535 35.8605 95.8204 36.1259 95.304 36.1474L94.1152 36.2012C93.5199 36.2263 93.2473 35.9412 93.2975 35.3459L93.4482 33.4524C93.4804 33.0436 93.3477 32.979 93.05 33.2588Z" fill="#B2B2B2"/>
<path d="M115.053 34.0993C116.727 33.6618 116.699 33.4 114.967 33.314C114.02 33.2674 112.799 33.1508 111.303 32.9643C108.463 32.6093 108.232 28.8331 111.05 28.392C112.757 28.1302 114.66 28.1266 116.758 28.3812C118.035 28.5354 118.795 29.1773 119.039 30.307C119.056 30.387 119.057 30.4697 119.042 30.55C119.027 30.6304 118.996 30.7067 118.95 30.7746C118.905 30.8424 118.847 30.9002 118.779 30.9447C118.711 30.9891 118.634 31.0192 118.554 31.0332C117.479 31.2268 116.559 31.0744 115.795 30.5759C115.662 30.4863 115.515 30.4433 115.354 30.4468L112.266 30.4791C112.228 30.479 112.19 30.4868 112.155 30.5021C112.12 30.5175 112.089 30.5399 112.062 30.5681C112.036 30.5963 112.016 30.6297 112.003 30.6662C111.99 30.7027 111.984 30.7415 111.986 30.7803C111.997 30.9848 112.128 31.1085 112.379 31.1515C113.555 31.3416 115.105 31.4546 117.027 31.4904C118.393 31.5155 119.141 32.2076 119.27 33.5668C119.281 33.6851 119.293 33.8178 119.308 33.9649C119.349 34.4224 119.213 34.8783 118.927 35.2371C118.642 35.596 118.229 35.8302 117.775 35.8906C115.422 36.2062 113.161 36.2223 110.991 35.939C110.152 35.8315 109.571 35.3868 109.248 34.605C109.195 34.4762 109.174 34.3366 109.186 34.1979C109.198 34.0593 109.244 33.9257 109.318 33.8085C109.392 33.6913 109.494 33.5939 109.614 33.5247C109.734 33.4555 109.869 33.4164 110.007 33.4108C111.228 33.3624 112.433 33.8842 113.428 34.0348C114.213 34.1567 114.755 34.1782 115.053 34.0993Z" fill="#B2B2B2"/>
<path d="M123.31 33.8504L123.402 35.9591C123.402 35.9817 123.399 36.0042 123.391 36.0254C123.383 36.0466 123.371 36.0659 123.355 36.0824C123.34 36.0989 123.321 36.1122 123.3 36.1215C123.28 36.1308 123.258 36.1359 123.235 36.1366L120.906 36.1635C120.86 36.1635 120.816 36.1454 120.784 36.1131C120.752 36.0808 120.734 36.037 120.734 35.9914L120.685 28.3475C120.684 28.324 120.688 28.3005 120.697 28.2787C120.706 28.2568 120.719 28.2369 120.735 28.2203C120.752 28.2036 120.772 28.1906 120.794 28.1819C120.816 28.1733 120.839 28.1692 120.863 28.17L129.018 28.2668C129.041 28.2668 129.063 28.2714 129.085 28.2804C129.106 28.2894 129.125 28.3025 129.141 28.3191C129.157 28.3356 129.17 28.3553 129.178 28.3768C129.187 28.3983 129.19 28.4212 129.19 28.4443L129.114 30.3808C129.113 30.4255 129.094 30.468 129.062 30.4991C129.03 30.5302 128.987 30.5476 128.942 30.5476L123.455 30.5099C123.431 30.5091 123.408 30.5134 123.385 30.5223C123.363 30.5313 123.343 30.5449 123.326 30.5621C123.309 30.5793 123.297 30.5998 123.288 30.6223C123.28 30.6449 123.276 30.6689 123.278 30.6928L123.305 31.2307C123.306 31.2745 123.324 31.3162 123.355 31.3472C123.386 31.3782 123.428 31.3962 123.472 31.3975L127.743 31.5589C127.787 31.5602 127.828 31.5782 127.859 31.6092C127.89 31.6402 127.908 31.6818 127.909 31.7256L127.979 33.5869C127.98 33.6104 127.976 33.6338 127.967 33.6557C127.959 33.6775 127.946 33.6974 127.929 33.714C127.912 33.7307 127.893 33.7437 127.871 33.7524C127.849 33.761 127.825 33.7651 127.802 33.7644L123.482 33.6729C123.459 33.6729 123.436 33.6775 123.415 33.6865C123.394 33.6955 123.375 33.7087 123.359 33.7252C123.343 33.7418 123.33 33.7614 123.322 33.7829C123.313 33.8044 123.309 33.8274 123.31 33.8504Z" fill="#B2B2B2"/>
<path d="M133.073 33.2267L133.164 33.7915C133.17 33.8286 133.189 33.8623 133.218 33.8869C133.246 33.9114 133.283 33.9253 133.32 33.926L139.157 34.0228C139.196 34.0239 139.233 34.0393 139.262 34.066C139.291 34.0928 139.309 34.129 139.313 34.1681L139.436 35.728C139.438 35.7497 139.435 35.7714 139.428 35.7919C139.421 35.8124 139.41 35.8312 139.395 35.8473C139.38 35.8633 139.363 35.8763 139.343 35.8854C139.323 35.8945 139.302 35.8995 139.28 35.9002L130.9 35.9755C130.857 35.9755 130.816 35.9585 130.785 35.9282C130.755 35.898 130.738 35.8569 130.738 35.8141V28.38C130.738 28.3372 130.755 28.2961 130.785 28.2659C130.816 28.2356 130.857 28.2186 130.9 28.2186L139.286 28.3101C139.308 28.3106 139.331 28.3159 139.351 28.3257C139.372 28.3355 139.39 28.3494 139.405 28.3667C139.419 28.3839 139.43 28.4041 139.437 28.4259C139.443 28.4476 139.445 28.4705 139.442 28.493L139.194 30.2305C139.189 30.2694 139.17 30.3051 139.14 30.3309C139.11 30.3567 139.072 30.3707 139.033 30.3703L133.471 30.4026C133.431 30.4024 133.392 30.4172 133.362 30.444C133.332 30.4709 133.313 30.5079 133.309 30.5478L133.25 31.0965C133.248 31.1186 133.25 31.1409 133.257 31.162C133.264 31.1831 133.275 31.2026 133.29 31.2193C133.304 31.2359 133.322 31.2494 133.342 31.2588C133.362 31.2682 133.384 31.2734 133.406 31.274L138.818 31.3601C138.858 31.3613 138.896 31.3775 138.925 31.4053C138.954 31.4331 138.971 31.4707 138.974 31.5107L139.044 32.947C139.045 32.9695 139.042 32.9921 139.034 33.0133C139.026 33.0346 139.014 33.0539 138.999 33.0701C138.983 33.0863 138.964 33.0991 138.943 33.1075C138.922 33.116 138.899 33.1199 138.877 33.1191L133.234 33.0384C133.21 33.0381 133.187 33.043 133.165 33.0527C133.144 33.0624 133.125 33.0768 133.109 33.0948C133.094 33.1127 133.083 33.1339 133.076 33.1567C133.07 33.1795 133.069 33.2034 133.073 33.2267Z" fill="#B2B2B2"/>
<path d="M143.696 34.5513C143.571 34.978 143.533 35.3528 143.583 35.6755C143.634 35.9839 143.505 36.131 143.196 36.1166L141.582 36.0574C141.296 36.0467 141.152 35.8979 141.152 35.611L141.141 28.6341C141.141 28.4548 141.231 28.358 141.41 28.3436C143.745 28.1571 145.897 28.1589 147.865 28.349C150.775 28.6233 150.738 31.7594 149.253 33.54C149.161 33.6492 149.106 33.7845 149.097 33.9259C149.087 34.0673 149.123 34.2073 149.199 34.3253L150.216 35.9391C150.338 36.1292 150.288 36.2314 150.065 36.2457C148.38 36.3533 147.168 35.8997 146.429 34.8848C146.272 34.6718 146.053 34.5153 145.805 34.4383C145.235 34.2626 144.652 34.2034 144.057 34.2608C143.87 34.2751 143.75 34.372 143.696 34.5513ZM147.509 31.0971C147.507 31.0039 147.488 30.9118 147.451 30.8262C147.414 30.7405 147.36 30.663 147.294 30.598C147.227 30.533 147.148 30.4818 147.061 30.4473C146.974 30.4128 146.882 30.3957 146.789 30.397L144.261 30.4324C144.072 30.435 143.893 30.5123 143.761 30.6473C143.63 30.7823 143.558 30.964 143.56 31.1523L143.564 31.3889C143.565 31.4821 143.585 31.5742 143.622 31.6599C143.659 31.7455 143.712 31.8231 143.779 31.8881C143.846 31.9531 143.925 32.0043 144.011 32.0388C144.098 32.0732 144.19 32.0903 144.284 32.089L146.812 32.0537C147 32.051 147.18 31.9737 147.311 31.8387C147.442 31.7037 147.514 31.5221 147.512 31.3338L147.509 31.0971Z" fill="#B2B2B2"/>
<path d="M154.628 35.1639L154.224 35.7287C154.113 35.8865 153.964 35.9905 153.778 36.0407C152.964 36.2451 152.223 36.2917 151.556 36.1806C151.24 36.1268 151.147 35.9546 151.276 35.6642L154.283 28.8325C154.363 28.6528 154.49 28.4988 154.652 28.3877C154.813 28.2765 155.002 28.2126 155.198 28.2031C156.051 28.1565 156.858 28.1458 157.618 28.1709C158.458 28.1924 158.845 28.5474 159.151 29.2736C160.095 31.4934 161.086 33.6613 162.126 35.7771C162.14 35.8054 162.147 35.8363 162.147 35.8677C162.148 35.8991 162.141 35.9302 162.127 35.9586C162.114 35.987 162.094 36.012 162.07 36.0318C162.045 36.0516 162.017 36.0657 161.986 36.073C160.43 36.4065 159.311 36.1286 158.63 35.2392C158.524 35.1005 158.388 34.9881 158.231 34.9106C158.074 34.8332 157.902 34.7928 157.726 34.7927H155.348C155.044 34.7927 154.803 34.9164 154.628 35.1639ZM156.08 32.5926L157.027 32.6464C157.074 32.6486 157.121 32.6414 157.166 32.6252C157.21 32.6091 157.251 32.5843 157.286 32.5524C157.321 32.5204 157.35 32.4818 157.37 32.4389C157.39 32.3959 157.401 32.3495 157.403 32.3021L157.409 32.243C157.419 32.0639 157.41 31.8855 157.381 31.7179C157.353 31.5503 157.306 31.3969 157.244 31.2664C157.181 31.136 157.104 31.0311 157.017 30.9577C156.93 30.8843 156.835 30.844 156.736 30.839L156.564 30.8282C156.466 30.8226 156.367 30.8523 156.272 30.9155C156.178 30.9787 156.09 31.0743 156.014 31.1967C155.937 31.3191 155.874 31.4659 155.827 31.6288C155.78 31.7918 155.751 31.9675 155.741 32.1461V32.2107C155.738 32.258 155.745 32.3055 155.76 32.3503C155.776 32.3952 155.8 32.4365 155.831 32.472C155.863 32.5075 155.901 32.5364 155.944 32.5571C155.986 32.5778 156.033 32.5899 156.08 32.5926Z" fill="#B2B2B2"/>
<path d="M27.8053 34.7887L28.623 33.1211C28.7209 32.9235 28.8692 32.7555 29.0526 32.6345C29.236 32.5135 29.4479 32.4438 29.6665 32.4326C36.3547 32.0919 42.9389 32.0865 49.4191 32.4164C49.9714 32.4451 50.3695 32.7087 50.6134 33.2072L51.318 34.6703C51.5655 35.1796 51.4059 35.4163 50.8392 35.3804C43.294 34.9178 35.7469 34.9196 28.198 35.3858C27.7246 35.4145 27.5938 35.2154 27.8053 34.7887Z" fill="#B2B2B2"/>
<path d="M52.5293 39.1714C43.6679 38.5618 34.9947 38.5725 26.5099 39.2037C26.0652 39.236 25.9253 39.0459 26.0903 38.6335L26.3216 38.0687C26.3958 37.8833 26.5208 37.7224 26.6825 37.6045C26.8442 37.4866 27.036 37.4163 27.236 37.4016C35.4986 36.8673 43.6768 36.8565 51.7708 37.3694C52.3231 37.4052 52.714 37.6742 52.9435 38.1763L53.0564 38.4183C53.3039 38.9598 53.1282 39.2109 52.5293 39.1714Z" fill="#B2B2B2"/>
<path d="M25.38 41.152L32.9432 40.7378C33.0385 40.7328 33.1332 40.7549 33.2165 40.8016C33.2997 40.8482 33.368 40.9174 33.4136 41.0012C33.4592 41.085 33.4801 41.18 33.4739 41.2752C33.4678 41.3705 33.4349 41.462 33.3789 41.5393L32.7818 42.3623C32.739 42.4205 32.6842 42.4689 32.6211 42.5042C32.558 42.5394 32.4881 42.5608 32.416 42.5667L24.7506 43.1692C24.6549 43.1766 24.559 43.1566 24.4742 43.1115C24.3894 43.0664 24.3192 42.9981 24.2718 42.9146C24.2244 42.8311 24.2018 42.7358 24.2066 42.6399C24.2113 42.544 24.2433 42.4514 24.2988 42.373L24.9927 41.3725C25.0361 41.3086 25.0936 41.2555 25.1607 41.2173C25.2279 41.179 25.3029 41.1567 25.38 41.152Z" fill="#B2B2B2"/>
<path d="M46.1544 40.6866L53.7821 41.16C53.8605 41.1646 53.9366 41.1881 54.004 41.2284C54.0715 41.2686 54.1282 41.3245 54.1695 41.3913L54.7988 42.4187C54.8472 42.4959 54.8731 42.585 54.8736 42.676C54.8741 42.7671 54.8492 42.8565 54.8017 42.9342C54.7542 43.0118 54.686 43.0747 54.6047 43.1158C54.5234 43.1568 54.4323 43.1743 54.3416 43.1664L46.6815 42.5478C46.6092 42.5409 46.5394 42.518 46.4771 42.4808C46.4148 42.4436 46.3614 42.393 46.3211 42.3326L45.7186 41.4505C45.6671 41.3747 45.6378 41.286 45.6342 41.1945C45.6306 41.1029 45.6528 41.0122 45.6982 40.9326C45.7436 40.853 45.8104 40.7878 45.891 40.7443C45.9717 40.7008 46.0629 40.6808 46.1544 40.6866Z" fill="#B2B2B2"/>
</svg>
