<svg width="184" height="63" viewBox="0 0 184 63" fill="none" xmlns="http://www.w3.org/2000/svg">
<path d="M63.5167 18.0202C66.5936 19.2305 69.45 24.2332 70.9562 27.1272C73.4019 31.8287 75.7849 36.6826 78.1052 41.6889C78.2666 42.0367 78.1679 42.277 77.8093 42.4097C72.7672 44.2852 68.4351 43.6613 64.813 40.5377C63.7336 39.6053 62.6058 38.0991 61.4295 36.0191C59.6113 32.7988 57.9079 29.5174 56.3192 26.1751C55.2864 24.0019 53.6583 23.2721 51.4349 23.9858C51.0476 24.1113 50.9669 24.0055 51.1928 23.6684C52.3332 21.9524 54.1353 20.0482 55.5984 18.9078C57.872 17.129 60.5115 16.8331 63.5167 18.0202Z" fill="#B2B2B2"/>
<path d="M85.1301 25.7662L84.4308 27.6973C84.2838 28.1097 83.9969 28.3608 83.5702 28.4504L83.3012 28.5042C82.7955 28.6082 82.6324 28.4182 82.8117 27.934C83.9736 24.789 85.114 21.6941 86.2328 18.6494C86.6578 17.4875 87.2495 16.8205 88.4975 17.466C88.6625 17.5557 88.7791 17.6883 88.8472 17.8641L92.5965 27.778C92.7794 28.255 92.618 28.4594 92.1124 28.3913L91.8058 28.3536C91.2822 28.2855 90.9577 27.995 90.8321 27.4822C90.617 26.6161 90.4394 25.3143 89.2883 25.3305C88.0116 25.352 86.8425 25.3484 85.781 25.3197C85.4583 25.3089 85.2413 25.4578 85.1301 25.7662ZM85.8187 23.7059C85.8013 23.7533 85.7956 23.8042 85.8022 23.8543C85.8088 23.9044 85.8274 23.9521 85.8565 23.9933C85.8856 24.0346 85.9243 24.0682 85.9692 24.0912C86.0142 24.1142 86.064 24.126 86.1145 24.1255H89.213C89.2635 24.126 89.3133 24.1142 89.3583 24.0912C89.4032 24.0682 89.4418 24.0346 89.4709 23.9933C89.5 23.9521 89.5187 23.9044 89.5253 23.8543C89.5319 23.8042 89.5262 23.7533 89.5088 23.7059L87.9596 19.3918C87.9388 19.3297 87.8991 19.2758 87.846 19.2376C87.7929 19.1994 87.7292 19.1788 87.6637 19.1788C87.5983 19.1788 87.5346 19.1994 87.4815 19.2376C87.4284 19.2758 87.3887 19.3297 87.3679 19.3918L85.8187 23.7059Z" fill="#B2B2B2"/>
<path d="M131.536 20.4132L133.252 20.397C133.589 20.397 133.813 20.5566 133.924 20.8758C133.967 21.0049 133.98 21.1376 133.962 21.2738C133.95 21.3633 133.907 21.4455 133.841 21.5064C133.775 21.5673 133.691 21.603 133.602 21.6074L131.52 21.7042C131.416 21.7097 131.318 21.7554 131.247 21.8316C131.175 21.9079 131.136 22.0087 131.138 22.113L131.17 26.4433C131.172 26.6031 131.212 26.7602 131.287 26.9011C131.363 27.042 131.471 27.1625 131.603 27.2523C131.736 27.3422 131.887 27.3987 132.046 27.4171C132.205 27.4355 132.366 27.4151 132.515 27.3578L133.785 26.8736C133.837 26.8536 133.894 26.8452 133.95 26.8492C134.006 26.8532 134.06 26.8694 134.109 26.8966C134.158 26.9239 134.2 26.9615 134.232 27.0068C134.264 27.0521 134.286 27.104 134.296 27.1587C134.331 27.3596 134.324 27.5496 134.274 27.7289C134.231 27.8831 134.127 28.0122 133.962 28.1162C132.574 28.9769 130.154 28.8801 129.729 27.078C129.689 26.9238 129.668 26.2066 129.664 24.9263C129.653 22.6742 129.651 20.4418 129.659 18.2292C129.659 18.1739 129.67 18.1191 129.692 18.0683C129.714 18.0175 129.746 17.9718 129.786 17.934C129.826 17.8961 129.874 17.867 129.926 17.8484C129.978 17.8298 130.034 17.8221 130.089 17.8257C130.254 17.8401 130.406 17.8993 130.546 18.0033C130.912 18.2794 131.109 18.647 131.138 19.106L131.197 20.0904C131.211 20.3056 131.324 20.4132 131.536 20.4132Z" fill="#B2B2B2"/>
<path d="M126.244 25.6049C124.759 24.7443 121.515 24.6636 121.978 22.1461C122.398 19.8545 125.286 19.9083 127.051 20.6184C127.456 20.7797 127.639 21.0792 127.599 21.5167L127.583 21.6619C127.547 22.0457 127.354 22.164 127.002 22.017C126.514 21.8162 126.014 21.6297 125.501 21.4575C125.213 21.3598 124.899 21.3391 124.586 21.3972C124.273 21.4553 123.97 21.5906 123.705 21.791C123.647 21.8377 123.597 21.8915 123.554 21.9524C123.221 22.4509 123.332 22.8185 123.888 23.0552C124.537 23.3313 125.168 23.5608 125.781 23.7437C127.416 24.2332 128.621 25.9169 127.416 27.407C126.319 28.759 124.659 29.0297 122.435 28.2192C122.282 28.1636 122.15 28.0595 122.061 27.9227C121.972 27.7859 121.929 27.6238 121.94 27.4608L121.956 27.1757C121.962 27.0929 121.988 27.0128 122.033 26.9433C122.079 26.8739 122.141 26.8174 122.215 26.7794C122.289 26.7415 122.371 26.7233 122.454 26.7268C122.537 26.7302 122.618 26.7552 122.688 26.7991C124.252 27.7638 125.494 27.6741 126.416 26.5302C126.472 26.4599 126.512 26.3785 126.533 26.2915C126.555 26.2046 126.558 26.1141 126.541 26.0263C126.525 25.9385 126.49 25.8554 126.439 25.7827C126.387 25.7099 126.321 25.6493 126.244 25.6049Z" fill="#B2B2B2"/>
<path d="M97.4268 27.3961L97.911 27.3423C99.0299 27.2168 99.584 26.5892 99.5732 25.4595L99.5302 20.7204C99.5266 20.3331 99.7112 20.1897 100.084 20.2901C100.17 20.3116 100.256 20.3331 100.342 20.3546C100.816 20.4837 101.054 20.7939 101.058 21.2852L101.117 28.0362C101.118 28.0818 101.108 28.127 101.088 28.1682C101.068 28.2094 101.039 28.2454 101.004 28.2736C100.968 28.3017 100.926 28.3211 100.881 28.3303C100.836 28.3396 100.79 28.3383 100.746 28.3267C99.8673 28.0972 99.0819 28.1187 98.3898 28.3912C96.3349 29.1981 94.1993 28.4235 94.1563 25.8576C94.1312 24.1614 94.1258 22.4543 94.1401 20.7366C94.1473 20.2811 94.3643 20.1287 94.791 20.2793L94.9201 20.3277C95.14 20.405 95.3302 20.5487 95.4643 20.7387C95.5983 20.9287 95.6695 21.1555 95.6679 21.3874L95.6302 25.7823C95.623 26.9944 96.2219 27.5323 97.4268 27.3961Z" fill="#B2B2B2"/>
<path d="M109.025 28.1601C108.116 28.2623 107.298 28.7787 106.405 28.655C103.791 28.2838 102.763 25.7663 103.296 23.3672C103.905 20.6381 105.652 19.6949 108.535 20.5377C109.077 20.6955 109.584 20.6417 110.058 20.3763C110.107 20.3491 110.162 20.3352 110.219 20.3361C110.275 20.3371 110.33 20.3527 110.379 20.3815C110.427 20.4104 110.467 20.4514 110.495 20.5005C110.522 20.5496 110.537 20.6051 110.536 20.6614C110.54 23.4228 110.538 25.8793 110.531 28.031C110.517 31.0936 108.91 32.4832 105.711 32.1999C105.023 32.1407 103.36 31.6889 103.409 30.7852C103.42 30.6094 103.477 30.4606 103.581 30.3387C103.699 30.1952 103.848 30.154 104.027 30.215C106.308 31.0218 108.723 31.705 109.234 28.3752C109.26 28.2139 109.19 28.1422 109.025 28.1601ZM109.122 23.3299C109.127 22.8449 108.94 22.3777 108.6 22.0312C108.261 21.6846 107.798 21.487 107.313 21.482L106.785 21.4765C106.3 21.4714 105.833 21.6592 105.487 21.9986C105.14 22.338 104.943 22.8011 104.937 23.2862L104.914 25.5131C104.909 25.9981 105.097 26.4653 105.436 26.8118C105.776 27.1584 106.239 27.356 106.724 27.3611L107.251 27.3665C107.736 27.3716 108.203 27.1838 108.55 26.8444C108.896 26.505 109.094 26.0419 109.099 25.5569L109.122 23.3299Z" fill="#B2B2B2"/>
<path d="M116.329 27.3813C116.425 27.3741 116.524 27.3652 116.625 27.3544C117.819 27.2433 118.412 26.5888 118.405 25.391L118.378 20.8671C118.375 20.3757 118.611 20.1928 119.088 20.3184C119.364 20.3901 119.597 20.5748 119.788 20.8724C119.865 20.9921 119.908 21.1336 119.911 21.2812L119.933 28.1452C119.933 28.1862 119.924 28.2267 119.905 28.2633C119.887 28.3 119.86 28.3317 119.827 28.3559C119.794 28.3801 119.755 28.396 119.715 28.4024C119.674 28.4088 119.633 28.4054 119.594 28.3926C117.717 27.7579 116.942 28.9036 115.231 28.6347C112.907 28.2689 112.977 26.5045 112.994 24.3689C113.004 23.1783 112.999 22.0146 112.977 20.8778C112.967 20.4044 113.193 20.2269 113.655 20.3453L113.833 20.3883C114.052 20.4447 114.247 20.5732 114.385 20.7535C114.524 20.9339 114.598 21.1556 114.597 21.3835L114.575 25.7729C114.568 26.9564 115.152 27.4925 116.329 27.3813Z" fill="#B2B2B2"/>
<path d="M41.5146 41.4109C43.7685 37.0376 46.0439 32.7772 48.4753 28.6029C50.8045 24.6007 53.1606 27.2635 54.6883 29.8616C55.9256 31.9703 57.0606 34.1238 58.0934 36.3221C58.122 36.3857 58.1354 36.4552 58.1326 36.5252C58.1298 36.5952 58.1109 36.6637 58.0773 36.7256C57.0803 38.4433 55.7767 39.9388 54.1665 41.2119C50.3634 44.2242 46.3129 44.1167 41.9879 42.5997C41.8737 42.5593 41.7694 42.495 41.682 42.411C41.5946 42.327 41.5262 42.2253 41.4814 42.1127C41.4366 42.0002 41.4164 41.8793 41.4221 41.7582C41.4278 41.6372 41.4593 41.5187 41.5146 41.4109Z" fill="#B2B2B2"/>
<path d="M90.7775 38.0528L89.0723 38.0313C88.9441 38.0293 88.8207 37.9825 88.7234 37.899C88.6261 37.8155 88.5611 37.7005 88.5398 37.5741C88.5254 37.4916 88.5147 37.4073 88.5075 37.3213C88.4983 37.2298 88.5249 37.1382 88.5819 37.0652C88.6389 36.9922 88.722 36.9433 88.8141 36.9286C89.9222 36.7529 91.068 36.7188 92.2514 36.8264C92.4558 36.8443 92.5581 36.9537 92.5581 37.1545L92.6172 41.1082C92.6208 41.2804 92.5724 41.4382 92.472 41.5816C91.0626 43.5397 87.3241 43.3245 85.7211 42.2809C84.4587 41.4597 83.6841 40.1884 83.3972 38.467C82.983 35.9872 83.5962 32.7435 86.1944 31.6085C87.8404 30.8913 89.5439 30.9737 91.3047 31.8559C91.6525 32.0317 91.9072 32.3598 92.0686 32.8403C92.1044 32.9479 92.0919 33.0501 92.0309 33.147C91.7691 33.5809 91.4302 33.6526 91.0142 33.3621C89.0293 31.9635 86.0976 32.2701 85.2046 34.6854C84.4946 36.6004 84.6828 39.9678 86.6409 41.1513C87.7329 41.8075 89.7877 42.0173 90.9443 41.076C91.0841 40.9612 91.1559 40.8142 91.1595 40.6349L91.2079 38.4993C91.215 38.2052 91.0716 38.0564 90.7775 38.0528Z" fill="#B2B2B2"/>
<path d="M118.793 33.1261C119.333 33.1261 119.772 32.6877 119.772 32.147C119.772 31.6063 119.333 31.168 118.793 31.168C118.252 31.168 117.814 31.6063 117.814 32.147C117.814 32.6877 118.252 33.1261 118.793 33.1261Z" fill="#B2B2B2"/>
<path d="M99.7024 37.1429C99.8028 36.6372 99.6145 36.3055 99.1376 36.1477C97.9936 35.764 96.7582 35.8482 95.4313 36.4005C95.2591 36.4722 95.1067 36.4418 94.974 36.3091C94.8593 36.1907 94.8019 36.0491 94.8019 35.8841C94.7983 35.6976 94.8718 35.5488 95.0225 35.4376C97.0719 33.9261 101.042 33.9099 101.101 37.4333C101.126 38.9933 101.106 40.1821 101.042 40.9998C101.035 41.0814 101.045 41.1635 101.071 41.2412C101.096 41.3189 101.138 41.3905 101.192 41.4516L101.919 42.2585C101.964 42.308 101.996 42.3685 102.01 42.4341C102.025 42.4997 102.022 42.5681 102.002 42.6327C101.982 42.6972 101.945 42.7557 101.896 42.8023C101.846 42.8489 101.786 42.8821 101.72 42.8987C101.024 43.0708 100.443 42.8933 99.9768 42.3661C99.8584 42.2334 99.7132 42.194 99.541 42.2478C98.8256 42.4629 98.3253 42.904 97.626 42.9793C96.3941 43.1084 95.0117 42.6781 94.5383 41.457C93.6507 39.1708 96.2005 37.6539 98.1101 37.627C98.6301 37.6198 99.0533 37.5732 99.3796 37.4871C99.5589 37.4369 99.6665 37.3222 99.7024 37.1429ZM99.7847 39.5902C99.6745 39.251 99.3629 38.9926 98.9185 38.8718C98.474 38.751 97.9332 38.7778 97.4149 38.9462C96.8966 39.1146 96.4433 39.4109 96.1547 39.7698C95.8661 40.1287 95.7659 40.5209 95.8761 40.8601C95.9863 41.1993 96.2979 41.4577 96.7424 41.5785C97.1868 41.6993 97.7277 41.6725 98.246 41.5041C98.7643 41.3357 99.2176 41.0395 99.5061 40.6805C99.7947 40.3216 99.8949 39.9294 99.7847 39.5902Z" fill="#B2B2B2"/>
<path d="M110.541 37.2444L110.536 42.2687C110.536 42.6165 110.362 42.794 110.014 42.8012L109.455 42.8173C109.392 42.819 109.33 42.8075 109.272 42.7835C109.214 42.7596 109.162 42.7237 109.118 42.6782C109.075 42.6327 109.041 42.5785 109.019 42.5191C108.997 42.4597 108.988 42.3964 108.992 42.3332C109.105 40.4397 109.288 38.1858 108.68 36.3999C108.623 36.2242 108.504 36.1202 108.325 36.0879C107.694 35.9767 107.046 35.9857 106.383 36.1148C105.709 36.2511 105.357 36.642 105.329 37.2875C105.26 38.9335 105.286 40.5437 105.404 42.118C105.436 42.5699 105.226 42.7958 104.775 42.7958L104.366 42.8012C103.957 42.8012 103.758 42.595 103.769 42.1826C103.833 39.7261 103.819 37.5224 103.726 35.5715C103.679 34.5853 104.038 34.4042 104.801 35.0282C105.246 35.3904 105.768 35.3294 106.367 34.8453C106.776 34.5118 107.405 34.4078 108.255 34.5333C109.132 34.6624 109.783 35.8674 110.912 35.0658C112.063 34.2482 114.14 34.3289 114.968 35.3886C115.888 36.572 115.512 40.4397 115.549 42.2041C115.56 42.6596 115.338 42.8837 114.882 42.8765L114.672 42.8711C114.264 42.8675 114.059 42.6613 114.059 42.2525L114.032 37.1315C114.029 36.3102 113.62 35.9247 112.806 35.9749L111.676 36.0395C110.919 36.0861 110.541 36.4878 110.541 37.2444Z" fill="#B2B2B2"/>
<path d="M119.403 34.7361L118.081 34.7915C118.004 34.7947 117.944 34.8599 117.947 34.9371L118.275 42.7624C118.278 42.8396 118.343 42.8995 118.42 42.8963L119.743 42.8409C119.82 42.8376 119.88 42.7724 119.876 42.6953L119.548 34.87C119.545 34.7928 119.48 34.7328 119.403 34.7361Z" fill="#B2B2B2"/>
<path d="M124.054 35.18C126.598 33.9858 129.379 34.3623 129.309 37.7997C129.273 39.3561 129.273 40.8336 129.309 42.2322C129.311 42.3081 129.298 42.3838 129.27 42.4545C129.242 42.5253 129.2 42.5897 129.146 42.6439C129.092 42.6982 129.028 42.7411 128.957 42.7702C128.886 42.7993 128.81 42.8139 128.733 42.8131L128.206 42.8024C127.884 42.7988 127.724 42.6338 127.728 42.3075L127.771 37.2886C127.778 36.2738 127.279 35.8273 126.275 35.9492L125.086 36.0944C124.226 36.1984 123.801 36.6844 123.811 37.5522L123.854 42.2752C123.858 42.6302 123.681 42.8113 123.322 42.8185L122.806 42.8293C122.529 42.8328 122.391 42.6966 122.391 42.4204L122.354 35.1369C122.353 35.0587 122.375 34.982 122.415 34.915C122.455 34.848 122.514 34.7934 122.583 34.7569C122.653 34.7204 122.731 34.7034 122.81 34.7078C122.889 34.7122 122.966 34.7379 123.031 34.7819L123.559 35.1423C123.716 35.2499 123.881 35.2625 124.054 35.18Z" fill="#B2B2B2"/>
<path d="M137.098 43.9738L137.362 43.2314C137.581 42.611 137.378 42.4066 136.754 42.6182C134.211 43.4824 132.521 42.8316 131.681 40.6655C131.495 40.1886 131.423 39.4982 131.466 38.5945C131.611 35.6574 133.44 33.8662 136.56 34.8667C137.136 35.0496 137.534 35.0657 138.018 34.7591C138.051 34.7383 138.089 34.7268 138.128 34.7259C138.167 34.7249 138.205 34.7344 138.24 34.7536C138.274 34.7727 138.303 34.8007 138.324 34.8347C138.344 34.8688 138.356 34.9076 138.357 34.9474C138.396 38.114 138.395 41.268 138.352 44.4095C138.319 46.7494 134.349 46.2599 132.73 46.1792C132.035 46.1434 131.676 45.835 131.654 45.254C131.651 45.1393 131.678 45.0257 131.732 44.9247C131.786 44.8237 131.866 44.7389 131.964 44.6788C132.062 44.6187 132.174 44.5856 132.289 44.5827C132.403 44.5798 132.517 44.6072 132.617 44.6623C133.657 45.2325 134.687 45.41 135.705 45.1948C136.397 45.0478 136.862 44.6408 137.098 43.9738ZM137.233 40.6601L137.211 36.9162C137.211 36.7862 137.184 36.6576 137.134 36.5378C137.083 36.418 137.01 36.3093 136.918 36.2179C136.825 36.1265 136.716 36.0541 136.595 36.0051C136.475 35.956 136.346 35.9311 136.216 35.9318L135.156 35.9372C134.873 35.9384 134.593 36.0001 134.331 36.1187C134.07 36.2372 133.833 36.4104 133.634 36.6282C133.435 36.846 133.277 37.1042 133.17 37.388C133.063 37.6719 133.008 37.9758 133.01 38.2825L133.021 39.3368C133.024 39.9558 133.254 40.5484 133.661 40.9841C134.067 41.4199 134.617 41.6633 135.189 41.6607L136.248 41.6553C136.378 41.6546 136.507 41.6283 136.627 41.5779C136.747 41.5275 136.855 41.454 136.947 41.3616C137.038 41.2692 137.11 41.1597 137.159 41.0393C137.209 40.919 137.233 40.7901 137.233 40.6601Z" fill="#B2B2B2"/>
</svg>
