
<svg width="184" height="63" viewBox="0 0 184 63" fill="none" xmlns="http://www.w3.org/2000/svg">
<path d="M20.1188 14.6523C20.4857 14.5609 20.725 14.2537 20.6534 13.9662C20.5817 13.6787 20.2262 13.5198 19.8593 13.6113C19.4924 13.7027 19.2531 14.0099 19.3247 14.2974C19.3964 14.5849 19.752 14.7438 20.1188 14.6523Z" fill="#B2B2B2"/>
<path d="M22.5048 14.6306C22.5041 14.6025 22.509 14.5744 22.5191 14.5482C22.5293 14.5219 22.5445 14.4978 22.5639 14.4774C22.5834 14.457 22.6066 14.4407 22.6324 14.4293C22.6581 14.4179 22.6859 14.4117 22.7141 14.4111H22.7753C22.8907 14.4076 23.0056 14.4268 23.1134 14.4676C23.2213 14.5083 23.32 14.5699 23.4039 14.6486C23.4878 14.7273 23.5553 14.8217 23.6025 14.9263C23.6497 15.031 23.6757 15.1439 23.679 15.2585L23.73 16.8922C23.7334 17.0069 23.714 17.121 23.673 17.2282C23.632 17.3355 23.5701 17.4336 23.4909 17.517C23.4118 17.6005 23.3168 17.6676 23.2116 17.7146C23.1063 17.7615 22.9928 17.7874 22.8775 17.7907H22.8162C22.788 17.7914 22.76 17.7866 22.7337 17.7764C22.7074 17.7663 22.6834 17.751 22.663 17.7316C22.6427 17.7122 22.6263 17.6889 22.6149 17.6631C22.6035 17.6373 22.5973 17.6096 22.5966 17.5814L22.5048 14.6306Z" fill="#B2B2B2"/>
<path d="M20.2496 16.669L19.8515 16.6586C19.6542 16.6534 19.4901 16.8091 19.4849 17.0065L19.4207 19.4561C19.4156 19.6534 19.5713 19.8176 19.7686 19.8227L20.1667 19.8332C20.364 19.8383 20.5281 19.6826 20.5333 19.4853L20.5975 17.0356C20.6026 16.8383 20.4469 16.6741 20.2496 16.669Z" fill="#B2B2B2"/>
<path d="M26.0139 20.4833C26.4368 20.5701 26.8363 20.3649 26.9061 20.0249C26.9758 19.6849 26.6896 19.3389 26.2667 19.2521C25.8438 19.1653 25.4443 19.3706 25.3746 19.7105C25.3048 20.0505 25.591 20.3965 26.0139 20.4833Z" fill="#B2B2B2"/>
<path d="M15.8434 26.9087C15.9157 26.9171 15.9889 26.9096 16.058 26.8868C16.127 26.8639 16.1901 26.8263 16.2427 26.7766C16.2954 26.7269 16.3363 26.6663 16.3625 26.5991C16.3888 26.5319 16.3998 26.4598 16.3947 26.388C16.2518 24.4411 16.2552 22.6356 16.4049 20.9713C16.4195 20.8246 16.4845 20.6875 16.5887 20.5833C16.6929 20.479 16.83 20.4141 16.9767 20.3995C17.0652 20.3927 17.1537 20.3995 17.2422 20.4199C17.3436 20.4417 17.4352 20.4958 17.5033 20.574C17.5715 20.6522 17.6124 20.7504 17.62 20.8539L17.8599 24.2897C17.8633 24.3334 17.8756 24.3737 17.8957 24.4071C18.2428 25.03 18.6427 25.2018 19.0954 24.9227C19.179 24.8716 19.2474 24.799 19.2932 24.7128C19.339 24.6266 19.3606 24.5298 19.3558 24.4327L19.2435 21.778C19.2264 21.4036 19.4034 21.2436 19.7744 21.298L19.9327 21.3236C20.3411 21.3814 20.5912 21.6112 20.6831 22.0128L20.9895 23.4116C21.0184 23.542 21.0852 23.661 21.1815 23.7536C21.2777 23.8463 21.3992 23.9084 21.5306 23.9324C21.9356 24.0072 22.1637 23.8319 22.2147 23.4065C22.3475 22.3344 22.4019 21.2572 22.3781 20.1749C22.3679 19.712 22.5942 19.4789 23.0571 19.4755C23.1047 19.4755 23.1541 19.4789 23.2051 19.4857C23.3982 19.5111 23.5746 19.6081 23.6995 19.7575C23.8243 19.907 23.8884 20.0978 23.879 20.2923C23.8246 21.4495 23.8399 22.5608 23.925 23.6261C23.9556 24.0311 24.1547 24.2693 24.5223 24.3407C24.6092 24.3576 24.6987 24.357 24.7853 24.3388C24.872 24.3206 24.9541 24.2853 25.0269 24.2349C25.0997 24.1844 25.1617 24.1199 25.2092 24.0452C25.2567 23.9704 25.2887 23.8869 25.3034 23.7996L25.5893 22.0128C25.6 21.947 25.6242 21.8843 25.6605 21.8284C25.6968 21.7726 25.7443 21.7249 25.8 21.6884C25.8557 21.6519 25.9184 21.6274 25.9841 21.6164C26.0497 21.6055 26.117 21.6083 26.1815 21.6248L26.4061 21.6809C26.5668 21.7214 26.7089 21.8157 26.8091 21.9484C26.9093 22.0811 26.9617 22.2442 26.9575 22.411L26.8605 25.6682C26.8577 25.7707 26.8829 25.872 26.9332 25.9614C26.9835 26.0508 27.0571 26.1249 27.1461 26.1757C27.2352 26.2265 27.3364 26.2522 27.439 26.25C27.5415 26.2479 27.6416 26.2179 27.7284 26.1634C28.1709 25.8843 28.5299 25.498 28.8056 25.0044C28.8647 24.8972 28.9597 24.814 29.0744 24.7693C29.189 24.7245 29.316 24.721 29.4336 24.7594C29.5629 24.8002 29.6752 24.8734 29.7705 24.9789C29.8692 25.0844 29.9256 25.2225 29.9288 25.3669L29.9543 27.3325C29.9558 27.428 29.9786 27.522 30.021 27.6077C30.0634 27.6933 30.1243 27.7685 30.1994 27.8277C30.6078 28.1442 30.9345 28.1221 31.1796 27.7613C31.462 27.3495 31.6952 26.9275 31.879 26.4952C31.9118 26.4164 31.9689 26.3498 32.0422 26.3049C32.1155 26.2601 32.2012 26.2392 32.2874 26.2451C32.7401 26.2791 32.9647 26.4833 32.9613 26.8577C32.9409 31.5851 32.9545 36.4062 33.0021 41.3209C33.0021 41.5114 32.9205 41.6561 32.7571 41.7548L21.7399 48.1824C21.6977 48.2056 21.6503 48.2178 21.6021 48.2178C21.5539 48.2178 21.5065 48.2056 21.4643 48.1824L10.6462 41.8671C10.5203 41.7939 10.4157 41.6893 10.3432 41.5639C10.2706 41.4385 10.2325 41.2965 10.2327 41.1524C10.202 36.6359 10.2327 32.1263 10.3246 27.6235C10.3382 27.0823 10.4641 26.616 10.7024 26.2246C10.724 26.1894 10.7555 26.1612 10.7928 26.1434C10.8302 26.1256 10.8719 26.1191 10.9129 26.1245C10.9539 26.1299 10.9925 26.147 11.024 26.1738C11.0554 26.2006 11.0785 26.236 11.0904 26.2757C11.349 27.147 11.6638 27.8379 12.0348 28.3484C12.8551 29.4784 13.2805 29.3439 13.3111 27.9451C13.3282 27.2372 13.3214 26.4918 13.2907 25.709C13.2567 24.9398 13.3333 24.4276 13.5205 24.1723C13.6566 23.9919 13.7962 23.9085 13.9391 23.9221C14.07 23.9323 14.1947 23.9851 14.2955 24.0731C14.3964 24.1611 14.4682 24.2798 14.5007 24.4122C14.6845 25.1372 14.9329 25.823 15.2461 26.4697C15.3754 26.7317 15.5745 26.8781 15.8434 26.9087ZM20.0858 33.7191C19.9883 33.7191 19.8949 33.6804 19.8259 33.6115C19.757 33.5425 19.7183 33.449 19.7183 33.3515L19.7233 31.2125C19.7234 31.1176 19.6868 31.0263 19.6212 30.9578C19.5555 30.8893 19.4659 30.8489 19.3711 30.8449L16.6806 30.7274C16.6315 30.7254 16.5825 30.7332 16.5364 30.7504C16.4904 30.7677 16.4483 30.794 16.4126 30.8278C16.3769 30.8616 16.3483 30.9022 16.3286 30.9472C16.3089 30.9923 16.2984 31.0408 16.2977 31.0899L16.1905 38.8857C16.1898 38.9344 16.1989 38.9827 16.217 39.0279C16.2352 39.0731 16.2622 39.1142 16.2964 39.1489C16.3306 39.1835 16.3713 39.2111 16.4162 39.2299C16.4612 39.2487 16.5094 39.2584 16.5581 39.2584L19.4477 39.2379C19.5452 39.2379 19.6386 39.1992 19.7076 39.1302C19.7765 39.0613 19.8153 38.9678 19.8153 38.8704L19.7999 36.8691C19.7999 36.8195 19.8099 36.7704 19.8293 36.7248C19.8487 36.6792 19.8772 36.6379 19.913 36.6036C19.9487 36.5693 19.9911 36.5425 20.0375 36.5249C20.0838 36.5074 20.1333 36.4994 20.1828 36.5015L23.1132 36.6189C23.1634 36.6208 23.2126 36.6329 23.2579 36.6544C23.3032 36.676 23.3436 36.7067 23.3766 36.7444C23.4096 36.7822 23.4345 36.8263 23.4498 36.8741C23.4651 36.9219 23.4704 36.9723 23.4655 37.0223L23.297 38.8346C23.2921 38.8854 23.2978 38.9366 23.3137 38.9851C23.3296 39.0335 23.3554 39.0782 23.3895 39.1161C23.4236 39.154 23.4652 39.1844 23.5117 39.2054C23.5582 39.2264 23.6085 39.2375 23.6595 39.2379L26.6104 39.2635C26.7079 39.2635 26.8013 39.2247 26.8703 39.1558C26.9392 39.0869 26.9779 38.9933 26.9779 38.8959L26.9065 31.1614C26.9051 31.0657 26.8665 30.9742 26.7988 30.9065C26.7311 30.8388 26.6397 30.8002 26.544 30.7989L23.8229 30.753C23.7746 30.7523 23.7267 30.7611 23.6818 30.779C23.637 30.7968 23.5961 30.8233 23.5615 30.857C23.5268 30.8907 23.4992 30.9308 23.4801 30.9752C23.461 31.0195 23.4509 31.0672 23.4502 31.1154L23.4298 33.3413C23.4284 33.4379 23.3891 33.5301 23.3203 33.598C23.2515 33.6658 23.1588 33.7038 23.0622 33.7038L20.0858 33.7191Z" fill="#B2B2B2"/>
<path d="M49.7678 35.8544L49.8444 41.3528C49.8451 41.3888 49.8386 41.4245 49.8253 41.4579C49.812 41.4914 49.7922 41.5218 49.767 41.5474C49.7418 41.5731 49.7117 41.5935 49.6786 41.6074C49.6454 41.6213 49.6098 41.6285 49.5738 41.6285L45.9542 41.6336C45.8824 41.6336 45.8136 41.6051 45.7629 41.5543C45.7121 41.5036 45.6836 41.4348 45.6836 41.363L45.6938 26.5629C45.6938 26.4911 45.7223 26.4223 45.7731 26.3715C45.8238 26.3208 45.8926 26.2923 45.9644 26.2923L49.5687 26.2872C49.6047 26.2872 49.6403 26.2943 49.6734 26.3082C49.7066 26.3221 49.7367 26.3425 49.7619 26.3682C49.7871 26.3938 49.8069 26.4243 49.8202 26.4577C49.8335 26.4912 49.84 26.5269 49.8393 26.5629L49.7627 31.811C49.762 31.847 49.7685 31.8827 49.7818 31.9162C49.7951 31.9496 49.815 31.98 49.8401 32.0057C49.8653 32.0314 49.8954 32.0518 49.9285 32.0657C49.9617 32.0796 49.9973 32.0867 50.0333 32.0867L54.8629 32.0816C54.8988 32.0816 54.9344 32.0745 54.9676 32.0606C55.0008 32.0466 55.0308 32.0263 55.056 32.0006C55.0812 31.9749 55.101 31.9445 55.1143 31.9111C55.1276 31.8776 55.1341 31.8419 55.1335 31.8059L55.0058 26.5986C55.0052 26.563 55.0115 26.5277 55.0245 26.4946C55.0374 26.4615 55.0568 26.4314 55.0815 26.4058C55.1061 26.3802 55.1356 26.3596 55.1681 26.3454C55.2007 26.3312 55.2357 26.3235 55.2713 26.3229L58.845 26.2412C58.8809 26.2406 58.9167 26.247 58.9501 26.2603C58.9835 26.2736 59.014 26.2934 59.0396 26.3186C59.0653 26.3438 59.0857 26.3739 59.0996 26.4071C59.1135 26.4402 59.1207 26.4758 59.1207 26.5118L59.1156 41.3783C59.1156 41.4143 59.1084 41.4499 59.0945 41.483C59.0806 41.5162 59.0602 41.5463 59.0345 41.5715C59.0088 41.5967 58.9784 41.6165 58.945 41.6298C58.9116 41.6431 58.8758 41.6496 58.8399 41.6489L55.2866 41.5978C55.2511 41.5972 55.216 41.5895 55.1834 41.5753C55.1509 41.5611 55.1214 41.5406 55.0968 41.515C55.0721 41.4894 55.0527 41.4592 55.0398 41.4261C55.0268 41.393 55.0204 41.3577 55.0211 41.3221L55.0926 35.8544C55.0933 35.8185 55.0868 35.7827 55.0735 35.7493C55.0602 35.7159 55.0404 35.6855 55.0152 35.6598C54.99 35.6341 54.9599 35.6138 54.9268 35.5998C54.8936 35.5859 54.858 35.5787 54.822 35.5787H50.0384C50.0024 35.5787 49.9668 35.5859 49.9337 35.5998C49.9005 35.6138 49.8704 35.6341 49.8452 35.6598C49.82 35.6855 49.8002 35.7159 49.7869 35.7493C49.7736 35.7827 49.7671 35.8185 49.7678 35.8544Z" fill="#B2B2B2"/>
<path d="M70.516 38.9586L66.1 38.9944C65.9144 38.9971 65.7356 39.0637 65.594 39.1829C65.4525 39.3021 65.3571 39.4665 65.324 39.6479L65.0738 41.0263C64.9989 41.4347 64.7556 41.6389 64.3438 41.6389H61.2091C60.8245 41.6389 60.6867 41.4551 60.7956 41.0876L65.0228 26.8081C65.1317 26.444 65.375 26.2636 65.7528 26.267L70.9602 26.3078C71.0802 26.3093 71.1968 26.349 71.2931 26.4215C71.3895 26.494 71.4606 26.5954 71.4962 26.7111L75.754 40.9089C75.9003 41.399 75.7183 41.6423 75.2078 41.6389L72.5019 41.6236C71.9472 41.6202 71.6375 41.3445 71.5728 40.7966C71.5115 40.3099 71.2784 39.7602 70.8734 39.1475C70.7883 39.0216 70.6692 38.9586 70.516 38.9586ZM66.585 35.6607C66.5748 35.7002 66.5738 35.7415 66.5822 35.7814C66.5905 35.8214 66.608 35.8588 66.6331 35.8909C66.6583 35.923 66.6906 35.9489 66.7274 35.9665C66.7642 35.9841 66.8045 35.993 66.8453 35.9925L69.9034 35.9364C69.9439 35.9355 69.9837 35.9254 70.0196 35.9068C70.0556 35.8882 70.0869 35.8617 70.111 35.8292C70.1352 35.7966 70.1516 35.7591 70.1589 35.7192C70.1663 35.6794 70.1645 35.6384 70.1535 35.5994L68.5301 30.0653C68.5148 30.0079 68.4807 29.9572 68.4332 29.9214C68.3857 29.8857 68.3277 29.8669 68.2682 29.8681C68.2088 29.8692 68.1515 29.8903 68.1055 29.928C68.0595 29.9656 68.0274 30.0175 68.0144 30.0755L66.585 35.6607Z" fill="#B2B2B2"/>
<path d="M88.5168 33.7C88.1015 33.8497 88.1084 33.9774 88.5372 34.0829C90.4466 34.5423 90.6457 36.2168 90.5181 37.9373C90.4108 39.331 89.8442 41.0413 88.236 41.3834C87.5451 41.5263 86.8252 41.6046 86.0765 41.6182C83.4966 41.6625 80.733 41.6608 77.7855 41.6131C77.6998 41.6118 77.618 41.5768 77.5578 41.5157C77.4976 41.4545 77.4639 41.3722 77.4639 41.2864L77.4741 26.5883C77.4741 26.3943 77.5711 26.2956 77.7651 26.2922C80.7568 26.2548 83.6855 26.2837 86.5513 26.379C88.8793 26.4539 90.1028 27.5039 90.2219 29.5289C90.3189 31.1831 90.2526 33.0669 88.5168 33.7ZM81.4868 30.1161L81.497 31.9948C81.4984 32.1117 81.5458 32.2234 81.6289 32.3056C81.7121 32.3878 81.8243 32.4339 81.9412 32.4339L84.9891 32.4237C85.3384 32.4223 85.6728 32.286 85.9189 32.0447C86.165 31.8034 86.3024 31.477 86.3011 31.1371V30.9329C86.3005 30.7646 86.2657 30.5981 86.1989 30.4429C86.1321 30.2877 86.0346 30.1468 85.9118 30.0283C85.789 29.9097 85.6434 29.8159 85.4833 29.7521C85.3232 29.6883 85.1518 29.6559 84.9788 29.6566L81.931 29.6668C81.8722 29.6668 81.8141 29.6784 81.7598 29.7011C81.7056 29.7237 81.6564 29.7569 81.6151 29.7987C81.5738 29.8405 81.5412 29.89 81.5192 29.9445C81.4971 29.999 81.4862 30.0573 81.4868 30.1161ZM81.5175 35.6042L81.5073 37.8811C81.5066 37.9265 81.5149 37.9716 81.5318 38.0136C81.5487 38.0557 81.5738 38.094 81.6056 38.1263C81.6375 38.1586 81.6754 38.1843 81.7172 38.2018C81.7591 38.2193 81.804 38.2283 81.8493 38.2283L85.0401 38.2386C85.2359 38.2393 85.4299 38.2051 85.6111 38.138C85.7923 38.0709 85.957 37.9722 86.0959 37.8476C86.2348 37.7229 86.3452 37.5746 86.4207 37.4113C86.4962 37.248 86.5353 37.0729 86.5359 36.8959V36.6304C86.5371 36.273 86.3813 35.9297 86.1027 35.676C85.8241 35.4223 85.4456 35.279 85.0503 35.2775L81.8595 35.2673C81.7697 35.2672 81.6834 35.3026 81.6194 35.3657C81.5554 35.4287 81.5188 35.5144 81.5175 35.6042Z" fill="#B2B2B2"/>
<path d="M95.853 39.2332C95.6046 39.7165 95.4735 40.2441 95.4599 40.8159C95.4546 41.037 95.3635 41.2474 95.2061 41.4019C95.0487 41.5565 94.8375 41.6429 94.6175 41.6429L91.6412 41.6378C91.1681 41.6378 90.9996 41.4115 91.1357 40.9588L95.3782 26.6437C95.4497 26.3952 95.6148 26.271 95.8735 26.271L101.086 26.2863C101.481 26.2863 101.734 26.4752 101.847 26.853L106.058 41.0048C106.188 41.4336 106.028 41.6463 105.579 41.6429L102.648 41.6276C102.195 41.6276 101.942 41.403 101.887 40.9537C101.806 40.2934 101.59 39.691 101.239 39.1464C101.157 39.0205 101.042 38.9592 100.892 38.9627L96.2359 38.9984C96.1561 38.9983 96.078 39.0203 96.0104 39.0617C95.9427 39.1032 95.8882 39.1626 95.853 39.2332ZM98.1096 30.4471C97.8781 32.1352 97.4459 33.8353 96.8128 35.5473C96.7928 35.6004 96.786 35.6575 96.7932 35.7138C96.8004 35.7701 96.8213 35.8238 96.8541 35.8701C96.8868 35.9165 96.9304 35.9541 96.9811 35.9797C97.0318 36.0053 97.0879 36.0181 97.1447 36.0169L100.244 35.9404C100.291 35.9387 100.337 35.9257 100.378 35.9025C100.419 35.8794 100.454 35.8467 100.48 35.8073C100.506 35.7678 100.523 35.7226 100.528 35.6756C100.533 35.6286 100.526 35.5811 100.509 35.537C99.8317 33.8285 99.3552 32.0739 99.0795 30.2735C99.0659 30.1809 99.0183 30.0966 98.9459 30.0364C98.8735 29.9762 98.7812 29.9444 98.6865 29.9468C98.3461 29.9604 98.1538 30.1272 98.1096 30.4471Z" fill="#B2B2B2"/>
<path d="M118.627 36.2868L118.393 26.74C118.386 26.4405 118.532 26.2908 118.832 26.2908H122.114C122.376 26.2908 122.507 26.4218 122.507 26.6839L122.482 41.1726C122.482 41.4857 122.325 41.6423 122.012 41.6423L116.156 41.6371C115.789 41.6371 115.54 41.467 115.411 41.1266C114.278 38.1417 113.243 35.2624 112.307 32.4886C112.038 31.6921 111.713 30.9161 111.332 30.1605C111.278 30.055 111.194 30.0125 111.082 30.0329C110.976 30.0533 110.929 30.1163 110.939 30.2218C111.221 33.9929 111.346 37.6653 111.312 41.239C111.312 41.501 111.181 41.632 110.918 41.632L107.789 41.6474C107.671 41.6474 107.558 41.6006 107.475 41.5173C107.392 41.434 107.345 41.321 107.345 41.2032L107.299 26.5971C107.299 26.3826 107.404 26.2771 107.615 26.2805L113.747 26.2908C113.883 26.2911 114.016 26.3334 114.128 26.412C114.239 26.4905 114.323 26.6015 114.37 26.7298L117.836 36.4349C118.408 38.0346 118.672 37.9852 118.627 36.2868Z" fill="#B2B2B2"/>
<path d="M128.813 38.2071L135.205 38.2122C135.303 38.2122 135.397 38.2508 135.467 38.3196C135.536 38.3884 135.576 38.4818 135.578 38.5798L135.593 41.2651C135.594 41.3145 135.584 41.3635 135.566 41.4093C135.548 41.4551 135.52 41.4968 135.486 41.532C135.451 41.5671 135.41 41.595 135.364 41.6141C135.318 41.6331 135.27 41.6429 135.22 41.6429L124.821 41.6378C124.722 41.6378 124.627 41.5986 124.557 41.5287C124.487 41.4588 124.448 41.364 124.448 41.2651L124.453 26.6641C124.453 26.5652 124.492 26.4704 124.562 26.4005C124.632 26.3306 124.727 26.2914 124.826 26.2914L135.082 26.271C135.181 26.271 135.276 26.3103 135.346 26.3802C135.416 26.4501 135.455 26.5448 135.455 26.6437L135.44 29.3239C135.44 29.4228 135.4 29.5176 135.331 29.5875C135.261 29.6574 135.166 29.6966 135.067 29.6966L128.915 29.6762C128.82 29.6761 128.728 29.7125 128.659 29.778C128.589 29.8436 128.548 29.9332 128.543 30.0284L128.43 31.9736C128.427 32.0238 128.435 32.074 128.452 32.1213C128.469 32.1685 128.496 32.2118 128.53 32.2485C128.564 32.2853 128.606 32.3147 128.652 32.335C128.698 32.3553 128.747 32.3661 128.798 32.3667L134.648 32.4432C134.745 32.4445 134.838 32.4837 134.907 32.5523C134.976 32.621 135.015 32.7138 135.016 32.8108L135.047 34.9091C135.047 34.9585 135.038 35.0075 135.02 35.0533C135.001 35.0991 134.974 35.1408 134.939 35.176C134.905 35.2111 134.863 35.239 134.818 35.258C134.772 35.2771 134.723 35.2869 134.674 35.2869L128.89 35.2664C128.793 35.2664 128.699 35.3043 128.63 35.372C128.56 35.4397 128.52 35.5319 128.517 35.629L128.44 37.8242C128.439 37.874 128.448 37.9236 128.466 37.97C128.484 38.0164 128.511 38.0587 128.546 38.0943C128.581 38.13 128.622 38.1584 128.668 38.1778C128.714 38.1972 128.763 38.2071 128.813 38.2071Z" fill="#B2B2B2"/>
<path d="M141.519 37.8407L141.581 41.2C141.582 41.2603 141.571 41.3202 141.549 41.3763C141.527 41.4323 141.494 41.4833 141.452 41.5262C141.41 41.569 141.36 41.603 141.305 41.6259C141.25 41.6488 141.191 41.6602 141.131 41.6595L137.889 41.6186C137.6 41.6186 137.456 41.4723 137.456 41.1796L137.445 26.5734C137.445 26.5361 137.452 26.499 137.466 26.4644C137.48 26.4297 137.501 26.3982 137.527 26.3716C137.554 26.345 137.586 26.3238 137.621 26.3094C137.656 26.295 137.693 26.2875 137.731 26.2875C140.172 26.2875 142.534 26.2807 144.817 26.2671C146.407 26.2603 147.693 26.4679 148.677 26.89C150.872 27.8293 150.918 32.5925 149.968 34.4457C149.88 34.6193 149.746 34.7418 149.565 34.8133L148.177 35.3698C148.131 35.3883 148.091 35.4193 148.062 35.4593C148.032 35.4993 148.015 35.5467 148.011 35.5961C148.007 35.6455 148.018 35.6949 148.04 35.7389C148.063 35.7828 148.098 35.8194 148.141 35.8446C149.31 36.5236 150.285 36.5236 150.341 38.2185C150.379 39.3281 150.413 40.264 150.443 41.0264C150.46 41.4416 150.259 41.6475 149.841 41.6441L146.568 41.6084C146.504 41.608 146.44 41.5934 146.382 41.5656C146.324 41.5378 146.272 41.4975 146.231 41.4474C146.189 41.3974 146.159 41.3388 146.143 41.2758C146.126 41.2128 146.123 41.1469 146.134 41.0826C146.875 36.932 144.802 37.6774 141.866 37.5089C141.632 37.4953 141.516 37.6059 141.519 37.8407ZM141.509 30.1471L141.519 33.6901C141.521 33.7786 141.557 33.863 141.62 33.9251C141.683 33.9872 141.768 34.022 141.856 34.022L145.027 34.0118C145.202 34.0118 145.376 33.9765 145.538 33.908C145.7 33.8394 145.847 33.739 145.971 33.6123C146.094 33.4857 146.192 33.3353 146.259 33.17C146.326 33.0046 146.36 32.8274 146.359 32.6487L146.349 31.1477C146.348 30.7885 146.206 30.4444 145.957 30.1908C145.707 29.9372 145.369 29.7949 145.016 29.7948L141.846 29.805C141.801 29.805 141.757 29.8139 141.716 29.8312C141.675 29.8484 141.637 29.8737 141.606 29.9055C141.575 29.9373 141.55 29.9751 141.533 30.0166C141.517 30.058 141.508 30.1024 141.509 30.1471Z" fill="#B2B2B2"/>
<path d="M166.102 36.8764C166.089 38.1748 165.56 39.4146 164.632 40.3231C163.704 41.2316 162.454 41.7344 161.155 41.7208L156.949 41.6767C155.65 41.6631 154.41 41.1343 153.502 40.2065C152.593 39.2788 152.091 38.0282 152.104 36.7298L152.163 31.1143C152.177 29.8159 152.706 28.576 153.633 27.6675C154.561 26.759 155.812 26.2563 157.11 26.2699L161.317 26.314C162.615 26.3276 163.855 26.8564 164.763 27.7841C165.672 28.7119 166.175 29.9625 166.161 31.2609L166.102 36.8764ZM162.018 31.7385C162.021 31.228 161.822 30.7371 161.463 30.3736C161.105 30.0102 160.617 29.8039 160.106 29.8004L158.217 29.7872C157.707 29.7837 157.216 29.983 156.853 30.3414C156.489 30.6999 156.283 31.188 156.279 31.6985L156.248 36.242C156.244 36.7525 156.444 37.2434 156.802 37.6069C157.16 37.9703 157.648 38.1765 158.159 38.1801L160.048 38.1933C160.558 38.1968 161.049 37.9974 161.413 37.639C161.776 37.2806 161.982 36.7925 161.986 36.2821L162.018 31.7385Z" fill="#B2B2B2"/>
<path d="M169.312 27.6603L168.613 27.1192C168.556 27.0754 168.514 27.015 168.492 26.9462C168.471 26.8774 168.472 26.8037 168.494 26.7353C168.516 26.6669 168.56 26.6071 168.617 26.5643C168.675 26.5215 168.745 26.4977 168.817 26.4963L170.67 26.481C171.423 26.4742 171.523 26.7278 170.972 27.2417C170.907 27.303 170.815 27.3932 170.696 27.5123C170.539 27.6654 170.458 27.8509 170.451 28.0687L170.4 29.9475C170.397 30.0099 170.38 30.0707 170.349 30.1248C170.318 30.1789 170.274 30.2246 170.221 30.2578C170.168 30.291 170.108 30.3108 170.046 30.3154C169.983 30.3201 169.921 30.3094 169.864 30.2844L169.711 30.2129C169.452 30.1006 169.338 29.9033 169.368 29.6208L169.517 28.1453C169.54 27.9445 169.472 27.7828 169.312 27.6603Z" fill="#B2B2B2"/>
<path d="M175.454 28.8732C175.474 28.7813 175.437 28.732 175.342 28.7252L175.102 28.7098C175.034 28.7064 174.994 28.7371 174.984 28.8017L174.816 29.6032C174.778 29.787 174.675 29.9164 174.504 29.9912C174.12 30.1614 173.79 30.0882 173.514 29.7717C173.415 29.6594 173.362 29.5283 173.356 29.3786L173.31 28.7404C173.303 28.6281 173.245 28.5873 173.136 28.6179L172.963 28.6639C172.923 28.6749 172.888 28.6996 172.866 28.7335C172.843 28.7674 172.834 28.808 172.84 28.8477C172.915 29.4569 172.782 29.9164 172.442 30.2261C172.4 30.2664 172.346 30.2932 172.289 30.3033C172.231 30.3134 172.172 30.3063 172.119 30.2828C172.065 30.2594 172.02 30.2206 171.988 30.1715C171.957 30.1223 171.94 30.065 171.941 30.0066L171.947 26.8923C171.947 26.7978 171.981 26.7067 172.044 26.6362C172.106 26.5657 172.191 26.5206 172.284 26.5094C173.182 26.3903 173.645 26.8243 173.672 27.8113C173.679 27.9849 173.764 28.0989 173.927 28.1534C174.064 28.201 174.191 28.2027 174.31 28.1585C174.477 28.1006 174.574 27.9849 174.601 27.8113C174.693 27.2497 174.974 26.4431 175.653 26.4125C175.929 26.4022 176.128 26.5146 176.25 26.7494C176.322 26.8822 176.349 27.0846 176.332 27.3569C176.274 28.1704 176.308 28.9685 176.434 29.7513C176.447 29.8287 176.437 29.908 176.406 29.9799C176.375 30.0518 176.323 30.1132 176.258 30.1568C176.193 30.2004 176.117 30.2243 176.039 30.2258C175.96 30.2272 175.883 30.206 175.816 30.1648C175.445 29.9368 175.325 29.5062 175.454 28.8732Z" fill="#B2B2B2"/>
</svg>
