<svg width="184" height="63" viewBox="0 0 184 63" fill="none" xmlns="http://www.w3.org/2000/svg">
<path d="M81.6416 24.7326C82.0504 24.3955 82.4826 24.1176 82.938 23.8988C83.0886 23.8271 83.1711 23.8755 83.1855 24.0441L83.7826 30.6552C83.7863 30.7037 83.777 30.7525 83.7556 30.7963C83.7343 30.84 83.7017 30.8772 83.6613 30.9037C83.621 30.9302 83.5744 30.9451 83.5266 30.9468C83.4788 30.9485 83.4315 30.937 83.3899 30.9134C81.4928 29.8483 79.567 28.9858 77.6126 28.3259C77.5695 28.3116 77.5299 28.2885 77.4963 28.2581C77.4628 28.2278 77.436 28.1908 77.4177 28.1497C77.3994 28.1086 77.3901 28.0642 77.3903 28.0195C77.3905 27.9748 77.4003 27.9308 77.4189 27.8902C77.5659 27.5567 77.8152 27.277 78.1666 27.0511C78.2187 27.0171 78.2609 26.97 78.2891 26.9145C78.3172 26.8591 78.3303 26.7972 78.327 26.7351C78.3238 26.6731 78.3042 26.6129 78.2704 26.5607C78.2366 26.5086 78.1897 26.4662 78.1344 26.4378C75.9038 25.3118 73.8668 25.1863 72.0235 26.0613C71.0983 26.4988 69.8844 27.6302 68.3818 29.4556C67.3095 30.7502 66.2426 32.0448 65.1811 33.3394C63.2303 35.717 60.7863 37.8418 57.8492 39.7138C54.9552 41.5643 51.9966 41.8117 48.882 40.2948C45.4339 38.6218 43.2284 35.05 43.3898 31.2254C43.6265 25.7923 48.9627 21.4029 54.3581 22.2366C57.6717 22.7477 59.6405 24.5981 61.7976 26.9112C62.1168 27.2483 62.1203 27.5908 61.8083 27.9386L60.3506 29.5685C60.035 29.92 59.7302 29.911 59.4361 29.5417C57.2629 26.8198 54.7723 24.7272 51.1682 25.7869C49.4038 26.3033 48.0859 27.5639 47.2144 29.5685C46.0525 32.2313 47.2951 35.1899 49.6459 36.8359C51.7007 38.274 53.9815 38.1987 56.4883 36.61C58.1953 35.527 59.714 34.227 61.0445 32.71C63.0241 30.4579 64.8924 28.2847 66.6497 26.1904C68.9412 23.4523 71.7761 21.8009 75.4017 22.1344C77.6251 22.3353 79.5401 23.1959 81.1467 24.7165C81.3045 24.8671 81.4695 24.8725 81.6416 24.7326Z" fill="#B2B2B2"/>
<path d="M38.0588 31.3208C38.0246 31.3629 38.0016 31.413 37.9918 31.4664C37.9821 31.5198 37.986 31.5747 38.0032 31.6262C38.0204 31.6777 38.0502 31.724 38.09 31.7609C38.1298 31.7978 38.1783 31.824 38.2309 31.8372C40.5404 32.4217 41.5266 33.9602 41.1895 36.4526C40.7215 39.9437 37.1604 41.5091 33.9544 41.5629C31.5086 41.6023 29.0933 41.6131 26.7085 41.5952C26.6153 41.5937 26.5264 41.5557 26.461 41.4893C26.3955 41.4229 26.3589 41.3334 26.3589 41.2401L26.3912 23.3541C26.3906 23.0948 26.4893 22.8448 26.6671 22.6551C26.8449 22.4653 27.0885 22.3498 27.3487 22.3321C29.8375 22.1743 32.3783 22.1743 34.9711 22.3321C37.3648 22.4773 39.694 23.3864 40.5224 25.721C41.1213 27.4137 40.8667 28.8553 39.7586 30.0459C39.2207 30.6215 38.5106 30.7721 38.0588 31.3208ZM30.7537 25.9469L30.743 29.8523C30.743 29.9655 30.7876 30.0741 30.8671 30.1547C30.9467 30.2352 31.0547 30.2812 31.1679 30.2826L33.9436 30.2934C34.2644 30.2949 34.5823 30.2421 34.8792 30.138C35.1761 30.0339 35.4462 29.8806 35.674 29.6868C35.9017 29.4929 36.0828 29.2624 36.2068 29.0084C36.3308 28.7544 36.3953 28.4818 36.3966 28.2062V27.636C36.3992 27.0797 36.1445 26.5451 35.6886 26.1497C35.2326 25.7542 34.6127 25.5304 33.9651 25.5273L31.1895 25.5166C31.1325 25.5159 31.0759 25.5265 31.0231 25.5478C30.9703 25.5691 30.9222 25.6007 30.8817 25.6407C30.8411 25.6807 30.809 25.7284 30.787 25.781C30.765 25.8336 30.7537 25.89 30.7537 25.9469ZM30.7645 33.6016L30.7215 37.6683C30.7207 37.7185 30.7299 37.7683 30.7485 37.8149C30.767 37.8615 30.7945 37.904 30.8295 37.94C30.8645 37.9759 30.9062 38.0046 30.9522 38.0245C30.9983 38.0443 31.0478 38.0549 31.098 38.0556L34.4278 38.0879C34.7486 38.0917 35.0671 38.0376 35.3649 37.9288C35.6627 37.82 35.934 37.6586 36.1633 37.4538C36.3926 37.249 36.5754 37.0047 36.7013 36.7351C36.8271 36.4655 36.8936 36.1757 36.8968 35.8824V35.5166C36.9035 34.9249 36.6528 34.3545 36.1999 33.9308C35.747 33.5072 35.1289 33.2649 34.4816 33.2573L31.1518 33.2251C31.1016 33.2243 31.0518 33.2335 31.0052 33.2521C30.9586 33.2706 30.9161 33.2981 30.8801 33.3331C30.8442 33.3681 30.8155 33.4098 30.7956 33.4558C30.7758 33.5019 30.7652 33.5514 30.7645 33.6016Z" fill="#B2B2B2"/>
<path d="M91.0923 29.9719L91.1892 41.1446C91.1892 41.392 91.0637 41.5176 90.8126 41.5211L87.6335 41.5319C87.3753 41.5319 87.2462 41.401 87.2462 41.1392L87.2408 22.6992C87.2408 22.5679 87.2935 22.442 87.3873 22.3492C87.4811 22.2564 87.6084 22.2043 87.7411 22.2043L90.8234 22.2258C91.1231 22.2274 91.4164 22.3117 91.6709 22.4693C91.9253 22.6269 92.1309 22.8516 92.265 23.1187L97.9186 34.3183C97.9343 34.3514 97.9591 34.3793 97.9901 34.3988C98.021 34.4183 98.0568 34.4287 98.0934 34.4287C98.13 34.4287 98.1659 34.4183 98.1968 34.3988C98.2277 34.3793 98.2525 34.3514 98.2683 34.3183L103.981 23.0327C104.107 22.7825 104.301 22.5724 104.54 22.426C104.78 22.2797 105.056 22.2029 105.337 22.2043L108.618 22.215C108.869 22.2186 108.994 22.3441 108.994 22.5916L109.005 41.349C109.005 41.5104 108.925 41.5893 108.763 41.5857L105.363 41.5104C105.184 41.5068 105.093 41.4136 105.089 41.2307C105.035 37.2644 105.057 33.5903 105.154 30.2086C105.19 28.9463 104.921 28.8763 104.347 29.9988C102.97 32.7064 101.516 35.4785 99.9842 38.3151C98.8707 40.3861 96.7298 39.6061 95.8207 37.831C94.4831 35.2059 93.149 32.5288 91.8185 29.7998C91.3237 28.7885 91.0816 28.8458 91.0923 29.9719Z" fill="#B2B2B2"/>
<path d="M116.87 22.2043H113.061C112.895 22.2043 112.76 22.3391 112.76 22.5055V41.236C112.76 41.4024 112.895 41.5373 113.061 41.5373H116.87C117.036 41.5373 117.171 41.4024 117.171 41.236V22.5055C117.171 22.3391 117.036 22.2043 116.87 22.2043Z" fill="#B2B2B2"/>
<path d="M125.057 29.5827C125.037 29.5667 125.012 29.5567 124.986 29.5539C124.961 29.5511 124.934 29.5555 124.911 29.5666C124.887 29.5778 124.868 29.5953 124.854 29.6171C124.839 29.639 124.832 29.6643 124.831 29.6903L124.933 41.3364C124.934 41.3608 124.93 41.3852 124.921 41.408C124.912 41.4308 124.898 41.4516 124.88 41.4691C124.863 41.4867 124.842 41.5006 124.818 41.5102C124.795 41.5197 124.77 41.5246 124.745 41.5246L121.238 41.5354C121.165 41.5354 121.095 41.5059 121.044 41.4535C120.992 41.401 120.964 41.3299 120.964 41.2557L120.942 22.6865C120.942 22.5 121.03 22.3817 121.206 22.3315C121.934 22.1306 122.671 22.0966 123.416 22.2293C124.026 22.3404 124.598 22.7295 125.132 23.3966C127.983 26.9289 130.761 30.4595 133.465 33.9883C133.558 34.1138 133.671 34.1533 133.804 34.1066C133.853 34.0892 133.896 34.0562 133.925 34.0126C133.954 33.9689 133.968 33.917 133.965 33.8646C133.739 30.0632 133.684 26.3336 133.798 22.6757C133.801 22.5597 133.85 22.4494 133.933 22.3689C134.017 22.2883 134.129 22.244 134.245 22.2454L137.381 22.2884C137.654 22.292 137.79 22.4301 137.79 22.7026L137.784 41.2557C137.784 41.4135 137.706 41.4977 137.548 41.5085C136.278 41.5946 134.831 41.8259 133.917 40.6639C131.654 37.7914 129.373 34.9315 127.074 32.084C126.596 31.4869 125.886 30.2928 125.057 29.5827Z" fill="#B2B2B2"/>
<path d="M153.262 34.7377L151.938 34.7592C151.178 34.77 150.794 34.3934 150.787 33.6296L150.782 32.3385C150.778 31.6823 151.103 31.3739 151.755 31.4133C153.276 31.503 155.119 31.5245 157.285 31.4779C157.345 31.4764 157.404 31.487 157.46 31.5091C157.516 31.5311 157.567 31.564 157.61 31.6061C157.653 31.6481 157.687 31.6983 157.711 31.7539C157.735 31.8095 157.747 31.8692 157.748 31.9297L157.753 39.1594C157.753 39.2325 157.739 39.3049 157.71 39.3723C157.681 39.4398 157.639 39.5009 157.586 39.5521C157.26 39.8749 156.848 40.1618 156.349 40.4128C153.018 42.1055 149.663 42.1808 146.285 40.6387C142.136 38.7452 140.212 35.5159 140.513 30.9507C140.692 28.2001 141.793 25.9892 143.816 24.3181C147.307 21.4294 153.665 21.2089 157.35 24.232C157.716 24.5333 157.755 24.8721 157.468 25.2487L156.231 26.8786C156.1 27.0505 155.909 27.1673 155.697 27.2061C155.485 27.2449 155.267 27.2029 155.085 27.0884C151.954 25.1357 147.56 24.8022 145.714 28.6645C144.407 31.3864 144.865 35.437 147.404 37.1261C149.24 38.349 151.133 38.5946 153.084 37.863C153.902 37.551 153.692 36.6688 153.73 36.0933C153.755 35.7275 153.717 35.3671 153.617 35.012C153.57 34.8291 153.452 34.7377 153.262 34.7377Z" fill="#B2B2B2"/>
<path d="M76.8968 37.406C78.7831 36.6206 80.0365 35.2328 80.6569 33.2425C80.674 33.1898 80.7021 33.1412 80.7392 33.1002C80.7763 33.0592 80.8217 33.0266 80.8722 33.0047C80.9226 32.9828 80.9771 32.972 81.0318 32.9731C81.0866 32.9742 81.1403 32.9872 81.1895 33.0112L83.4756 34.0924C83.7769 34.2358 83.8612 34.4618 83.7285 34.7702C83.0005 36.4772 82.1326 37.7754 81.1249 38.6648C78.238 41.2038 74.8886 41.826 71.0765 40.5314C69.6635 40.0508 68.0677 38.9355 66.2889 37.1855C66.0056 36.9057 65.9967 36.6188 66.262 36.3248L67.8113 34.5927C67.8738 34.5222 67.9506 34.4658 68.0366 34.4274C68.1226 34.3889 68.2159 34.3693 68.3101 34.3698C68.4043 34.3703 68.4973 34.3909 68.5829 34.4303C68.6685 34.4697 68.7447 34.5269 68.8064 34.598C70.8344 36.9219 73.7876 38.697 76.8968 37.406Z" fill="#B2B2B2"/>
</svg>
