<svg width="184" height="63" viewBox="0 0 184 63" fill="none" xmlns="http://www.w3.org/2000/svg">
<path d="M55.2032 49.2986C54.4394 49.2161 53.6701 49.1479 52.8955 49.0941C52.7377 49.0834 52.6839 49.0027 52.7341 48.8521C52.7485 48.8019 52.7754 48.757 52.8149 48.7176C52.8436 48.6889 52.8758 48.6728 52.9117 48.6692C54.278 48.4863 55.2266 48.3966 55.7573 48.4002C61.8144 48.4325 66.7884 48.3195 70.6793 48.0613C80.778 47.3943 90.6363 45.5026 100.254 42.3862C106.586 40.3367 115.332 36.3507 118.022 30.1215C122.616 19.4653 103.224 12.284 96.1501 10.5465C96.1143 10.5357 96.0999 10.5124 96.1071 10.4765L96.1394 10.3367C96.1573 10.247 96.2111 10.2094 96.3008 10.2237C102.358 11.1346 108.227 12.4902 113.907 14.2904C119.582 16.0871 132.148 21.0414 132.288 28.1258C132.315 29.4545 132.449 30.9015 131.928 32.1011C130.723 34.8822 127.656 37.4481 125.295 38.8467C119.528 42.2517 113.079 44.3765 106.58 45.872C97.5541 47.9412 88.4129 49.1533 79.1571 49.5084C72.4653 49.763 65.786 49.7863 59.1193 49.5783C57.8319 49.5388 56.5265 49.4456 55.2032 49.2986Z" fill="#B2B2B2"/>
<path d="M81.0613 29.1434L78.2803 29.2079C77.685 29.2187 77.4591 28.9372 77.6025 28.3634L77.7907 27.5888C77.9377 26.9827 78.3233 26.6815 78.9473 26.6851L85.0419 26.712C85.0611 26.7124 85.08 26.717 85.0972 26.7257C85.1145 26.7343 85.1298 26.7466 85.142 26.7619C85.1542 26.7772 85.1631 26.7951 85.1681 26.8143C85.1732 26.8335 85.1741 26.8536 85.171 26.8733C84.5972 29.7817 83.179 31.8742 80.9161 33.1509C77.624 35.0121 73.1215 34.8777 71.427 30.9831C70.8138 29.5665 70.7439 28.098 71.2173 26.5775C71.9238 24.3254 73.1663 22.561 74.9451 21.2843C77.5917 19.38 80.8139 18.8852 83.6542 20.5904C84.2495 20.949 84.7354 21.417 85.1119 21.9944C85.3917 22.4283 85.3038 22.769 84.8484 23.0164L83.751 23.6135C83.3601 23.8287 83.0104 23.7749 82.702 23.4521C81.2532 21.9424 79.5372 21.6322 77.5541 22.5215C75.1728 23.5902 73.8854 25.3869 73.6918 27.9115C73.5842 29.3065 74.0019 30.3483 74.9451 31.0369C76.9838 32.5323 79.7919 31.5102 81.3626 29.8158C81.7965 29.3496 81.6961 29.1254 81.0613 29.1434Z" fill="#B2B2B2"/>
<path d="M63.2934 31.4714L67.5429 31.4015C67.5884 31.4002 67.6335 31.4098 67.6745 31.4295C67.7155 31.4493 67.7513 31.4785 67.7787 31.5149C67.8061 31.5512 67.8243 31.5935 67.832 31.6384C67.8397 31.6832 67.8364 31.7293 67.8227 31.7726L67.2203 33.7199C67.2021 33.7772 67.1663 33.8273 67.118 33.863C67.0697 33.8988 67.0114 33.9183 66.9513 33.9189L60.0012 33.9351C59.9568 33.9352 59.9131 33.925 59.8733 33.9052C59.8336 33.8854 59.799 33.8566 59.7723 33.821C59.7457 33.7855 59.7277 33.7443 59.7198 33.7005C59.7119 33.6568 59.7143 33.6119 59.7269 33.5693L63.643 20.0943C63.6605 20.0351 63.6966 19.9832 63.7461 19.9463C63.7956 19.9095 63.8557 19.8897 63.9173 19.8899L70.9804 19.8522C71.0278 19.8519 71.0745 19.8634 71.1163 19.8857C71.1581 19.908 71.1937 19.9404 71.2199 19.9799C71.2461 20.0194 71.2619 20.0648 71.2661 20.112C71.2703 20.1592 71.2627 20.2068 71.2439 20.2503L70.3724 22.289C70.3503 22.3404 70.3135 22.3841 70.2666 22.4148C70.2197 22.4454 70.1648 22.4615 70.1089 22.4611H65.7571C65.6948 22.4613 65.6341 22.4819 65.5846 22.5198C65.535 22.5577 65.4993 22.6108 65.4828 22.6709L64.8319 24.9517C64.8202 24.9944 64.8186 25.0393 64.8272 25.0827C64.8358 25.1261 64.8544 25.1669 64.8816 25.2019C64.9087 25.2369 64.9437 25.265 64.9836 25.2842C65.0235 25.3033 65.0673 25.3129 65.1115 25.3121L69.4043 25.2691C69.4499 25.2684 69.495 25.2787 69.5359 25.2991C69.5767 25.3195 69.6121 25.3494 69.639 25.3863C69.6658 25.4232 69.6834 25.466 69.6903 25.5112C69.6972 25.5563 69.6931 25.6024 69.6785 25.6457L69.0276 27.566C69.0086 27.6223 68.9725 27.6713 68.9243 27.706C68.876 27.7407 68.8181 27.7595 68.7587 27.7597H64.5037C64.4465 27.7602 64.3908 27.7779 64.3438 27.8106C64.2968 27.8432 64.2607 27.8892 64.2402 27.9426L63.019 31.0841C63.0022 31.1279 62.9964 31.1752 63.0022 31.2218C63.0081 31.2684 63.0254 31.3129 63.0525 31.3512C63.0797 31.3895 63.1158 31.4205 63.1579 31.4415C63.1999 31.4625 63.2465 31.4727 63.2934 31.4714Z" fill="#B2B2B2"/>
<path d="M90.1519 22.527C89.4597 22.4015 88.8375 22.3943 88.2853 22.5055C87.7115 22.6239 87.5071 22.4015 87.6721 21.8385L88.0002 20.7196C88.1723 20.1351 88.5633 19.8446 89.1729 19.8482L96.0744 19.8966C96.4725 19.9002 96.6339 20.0992 96.5586 20.4937L96.3057 21.8546C96.2411 22.2204 96.0224 22.4069 95.6494 22.4141L93.5354 22.4464C93.4134 22.4495 93.2956 22.4912 93.199 22.5657C93.1023 22.6401 93.0317 22.7434 92.9975 22.8605L89.84 33.6997C89.7826 33.9006 89.6499 33.9956 89.4419 33.9848L87.3654 33.888C87.3278 33.886 87.2913 33.8752 87.2585 33.8566C87.2258 33.8379 87.1979 33.8119 87.177 33.7806C87.1561 33.7492 87.1427 33.7134 87.1381 33.6761C87.1335 33.6387 87.1377 33.6007 87.1503 33.5653C87.6345 32.2635 88.1832 30.9187 88.5005 29.5631C89.0349 27.2895 89.6695 25.084 90.4047 22.9466C90.4836 22.7099 90.3993 22.5701 90.1519 22.527Z" fill="#B2B2B2"/>
<path d="M102.805 27.0078C102.805 30.9739 105.967 34.1891 109.868 34.1891C113.768 34.1891 116.931 30.9739 116.931 27.0078C116.931 23.0416 113.768 19.8265 109.868 19.8265C105.967 19.8265 102.805 23.0416 102.805 27.0078Z" fill="#B2B2B2"/>
</svg>
