<svg width="184" height="63" viewBox="0 0 184 63" fill="none" xmlns="http://www.w3.org/2000/svg">
<path d="M87.3091 23.1442C87.1531 24.1932 88.1106 24.914 88.9444 25.3228C88.9799 25.341 89.0112 25.3666 89.036 25.3978C89.0608 25.4291 89.0787 25.4653 89.0884 25.504C89.0981 25.5427 89.0993 25.5831 89.0921 25.6223C89.0849 25.6616 89.0694 25.6989 89.0466 25.7316C88.0998 27.0585 87.2661 28.2527 86.5453 29.3142C86.1293 29.9274 86.0127 29.8754 86.1956 29.1582C86.4699 28.1039 85.3834 27.1302 84.8024 26.3933C83.4791 24.7096 83.5114 22.6063 84.7271 20.8311C85.9051 19.1098 88.2935 18.3782 90.4075 18.6794C91.7739 18.8767 92.9932 18.2132 94.0654 16.6891C94.0681 16.6853 94.0715 16.6821 94.0754 16.6798C94.0794 16.6774 94.0838 16.6759 94.0884 16.6754C94.093 16.6749 94.0976 16.6754 94.102 16.6768C94.1064 16.6782 94.1104 16.6806 94.1138 16.6837L94.2537 16.7859C94.3326 16.8397 94.3434 16.9061 94.286 16.985L91.0477 21.3475C90.9573 21.4703 90.8343 21.5652 90.6925 21.6213C90.5508 21.6774 90.3961 21.6926 90.2462 21.6649C89.095 21.4551 87.5081 21.7779 87.3091 23.1442Z" fill="#B2B2B2"/>
<path d="M126.793 35.8696L123.937 35.8589C123.887 35.8589 123.839 35.839 123.803 35.8037C123.768 35.7684 123.748 35.7205 123.748 35.6706L123.678 18.4839C123.678 18.4434 123.69 18.4039 123.714 18.3711C123.738 18.3383 123.772 18.3141 123.81 18.302C123.849 18.2899 123.891 18.2906 123.929 18.304C123.967 18.3174 124 18.3428 124.023 18.3763L132.29 30.2698C132.308 30.2943 132.331 30.3142 132.358 30.3279C132.384 30.3417 132.414 30.3488 132.444 30.3488C132.474 30.3488 132.503 30.3417 132.53 30.3279C132.557 30.3142 132.58 30.2943 132.597 30.2698L141.096 18.3387C141.119 18.3047 141.153 18.2791 141.191 18.2658C141.23 18.2525 141.272 18.2522 141.311 18.265C141.35 18.2777 141.384 18.3029 141.407 18.3366C141.431 18.3703 141.442 18.4107 141.441 18.4516L141.306 22.7766C141.306 22.8149 141.295 22.8524 141.274 22.8841L132.452 35.3801C132.435 35.4056 132.411 35.4265 132.384 35.441C132.357 35.4554 132.327 35.463 132.296 35.463C132.265 35.463 132.235 35.4554 132.207 35.441C132.18 35.4265 132.157 35.4056 132.14 35.3801L127.202 28.3871C127.179 28.3531 127.145 28.3275 127.107 28.3142C127.068 28.3009 127.026 28.3006 126.987 28.3134C126.948 28.3262 126.914 28.3513 126.891 28.385C126.867 28.4187 126.856 28.4591 126.857 28.5001L126.981 35.676C126.982 35.7012 126.978 35.7262 126.968 35.7497C126.959 35.7732 126.945 35.7946 126.928 35.8126C126.91 35.8307 126.889 35.845 126.866 35.8548C126.843 35.8646 126.818 35.8696 126.793 35.8696Z" fill="#B2B2B2"/>
<path d="M73.7097 26.4579C73.8675 26.5009 73.9966 26.4579 74.097 26.3288C75.9224 24.0516 77.7746 21.7905 79.6537 19.5455C80.0984 19.0148 80.6418 18.6831 81.2837 18.5504C81.338 18.5394 81.3944 18.5442 81.4461 18.5641C81.4978 18.5841 81.5426 18.6185 81.5754 18.6632C81.6082 18.7079 81.6276 18.761 81.6312 18.8163C81.6348 18.8716 81.6224 18.9268 81.5956 18.9753C79.8671 22.0774 78.1368 25.1866 76.4047 28.303C75.076 30.6967 74.495 32.7839 74.1185 35.3605C74.1106 35.419 74.0865 35.4741 74.049 35.5197C74.0115 35.5653 73.9621 35.5995 73.9062 35.6185C73.8503 35.6375 73.7902 35.6405 73.7327 35.6273C73.6752 35.614 73.6225 35.585 73.5806 35.5434C73.3905 35.3534 73.2793 35.1561 73.247 34.9517C72.9099 32.7713 72.2196 30.7182 71.176 28.7925C69.5013 25.6868 67.7297 22.436 65.8613 19.0399C65.8343 18.991 65.8202 18.936 65.8203 18.88C65.8204 18.8241 65.8348 18.7689 65.8621 18.7197C65.8894 18.6704 65.9288 18.6286 65.9766 18.598C66.0244 18.5675 66.0791 18.5493 66.1357 18.545C66.5122 18.5199 66.8727 18.6974 67.2169 19.0775C69.3507 21.4337 71.4379 23.831 73.4784 26.2696C73.568 26.3772 73.6452 26.4399 73.7097 26.4579Z" fill="#B2B2B2"/>
<path d="M41.6554 22.2136L41.4456 23.3163C41.4062 23.5279 41.2968 23.5763 41.1175 23.4616L38.7076 21.9554C38.5462 21.8514 38.4387 21.7079 38.3849 21.5251C38.1338 20.6787 38.1212 19.8162 38.3472 18.9376C38.3974 18.7512 38.5175 18.6597 38.7076 18.6633L49.6167 18.6956C49.8749 18.6956 49.9968 18.8247 49.9825 19.0829L49.8695 21.5089C49.8552 21.7743 49.7171 21.907 49.4553 21.907L42.0266 21.9016C41.8186 21.9016 41.6949 22.0056 41.6554 22.2136Z" fill="#B2B2B2"/>
<path d="M57.7768 32.7298L65.1141 32.6975C65.1628 32.6968 65.2113 32.7057 65.2566 32.7237C65.3019 32.7417 65.3432 32.7684 65.3781 32.8024C65.4131 32.8364 65.441 32.8769 65.4603 32.9217C65.4796 32.9664 65.49 33.0145 65.4907 33.0633L65.5444 35.484C65.5459 35.5336 65.5374 35.583 65.5194 35.6293C65.5014 35.6756 65.4742 35.7178 65.4396 35.7534C65.405 35.789 65.3636 35.8173 65.3178 35.8366C65.2721 35.856 65.2229 35.8659 65.1732 35.8659L54.4578 35.8605C54.4091 35.8605 54.3608 35.8509 54.3158 35.8322C54.2708 35.8136 54.2298 35.7863 54.1954 35.7518C54.1609 35.7173 54.1336 35.6764 54.1149 35.6314C54.0963 35.5863 54.0866 35.5381 54.0866 35.4893V18.9912C54.0866 18.9415 54.0966 18.8924 54.1159 18.8466C54.1352 18.8009 54.1635 18.7595 54.1991 18.7248C54.2347 18.6902 54.2769 18.6631 54.3232 18.6451C54.3695 18.6271 54.4189 18.6186 54.4686 18.62L57.0775 18.7061C57.1741 18.7089 57.2657 18.7492 57.333 18.8185C57.4003 18.8878 57.438 18.9806 57.4379 19.0772L57.4056 32.3586C57.4056 32.457 57.4448 32.5515 57.5144 32.6211C57.584 32.6907 57.6783 32.7298 57.7768 32.7298Z" fill="#B2B2B2"/>
<path d="M101.354 18.6862H98.5784C98.4179 18.6862 98.2879 18.8163 98.2879 18.9767V35.5663C98.2879 35.7267 98.4179 35.8568 98.5784 35.8568H101.354C101.514 35.8568 101.645 35.7267 101.645 35.5663V18.9767C101.645 18.8163 101.514 18.6862 101.354 18.6862Z" fill="#B2B2B2"/>
<path d="M109.105 29.0022C109.142 34.1394 116.458 33.978 116.399 29.1582C116.36 25.6474 116.329 22.2495 116.308 18.9646C116.304 18.7566 116.406 18.6544 116.614 18.6579L119.309 18.6902C119.361 18.6909 119.412 18.702 119.46 18.7227C119.507 18.7435 119.55 18.7736 119.585 18.8112C119.621 18.8489 119.649 18.8932 119.667 18.9417C119.685 18.9903 119.693 19.0419 119.691 19.0937C119.594 21.8371 119.589 24.6594 119.675 27.5606C119.777 31.2346 119.185 33.8705 115.743 35.4197C112.348 36.942 108.013 35.8231 106.383 32.3481C106.003 31.5448 105.809 30.2843 105.802 28.5665C105.791 25.3031 105.762 22.1222 105.716 19.0237C105.712 18.762 105.84 18.6346 106.098 18.6418L108.76 18.701C108.819 18.7024 108.876 18.7152 108.93 18.7388C108.983 18.7623 109.031 18.7961 109.071 18.8381C109.111 18.8802 109.142 18.9296 109.163 18.9837C109.183 19.0377 109.193 19.0952 109.191 19.1528C109.105 22.0361 109.076 25.3193 109.105 29.0022Z" fill="#B2B2B2"/>
<path d="M37.1309 30.7128C38.6479 29.2712 39.0567 27.6234 38.3574 25.7693C38.1261 25.1399 37.7603 24.6558 37.5182 24.0587C37.4609 23.9224 37.4949 23.892 37.6204 23.9673L42.6985 27.0711C42.743 27.0979 42.7799 27.1357 42.8055 27.181C42.8311 27.2262 42.8445 27.2773 42.8445 27.3293C42.8445 27.3813 42.8311 27.4324 42.8055 27.4776C42.7799 27.5229 42.743 27.5607 42.6985 27.5875L37.3138 30.8796C37.278 30.9011 37.2475 30.8975 37.2224 30.8688L37.1309 30.7666C37.113 30.7487 37.113 30.7308 37.1309 30.7128Z" fill="#B2B2B2"/>
<path d="M143.177 24.6453C142.15 26.4688 141.338 28.2386 141.327 30.3796C141.316 32.0973 141.336 33.7649 141.386 35.3823C141.388 35.4469 141.377 35.5114 141.354 35.5717C141.33 35.632 141.295 35.687 141.25 35.7332C141.205 35.7795 141.15 35.8161 141.091 35.8408C141.031 35.8656 140.967 35.8779 140.902 35.8772L138.395 35.8287C138.101 35.8251 137.958 35.6763 137.965 35.3823L138.051 32.1117C138.054 31.9851 138.094 31.862 138.164 31.7566C139.831 29.3432 141.447 26.9404 143.011 24.5484C143.046 24.499 143.088 24.4896 143.137 24.5201C143.139 24.521 143.141 24.5216 143.142 24.5216C143.144 24.5216 143.146 24.5221 143.147 24.523C143.196 24.5551 143.206 24.5958 143.177 24.6453Z" fill="#B2B2B2"/>
<path d="M90.2453 29.7327C90.0445 29.6287 89.8616 29.5014 89.6966 29.3508C89.5245 29.1894 89.5048 29.0101 89.6374 28.8128C90.5663 27.4286 91.4879 26.0425 92.4024 24.6547C92.4067 24.646 92.4174 24.6517 92.4259 24.6564L92.5583 24.73C92.6193 24.7659 92.6337 24.8161 92.6014 24.8806C92.4078 25.2572 92.284 25.6534 92.2302 26.0694C92.2087 26.2487 92.2517 26.4119 92.3593 26.5589C92.8488 27.2206 93.5481 27.7854 93.9139 28.4471C96.5659 33.2346 91.7945 37.1399 87.249 35.935C85.9526 35.5907 85.3125 36.7042 84.5002 37.4842C83.9551 38.0042 83.8655 37.9343 84.2313 37.2744L86.4959 33.1862C86.5523 33.0862 86.6413 33.0087 86.7481 32.9666C86.8548 32.9245 86.9729 32.9203 87.0823 32.9549C88.1833 33.2991 89.1694 33.2615 90.0409 32.8419C91.4449 32.1695 91.7085 30.4912 90.2453 29.7327Z" fill="#B2B2B2"/>
<path d="M41.6651 32.4878C41.6686 32.6456 41.7493 32.7244 41.9071 32.7244L49.438 32.6868C49.7393 32.6832 49.8935 32.832 49.9007 33.1333L49.9706 35.3441C49.9721 35.4115 49.9601 35.4784 49.9356 35.541C49.9111 35.6036 49.8746 35.6606 49.828 35.7087C49.7814 35.7568 49.7257 35.795 49.6643 35.8211C49.6029 35.8472 49.537 35.8606 49.4703 35.8606H38.7334C38.5326 35.8606 38.4052 35.7637 38.3514 35.5701C38.0394 34.4888 38.0018 33.101 39.0777 32.3856C39.8559 31.8691 40.5999 31.4514 41.31 31.1322C41.5216 31.0354 41.631 31.1035 41.6381 31.3366L41.6651 32.4878Z" fill="#B2B2B2"/>
<path d="M73.5909 45.231C73.4725 45.3234 73.3801 45.4448 73.3225 45.5835C73.2648 45.7223 73.2439 45.8736 73.2617 46.0232C73.2796 46.1728 73.3355 46.3155 73.4243 46.4376C73.513 46.5598 73.6315 46.6574 73.7685 46.721C74.9089 47.2482 76.8938 48.1627 76.1138 49.7334C75.5436 50.8738 73.747 50.6048 72.7679 50.4273C72.7116 50.4158 72.6618 50.3826 72.6288 50.3346C72.5958 50.2866 72.5821 50.2274 72.5904 50.1691L72.6281 49.9217C72.6496 49.7782 72.7231 49.7442 72.8486 49.8195C73.9137 50.4399 74.8228 50.3717 75.5759 49.6151C75.6728 49.518 75.7459 49.3998 75.7896 49.2697C75.8332 49.1395 75.8462 49.0009 75.8274 48.8646C75.8087 48.7283 75.7588 48.598 75.6816 48.4837C75.6044 48.3694 75.502 48.2743 75.3822 48.2057L73.1014 46.9201C72.9729 46.848 72.8613 46.749 72.7744 46.63C72.6874 46.511 72.6271 46.3746 72.5975 46.2302C72.5679 46.0858 72.5697 45.9367 72.6028 45.7931C72.6359 45.6494 72.6996 45.5146 72.7894 45.3977C73.5425 44.4115 74.5 44.2053 75.6619 44.7791C75.7157 44.8078 75.7301 44.8508 75.705 44.9082L75.6458 45.0373C75.6064 45.1234 75.54 45.1521 75.4468 45.1234C74.6399 44.858 74.0213 44.8939 73.5909 45.231Z" fill="#B2B2B2"/>
<path d="M77.76 45.0011C77.695 44.9958 77.6322 44.9753 77.5767 44.9412C77.5212 44.9071 77.4745 44.8604 77.4404 44.8048C77.4063 44.7492 77.3859 44.6864 77.3806 44.6215C77.3754 44.5565 77.3855 44.4912 77.4103 44.4309C77.4354 44.3628 77.5664 44.3323 77.803 44.3395C77.925 44.3431 78.0397 44.3682 78.1473 44.4148C78.8968 44.7447 79.7503 44.7178 80.7078 44.3341C80.7616 44.3126 80.7993 44.3269 80.8208 44.3771L80.9391 44.6246C80.9786 44.7142 80.9535 44.7752 80.8638 44.8075C80.1789 45.0549 79.1442 45.1195 77.76 45.0011Z" fill="#B2B2B2"/>
<path d="M103.032 47.5825C103.032 48.4086 102.704 49.2008 102.12 49.7849C101.536 50.369 100.744 50.6971 99.9176 50.6971C99.0915 50.6971 98.2993 50.369 97.7152 49.7849C97.1311 49.2008 96.8029 48.4086 96.8029 47.5825C96.8029 46.7565 97.1311 45.9643 97.7152 45.3802C98.2993 44.7961 99.0915 44.468 99.9176 44.468C100.744 44.468 101.536 44.7961 102.12 45.3802C102.704 45.9643 103.032 46.7565 103.032 47.5825ZM102.526 47.5987C102.526 46.9039 102.25 46.2376 101.759 45.7463C101.268 45.255 100.602 44.979 99.9068 44.979C99.212 44.979 98.5457 45.255 98.0544 45.7463C97.5631 46.2376 97.2871 46.9039 97.2871 47.5987C97.2871 48.2935 97.5631 48.9598 98.0544 49.4511C98.5457 49.9424 99.212 50.2184 99.9068 50.2184C100.602 50.2184 101.268 49.9424 101.759 49.4511C102.25 48.9598 102.526 48.2935 102.526 47.5987Z" fill="#B2B2B2"/>
<path d="M107.109 48.2539C106.614 47.9849 106.103 47.707 105.576 47.4201C102.822 45.9247 105.565 43.547 107.249 44.6928C107.901 45.1375 107.849 45.2469 107.093 45.021C106.784 44.9277 106.392 44.9152 105.915 44.9833C105.47 45.0478 105.172 45.2218 105.022 45.5051C104.864 45.792 104.878 46.0932 105.065 46.4088C105.667 47.404 107.351 47.1027 107.867 48.4583C108.308 49.6202 107.389 50.6692 106.184 50.567C105.581 50.5132 105.004 50.4863 104.451 50.4863C104.423 50.4864 104.395 50.4801 104.37 50.4677C104.345 50.4552 104.322 50.4371 104.305 50.4147C104.288 50.3923 104.276 50.3662 104.271 50.3385C104.265 50.3108 104.267 50.2822 104.274 50.255L104.371 49.9214C104.376 49.9015 104.387 49.883 104.4 49.8674C104.414 49.8517 104.431 49.8394 104.45 49.8311C104.469 49.8229 104.49 49.819 104.51 49.8197C104.531 49.8205 104.551 49.8258 104.57 49.8354C105.703 50.4163 106.623 50.3105 107.329 49.518C107.411 49.4264 107.471 49.3173 107.505 49.1991C107.539 49.0808 107.545 48.9563 107.524 48.8348C107.503 48.7133 107.454 48.598 107.383 48.4974C107.311 48.3969 107.217 48.3136 107.109 48.2539Z" fill="#B2B2B2"/>
<path d="M88.4334 45.3513C88.4276 45.1282 88.5104 44.9119 88.6636 44.7496C88.8168 44.5873 89.028 44.4923 89.251 44.4852L90.3538 44.453C90.7281 44.4417 91.101 44.5059 91.4512 44.6417C91.8014 44.7776 92.122 44.9825 92.3947 45.2447C92.6675 45.507 92.887 45.8214 93.0407 46.1702C93.1945 46.5189 93.2795 46.895 93.2909 47.2771L93.3016 47.5891C93.3238 48.3604 93.045 49.1087 92.5265 49.6696C92.008 50.2304 91.2923 50.5579 90.5367 50.5799L89.434 50.6122C89.3231 50.6158 89.2125 50.5975 89.1087 50.5583C89.0048 50.5192 88.9097 50.4599 88.8287 50.384C88.7478 50.3081 88.6827 50.2169 88.637 50.1158C88.5913 50.0146 88.566 49.9055 88.5625 49.7946L88.4334 45.3513ZM88.8691 45.8623L89.0305 49.305C89.0431 49.5482 89.1514 49.7764 89.3319 49.9397C89.5124 50.1031 89.7502 50.1882 89.9934 50.1765L90.1817 50.1711C90.5462 50.1543 90.9041 50.0725 91.235 49.9304C91.5659 49.7882 91.8633 49.5885 92.1101 49.3427C92.3569 49.0969 92.5483 48.8098 92.6734 48.4978C92.7985 48.1858 92.8548 47.8551 92.839 47.5245L92.8282 47.2771C92.8126 46.9467 92.7253 46.623 92.5713 46.3244C92.4173 46.0258 92.1998 45.7582 91.931 45.5369C91.6622 45.3156 91.3475 45.1449 91.0049 45.0346C90.6623 44.9243 90.2985 44.8765 89.9342 44.8941L89.7459 44.8994C89.6251 44.905 89.5066 44.9343 89.3971 44.9857C89.2876 45.0371 89.1893 45.1096 89.1078 45.199C89.0264 45.2885 88.9633 45.3931 88.9224 45.5069C88.8814 45.6207 88.8633 45.7415 88.8691 45.8623Z" fill="#B2B2B2"/>
<path d="M82.4455 48.6275L82.467 44.7867C82.467 44.7042 82.5082 44.663 82.5907 44.663L82.7413 44.6683C82.8991 44.6683 82.9727 44.7472 82.9619 44.905C82.8758 46.2606 82.8597 47.5444 82.9135 48.7566C82.9422 49.359 83.3636 49.827 84.1776 50.1605C84.3569 50.2359 84.5434 50.2502 84.7371 50.2036C85.7233 49.9669 86.2128 49.3429 86.2056 48.3316L86.1787 44.819C86.1787 44.7257 86.2253 44.6809 86.3185 44.6845L86.4853 44.6952C86.5434 44.698 86.5981 44.723 86.6381 44.7651C86.6782 44.8072 86.7005 44.8631 86.7004 44.9212V48.5898C86.7004 49.8737 86.0586 50.5281 84.7747 50.5532L84.4035 50.564C83.091 50.5891 82.4383 49.9436 82.4455 48.6275Z" fill="#B2B2B2"/>
<path d="M95.1982 44.8031L95.0368 44.8023C94.912 44.8016 94.8104 44.9022 94.8097 45.027L94.7824 50.2341C94.7818 50.3588 94.8824 50.4605 95.0072 50.4612L95.1686 50.462C95.2933 50.4627 95.395 50.362 95.3957 50.2373L95.4229 45.0302C95.4236 44.9055 95.323 44.8038 95.1982 44.8031Z" fill="#B2B2B2"/>
<path d="M79.2154 45.6559L79.1294 45.6562C79.0016 45.6566 78.8984 45.7605 78.8989 45.8883L78.914 50.2347C78.9145 50.3624 79.0184 50.4656 79.1462 50.4652L79.2322 50.4649C79.36 50.4644 79.4632 50.3605 79.4627 50.2328L79.4475 45.8864C79.4471 45.7586 79.3432 45.6554 79.2154 45.6559Z" fill="#B2B2B2"/>
</svg>
