<svg width="184" height="63" viewBox="0 0 184 63" fill="none" xmlns="http://www.w3.org/2000/svg">
<path d="M27.714 19.9782C35.2772 16.6054 43.2224 20.9035 43.9916 29.2628C44.0021 29.3719 43.9689 29.4807 43.8993 29.5654C43.8298 29.6501 43.7294 29.7038 43.6204 29.7147C41.544 29.9191 39.2094 29.8115 37.3159 29.5533C31.7592 28.8056 29.6021 25.2122 27.5096 20.5108C27.3984 20.2633 27.4665 20.0858 27.714 19.9782Z" fill="#B2B2B2"/>
<path d="M93.1041 20.6661H90.0488C89.8824 20.6661 89.7475 20.8009 89.7475 20.9673V39.8592C89.7475 40.0256 89.8824 40.1604 90.0488 40.1604H93.1041C93.2705 40.1604 93.4054 40.0256 93.4054 39.8592V20.9673C93.4054 20.8009 93.2705 20.6661 93.1041 20.6661Z" fill="#B2B2B2"/>
<path d="M51.372 24.3887L51.4365 28.4447C51.4365 28.4783 51.4433 28.5117 51.4563 28.5427C51.4694 28.5737 51.4885 28.6018 51.5125 28.6254C51.5366 28.6489 51.5651 28.6674 51.5964 28.6798C51.6277 28.6922 51.6611 28.6982 51.6947 28.6975L58.0369 28.6276C58.1012 28.6274 58.1632 28.6519 58.2102 28.6958C58.2572 28.7398 58.2856 28.8 58.2897 28.8643L58.478 31.5431C58.4801 31.5772 58.4754 31.6114 58.464 31.6436C58.4527 31.6758 58.4349 31.7053 58.4118 31.7305C58.3886 31.7556 58.3606 31.7758 58.3295 31.7898C58.2984 31.8039 58.2647 31.8114 58.2305 31.8121L51.6194 31.8766C51.5533 31.878 51.4904 31.9053 51.4442 31.9526C51.3979 31.9998 51.372 32.0633 51.372 32.1295L51.4312 36.6749C51.4326 36.741 51.4599 36.804 51.5071 36.8502C51.5544 36.8965 51.6178 36.9224 51.684 36.9224H61.5549C61.6152 36.9215 61.6737 36.9421 61.72 36.9806C61.7664 37.0191 61.7975 37.0728 61.8078 37.1322L62.2596 39.8164C62.2658 39.8526 62.2641 39.8897 62.2546 39.9251C62.2451 39.9606 62.228 39.9935 62.2044 40.0216C62.1809 40.0498 62.1515 40.0725 62.1183 40.0881C62.0851 40.1038 62.0489 40.112 62.0122 40.1123L48.0315 40.2521C47.9645 40.2521 47.9001 40.2255 47.8527 40.1781C47.8053 40.1307 47.7787 40.0664 47.7787 39.9993V21.145C47.7787 21.078 47.8053 21.0137 47.8527 20.9663C47.9001 20.9189 47.9645 20.8922 48.0315 20.8922L61.5226 20.9783C61.5897 20.9783 61.654 21.0049 61.7014 21.0523C61.7489 21.0997 61.7754 21.1641 61.7754 21.2311V23.7378C61.7755 23.804 61.7496 23.8675 61.7033 23.9147C61.6571 23.962 61.5941 23.9893 61.528 23.9907L51.6194 24.1305C51.5862 24.1312 51.5535 24.1385 51.5231 24.1518C51.4927 24.1652 51.4652 24.1844 51.4423 24.2084C51.4193 24.2323 51.4013 24.2606 51.3892 24.2916C51.3772 24.3225 51.3713 24.3555 51.372 24.3887Z" fill="#B2B2B2"/>
<path d="M122.297 24.437L119.532 24.3993C119.459 24.398 119.387 24.3819 119.32 24.3519C119.253 24.322 119.193 24.2788 119.143 24.2251C119.094 24.1713 119.055 24.108 119.031 24.0391C119.006 23.9701 118.995 23.8969 119 23.8237L119.124 21.6182C119.13 21.4825 119.187 21.3542 119.284 21.2586C119.381 21.163 119.509 21.1071 119.645 21.1018L122.233 20.9996C122.305 20.9968 122.377 21.0083 122.445 21.0337C122.512 21.059 122.574 21.0976 122.627 21.1472C122.68 21.1968 122.722 21.2564 122.751 21.3225C122.78 21.3886 122.796 21.4599 122.798 21.5322L122.851 23.8829C122.853 23.9561 122.839 24.0288 122.812 24.0967C122.785 24.1645 122.744 24.2262 122.692 24.2779C122.641 24.3297 122.579 24.3704 122.511 24.3978C122.443 24.4251 122.37 24.4384 122.297 24.437Z" fill="#B2B2B2"/>
<path d="M114.733 29.7631L114.766 36.471C114.767 36.624 114.826 36.7711 114.929 36.8841C115.032 36.9972 115.173 37.0684 115.325 37.0842C115.795 37.1345 116.209 37.1093 116.568 37.0089C116.837 36.93 117.002 37.0269 117.063 37.2994C117.238 38.0991 117.278 38.9329 117.181 39.8008C117.169 39.9194 117.114 40.0296 117.026 40.1109C116.938 40.1921 116.823 40.2386 116.702 40.2419C114.405 40.2903 111.42 40.4032 111.221 37.294C111.074 35.0455 111.009 32.6177 111.027 30.0105C111.029 29.9145 111.009 29.8195 110.97 29.7321C110.931 29.6448 110.873 29.5672 110.801 29.5049C110.633 29.3579 110.443 29.2574 110.231 29.2036C110.027 29.1499 109.881 29.0279 109.795 28.8379C109.53 28.2677 109.446 27.6759 109.542 27.0627C109.578 26.8547 109.695 26.7166 109.892 26.6485L110.57 26.4064C110.67 26.3708 110.758 26.3079 110.823 26.2252C110.889 26.1424 110.93 26.043 110.941 25.9384C111.038 25.0616 111.054 24.2709 111.818 23.6469C112.6 23.0085 113.541 22.5065 114.642 22.1407C114.857 22.069 114.956 22.1479 114.938 22.3774L114.663 25.3252C114.599 26.003 114.907 26.3724 115.589 26.4333L116.815 26.5463C117.152 26.5786 117.305 26.7615 117.272 27.095L117.095 28.9831C117.063 29.313 116.885 29.4439 116.562 29.3758C116.017 29.2682 115.524 29.2556 115.083 29.3381C114.846 29.3812 114.73 29.5228 114.733 29.7631Z" fill="#B2B2B2"/>
<path d="M88.2406 33.3025C88.2406 35.1943 87.4891 37.0085 86.1514 38.3462C84.8137 39.6839 82.9995 40.4354 81.1077 40.4354C79.216 40.4354 77.4017 39.6839 76.064 38.3462C74.7263 37.0085 73.9748 35.1943 73.9748 33.3025C73.9748 31.4108 74.7263 29.5965 76.064 28.2588C77.4017 26.9211 79.216 26.1696 81.1077 26.1696C82.9995 26.1696 84.8137 26.9211 86.1514 28.2588C87.4891 29.5965 88.2406 31.4108 88.2406 33.3025ZM81.0764 37.5197C81.5348 37.5237 81.9898 37.4188 82.4152 37.2111C82.8406 37.0035 83.2281 36.697 83.5557 36.3092C83.8833 35.9214 84.1444 35.4599 84.3243 34.9511C84.5042 34.4423 84.5993 33.8961 84.6041 33.3437C84.6089 32.7913 84.5234 32.2435 84.3524 31.7317C84.1814 31.2198 83.9283 30.7538 83.6076 30.3604C83.2868 29.967 82.9046 29.6538 82.4829 29.4387C82.0612 29.2236 81.6082 29.1109 81.1497 29.1069C80.6913 29.1029 80.2364 29.2077 79.811 29.4154C79.3856 29.6231 78.9981 29.9296 78.6705 30.3174C78.3429 30.7051 78.0817 31.1666 77.9018 31.6754C77.7219 32.1842 77.6269 32.7304 77.622 33.2828C77.6172 33.8352 77.7027 34.383 77.8737 34.8949C78.0447 35.4068 78.2979 35.8727 78.6186 36.2661C78.9394 36.6596 79.3215 36.9728 79.7432 37.1878C80.1649 37.4029 80.6179 37.5157 81.0764 37.5197Z" fill="#B2B2B2"/>
<path d="M138.504 33.3079C138.504 35.1997 137.753 37.014 136.415 38.3516C135.077 39.6893 133.263 40.4408 131.371 40.4408C129.479 40.4408 127.665 39.6893 126.327 38.3516C124.99 37.014 124.238 35.1997 124.238 33.3079C124.238 31.4162 124.99 29.6019 126.327 28.2642C127.665 26.9265 129.479 26.175 131.371 26.175C133.263 26.175 135.077 26.9265 136.415 28.2642C137.753 29.6019 138.504 31.4162 138.504 33.3079ZM131.323 37.5302C132.249 37.5431 133.143 37.1118 133.809 36.3312C134.474 35.5505 134.857 34.4844 134.873 33.3674C134.88 32.8144 134.798 32.2654 134.629 31.752C134.461 31.2386 134.211 30.7707 133.892 30.3751C133.573 29.9795 133.193 29.664 132.772 29.4464C132.352 29.2288 131.899 29.1136 131.441 29.1072C130.515 29.0942 129.621 29.5256 128.955 30.3062C128.289 31.0869 127.907 32.153 127.891 33.27C127.883 33.823 127.966 34.3719 128.134 34.8853C128.303 35.3988 128.553 35.8666 128.872 36.2622C129.191 36.6578 129.571 36.9734 129.992 37.191C130.412 37.4085 130.865 37.5238 131.323 37.5302Z" fill="#B2B2B2"/>
<path d="M143.964 28.0898C144.219 27.8459 144.465 27.5949 144.701 27.3367C146.105 25.7821 148.709 25.9165 150.301 26.944C151.578 27.7688 152.243 29.0957 152.297 30.9246C152.376 33.7971 152.385 36.7683 152.324 39.838C152.323 39.8887 152.312 39.9386 152.292 39.9851C152.272 40.0315 152.243 40.0734 152.206 40.1085C152.17 40.1435 152.126 40.1709 152.079 40.1892C152.032 40.2074 151.982 40.216 151.931 40.2146L149.085 40.1285C149.034 40.1264 148.984 40.1143 148.937 40.0928C148.891 40.0713 148.849 40.0409 148.814 40.0033C148.78 39.9658 148.753 39.9219 148.736 39.8741C148.719 39.8263 148.711 39.7757 148.714 39.7251C148.84 37.0175 148.861 34.3476 148.779 31.7154C148.666 27.923 143.787 28.8913 143.706 32.135C143.62 35.3769 143.616 37.9356 143.695 39.8111C143.706 40.0693 143.582 40.1967 143.324 40.1931L140.392 40.1285C140.163 40.1249 140.048 40.0066 140.048 39.7735L140.059 26.9009C140.059 26.7252 140.147 26.623 140.323 26.5943C141.395 26.4114 142.408 26.4025 143.362 26.5674C143.421 26.5774 143.477 26.601 143.525 26.6363C143.574 26.6715 143.613 26.7176 143.641 26.7708C143.669 26.8239 143.684 26.8828 143.685 26.9427C143.686 27.0027 143.673 27.062 143.647 27.1161C143.529 27.3707 143.507 27.6576 143.582 27.9768C143.64 28.2386 143.767 28.2762 143.964 28.0898Z" fill="#B2B2B2"/>
<path d="M67.7838 35.4229C67.8205 35.462 67.8668 35.4909 67.9181 35.5065C67.9693 35.5221 68.0238 35.5241 68.076 35.5121C68.1283 35.5001 68.1765 35.4747 68.2158 35.4383C68.2552 35.4018 68.2843 35.3558 68.3002 35.3046L70.8393 26.9883C70.8847 26.8376 70.9775 26.7058 71.1036 26.6127C71.2297 26.5195 71.3823 26.4701 71.5385 26.4719L74.1905 26.4934C74.4989 26.497 74.5993 26.6458 74.4917 26.9398L69.7688 39.7209C69.709 39.8822 69.5998 40.0204 69.4568 40.116C69.3139 40.2116 69.1445 40.2597 68.9726 40.2535L66.7403 40.162C66.5646 40.1549 66.4283 40.0796 66.3315 39.9361C66.0553 39.5273 65.8347 39.0987 65.6698 38.6505C64.2245 34.72 62.7452 30.8667 61.2319 27.0905C61.2105 27.0356 61.2025 26.9764 61.2084 26.9178C61.2144 26.8592 61.2343 26.8029 61.2664 26.7535C61.2984 26.7041 61.3418 26.6631 61.3928 26.6337C61.4439 26.6044 61.5012 26.5876 61.5601 26.5848L64.1475 26.4557C64.5563 26.4342 64.827 26.6171 64.9597 27.0044C65.8742 29.6689 66.7635 32.3747 67.6278 35.1217C67.6673 35.2508 67.7193 35.3512 67.7838 35.4229Z" fill="#B2B2B2"/>
<path d="M104.309 38.9031C104.28 38.4334 104.129 38.3885 103.857 38.7687C103.125 39.7871 102.105 40.3179 100.796 40.3609C96.4389 40.4954 95.4114 37.2732 95.5244 33.4163C95.5925 31.2503 95.5693 29.129 95.4545 27.0527C95.4501 26.9829 95.4601 26.9129 95.4838 26.8472C95.5075 26.7814 95.5444 26.7212 95.5923 26.6703C95.6402 26.6193 95.698 26.5788 95.7622 26.5511C95.8264 26.5234 95.8956 26.5092 95.9655 26.5094L98.6606 26.4986C99.0192 26.4986 99.1913 26.6779 99.1769 27.0365C99.0729 30.0704 99.0514 32.7009 99.1124 34.9279C99.1931 37.6552 102.491 38.0156 103.889 35.9553C104.176 35.5286 104.318 34.5872 104.314 33.1312C104.311 30.9221 104.291 28.9139 104.255 27.1065C104.248 26.7263 104.434 26.5309 104.814 26.5201L107.219 26.4502C107.294 26.448 107.37 26.461 107.44 26.4885C107.51 26.5159 107.575 26.5571 107.629 26.6098C107.683 26.6625 107.726 26.7255 107.755 26.7951C107.785 26.8647 107.8 26.9395 107.8 27.015C107.782 31.2467 107.818 35.5268 107.907 39.8553C107.908 39.9037 107.899 39.9518 107.881 39.9966C107.862 40.0414 107.835 40.082 107.8 40.1157C107.765 40.1495 107.724 40.1758 107.678 40.193C107.633 40.2102 107.585 40.2179 107.536 40.2157C107.529 40.2157 106.607 40.187 104.771 40.1296C104.51 40.1189 104.371 39.9844 104.357 39.7262L104.309 38.9031Z" fill="#B2B2B2"/>
<path d="M122.425 26.5253L119.326 26.5307C119.166 26.531 119.036 26.6613 119.037 26.8217L119.059 39.8825C119.06 40.0429 119.19 40.1727 119.35 40.1725L122.449 40.167C122.609 40.1668 122.739 40.0365 122.739 39.8761L122.716 26.8153C122.716 26.6548 122.585 26.525 122.425 26.5253Z" fill="#B2B2B2"/>
<path d="M27.4716 40.022C28.8594 37.3647 29.6394 35.0946 31.8987 33.185C34.7013 30.8181 39.7954 30.3878 43.5125 30.7374C43.5895 30.7454 43.6641 30.7687 43.7319 30.8059C43.7998 30.8432 43.8595 30.8936 43.9076 30.9542C43.9558 31.0149 43.9912 31.0845 44.0121 31.159C44.0329 31.2336 44.0386 31.3115 44.0289 31.3883C43.6577 34.2985 42.3236 37.1818 40.059 39.0538C36.4369 42.0482 32.2931 42.5198 27.6275 40.4685C27.5869 40.4507 27.5503 40.4247 27.5202 40.3922C27.49 40.3596 27.4669 40.3212 27.4522 40.2793C27.4376 40.2374 27.4318 40.1929 27.4351 40.1486C27.4384 40.1044 27.4508 40.0613 27.4716 40.022Z" fill="#B2B2B2"/>
<path d="M42.2158 41.1466C41.9791 41.3403 41.8285 41.5842 41.764 41.8782C41.7537 41.9265 41.7321 41.9717 41.701 42.01C41.6699 42.0483 41.6301 42.0787 41.5849 42.0987C41.5397 42.1186 41.4905 42.1276 41.4412 42.1248C41.3919 42.122 41.344 42.1075 41.3014 42.0826L41.1507 41.9912C40.9069 41.8441 40.8692 41.6559 41.0378 41.4264C41.3283 41.0355 41.7281 40.7127 42.2373 40.4581C42.4994 40.328 42.8017 40.3046 43.0806 40.3929C43.3595 40.4812 43.5933 40.6743 43.7328 40.9315C43.8834 41.2112 43.9354 41.5357 43.8887 41.9051C43.882 41.9651 43.8521 42.0203 43.8051 42.0593C43.7581 42.0983 43.6976 42.1182 43.6359 42.1149L43.4853 42.1041C43.2988 42.097 43.2038 42.0001 43.2002 41.8137C43.1895 41.4407 43.0514 41.195 42.786 41.0767C42.5816 40.9799 42.3915 41.0032 42.2158 41.1466Z" fill="#B2B2B2"/>
</svg>
