<svg width="184" height="63" viewBox="0 0 184 63" fill="none" xmlns="http://www.w3.org/2000/svg">
<path d="M104.243 32.9258L104.104 13.1355C104.103 13.0355 104.122 12.9363 104.16 12.8436C104.198 12.751 104.253 12.6667 104.324 12.5957C104.394 12.5247 104.478 12.4684 104.57 12.4299C104.663 12.3915 104.762 12.3717 104.862 12.3717H107.982C108.082 12.3717 108.18 12.3913 108.272 12.4294C108.364 12.4675 108.448 12.5234 108.518 12.5938C108.589 12.6643 108.645 12.7479 108.683 12.8399C108.721 12.9319 108.74 13.0305 108.74 13.1301L108.735 35.2389C108.735 35.3811 108.695 35.5205 108.62 35.6412C108.544 35.7618 108.436 35.8588 108.309 35.921C108.181 35.9833 108.038 36.0083 107.896 35.9933C107.755 35.9783 107.621 35.9237 107.509 35.8359L104.534 33.5175C104.444 33.4471 104.371 33.3573 104.321 33.2549C104.271 33.1524 104.244 33.0399 104.243 32.9258Z" fill="#B2B2B2"/>
<path d="M38.8147 28.8372C37.7854 28.8336 37.6205 29.2102 38.3198 29.9669C38.5421 30.2071 38.7645 30.4474 38.9868 30.6877C39.6789 31.4336 40.5342 31.8496 41.5527 31.9357C43.6147 32.1114 45.3164 31.889 46.6576 31.2686C46.9517 31.1324 47.1274 31.222 47.1848 31.5376L47.7173 34.4316C47.743 34.5679 47.7171 34.709 47.6447 34.8281C47.5723 34.9471 47.4584 35.0358 47.3246 35.0772C40.0573 37.3149 32.1659 35.061 33.5 25.615C34.1939 20.6877 38.8953 17.557 43.7851 19.0739C47.911 20.3595 48.9384 24.4209 48.7071 28.3101C48.6892 28.6651 48.5009 28.8426 48.1423 28.8426L38.8147 28.8372ZM38.1476 25.7334L44.323 25.7011C44.352 25.6997 44.3794 25.6872 44.3994 25.6662C44.4195 25.6452 44.4306 25.6172 44.4306 25.5882V25.5397C44.4285 25.1357 44.3457 24.7359 44.187 24.3634C44.0283 23.9909 43.7967 23.6529 43.5055 23.3687C43.2142 23.0844 42.8691 22.8596 42.4897 22.7069C42.1104 22.5543 41.7042 22.4768 41.2945 22.479H41.1331C40.3057 22.4833 39.5138 22.8116 38.9318 23.3916C38.3497 23.9717 38.0251 24.756 38.0293 25.572V25.6204C38.0293 25.6357 38.0324 25.6509 38.0384 25.6649C38.0444 25.679 38.0532 25.6917 38.0643 25.7023C38.0753 25.7128 38.0884 25.7211 38.1027 25.7264C38.1171 25.7318 38.1324 25.7341 38.1476 25.7334Z" fill="#B2B2B2"/>
<path d="M74.9849 35.9979C72.8292 35.9979 70.7618 35.0838 69.2375 33.4566C67.7132 31.8293 66.8569 29.6224 66.8569 27.3212C66.8569 25.02 67.7132 22.813 69.2375 21.1858C70.7618 19.5586 72.8292 18.6444 74.9849 18.6444C77.1406 18.6444 79.208 19.5586 80.7323 21.1858C82.2566 22.813 83.113 25.02 83.113 27.3212C83.113 29.6224 82.2566 31.8293 80.7323 33.4566C79.208 35.0838 77.1406 35.9979 74.9849 35.9979ZM74.9353 32.1086C75.3881 32.1118 75.8373 31.9908 76.2573 31.7526C76.6773 31.5144 77.0599 31.1636 77.3832 30.7203C77.7065 30.2769 77.9642 29.7497 78.1415 29.1688C78.3188 28.5879 78.4124 27.9646 78.4168 27.3345C78.4257 26.0619 78.0709 24.839 77.4306 23.9346C76.7902 23.0303 75.9168 22.5186 75.0023 22.5122C74.5495 22.5091 74.1003 22.6301 73.6803 22.8683C73.2602 23.1065 72.8777 23.4573 72.5544 23.9006C72.2311 24.3439 71.9734 24.8711 71.7961 25.452C71.6187 26.0329 71.5252 26.6563 71.5208 27.2864C71.5119 28.5589 71.8667 29.7819 72.507 30.6862C73.1473 31.5905 74.0208 32.1022 74.9353 32.1086Z" fill="#B2B2B2"/>
<path d="M90.359 35.3842C90.463 36.6286 90.4989 37.9572 90.4666 39.3702C90.4666 39.424 90.4397 39.4509 90.3859 39.4509L86.0126 39.4778C85.9669 39.4778 85.9231 39.4602 85.8908 39.429C85.8585 39.3977 85.8404 39.3553 85.8404 39.311L85.8458 20.1932C85.8474 20.0306 85.9061 19.8738 86.0114 19.7507C86.1168 19.6277 86.262 19.5462 86.4214 19.5208C87.7303 19.3056 89.0464 19.0958 90.3697 18.8914C94.9905 18.1706 99.8641 20.0318 100.832 25.0291C101.494 28.4342 100.822 32.6838 97.7447 34.6634C96.018 35.7769 93.7748 36.148 91.7415 35.3788C91.4079 35.2533 91.069 35.1511 90.7248 35.0722C90.4594 35.0076 90.3375 35.1116 90.359 35.3842ZM90.3428 23.7542L90.4827 30.9302C90.4855 31.075 90.5168 31.2178 90.5748 31.3506C90.6328 31.4833 90.7164 31.6033 90.8208 31.7037C90.9252 31.8041 91.0484 31.8829 91.1833 31.9357C91.3182 31.9885 91.4621 32.0142 91.607 32.0114L92.9034 31.9845C93.3739 31.9755 93.8379 31.8659 94.2688 31.662C94.6998 31.4581 95.0892 31.164 95.4149 30.7963C95.7406 30.4286 95.9962 29.9947 96.1671 29.5192C96.3379 29.0438 96.4207 28.5362 96.4106 28.0254L96.3784 26.4223C96.3685 25.9116 96.2661 25.4077 96.0769 24.9393C95.8877 24.471 95.6155 24.0474 95.2758 23.6927C94.9362 23.338 94.5357 23.0593 94.0972 22.8723C93.6588 22.6853 93.1909 22.5939 92.7205 22.6031L91.4241 22.63C91.2793 22.6328 91.1364 22.6641 91.0037 22.7221C90.871 22.7801 90.751 22.8637 90.6506 22.9681C90.5502 23.0725 90.4713 23.1957 90.4185 23.3306C90.3657 23.4655 90.34 23.6094 90.3428 23.7542Z" fill="#B2B2B2"/>
<path d="M121.408 23.9739C121.217 23.7623 121.027 23.5507 120.837 23.3391C120.375 22.8191 119.796 22.5484 119.1 22.5269C117.246 22.4695 115.589 22.6596 114.129 23.0971C114.033 23.1258 113.975 23.0899 113.957 22.9895L113.371 19.6597C113.365 19.6207 113.374 19.5811 113.394 19.5484C113.415 19.5157 113.447 19.4922 113.484 19.4822C117.303 18.3848 123.436 17.7878 125.394 22.0804C125.802 22.9769 125.998 24.7808 125.98 27.4919C125.962 29.9915 125.971 32.4103 126.007 34.7485C126.007 34.8884 125.94 34.9762 125.808 35.0121C122.505 35.9642 116.652 36.6044 113.785 34.5334C111.144 32.6345 111.09 27.9976 113.86 26.0126C115.259 25.0085 117.658 24.5764 121.058 24.7162C121.754 24.7449 121.87 24.4975 121.408 23.9739ZM121.612 31.564L121.558 28.3902C121.557 28.3161 121.542 28.2428 121.513 28.1745C121.484 28.1062 121.442 28.0444 121.389 27.9924C121.336 27.9405 121.273 27.8995 121.205 27.8717C121.136 27.844 121.062 27.8301 120.988 27.8308L119.788 27.8523C118.947 27.8656 118.144 28.0906 117.555 28.478C116.965 28.8653 116.639 29.3832 116.647 29.918V30.1869C116.651 30.452 116.737 30.7132 116.9 30.9557C117.063 31.1981 117.3 31.417 117.598 31.5999C117.896 31.7827 118.248 31.9259 118.635 32.0213C119.022 32.1167 119.436 32.1624 119.853 32.1557L121.053 32.1342C121.127 32.1335 121.2 32.1182 121.268 32.0892C121.337 32.0601 121.398 32.0179 121.45 31.965C121.502 31.912 121.543 31.8494 121.571 31.7806C121.599 31.7118 121.613 31.6382 121.612 31.564Z" fill="#B2B2B2"/>
<path d="M58.0292 29.7291C58.0834 29.7305 58.1365 29.7144 58.1802 29.6833C58.224 29.6522 58.2559 29.6078 58.2713 29.557L61.5418 19.2933C61.5545 19.2527 61.579 19.2172 61.6119 19.192C61.6449 19.1669 61.6844 19.1534 61.7247 19.1535L66.1034 19.132C66.119 19.132 66.1343 19.1358 66.1482 19.1431C66.1621 19.1503 66.1742 19.1609 66.1835 19.1738C66.1929 19.1868 66.1992 19.2019 66.2021 19.218C66.205 19.234 66.2044 19.2506 66.2003 19.2664C64.5542 24.6242 62.5531 29.808 60.197 34.8179C60.0965 35.0323 59.9356 35.2127 59.7339 35.337C59.5323 35.4612 59.2987 35.5238 59.062 35.5172L56.6844 35.4526C56.4907 35.4454 56.3186 35.3791 56.168 35.2536C55.8452 34.9846 55.5996 34.6619 55.431 34.2853C53.308 29.5336 51.3822 24.5309 49.6537 19.2772C49.6486 19.2611 49.6474 19.2441 49.6502 19.2275C49.6529 19.2108 49.6595 19.1951 49.6695 19.1815C49.6794 19.1679 49.6924 19.1568 49.7074 19.1491C49.7224 19.1414 49.739 19.1374 49.7559 19.1374L54.3713 19.1804C54.4574 19.1804 54.513 19.2216 54.5381 19.3041C55.6067 22.6249 56.6575 25.9995 57.6903 29.4279C57.7477 29.6251 57.8606 29.7255 58.0292 29.7291Z" fill="#B2B2B2"/>
<path d="M136.384 29.2728C137.553 26.0596 138.569 22.7764 139.434 19.4234C139.462 19.3194 139.53 19.2674 139.638 19.2674H144.044C144.058 19.2678 144.073 19.2715 144.086 19.2781C144.1 19.2847 144.111 19.2941 144.12 19.3056C144.129 19.317 144.135 19.3302 144.137 19.3441C144.14 19.358 144.139 19.3722 144.135 19.3857C142.129 26.1904 139.627 32.9091 136.308 39.063C136.165 39.3319 135.939 39.4664 135.63 39.4664L132.08 39.4772C132.027 39.4771 131.975 39.4626 131.929 39.4354C131.883 39.4081 131.846 39.369 131.82 39.3221C131.795 39.2753 131.783 39.2226 131.785 39.1694C131.787 39.1162 131.804 39.0646 131.833 39.02C132.629 37.7791 133.314 36.4971 133.888 35.1738C133.938 35.0541 133.962 34.9251 133.957 34.7959C133.953 34.6667 133.92 34.5405 133.861 34.4261C131.419 29.635 129.423 24.6161 127.874 19.3696C127.87 19.3571 127.87 19.344 127.872 19.3313C127.875 19.3186 127.88 19.3067 127.888 19.2964C127.896 19.286 127.906 19.2776 127.917 19.2716C127.929 19.2657 127.941 19.2624 127.954 19.262L132.505 19.2889C132.595 19.2889 132.65 19.3319 132.672 19.418C133.594 22.7818 134.671 26.0685 135.905 29.2781C136.07 29.6977 136.229 29.6959 136.384 29.2728Z" fill="#B2B2B2"/>
<path d="M46.8669 46.9859C46.8183 46.9826 46.7695 46.9899 46.724 47.0072C46.6784 47.0245 46.6371 47.0514 46.6029 47.0862C46.5687 47.1209 46.5424 47.1626 46.5257 47.2084C46.5091 47.2542 46.5025 47.3031 46.5065 47.3517L46.5711 48.0563C46.5926 48.3289 46.7396 48.4777 47.0122 48.5028C47.6792 48.5674 48.1167 48.5566 48.3247 48.4706C48.547 48.3809 48.6815 48.4544 48.7281 48.6911L48.7766 48.917C48.8124 49.1071 48.7335 49.1967 48.5399 49.186L46.0762 49.0623C45.9596 49.0567 45.8499 49.0052 45.7704 48.9187C45.691 48.8323 45.6482 48.7177 45.6512 48.5997L45.7427 45.243C45.7498 45.0242 45.8574 44.8826 46.0654 44.818C46.8436 44.5706 47.6272 44.4899 48.4162 44.576C48.4542 44.5798 48.491 44.5921 48.5237 44.6119C48.5565 44.6317 48.5844 44.6585 48.6055 44.6904C48.6266 44.7224 48.6404 44.7586 48.6458 44.7965C48.6511 44.8343 48.6481 44.873 48.6367 44.9095L48.5829 45.0763C48.5588 45.1575 48.508 45.2283 48.4387 45.2771C48.3694 45.3259 48.2856 45.3499 48.201 45.3452L47.0122 45.2914C46.6105 45.2699 46.424 45.46 46.4527 45.8616L46.4796 46.2328C46.5011 46.5233 46.6553 46.6488 46.9422 46.6093L48.0288 46.448C48.0592 46.4442 48.0899 46.4466 48.1192 46.455C48.1484 46.4634 48.1756 46.4777 48.1988 46.4969C48.2221 46.5161 48.241 46.5398 48.2543 46.5666C48.2677 46.5934 48.2751 46.6226 48.2763 46.6524L48.2817 46.846C48.2833 46.8759 48.2785 46.9057 48.2677 46.9336C48.2568 46.9614 48.2401 46.9867 48.2187 47.0075C48.1973 47.0284 48.1717 47.0445 48.1436 47.0547C48.1155 47.0649 48.0855 47.0689 48.0557 47.0666L46.8669 46.9859Z" fill="#B2B2B2"/>
<path d="M61.4883 45.7778L61.7896 48.5159C61.8024 48.6387 61.7683 48.7617 61.6943 48.8597C61.6203 48.9577 61.512 49.0232 61.3915 49.043L61.1979 49.0753C60.8679 49.1291 60.7102 48.9892 60.7245 48.6557L60.8482 45.8101C60.8554 45.6344 60.7747 45.5196 60.6062 45.4658C60.2296 45.3511 59.8692 45.3009 59.5249 45.3152C59.3133 45.3224 59.2362 45.2238 59.2936 45.0193L59.3528 44.8096C59.3746 44.7283 59.4267 44.6587 59.4981 44.6155C59.5694 44.5723 59.6543 44.5589 59.7347 44.5782C60.7639 44.8257 61.734 44.8167 62.6449 44.5513C62.7883 44.5119 62.8762 44.5639 62.9085 44.7074L62.9407 44.8526C62.9838 45.0391 62.9174 45.17 62.7417 45.2453C62.4154 45.3816 62.0765 45.464 61.725 45.4927C61.5493 45.5071 61.4704 45.6021 61.4883 45.7778Z" fill="#B2B2B2"/>
<path d="M67.1585 46.3513C67.492 46.5808 67.9635 46.6112 68.5732 46.4427C68.731 46.3997 68.8242 46.4588 68.8529 46.6202L68.8906 46.8246C68.9001 46.8759 68.8891 46.9289 68.8599 46.9722C68.8307 47.0155 68.7857 47.0455 68.7346 47.0559C68.2343 47.1581 67.804 46.8139 67.3629 47.0291C67.0796 47.1617 66.9791 47.402 67.0616 47.7499C67.0964 47.8942 67.1602 48.03 67.2492 48.1487C67.3382 48.2674 67.4504 48.3667 67.579 48.4403C67.7075 48.5139 67.8496 48.5603 67.9966 48.5766C68.1435 48.5929 68.2922 48.5789 68.4333 48.5352C68.9605 48.3739 69.2653 48.4617 69.3478 48.7988C69.3596 48.8493 69.3595 48.902 69.3474 48.9524C69.3353 49.0029 69.3116 49.0498 69.2782 49.0895C69.2447 49.1292 69.2025 49.1606 69.1548 49.1811C69.1071 49.2016 69.0553 49.2107 69.0035 49.2076L66.7335 49.0839C66.5946 49.077 66.4638 49.0165 66.3685 48.9152C66.2732 48.8139 66.2209 48.6797 66.2225 48.5406L66.2494 45.2431C66.2494 45.0351 66.348 44.8953 66.5452 44.8236C67.3162 44.551 68.0927 44.4703 68.8744 44.5815C69.0681 44.6066 69.138 44.7142 69.0842 44.9042L68.982 45.2378C68.9714 45.2729 68.9541 45.3056 68.9309 45.334C68.9077 45.3623 68.8792 45.3857 68.8471 45.4028C68.815 45.4198 68.7799 45.4302 68.744 45.4333C68.708 45.4363 68.6719 45.432 68.6377 45.4206C68.2397 45.2951 67.8165 45.2754 67.3682 45.3615C67.2621 45.3818 67.1643 45.4329 67.0871 45.5086C67.01 45.5842 66.9568 45.6809 66.9344 45.7866C66.912 45.8924 66.9213 46.0023 66.9612 46.1028C67.001 46.2032 67.0697 46.2897 67.1585 46.3513Z" fill="#B2B2B2"/>
<path d="M73.8504 47.5085L73.5922 48.7619C73.572 48.8618 73.518 48.9516 73.4393 49.0154C73.3607 49.0793 73.2625 49.1133 73.1618 49.1116L73.0058 49.1062C72.6902 49.099 72.5558 48.9394 72.6024 48.6274C72.753 47.6484 72.7709 46.6694 72.6562 45.6904C72.6335 45.4841 72.6804 45.276 72.7894 45.0988C72.8985 44.9216 73.0635 44.7853 73.2587 44.7113C73.8934 44.4711 74.686 44.6002 75.6363 45.0986C76.1778 45.3819 76.3284 45.8051 76.0881 46.3681C76.0308 46.508 75.925 46.6353 75.7708 46.7501C75.6229 46.8631 75.5257 47.0301 75.5005 47.2146C75.4753 47.399 75.5241 47.5859 75.6363 47.7345C76.4503 48.7996 76.4073 49.194 75.5072 48.9179C75.3956 48.883 75.2989 48.8109 75.2328 48.7135L74.3399 47.4117C74.0996 47.0567 73.9364 47.089 73.8504 47.5085ZM73.5276 45.8948L73.9687 46.8469C73.998 46.9104 74.0512 46.9596 74.1168 46.9839C74.1824 47.0081 74.2549 47.0052 74.3184 46.976L74.4098 46.933C74.6815 46.8074 74.9112 46.6195 75.0483 46.4108C75.1855 46.202 75.219 45.9893 75.1414 45.8195L75.0661 45.6635C74.9864 45.4953 74.8032 45.384 74.5563 45.3537C74.3094 45.3235 74.0189 45.3768 73.7482 45.5021L73.6513 45.5451C73.5888 45.5754 73.5407 45.629 73.5176 45.6945C73.4944 45.76 73.498 45.8319 73.5276 45.8948Z" fill="#B2B2B2"/>
<path d="M81.348 46.0995L81.6009 48.5524C81.6143 48.682 81.5755 48.8118 81.493 48.9135C81.4104 49.0152 81.2906 49.0807 81.1598 49.0957L80.8316 49.128C80.7828 49.1329 80.7335 49.1271 80.6872 49.111C80.6409 49.095 80.5987 49.0691 80.5638 49.0352C80.5289 49.0013 80.502 48.9602 80.485 48.9149C80.4681 48.8695 80.4615 48.8211 80.4658 48.773L80.6864 45.9865C80.7007 45.8036 80.6218 45.6799 80.4497 45.6154L79.277 45.1958C79.1372 45.1456 79.1031 45.0559 79.1748 44.9268L79.277 44.7439C79.3216 44.6643 79.3925 44.6028 79.4771 44.5703C79.5618 44.5378 79.6547 44.5364 79.7396 44.5664C80.5752 44.8605 81.4198 44.8569 82.2733 44.5556C82.4167 44.5054 82.5548 44.5144 82.6875 44.5825C82.7556 44.6184 82.8094 44.6668 82.8489 44.7278C82.9385 44.8712 82.9134 44.9932 82.7735 45.0936C82.4329 45.3338 82.0438 45.5329 81.6062 45.6907C81.4162 45.7588 81.3301 45.8951 81.348 46.0995Z" fill="#B2B2B2"/>
<path d="M114.84 46.5727L115.717 46.4382C116.043 46.388 116.17 46.5261 116.099 46.8524C116.084 46.9205 116.056 46.9815 116.013 47.0353C115.985 47.0715 115.946 47.0978 115.901 47.1104C115.857 47.1229 115.809 47.1211 115.765 47.1052C115.389 46.9725 115.025 46.9331 114.673 46.9869C114.48 47.0156 114.359 47.125 114.313 47.315C114.001 48.6168 115.286 48.719 116.228 48.4446C116.268 48.4331 116.309 48.4296 116.35 48.4342C116.391 48.4389 116.43 48.4516 116.466 48.4717C116.502 48.4918 116.533 48.5188 116.558 48.5511C116.582 48.5835 116.6 48.6204 116.61 48.6598L116.658 48.8427C116.701 49.0256 116.629 49.1171 116.443 49.1171L114.13 49.1063C114.046 49.1056 113.963 49.0884 113.886 49.0558C113.809 49.0232 113.739 48.9757 113.681 48.9162C113.622 48.8567 113.576 48.7863 113.545 48.7091C113.514 48.6318 113.499 48.5493 113.501 48.4662L113.544 45.3193C113.547 45.1257 113.637 44.9858 113.813 44.8997C114.523 44.559 115.365 44.464 116.341 44.6146C116.366 44.6185 116.39 44.6274 116.411 44.6406C116.432 44.6539 116.451 44.6714 116.465 44.6919C116.48 44.7125 116.49 44.7358 116.496 44.7604C116.501 44.785 116.501 44.8104 116.497 44.8352L116.448 45.0826C116.435 45.1521 116.397 45.2144 116.341 45.258C116.284 45.3016 116.214 45.3234 116.142 45.3193L114.829 45.2386C114.758 45.2342 114.687 45.2443 114.62 45.2682C114.553 45.292 114.492 45.3292 114.439 45.3774C114.387 45.4257 114.345 45.484 114.316 45.5489C114.287 45.6138 114.271 45.6839 114.27 45.755V46.0778C114.268 46.1494 114.282 46.2205 114.311 46.286C114.34 46.3516 114.383 46.41 114.438 46.4572C114.492 46.5044 114.556 46.5392 114.626 46.5591C114.695 46.5791 114.768 46.5837 114.84 46.5727Z" fill="#B2B2B2"/>
<path d="M129.268 45.8629L129.477 48.4234C129.488 48.5525 129.455 48.6816 129.384 48.7906C129.313 48.8995 129.208 48.9823 129.085 49.0259L128.902 49.0904C128.863 49.1044 128.822 49.1087 128.781 49.1032C128.741 49.0976 128.702 49.0822 128.669 49.0584C128.635 49.0346 128.608 49.003 128.59 48.9664C128.571 48.9298 128.562 48.8893 128.563 48.8483L128.627 45.8521C128.635 45.6333 128.532 45.4989 128.321 45.4487L127.288 45.1958C127.145 45.16 127.105 45.0757 127.17 44.943L127.261 44.7709C127.3 44.6952 127.361 44.6342 127.437 44.5973C127.513 44.5603 127.599 44.5495 127.681 44.5665C128.588 44.7493 129.486 44.744 130.376 44.5503C130.422 44.5409 130.469 44.545 130.512 44.5622C130.555 44.5795 130.592 44.609 130.618 44.6471L130.72 44.7924C130.906 45.0685 130.835 45.2353 130.505 45.2927L129.58 45.454C129.35 45.4935 129.246 45.6297 129.268 45.8629Z" fill="#B2B2B2"/>
<path d="M53.4573 46.4494C52.7831 45.933 52.5876 46.0765 52.8709 46.8798C53.0574 47.4105 53.1578 47.9807 53.1722 48.5904C53.1758 48.8522 53.0485 48.9992 52.7902 49.0315L52.5697 49.0584C52.5092 49.0654 52.4479 49.0594 52.3901 49.0407C52.3322 49.0221 52.2792 48.9912 52.2347 48.9503C52.1902 48.9093 52.1552 48.8593 52.1322 48.8036C52.1093 48.748 52.0989 48.6881 52.1017 48.628L52.2738 45.0831C52.281 44.9074 52.3707 44.8088 52.5428 44.7873C52.7221 44.7622 52.8925 44.7855 53.0538 44.8572C53.1829 44.911 53.2923 45.0275 53.382 45.2068C53.6796 45.7663 54.0472 46.2719 54.4847 46.7238C55.3024 47.5737 55.5893 47.4213 55.3454 46.2665C55.2629 45.8649 55.2539 45.4758 55.3185 45.0992C55.3651 44.8195 55.5301 44.694 55.8134 44.7227L55.9855 44.7442C56.0673 44.7524 56.1429 44.7914 56.1969 44.8534C56.2508 44.9154 56.2792 44.9956 56.276 45.0777L56.1469 48.7356C56.1397 48.9149 56.0483 49.0243 55.8726 49.0638C55.5462 49.1355 55.3239 49.053 55.2055 48.8163C54.6784 47.7297 54.0956 46.9407 53.4573 46.4494Z" fill="#B2B2B2"/>
<path d="M87.0937 46.1416C86.8606 46.5002 86.8175 46.8912 86.9646 47.3143C86.9956 47.3973 87.0035 47.4875 86.9874 47.5755C86.9713 47.6635 86.9319 47.746 86.8731 47.8146L85.8511 49.0249C85.6969 49.2078 85.5247 49.2257 85.3346 49.0787C85.288 49.0429 85.2558 48.9962 85.2378 48.9389C85.2163 48.8815 85.2217 48.8133 85.254 48.7344C85.7453 47.551 86.2778 46.3765 86.8516 45.211C86.9276 45.0594 87.0483 44.9348 87.1974 44.854C87.3465 44.7732 87.5169 44.7401 87.6854 44.7592C87.836 44.7735 87.9812 44.9367 88.1211 45.2487C88.6375 46.3927 89.1145 47.4631 89.552 48.4601C89.8066 49.041 89.6506 49.1917 89.084 48.912C88.6859 48.7147 88.2915 48.3991 87.9006 47.9652C87.775 47.8218 87.7643 47.6711 87.8683 47.5134C88.252 46.9324 88.191 46.4429 87.6854 46.0448C87.4523 45.8583 87.255 45.8906 87.0937 46.1416Z" fill="#B2B2B2"/>
<path d="M93.4694 44.7424L93.0499 44.7453C92.9073 44.7463 92.7925 44.8627 92.7935 45.0053L92.8197 48.7707C92.8207 48.9133 92.9371 49.0281 93.0797 49.0271L93.4993 49.0242C93.6419 49.0232 93.7567 48.9068 93.7557 48.7642L93.7294 44.9988C93.7284 44.8562 93.612 44.7414 93.4694 44.7424Z" fill="#B2B2B2"/>
<path d="M98.5184 46.3531C98.0486 45.9981 97.8621 46.111 97.9589 46.692L98.2655 48.5209C98.3265 48.8796 98.1759 49.0553 97.8137 49.0481H97.6093C97.5617 49.0474 97.5148 49.0372 97.4712 49.0181C97.4277 48.9989 97.3885 48.9712 97.3559 48.9366C97.3232 48.9019 97.2979 48.8611 97.2814 48.8165C97.2648 48.7719 97.2574 48.7245 97.2596 48.6769L97.3833 45.8582C97.4443 44.4488 97.8854 44.318 98.7066 45.4655C99.0688 45.9748 99.4328 46.4212 99.7986 46.805C100.505 47.5473 100.781 47.411 100.627 46.3961L100.433 45.132C100.39 44.8559 100.507 44.7214 100.783 44.7286L101.004 44.734C101.147 44.7375 101.237 44.8111 101.273 44.9545C101.369 45.3275 101.38 45.7004 101.305 46.0734C101.136 46.952 101.14 47.8073 101.316 48.6393C101.327 48.6909 101.326 48.7444 101.312 48.7955C101.299 48.8466 101.274 48.8938 101.239 48.9332C101.203 48.9726 101.159 49.0031 101.11 49.0221C101.061 49.0412 101.008 49.0482 100.955 49.0427C100.607 49.0033 100.358 48.8491 100.207 48.5801C99.6014 47.4899 99.0384 46.7476 98.5184 46.3531Z" fill="#B2B2B2"/>
<path d="M121.182 46.2272C120.648 45.7108 120.435 45.822 120.542 46.5607L120.838 48.5188C120.87 48.7447 120.784 48.9079 120.58 49.0083L120.381 49.1051C120.341 49.1244 120.297 49.1332 120.253 49.1307C120.209 49.1282 120.166 49.1144 120.129 49.0906C120.092 49.0669 120.061 49.034 120.04 48.9951C120.019 48.9562 120.009 48.9126 120.01 48.8684L120.128 45.3773C120.157 44.4736 120.458 44.3714 121.032 45.0707L122.581 46.9588C123.126 47.6294 123.375 47.5326 123.329 46.6683C123.303 46.1985 123.253 45.7018 123.178 45.1783C123.149 44.9738 123.235 44.8555 123.436 44.8232L123.576 44.7963C123.777 44.7605 123.892 44.8447 123.92 45.0491C123.996 45.6086 123.972 46.186 123.85 46.7813C123.711 47.4644 123.845 47.9755 123.867 48.6317C123.874 48.8326 123.777 48.9509 123.576 48.9868C123.243 49.0441 122.999 48.9168 122.844 48.6048C122.342 47.6007 121.788 46.8082 121.182 46.2272Z" fill="#B2B2B2"/>
<path d="M105.578 46.8515C105.57 47.289 105.613 47.7678 105.707 48.2877C105.782 48.7073 105.633 48.9512 105.26 49.0193C105.181 49.0334 105.1 49.0282 105.024 49.0044C104.947 48.9805 104.877 48.9386 104.82 48.8822C104.764 48.8258 104.721 48.7565 104.696 48.6802C104.672 48.6039 104.666 48.5228 104.679 48.4437L105.223 45.071C105.255 44.8881 105.364 44.811 105.551 44.8396C106.315 44.9688 106.653 45.469 106.567 46.3404C106.542 46.6202 106.395 46.7188 106.126 46.6363C106.072 46.6184 106.022 46.6005 105.976 46.5825C105.932 46.5663 105.884 46.5608 105.838 46.5664C105.791 46.572 105.747 46.5887 105.708 46.615C105.669 46.6413 105.637 46.6764 105.614 46.7175C105.591 46.7586 105.579 46.8046 105.578 46.8515Z" fill="#B2B2B2"/>
<path d="M108.82 46.5101C108.315 46.7648 108.031 47.17 107.97 47.7258C107.938 48.0235 107.874 48.2189 107.777 48.3122C107.651 48.4305 107.499 48.4789 107.319 48.4574C107.133 48.4323 107.006 48.3319 106.938 48.1562C106.834 47.9016 106.789 47.6272 106.803 47.3332C106.81 47.1359 106.911 47.0194 107.104 46.9835C107.757 46.8544 108.166 46.4025 108.331 45.6279C108.386 45.3728 108.539 45.1504 108.756 45.0093C108.928 44.8946 109.109 44.8282 109.299 44.8103C109.539 44.7852 109.656 44.8928 109.649 45.133C109.62 46.2447 109.774 47.3403 110.111 48.4198C110.172 48.6134 110.118 48.7694 109.95 48.8878C109.756 49.0204 109.557 49.0473 109.353 48.9684C109.181 48.9003 109.1 48.7712 109.111 48.5811L109.24 46.7845C109.242 46.7338 109.232 46.6835 109.209 46.6383C109.186 46.5931 109.151 46.5548 109.109 46.527C109.066 46.4993 109.017 46.4832 108.967 46.4802C108.916 46.4772 108.866 46.4875 108.82 46.5101Z" fill="#B2B2B2"/>
</svg>
