<svg width="184" height="63" viewBox="0 0 184 63" fill="none" xmlns="http://www.w3.org/2000/svg">
<path d="M74.0725 41.1184C75.4334 41.7532 76.902 41.1238 76.9127 39.4778C76.9271 38.1975 76.9253 36.9172 76.9074 35.637C76.8697 33.1679 74.3038 31.6886 72.6309 30.2524C69.9951 27.9769 69.8497 24.5934 70.1456 21.382C70.4791 17.7241 74.5082 16.3362 77.4076 17.7617C80.1618 19.1173 79.909 22.5815 79.8767 25.1905C79.8753 25.2602 79.8602 25.3289 79.8321 25.3927C79.8039 25.4565 79.7633 25.514 79.7128 25.5621C79.6623 25.6101 79.6027 25.6476 79.5376 25.6725C79.4725 25.6973 79.4031 25.709 79.3334 25.7069L77.37 25.6423C77.2459 25.6382 77.1282 25.5859 77.0418 25.4965C76.9555 25.4072 76.9073 25.2878 76.9074 25.1636L76.9181 22.1835C76.9217 20.9929 76.33 20.3581 75.143 20.2792C74.9708 20.2685 74.7987 20.2756 74.6266 20.3007C74.2797 20.356 73.9615 20.526 73.7226 20.7834C73.4837 21.0408 73.338 21.3709 73.3087 21.7209C73.0827 24.4482 73.002 26.9065 75.4119 28.5686C77.5905 30.0748 79.6454 31.3174 80.0274 33.7327C80.3537 35.8091 80.4003 37.8801 80.1672 39.9458C80.0274 41.2009 79.71 42.1297 79.2151 42.7322C77.8434 44.3998 75.2075 44.5235 73.2925 44.0448C69.7799 43.1733 69.9252 39.4401 70.1134 36.4923C70.1421 36.0404 70.3841 35.8288 70.8396 35.8575L72.5663 35.9813C72.6542 35.9878 72.7399 36.0123 72.818 36.0532C72.8961 36.094 72.965 36.1505 73.0204 36.2191C73.0758 36.2876 73.1166 36.3668 73.1403 36.4517C73.164 36.5366 73.17 36.6255 73.158 36.7128C72.9698 38.0254 72.6362 40.4514 74.0725 41.1184Z" fill="#B2B2B2"/>
<path d="M50.8609 32.1988L50.8986 43.6728C50.8986 43.7248 50.8882 43.7763 50.8681 43.8243C50.848 43.8723 50.8186 43.9158 50.7816 43.9524C50.7445 43.9889 50.7006 44.0177 50.6523 44.0371C50.6041 44.0565 50.5524 44.0662 50.5004 44.0655L48.2896 44.0386C48.1864 44.0371 48.0878 43.9951 48.0154 43.9217C47.9429 43.8482 47.9023 43.7491 47.9023 43.6459L47.8754 17.7986C47.8754 17.7466 47.8856 17.6951 47.9057 17.6471C47.9258 17.5991 47.9552 17.5555 47.9922 17.519C48.0293 17.4825 48.0732 17.4536 48.1215 17.4342C48.1697 17.4148 48.2214 17.4052 48.2734 17.4059L54.9383 17.5296C54.9908 17.531 55.0425 17.5429 55.0903 17.5646C55.1382 17.5863 55.1812 17.6174 55.2168 17.656C55.2524 17.6946 55.2799 17.74 55.2977 17.7894C55.3155 17.8389 55.3232 17.8914 55.3203 17.9438L55.1912 19.9772C55.1844 20.0766 55.14 20.1697 55.0671 20.2376C54.9942 20.3055 54.8982 20.3432 54.7985 20.343L51.2643 20.2999C51.2123 20.2992 51.1606 20.3088 51.1124 20.3283C51.0641 20.3477 51.0202 20.3765 50.9831 20.413C50.9461 20.4496 50.9167 20.4931 50.8966 20.5411C50.8765 20.5891 50.8663 20.6406 50.8663 20.6926L50.8878 28.7938C50.8878 28.8467 50.8983 28.8991 50.9191 28.9479C50.9398 28.9966 50.9702 29.0406 51.0084 29.0773C51.0465 29.114 51.0919 29.1426 51.1414 29.1613C51.1909 29.1801 51.2437 29.1886 51.2966 29.1865L54.2874 29.0627C54.3408 29.0605 54.394 29.0692 54.4439 29.0883C54.4938 29.1074 54.5392 29.1365 54.5775 29.1737C54.6158 29.211 54.6461 29.2557 54.6665 29.305C54.6869 29.3544 54.697 29.4074 54.6962 29.4608L54.6587 31.5802C54.658 31.6332 54.6466 31.6855 54.6252 31.734C54.6038 31.7824 54.5729 31.8261 54.5342 31.8623C54.4955 31.8984 54.4499 31.9264 54.4001 31.9445C54.3503 31.9626 54.2973 31.9704 54.2444 31.9675L51.2751 31.8061C51.2217 31.8032 51.1683 31.8112 51.1181 31.8296C51.068 31.848 51.0222 31.8765 50.9834 31.9133C50.9446 31.95 50.9137 31.9943 50.8927 32.0434C50.8716 32.0925 50.8608 32.1454 50.8609 32.1988Z" fill="#B2B2B2"/>
<path d="M68.898 41.5334L69.0056 43.599C69.0093 43.6584 69.0008 43.718 68.9805 43.774C68.9603 43.83 68.9288 43.8813 68.8879 43.9246C68.8471 43.968 68.7978 44.0025 68.7431 44.0261C68.6884 44.0496 68.6294 44.0617 68.5698 44.0616L61.7382 44.0993C61.6806 44.1 61.6234 44.0892 61.5699 44.0677C61.5164 44.0461 61.4676 44.0141 61.4266 43.9736C61.3856 43.933 61.3531 43.8848 61.3308 43.8315C61.3086 43.7783 61.2971 43.7212 61.2971 43.6636L61.3294 17.7947C61.3301 17.7361 61.3425 17.6782 61.366 17.6246C61.3896 17.5709 61.4238 17.5225 61.4665 17.4823C61.5092 17.4421 61.5595 17.411 61.6145 17.3907C61.6695 17.3705 61.7281 17.3615 61.7867 17.3644L63.9759 17.4827C64.0877 17.4883 64.1931 17.5366 64.2703 17.6177C64.3474 17.6989 64.3903 17.8065 64.3902 17.9185L64.3579 40.7534C64.3578 40.8115 64.3696 40.8691 64.3921 40.9226C64.4147 40.9762 64.4477 41.0247 64.4893 41.0653C64.5309 41.1059 64.5802 41.1378 64.6343 41.1591C64.6884 41.1803 64.7463 41.1905 64.8044 41.1891L68.4569 41.1192C68.5698 41.1176 68.6788 41.16 68.7611 41.2372C68.8433 41.3145 68.8925 41.4206 68.898 41.5334Z" fill="#B2B2B2"/>
<path d="M99.1876 43.2604C96.229 45.8209 92.356 43.4272 92.3883 39.6671C92.4349 34.8006 92.4511 29.407 92.4367 23.4863C92.4296 21.4099 92.6931 19.9593 93.2275 19.1345C94.1957 17.6319 95.7879 17.0384 98.0042 17.354C102.033 17.9188 102.119 22.1146 101.936 25.3314C101.919 25.6577 101.746 25.8209 101.42 25.8209L99.3705 25.8263C99.0549 25.8263 98.899 25.6703 98.9026 25.3583L98.9671 21.9155C98.9707 21.7577 98.9296 21.6028 98.8488 21.4691C98.0634 20.1745 97.14 19.9145 96.0785 20.6891C95.8934 20.8239 95.7427 21.0005 95.6389 21.2043C95.5352 21.4081 95.4811 21.6334 95.4813 21.8618C95.4849 27.2159 95.4831 33.1026 95.476 39.5218C95.4724 40.3789 95.9027 40.9617 96.7669 41.2701C96.9462 41.3346 97.1291 41.3418 97.3156 41.2916C98.3233 41.0226 98.847 40.3682 98.8865 39.3282C98.9725 37.1549 99.0048 35.2041 98.9832 33.4756C98.9797 33.1994 98.8398 33.0613 98.5636 33.0613H97.4663C97.3949 33.0606 97.3244 33.0459 97.2588 33.0179C97.1931 32.99 97.1336 32.9494 97.0837 32.8984C97.0337 32.8475 96.9942 32.7872 96.9676 32.721C96.9409 32.6548 96.9276 32.584 96.9283 32.5127L96.9445 30.7537C96.9459 30.5962 97.0094 30.4457 97.1213 30.3349C97.2331 30.2241 97.3842 30.1619 97.5416 30.1619L101.56 30.1727C101.611 30.1727 101.661 30.1827 101.707 30.2023C101.754 30.2218 101.796 30.2504 101.832 30.2865C101.867 30.3225 101.895 30.3652 101.914 30.4122C101.933 30.4591 101.943 30.5094 101.942 30.56L101.818 43.4541C101.817 43.6094 101.771 43.7611 101.687 43.8914C101.602 44.0216 101.482 44.1248 101.34 44.1888C101.199 44.2527 101.042 44.2748 100.888 44.2523C100.735 44.2298 100.591 44.1637 100.473 44.0619L99.5427 43.255C99.4244 43.1546 99.3059 43.1564 99.1876 43.2604Z" fill="#B2B2B2"/>
<path d="M140.215 19.634L145.083 19.6878C145.298 19.6914 145.392 19.8007 145.363 20.0159L145.325 20.3064C145.296 20.5144 145.178 20.6184 144.97 20.6184L140.328 20.57C140.265 20.5692 140.202 20.5811 140.144 20.6049C140.085 20.6288 140.032 20.664 139.988 20.7086C139.943 20.7532 139.908 20.8063 139.884 20.8647C139.86 20.9231 139.848 20.9857 139.849 21.0487V21.393C139.851 21.5048 139.896 21.6115 139.975 21.69C140.055 21.7686 140.162 21.8126 140.274 21.8126L145.008 21.7857C145.309 21.7857 145.433 21.9327 145.379 22.2268L145.331 22.4957C145.291 22.7181 145.158 22.8275 144.932 22.8239L139.473 22.7593C139.338 22.7577 139.208 22.7105 139.103 22.6256C138.999 22.5406 138.926 22.4228 138.897 22.2913C138.676 21.3123 139.064 20.4839 138.956 19.5264C138.913 19.1319 138.886 18.7858 138.875 18.4882C138.87 18.3417 138.894 18.1956 138.946 18.0587C138.998 17.9218 139.078 17.7969 139.18 17.6918C139.282 17.5866 139.405 17.5033 139.54 17.447C139.676 17.3906 139.821 17.3624 139.967 17.3639L145.056 17.4339C145.329 17.4375 145.442 17.5719 145.395 17.8373L145.336 18.23C145.293 18.4739 145.148 18.594 144.9 18.5904L140.301 18.5527C140.046 18.5527 139.901 18.6783 139.865 18.9293L139.828 19.1821C139.785 19.4798 139.914 19.6304 140.215 19.634Z" fill="#B2B2B2"/>
<path d="M59.4407 17.4438H56.9662C56.8087 17.4438 56.6812 17.5714 56.6812 17.7289V43.7537C56.6812 43.9111 56.8087 44.0388 56.9662 44.0388H59.4407C59.5982 44.0388 59.7258 43.9111 59.7258 43.7537V17.7289C59.7258 17.5714 59.5982 17.4438 59.4407 17.4438Z" fill="#B2B2B2"/>
<path d="M106.536 37.9211L106.025 43.6877C106.016 43.7861 105.969 43.8773 105.895 43.9432C105.822 44.009 105.726 44.0445 105.627 44.0427L103.341 44.0158C103.286 44.0154 103.232 44.0035 103.182 43.9808C103.131 43.9581 103.087 43.9251 103.05 43.884C103.014 43.843 102.986 43.7947 102.97 43.7423C102.953 43.69 102.947 43.6347 102.953 43.5801L105.928 17.7812C105.939 17.6856 105.984 17.5972 106.055 17.5328C106.127 17.4683 106.219 17.4323 106.315 17.4316L110.076 17.4477C110.172 17.447 110.265 17.4816 110.337 17.5451C110.41 17.6086 110.456 17.6964 110.468 17.792L113.513 43.6231C113.52 43.6795 113.515 43.7368 113.497 43.791C113.48 43.8451 113.451 43.8949 113.413 43.9368C113.375 43.9788 113.328 44.0119 113.275 44.0339C113.223 44.0559 113.166 44.0662 113.109 44.0642L110.748 43.9943C110.653 43.9908 110.562 43.9529 110.493 43.8876C110.424 43.8223 110.38 43.734 110.371 43.6393L109.828 37.9211C109.819 37.8246 109.774 37.7349 109.703 37.6693C109.631 37.6038 109.538 37.567 109.441 37.5661L106.929 37.5607C106.83 37.5604 106.735 37.5973 106.662 37.6641C106.589 37.7309 106.544 37.8227 106.536 37.9211ZM108.403 23.3703C108.4 23.3427 108.387 23.3172 108.366 23.2992C108.345 23.2811 108.317 23.2719 108.29 23.2734L108.091 23.2788C108.065 23.28 108.04 23.2904 108.022 23.3082C108.003 23.326 107.991 23.3499 107.988 23.3756L106.918 34.7313C106.916 34.7463 106.918 34.7614 106.923 34.7757C106.928 34.79 106.935 34.8032 106.945 34.8144C106.956 34.8255 106.968 34.8344 106.982 34.8405C106.996 34.8466 107.01 34.8497 107.026 34.8496H109.317C109.332 34.8497 109.347 34.8466 109.361 34.8405C109.375 34.8344 109.387 34.8255 109.397 34.8144C109.407 34.8032 109.415 34.79 109.42 34.7757C109.425 34.7614 109.426 34.7463 109.425 34.7313L108.403 23.3703Z" fill="#B2B2B2"/>
<path d="M126.289 25.6995C126.192 24.1754 126.029 24.1682 125.799 25.678C124.921 31.4517 124.096 37.3653 123.325 43.4187C123.308 43.557 123.245 43.6858 123.146 43.7851C123.047 43.8844 122.917 43.9485 122.776 43.9674C121.862 44.0822 121.08 44.0104 120.431 43.7522C120.273 43.6913 120.182 43.5765 120.157 43.408L117.58 24.6774C117.566 24.5806 117.51 24.5358 117.413 24.543L117.335 24.5459C117.29 24.5475 117.246 24.5629 117.246 24.6075L117.397 43.451C117.401 43.8168 117.218 44.0051 116.848 44.0158L115.283 44.0481C114.889 44.0589 114.689 43.8652 114.686 43.4671L114.648 17.5983C114.648 17.5015 114.697 17.4531 114.793 17.4531H119.167C119.289 17.4531 119.357 17.5141 119.371 17.636L121.496 35.1508C121.718 36.9762 121.926 36.9762 122.12 35.1508C122.715 29.6461 123.445 23.7701 124.309 17.523C124.32 17.4621 124.356 17.4316 124.417 17.4316L128.699 17.4692C128.824 17.4692 128.887 17.5338 128.887 17.6629V43.5747C128.887 43.8831 128.733 44.0391 128.424 44.0427L126.509 44.0696C126.442 44.0703 126.375 44.0576 126.313 44.0322C126.251 44.0068 126.194 43.9691 126.147 43.9215C126.099 43.8739 126.061 43.8173 126.036 43.755C126.01 43.6927 125.998 43.6259 125.998 43.5586C126.081 39.1153 126.124 34.5986 126.128 30.0083C126.128 28.5989 126.37 26.926 126.289 25.6995Z" fill="#B2B2B2"/>
<path d="M133.443 31.9747L133.47 40.7751C133.471 40.8912 133.518 41.002 133.601 41.0835C133.683 41.1651 133.795 41.2108 133.911 41.2108L137.563 41.1893C137.678 41.1878 137.788 41.2307 137.871 41.3089C137.955 41.3872 138.004 41.4947 138.01 41.6089L138.107 43.61C138.11 43.6697 138.1 43.7294 138.079 43.7854C138.059 43.8414 138.027 43.8926 137.985 43.9359C137.944 43.9792 137.894 44.0136 137.84 44.0371C137.785 44.0606 137.725 44.0727 137.665 44.0726L130.893 44.0457C130.776 44.0457 130.664 43.9992 130.581 43.9165C130.498 43.8338 130.452 43.7216 130.452 43.6046V17.9079C130.452 17.8495 130.463 17.7917 130.486 17.7379C130.508 17.684 130.542 17.6351 130.583 17.5941C130.625 17.5531 130.674 17.5207 130.728 17.4988C130.782 17.477 130.84 17.4661 130.898 17.4668L137.284 17.526C137.342 17.526 137.401 17.5377 137.455 17.5606C137.509 17.5834 137.558 17.6169 137.599 17.659C137.641 17.7011 137.673 17.751 137.694 17.8058C137.716 17.8605 137.726 17.919 137.725 17.9779L137.687 19.8821C137.684 19.9972 137.637 20.1067 137.554 20.1871C137.472 20.2675 137.361 20.3125 137.246 20.3125L133.857 20.2855C133.799 20.2848 133.741 20.2957 133.687 20.3176C133.632 20.3394 133.583 20.3718 133.542 20.4128C133.5 20.4539 133.467 20.5027 133.445 20.5566C133.422 20.6105 133.411 20.6683 133.411 20.7267V28.3867C133.411 28.446 133.422 28.5047 133.446 28.5593C133.469 28.6139 133.503 28.6633 133.545 28.7044C133.588 28.7456 133.639 28.7778 133.694 28.799C133.749 28.8202 133.809 28.83 133.868 28.8278L136.869 28.7041C136.928 28.7012 136.986 28.7099 137.041 28.7298C137.096 28.7497 137.147 28.7802 137.19 28.8198C137.233 28.8593 137.267 28.907 137.292 28.9601C137.316 29.0132 137.33 29.0706 137.332 29.129L137.402 31.114C137.404 31.1737 137.394 31.2333 137.373 31.289C137.351 31.3448 137.319 31.3956 137.277 31.4383C137.235 31.4811 137.185 31.5149 137.13 31.5378C137.075 31.5606 137.015 31.572 136.956 31.5712L133.889 31.5336C133.831 31.5328 133.773 31.5437 133.719 31.5656C133.665 31.5874 133.615 31.6198 133.574 31.6608C133.532 31.7019 133.499 31.7507 133.477 31.8046C133.454 31.8585 133.443 31.9163 133.443 31.9747Z" fill="#B2B2B2"/>
<path d="M84.3192 17.7891H83.9534C83.6415 17.7891 83.3886 18.042 83.3886 18.3539V43.3029C83.3886 43.6148 83.6415 43.8677 83.9534 43.8677H84.3192C84.6311 43.8677 84.884 43.6148 84.884 43.3029V18.3539C84.884 18.042 84.6311 17.7891 84.3192 17.7891Z" fill="#B2B2B2"/>
<path d="M86.9601 17.816L86.5512 17.8167C86.275 17.8171 86.0514 18.0415 86.0518 18.3178L86.0956 43.3635C86.096 43.6398 86.3204 43.8634 86.5967 43.8629L87.0055 43.8622C87.2818 43.8617 87.5054 43.6374 87.5049 43.3611L87.4612 18.3153C87.4607 18.0391 87.2364 17.8155 86.9601 17.816Z" fill="#B2B2B2"/>
<path d="M89.5967 17.8257H89.1125C88.8124 17.8257 88.5692 18.0689 88.5692 18.369V43.3287C88.5692 43.6287 88.8124 43.872 89.1125 43.872H89.5967C89.8967 43.872 90.14 43.6287 90.14 43.3287V18.369C90.14 18.0689 89.8967 17.8257 89.5967 17.8257Z" fill="#B2B2B2"/>
<path d="M145.633 24.8596C145.632 25.0835 145.539 25.3047 145.359 25.5107C145.179 25.7166 144.915 25.9033 144.584 26.0599C144.252 26.2165 143.859 26.34 143.426 26.4235C142.994 26.5069 142.531 26.5486 142.063 26.5461C141.596 26.5437 141.133 26.4971 140.701 26.4092C140.269 26.3212 139.878 26.1936 139.548 26.0335C139.218 25.8734 138.956 25.684 138.779 25.4762C138.601 25.2684 138.51 25.0462 138.511 24.8222C138.512 24.5983 138.605 24.377 138.785 24.1711C138.965 23.9652 139.229 23.7785 139.56 23.6219C139.892 23.4653 140.285 23.3418 140.718 23.2583C141.15 23.1749 141.613 23.1332 142.081 23.1357C142.549 23.1381 143.011 23.1847 143.443 23.2726C143.875 23.3606 144.267 23.4883 144.596 23.6483C144.926 23.8084 145.188 23.9978 145.365 24.2056C145.543 24.4134 145.634 24.6356 145.633 24.8596ZM144.321 24.8162C144.321 24.7462 144.308 24.6768 144.282 24.6119C144.256 24.5471 144.218 24.4879 144.169 24.438C144.12 24.388 144.061 24.3482 143.997 24.3207C143.933 24.2933 143.864 24.2788 143.794 24.2781L140.341 24.2419C140.271 24.2411 140.201 24.2542 140.136 24.2803C140.071 24.3064 140.012 24.345 139.962 24.3939C139.912 24.4428 139.873 24.5011 139.845 24.5654C139.818 24.6298 139.803 24.6989 139.802 24.7688L139.802 24.8226C139.801 24.8925 139.814 24.9619 139.84 25.0268C139.866 25.0917 139.905 25.1508 139.954 25.2008C140.003 25.2508 140.061 25.2906 140.125 25.318C140.19 25.3455 140.259 25.36 140.329 25.3607L143.782 25.3969C143.852 25.3976 143.921 25.3846 143.986 25.3585C144.051 25.3324 144.11 25.2938 144.16 25.2449C144.21 25.1959 144.25 25.1376 144.278 25.0733C144.305 25.009 144.319 24.9399 144.32 24.87L144.321 24.8162Z" fill="#B2B2B2"/>
<path d="M144.239 28.3423C144.096 28.1523 143.883 28.025 143.599 27.9604C143.337 27.8995 143.207 27.7345 143.207 27.4655V27.1804C143.206 27.1145 143.222 27.0494 143.251 26.9903C143.28 26.9313 143.323 26.8799 143.376 26.8402C143.429 26.8005 143.49 26.7737 143.555 26.7618C143.62 26.7499 143.686 26.7532 143.75 26.7716C144.151 26.8899 144.55 27.0872 144.944 27.3633C145.971 28.0841 145.52 29.4935 144.433 29.8055C143.149 30.1821 141.713 30.2502 140.124 30.0099C139.29 29.8808 138.387 29.1492 138.65 28.2348C138.844 27.5641 139.369 27.0585 140.226 26.7178C140.281 26.6952 140.34 26.6851 140.4 26.6883C140.459 26.6915 140.517 26.7078 140.569 26.7362C140.621 26.7645 140.666 26.8042 140.701 26.8522C140.735 26.9002 140.759 26.9554 140.77 27.0137L140.867 27.5408C140.92 27.8313 140.8 27.9819 140.506 27.9927C140.083 28.0035 139.839 28.2061 139.775 28.6006C139.764 28.6632 139.768 28.7273 139.785 28.7883C139.802 28.8494 139.832 28.9058 139.873 28.9536C139.914 29.0014 139.965 29.0394 140.023 29.0649C140.08 29.0903 140.142 29.1026 140.205 29.1008L143.911 29.0201C144.46 29.0094 144.569 28.7834 144.239 28.3423Z" fill="#B2B2B2"/>
<path d="M144.716 31.6464C145.137 31.6125 145.46 31.3568 145.437 31.0753C145.415 30.7937 145.055 30.5929 144.634 30.6268C144.214 30.6606 143.891 30.9163 143.913 31.1979C143.936 31.4794 144.296 31.6802 144.716 31.6464Z" fill="#B2B2B2"/>
<path d="M121.14 48.1603L121.103 50.6939C121.102 50.7576 121.114 50.8209 121.139 50.8798C121.163 50.9386 121.2 50.9919 121.246 51.0362C121.291 51.0805 121.346 51.115 121.405 51.1375C121.465 51.1601 121.529 51.1702 121.592 51.1673L121.851 51.1511C121.928 51.1476 122.002 51.1163 122.058 51.063C122.114 51.0096 122.15 50.9378 122.157 50.8606C122.193 50.4769 122.157 50.0932 122.05 49.7095C121.967 49.4118 122.071 49.2128 122.362 49.1124L122.501 49.064C122.778 48.9671 122.93 49.064 122.959 49.3544C123.077 50.554 123.185 52.2485 121.474 52.2969C121.298 52.3002 121.126 52.2347 120.995 52.114L120.49 51.646C120.317 51.4882 120.131 51.4703 119.93 51.5922L119.005 52.1517C118.829 52.2592 118.643 52.2897 118.445 52.2431C116.504 51.7966 117.348 50.1882 117.165 48.8273C117.025 47.7407 117.316 46.9392 118.37 46.5572C118.458 46.5274 118.551 46.5197 118.642 46.5347C118.733 46.5497 118.819 46.587 118.892 46.6433L119.629 47.2135C119.787 47.3354 119.937 47.3283 120.081 47.192C120.149 47.1346 120.194 47.0521 120.215 46.9445C120.28 46.6594 120.005 46.057 120.032 45.6481C120.05 45.4186 120.174 45.3057 120.404 45.3093L120.845 45.3146C120.927 45.3163 121.008 45.345 121.074 45.3963C121.139 45.4476 121.187 45.5189 121.21 45.5997L121.431 46.4012C121.488 46.5949 121.614 46.7186 121.807 46.7724C122.381 46.9338 122.74 46.7294 122.883 46.1592C122.969 45.8221 123.041 45.4778 123.099 45.1264C123.195 44.5454 123.45 44.4647 123.862 44.8843C124.182 45.2106 124.248 45.6804 124.061 46.2937C124.004 46.4945 123.88 46.6397 123.69 46.7294C123.339 46.8979 123.027 47.1274 122.754 47.4179C122.643 47.5398 122.505 47.6098 122.34 47.6277L121.555 47.7084C121.282 47.7371 121.144 47.8877 121.14 48.1603ZM119.25 48.193C119.244 48.1233 119.222 48.0557 119.184 47.994C119.146 47.9322 119.094 47.8776 119.029 47.8333C118.965 47.789 118.89 47.7558 118.809 47.7356C118.728 47.7153 118.643 47.7086 118.558 47.7156C118.386 47.7297 118.225 47.7992 118.112 47.9087C117.999 48.0182 117.941 48.1589 117.953 48.2996C117.959 48.3693 117.981 48.437 118.019 48.4987C118.057 48.5604 118.109 48.615 118.174 48.6593C118.238 48.7037 118.313 48.7369 118.394 48.7571C118.474 48.7773 118.56 48.7841 118.645 48.7771C118.817 48.7629 118.978 48.6935 119.091 48.5839C119.205 48.4744 119.262 48.3338 119.25 48.193ZM117.865 50.5218L118.311 51.1135C118.347 51.1626 118.402 51.1952 118.462 51.2043C118.523 51.2134 118.585 51.1981 118.634 51.1619L118.714 51.0973C119.094 50.8123 119.428 50.4979 119.643 50.2227C119.857 49.9476 119.936 49.734 119.86 49.6288L119.726 49.4459C119.687 49.3945 119.612 49.3715 119.504 49.3783C119.396 49.3851 119.257 49.4215 119.096 49.4855C118.935 49.5494 118.755 49.6396 118.566 49.751C118.377 49.8623 118.182 49.9927 117.994 50.1344L117.913 50.199C117.864 50.2355 117.831 50.2899 117.822 50.3504C117.813 50.4109 117.828 50.4725 117.865 50.5218Z" fill="#B2B2B2"/>
<path d="M116.307 44.6906L116.275 44.6907C115.984 44.6923 115.749 44.9295 115.751 45.2207L115.784 51.6434C115.786 51.9345 116.023 52.1693 116.314 52.1678L116.346 52.1676C116.638 52.1661 116.872 51.9288 116.871 51.6377L116.837 45.215C116.836 44.9238 116.598 44.689 116.307 44.6906Z" fill="#B2B2B2"/>
<path d="M131.432 47.0828L131.518 44.7428C131.518 44.7244 131.523 44.7063 131.531 44.6896C131.539 44.6729 131.55 44.6579 131.564 44.6454C131.578 44.6329 131.594 44.6232 131.612 44.6168C131.63 44.6104 131.649 44.6075 131.668 44.6083C132.289 44.6334 132.559 45.1175 132.481 46.0607C132.481 46.0822 132.479 46.1036 132.476 46.1249C132.417 46.5038 132.376 46.8589 132.351 47.1903C132.334 47.4772 132.443 47.54 132.68 47.3786L133.669 46.7062C133.92 46.5341 134.18 46.5179 134.449 46.6578C135.07 46.9734 135.726 47.0146 136.418 46.7815C136.691 46.6883 136.823 46.7851 136.816 47.072L136.73 50.3533C136.729 50.4845 136.756 50.6139 136.81 50.7321C136.864 50.8504 136.943 50.9543 137.042 51.0365L137.408 51.3324C137.443 51.362 137.486 51.381 137.531 51.3871C137.577 51.3933 137.623 51.3864 137.665 51.3672C137.707 51.348 137.742 51.3174 137.767 51.2788C137.792 51.2403 137.806 51.1954 137.806 51.1495L137.838 47.1581C137.838 47.0392 137.885 46.925 137.969 46.8404C138.052 46.7558 138.166 46.7076 138.285 46.7062H138.495C138.71 46.7062 138.817 46.8138 138.817 47.029C138.807 48.8866 138.803 50.7747 138.807 52.6933C138.807 53.9843 138.333 55.2269 136.838 54.7643C136.081 54.5312 135.687 53.9216 135.654 52.9354C135.644 52.67 135.766 52.4996 136.02 52.4243L136.192 52.3705C136.411 52.3024 136.456 52.1751 136.327 51.9886C136.266 51.899 136.192 51.8237 136.106 51.7627C135.959 51.6587 135.81 51.6569 135.66 51.7573C134.871 52.2881 134.073 52.3759 133.266 52.0209C132.871 51.8488 132.536 51.8093 132.26 51.9026C132.153 51.942 132.041 51.9581 131.927 51.951C131.155 51.9187 130.39 51.9922 129.63 52.1715C129.393 52.2253 129.284 52.3741 129.301 52.618L129.398 54.2425C129.403 54.3078 129.393 54.3733 129.371 54.4348C129.349 54.4964 129.314 54.5527 129.268 54.6002C129.223 54.6477 129.168 54.6854 129.107 54.7108C129.046 54.7363 128.98 54.749 128.914 54.7482L128.527 54.7428C128.315 54.7392 128.211 54.6334 128.215 54.4254L128.301 47.1957C128.301 46.9662 128.414 46.8281 128.64 46.7815C129.612 46.5699 130.454 46.7134 131.168 47.2118C131.333 47.3302 131.421 47.2872 131.432 47.0828ZM130.385 48.1806C130.386 48.1135 130.373 48.0469 130.348 47.9846C130.323 47.9224 130.286 47.8657 130.239 47.8177C130.192 47.7698 130.136 47.7315 130.074 47.7052C130.013 47.6789 129.946 47.6649 129.879 47.6642L129.793 47.6633C129.658 47.6619 129.527 47.7144 129.43 47.8092C129.334 47.9041 129.278 48.0335 129.277 48.169L129.251 50.6648C129.25 50.7319 129.263 50.7985 129.288 50.8608C129.313 50.9231 129.35 50.9798 129.397 51.0278C129.444 51.0757 129.5 51.1139 129.561 51.1403C129.623 51.1666 129.689 51.1805 129.756 51.1812L129.842 51.1821C129.978 51.1835 130.108 51.131 130.205 51.0362C130.302 50.9414 130.357 50.812 130.359 50.6765L130.385 48.1806ZM132.083 50.3856C132.932 49.4747 133.782 48.8597 134.632 48.5405C134.685 48.5212 134.733 48.4914 134.774 48.4527C134.815 48.4141 134.848 48.3674 134.871 48.3153C134.894 48.2633 134.907 48.207 134.908 48.1496C134.91 48.0922 134.9 48.035 134.88 47.9811L134.82 47.8197C134.785 47.7304 134.718 47.6575 134.632 47.6156C134.546 47.5737 134.449 47.5659 134.358 47.5938C134.017 47.6942 133.714 47.886 133.449 48.1694C133.323 48.302 133.167 48.372 132.981 48.3792L132.518 48.3953C132.389 48.3989 132.325 48.467 132.325 48.5997C132.343 49.1986 132.237 49.7795 132.007 50.3426C131.95 50.486 131.975 50.5004 132.083 50.3856ZM133.728 50.9886C133.791 51.0443 133.866 51.085 133.949 51.1083C134.032 51.1316 134.122 51.1372 134.212 51.1245C134.303 51.1119 134.393 51.0814 134.477 51.0348C134.561 50.9882 134.638 50.9263 134.703 50.8528C134.834 50.7043 134.91 50.5172 134.913 50.3326C134.916 50.148 134.846 49.9812 134.719 49.8687C134.656 49.813 134.581 49.7723 134.498 49.749C134.415 49.7256 134.325 49.7201 134.235 49.7327C134.144 49.7454 134.054 49.7758 133.97 49.8225C133.886 49.8691 133.809 49.9309 133.744 50.0045C133.613 50.153 133.537 50.3401 133.534 50.5247C133.531 50.7093 133.601 50.8761 133.728 50.9886ZM136.606 52.3383L136.983 53.8606C136.986 53.8757 136.992 53.8899 137.001 53.9025C137.01 53.9151 137.021 53.9257 137.034 53.9338C137.048 53.9418 137.062 53.9471 137.077 53.9494C137.092 53.9516 137.108 53.9507 137.123 53.9467L137.354 53.8875C137.546 53.8388 137.709 53.7125 137.809 53.5361C137.909 53.3597 137.937 53.1476 137.887 52.9461L137.833 52.7256C137.782 52.5237 137.658 52.3492 137.486 52.2403C137.315 52.1314 137.111 52.097 136.918 52.1446L136.687 52.2038C136.659 52.2114 136.635 52.2297 136.62 52.2547C136.605 52.2798 136.6 52.3098 136.606 52.3383Z" fill="#B2B2B2"/>
<path d="M125.858 51.3992C126.134 51.1661 126.237 50.8828 126.165 50.5493C126.129 50.37 126.036 50.2319 125.885 50.1351C125.215 49.6976 124.802 49.3963 124.648 49.2314C123.147 47.6337 125.234 45.6542 126.751 47.0582C127.013 47.2985 127.171 47.6302 127.225 48.0533C127.239 48.1968 127.147 48.3133 126.95 48.403C126.9 48.4263 126.846 48.4375 126.792 48.4356C126.737 48.4337 126.685 48.4189 126.638 48.3922C126.348 48.2308 126.1 47.9924 125.896 47.6768C125.677 47.3397 125.491 47.3558 125.336 47.7252L125.218 48.0103C125.118 48.247 125.177 48.4353 125.396 48.5751C126.509 49.2744 128.284 50.5654 126.74 51.8941C125.844 52.6651 124.969 52.441 124.115 51.2217C124.06 51.141 124.028 51.0461 124.024 50.9482C124.02 50.8502 124.043 50.7533 124.092 50.6686C124.14 50.584 124.212 50.5151 124.298 50.4702C124.384 50.4253 124.481 50.406 124.578 50.4148C124.94 50.4471 125.179 50.7125 125.293 51.211C125.307 51.2691 125.335 51.3227 125.376 51.3668C125.416 51.4109 125.467 51.4439 125.523 51.4628C125.58 51.4817 125.64 51.4857 125.699 51.4746C125.758 51.4635 125.812 51.4375 125.858 51.3992Z" fill="#B2B2B2"/>
</svg>
