<svg width="184" height="63" viewBox="0 0 184 63" fill="none" xmlns="http://www.w3.org/2000/svg">
<path d="M23.066 33.8408L22.0762 40.2475C22.0646 40.3278 22.0246 40.4013 21.9634 40.4546C21.9022 40.5079 21.8239 40.5375 21.7427 40.538L19.1661 40.5326C19.1171 40.5324 19.0687 40.5216 19.0243 40.501C18.9799 40.4804 18.9405 40.4504 18.9088 40.4131C18.8771 40.3757 18.8539 40.332 18.8407 40.2848C18.8276 40.2377 18.8248 40.1882 18.8325 40.1399L21.6297 23.5019C21.6425 23.4225 21.683 23.3503 21.7441 23.2981C21.8052 23.2458 21.8829 23.217 21.9633 23.2168L38.2409 23.2329C38.2909 23.2328 38.3404 23.2438 38.3857 23.265C38.431 23.2863 38.471 23.3173 38.5029 23.3559C38.5348 23.3944 38.5577 23.4396 38.5701 23.4881C38.5824 23.5366 38.5839 23.5872 38.5744 23.6363L38.1817 25.5567C38.1656 25.6331 38.1236 25.7016 38.0628 25.7506C38.0021 25.7996 37.9262 25.8261 37.8482 25.8257L24.7927 25.8149C24.7139 25.8147 24.6375 25.842 24.5766 25.8921C24.5158 25.9422 24.4742 26.0119 24.4592 26.0893L23.6523 30.4142C23.6428 30.4633 23.6443 30.514 23.6566 30.5625C23.669 30.611 23.692 30.6561 23.7238 30.6947C23.7557 30.7332 23.7957 30.7643 23.841 30.7855C23.8864 30.8068 23.9358 30.8178 23.9859 30.8176L36.0085 30.7746C36.0585 30.7745 36.108 30.7855 36.1533 30.8067C36.1986 30.828 36.2386 30.859 36.2705 30.8976C36.3024 30.9361 36.3253 30.9813 36.3377 31.0298C36.35 31.0783 36.3515 31.1289 36.342 31.178L35.9493 33.2975C35.9354 33.3758 35.8944 33.4468 35.8334 33.498C35.7724 33.5491 35.6954 33.5772 35.6158 33.5772L23.3995 33.5503C23.3184 33.5508 23.24 33.5803 23.1788 33.6336C23.1176 33.687 23.0776 33.7604 23.066 33.8408Z" fill="#B2B2B2"/>
<path d="M43.867 37.6829C44.326 37.8981 44.7707 38.0075 45.2011 38.0111C48.8195 38.029 52.3537 38.029 55.8036 38.0111C56.2152 38.0081 56.6127 37.8605 56.9264 37.5939C57.2401 37.3274 57.4501 36.959 57.5195 36.5533L59.7466 23.5032C59.7824 23.3024 59.9025 23.2038 60.107 23.2074L62.6836 23.245C62.72 23.2454 62.7558 23.2536 62.7888 23.2691C62.8218 23.2846 62.8512 23.3071 62.8751 23.335C62.899 23.3629 62.9168 23.3957 62.9273 23.4312C62.9379 23.4667 62.941 23.5041 62.9364 23.5409C62.481 26.729 61.7799 31.0575 60.8332 36.5264C60.5929 37.9178 60.0119 38.9919 59.0903 39.7486C58.4268 40.2901 57.4263 40.5806 56.0887 40.62C51.0573 40.7563 46.8292 40.7079 43.4044 40.4748C41.4356 40.3421 40.4476 39.4509 40.4404 37.8013C40.4368 36.7541 40.5283 35.6281 40.7148 34.4231C41.2886 30.6827 41.9592 27.0123 42.7266 23.4118C42.7553 23.2898 42.8324 23.2289 42.9579 23.2289L45.626 23.2397C45.6559 23.2399 45.6854 23.2467 45.7123 23.2596C45.7393 23.2725 45.7631 23.2912 45.782 23.3142C45.801 23.3373 45.8147 23.3643 45.8221 23.3932C45.8296 23.4221 45.8306 23.4523 45.8251 23.4817C45.0791 27.3799 44.3709 31.3265 43.7003 35.3214C43.5676 36.1212 43.5299 36.7792 43.5873 37.2956C43.6088 37.4749 43.702 37.604 43.867 37.6829Z" fill="#B2B2B2"/>
<path d="M69.5751 37.5914C69.9409 37.8137 70.3515 37.9321 70.807 37.9464C73.8158 38.0468 77.0469 38.054 80.5004 37.968C80.832 37.9588 81.1501 37.8347 81.4004 37.6168C81.6506 37.399 81.8173 37.101 81.8721 36.7738L82.765 31.416C82.8117 31.1291 82.9802 30.9857 83.2707 30.9857H85.6698C85.9603 30.9821 86.0822 31.1238 86.0356 31.4107C85.555 34.3154 85.1785 36.2914 84.906 37.3386C84.6262 38.4073 84.0184 39.2948 83.0824 40.0013C82.4476 40.4854 81.5081 40.7239 80.2637 40.7167C76.5627 40.6952 73.0465 40.6612 69.715 40.6145C68.4706 40.5966 67.592 40.3725 67.0791 39.9421C66.2687 39.2643 65.9674 38.2602 66.1754 36.9297C67.0433 31.3282 67.6404 27.7492 67.9667 26.1928C68.1962 25.0882 68.7413 24.2742 69.602 23.7506C70.165 23.4063 71.0544 23.2324 72.2701 23.2288C76.9106 23.2145 81.6479 23.2234 86.4821 23.2557C86.9124 23.2557 87.081 23.4655 86.9877 23.8851L86.6811 25.2514C86.5879 25.6566 86.3315 25.8611 85.9119 25.8646C81.7197 25.8754 77.4306 25.8611 73.0447 25.8216C72.4745 25.818 71.9635 25.9615 71.5116 26.252C71.361 26.3524 71.2552 26.4868 71.1943 26.6554C70.8608 27.5986 70.6223 28.5578 70.4788 29.5333C70.1094 32.0041 69.7042 34.4607 69.2631 36.9029C69.2394 37.0357 69.2564 37.1727 69.3121 37.2956C69.3679 37.4185 69.4595 37.5217 69.5751 37.5914Z" fill="#B2B2B2"/>
<path d="M101.495 26.989C100.663 27.8712 99.8577 28.8394 99.0795 29.8938C96.4544 33.4369 93.842 36.8617 91.242 40.1681C90.9515 40.5339 90.5749 40.7186 90.1123 40.7222L87.8477 40.7437C87.36 40.7473 87.2649 40.5572 87.5626 40.1735C91.8875 34.597 96.0725 29.311 100.118 24.3155C100.989 23.245 101.834 22.9169 103.109 23.2611C103.279 23.3084 103.436 23.3926 103.57 23.5079C103.704 23.6232 103.811 23.7667 103.883 23.9282L111.129 40.2327C111.269 40.5447 111.168 40.6989 110.828 40.6953L108.316 40.6899C107.964 40.6899 107.719 40.5285 107.579 40.2058L101.92 27.0643C101.903 27.025 101.876 26.9905 101.843 26.9639C101.809 26.9373 101.77 26.9195 101.728 26.912C101.685 26.9045 101.642 26.9077 101.602 26.9211C101.561 26.9345 101.524 26.9579 101.495 26.989Z" fill="#B2B2B2"/>
<path d="M131.591 34.3638C131.778 33.2844 131.322 32.7447 130.225 32.7447C127.059 32.7519 124.134 32.7483 121.452 32.7339C119.537 32.7286 116.901 32.7017 116.131 30.7221C115.185 28.3014 116.175 25.3213 118.353 23.9173C119.088 23.4475 120.213 23.2109 121.726 23.2073C126.198 23.2073 130.679 23.2144 135.169 23.2288C135.61 23.2324 135.794 23.4529 135.723 23.8904L135.513 25.2084C135.438 25.6566 135.174 25.879 134.722 25.8754L121.403 25.8055C120.931 25.802 120.468 25.9399 120.074 26.2015C119.68 26.4632 119.373 26.8366 119.192 27.274C118.606 28.6941 118.956 29.9044 120.634 29.926C125.995 29.9977 129.357 30.0174 130.72 29.9851C133.61 29.9206 135.022 31.2008 134.953 33.8259C134.889 36.0852 134.356 39.2428 132 40.2487C131.305 40.5464 130.256 40.6988 128.853 40.706C124.249 40.7167 119.71 40.7114 115.239 40.6898C114.518 40.6863 114.234 40.333 114.389 39.6301L114.545 38.9093C114.699 38.21 115.131 37.8639 115.841 37.8711L129.289 37.9841C130.412 37.9948 131.068 37.4462 131.258 36.338L131.591 34.3638Z" fill="#B2B2B2"/>
<path d="M140.913 40.3564C139.299 39.6929 138.632 38.4611 138.912 36.6608C139.715 31.486 140.307 27.9913 140.687 26.1767C140.92 25.065 141.472 24.2473 142.344 23.7237C142.91 23.3866 143.805 23.2199 145.028 23.2235C149.22 23.2271 153.601 23.2217 158.17 23.2073C160.081 23.2002 161.239 23.9497 161.645 25.4559C161.835 26.1659 161.781 27.3619 161.483 29.0438C161.064 31.4071 160.619 33.7686 160.149 36.1283C159.798 37.8927 158.953 39.1694 157.615 39.9583C156.769 40.4604 155.388 40.7096 153.473 40.706C149.726 40.6953 145.982 40.6935 142.242 40.7006C141.806 40.706 141.306 40.5177 140.913 40.3564ZM142.349 34.918C142.091 36.5532 143.135 38.011 144.851 38.011C148.236 38.0146 151.601 38.0021 154.947 37.9734C156.045 37.9626 156.688 37.4175 156.879 36.3381L158.482 27.1665C158.632 26.3094 158.272 25.879 157.4 25.8754L145.544 25.8539C144.447 25.8503 143.802 26.3901 143.608 27.4731C143.16 29.9619 142.74 32.4435 142.349 34.918Z" fill="#B2B2B2"/>
</svg>
