<svg width="184" height="63" viewBox="0 0 184 63" fill="none" xmlns="http://www.w3.org/2000/svg">
<path d="M39.3598 31.1553C39.3306 31.1706 39.3062 31.1937 39.2894 31.222C39.2725 31.2503 39.264 31.2828 39.2645 31.3157C39.2651 31.3486 39.2747 31.3808 39.2925 31.4085C39.3103 31.4362 39.3354 31.4585 39.3651 31.4727C42.1301 32.8211 44.6674 34.5568 46.9769 36.6798C47.5255 37.1855 47.7927 37.0653 47.7784 36.3194L47.7407 34.4044C47.7263 33.723 47.4233 33.2174 46.8316 32.8875C46.0857 32.475 45.6086 32.1397 45.4006 31.8815C45.2823 31.7345 45.3039 31.6126 45.4653 31.5157L51.5815 27.7933C51.768 27.6821 51.8541 27.7341 51.8397 27.9493L50.7046 45.179C50.6831 45.4731 50.5773 45.5072 50.3872 45.2812C49.6736 44.4385 48.9205 43.5617 48.128 42.6508C43.6739 37.5513 38.2463 33.9525 31.845 31.8546C31.816 31.8458 31.7904 31.8284 31.7714 31.8048C31.7525 31.7811 31.741 31.7523 31.7387 31.7221C31.7364 31.6919 31.7433 31.6617 31.7584 31.6354C31.7735 31.6092 31.7961 31.5881 31.8234 31.5749C33.8245 30.5564 35.7951 29.4645 37.7352 28.299C44.0827 24.4869 51.6927 19.5451 60.5648 13.4738C60.5868 13.458 60.6128 13.4489 60.6398 13.4477C60.6668 13.4464 60.6937 13.453 60.7171 13.4667C60.7404 13.4803 60.7592 13.5005 60.7713 13.5246C60.7834 13.5488 60.7883 13.576 60.7854 13.6028L57.0306 45.4695C57.0091 45.6452 56.9267 45.7869 56.7832 45.8945C55.7612 46.6583 54.7229 47.2985 53.6686 47.8149C53.6329 47.8319 53.5933 47.8393 53.5538 47.8363C53.5144 47.8333 53.4763 47.8199 53.4436 47.7976C53.411 47.7752 53.3848 47.7447 53.3676 47.709C53.3504 47.6734 53.3429 47.6338 53.3458 47.5943L55.616 22.0483C55.6199 22.0012 55.6106 21.9538 55.5894 21.9116C55.5683 21.8693 55.536 21.8338 55.4962 21.8092C55.4564 21.7845 55.4107 21.7717 55.3643 21.7721C55.318 21.7725 55.2728 21.7862 55.2339 21.8116C50.0412 25.1216 44.7498 28.2362 39.3598 31.1553Z" fill="#B2B2B2"/>
<path d="M71.9309 31.1668L71.0326 31.2259C70.6633 31.2474 70.2992 31.217 69.9406 31.1345C69.4565 31.0197 69.2521 30.8063 69.3274 30.4944C69.4135 30.1465 69.6341 29.9744 69.9891 29.9779L73.7061 29.9995C73.8304 30.0008 73.9527 30.0315 74.0629 30.089C74.1732 30.1464 74.2684 30.2291 74.3407 30.3302C74.413 30.4314 74.4604 30.5481 74.4791 30.6711C74.4978 30.794 74.4873 30.9196 74.4484 31.0377C73.2542 34.6417 68.8917 35.7284 65.9385 33.5874C63.8729 32.092 63.4479 29.6552 65.4812 27.9876C67.6293 26.2196 69.9299 26.0242 72.3828 27.4013C72.4429 27.434 72.4951 27.4792 72.5362 27.5339C72.5773 27.5886 72.6063 27.6514 72.6211 27.7181C72.6358 27.7849 72.6362 27.8541 72.622 27.921C72.6078 27.9879 72.5795 28.0509 72.5388 28.106C72.5066 28.1526 72.4706 28.1992 72.4312 28.2458C72.1658 28.5757 71.8377 28.6564 71.4468 28.4879C69.4888 27.6487 67.7352 27.525 66.229 29.3378C65.1155 30.6719 66.0998 32.3502 67.5253 32.9419C69.1535 33.6125 70.7439 33.3418 72.2967 32.1296C72.3882 32.0592 72.4547 31.9611 72.4862 31.8499C72.5177 31.7387 72.5125 31.6203 72.4715 31.5123C72.4304 31.4043 72.3557 31.3124 72.2583 31.2501C72.161 31.1879 72.0462 31.1587 71.9309 31.1668Z" fill="#B2B2B2"/>
<path d="M120.22 32.7807C120.32 32.6887 120.394 32.5722 120.434 32.4429C120.475 32.3135 120.48 32.1758 120.451 32.0435C120.422 31.9112 120.358 31.789 120.267 31.6889C120.175 31.5889 120.059 31.5146 119.93 31.4735C118.994 31.1723 117.974 30.9069 116.869 30.6774C116.467 30.5949 116.102 30.3582 115.772 29.9673C114.97 29.0259 115.212 27.9716 116.202 27.2831C117.859 26.1319 119.593 26.1947 121.404 27.4713C121.519 27.552 121.6 27.6741 121.628 27.8123C121.656 27.9506 121.629 28.0943 121.554 28.2137C121.483 28.3248 121.393 28.4163 121.285 28.488C121.129 28.5912 120.944 28.6443 120.756 28.6405C120.568 28.6366 120.385 28.576 120.231 28.4665C119.281 27.7851 118.39 27.6524 117.558 28.0684C116.5 28.5992 116.541 29.0206 117.681 29.3326C118.886 29.6661 121.092 30.0803 121.743 31.0969C122.297 31.9684 122.081 33.098 121.258 33.7489C119.351 35.2515 117.364 35.1565 115.298 33.4638C115.251 33.4254 115.212 33.3778 115.183 33.3238C115.155 33.2699 115.137 33.2107 115.132 33.1499C115.127 33.089 115.135 33.0278 115.154 32.9699C115.173 32.912 115.204 32.8586 115.244 32.8129L115.427 32.6139C115.696 32.3127 115.998 32.2732 116.331 32.4956C117.665 33.3778 119.042 33.8619 120.22 32.7807Z" fill="#B2B2B2"/>
<path d="M131.028 31.5123L131.055 34.3418C131.055 34.4199 131.025 34.4949 130.97 34.5511C130.916 34.6073 130.842 34.6402 130.764 34.643L129.866 34.6807C129.825 34.6829 129.783 34.6766 129.744 34.6621C129.706 34.6476 129.67 34.6253 129.64 34.5965C129.611 34.5678 129.587 34.5331 129.571 34.4949C129.556 34.4566 129.548 34.4155 129.549 34.3741L129.613 26.8646C129.614 26.7884 129.645 26.7155 129.697 26.6606C129.75 26.6057 129.822 26.5729 129.898 26.5688L130.813 26.5311C130.854 26.5289 130.896 26.5353 130.936 26.5501C130.975 26.5649 131.01 26.5877 131.04 26.6171C131.07 26.6465 131.093 26.6817 131.109 26.7206C131.124 26.7596 131.132 26.8013 131.13 26.8431L131.055 29.6618C131.054 29.7014 131.061 29.7407 131.076 29.7775C131.09 29.8144 131.112 29.848 131.139 29.8764C131.167 29.9049 131.2 29.9277 131.236 29.9435C131.272 29.9593 131.311 29.9678 131.351 29.9685L135.659 30.0599C135.701 30.0607 135.742 30.053 135.78 30.0372C135.818 30.0213 135.853 29.9978 135.882 29.968C135.911 29.9383 135.933 29.9029 135.948 29.8641C135.962 29.8253 135.968 29.7839 135.966 29.7425L135.837 26.87C135.835 26.8291 135.841 26.7882 135.855 26.7498C135.869 26.7113 135.891 26.6762 135.919 26.6465C135.947 26.6168 135.981 26.5932 136.019 26.577C136.057 26.5609 136.097 26.5526 136.138 26.5526H137.031C137.111 26.5526 137.188 26.5844 137.244 26.6409C137.301 26.6974 137.332 26.774 137.332 26.8539L137.262 34.3041C137.261 34.3778 137.234 34.4486 137.184 34.5031C137.135 34.5577 137.067 34.5921 136.993 34.6L136.149 34.6807C136.106 34.6846 136.062 34.6792 136.021 34.6648C135.981 34.6504 135.943 34.6274 135.912 34.5972C135.881 34.5671 135.857 34.5306 135.841 34.4902C135.825 34.4499 135.818 34.4066 135.821 34.3633L135.977 31.5553C135.979 31.5145 135.973 31.4735 135.959 31.4351C135.945 31.3967 135.923 31.3615 135.894 31.3318C135.866 31.3021 135.832 31.2785 135.795 31.2623C135.757 31.2462 135.716 31.2379 135.676 31.238L131.334 31.2057C131.294 31.205 131.254 31.2124 131.216 31.2275C131.179 31.2427 131.145 31.2653 131.116 31.2939C131.087 31.3225 131.065 31.3566 131.05 31.3941C131.035 31.4316 131.027 31.4718 131.028 31.5123Z" fill="#B2B2B2"/>
<path d="M149.151 29.3102L150.749 27.0348C150.853 26.8869 150.989 26.7642 151.147 26.6758C151.306 26.5873 151.482 26.5354 151.663 26.5238L152.486 26.4754C152.934 26.4467 153.024 26.6117 152.755 26.9703L149.834 30.8326C149.705 30.9975 149.642 31.1858 149.646 31.3974L149.673 33.9256C149.676 34.5783 149.355 34.8634 148.71 34.7809L148.425 34.7487C148.275 34.73 148.138 34.6551 148.041 34.5386C147.943 34.4221 147.892 34.2725 147.898 34.1193C147.967 32.6615 148.14 31.3436 147.44 30.4022C146.537 29.1794 145.663 28.0228 144.821 26.9326C144.793 26.8966 144.775 26.8538 144.769 26.8087C144.763 26.7635 144.769 26.7176 144.787 26.6755C144.804 26.6335 144.832 26.5968 144.868 26.5692C144.905 26.5416 144.948 26.5241 144.993 26.5184L145.568 26.4539C145.794 26.4278 146.023 26.4619 146.23 26.5526C146.438 26.6433 146.618 26.7875 146.752 26.9703L148.473 29.3156C148.513 29.3692 148.565 29.4127 148.624 29.4425C148.684 29.4723 148.749 29.4876 148.816 29.487C148.882 29.4865 148.947 29.4702 149.005 29.4395C149.064 29.4087 149.114 29.3644 149.151 29.3102Z" fill="#B2B2B2"/>
<path d="M98.2671 34.5597L97.116 34.6889C97.0759 34.6934 97.0354 34.6894 96.997 34.6772C96.9586 34.6649 96.9231 34.6446 96.8931 34.6177C96.8631 34.5907 96.8393 34.5577 96.823 34.5209C96.8067 34.484 96.7983 34.4441 96.7985 34.4038L96.777 27.088C96.7766 27.0336 96.7919 26.9802 96.8209 26.9342C96.8498 26.8882 96.8914 26.8514 96.9406 26.8282C96.9898 26.805 97.0445 26.7964 97.0985 26.8034C97.1524 26.8103 97.2033 26.8325 97.245 26.8674L102.027 30.805C102.077 30.8473 102.141 30.8709 102.206 30.8719C102.272 30.8729 102.336 30.8512 102.388 30.8104L107.267 26.8405C107.308 26.8073 107.359 26.7864 107.412 26.7804C107.465 26.7743 107.519 26.7833 107.567 26.8063C107.615 26.8293 107.656 26.8653 107.685 26.9104C107.713 26.9554 107.729 27.0077 107.729 27.0611L107.681 34.3984C107.679 34.4721 107.65 34.5425 107.597 34.5946C107.545 34.6468 107.475 34.6767 107.401 34.6781L106.261 34.6889C106.185 34.6889 106.113 34.6588 106.059 34.6053C106.006 34.5519 105.976 34.4794 105.976 34.4038L105.938 30.6598C105.937 30.6064 105.922 30.5542 105.893 30.5091C105.864 30.464 105.824 30.428 105.776 30.405C105.727 30.382 105.674 30.373 105.62 30.3791C105.567 30.3851 105.517 30.406 105.475 30.4392L102.425 32.9029C102.375 32.9439 102.313 32.9667 102.249 32.9676C102.184 32.9686 102.121 32.9477 102.07 32.9083L98.9395 30.4177C98.8969 30.3839 98.8456 30.3628 98.7916 30.3572C98.7375 30.3515 98.683 30.3614 98.6344 30.3857C98.5858 30.41 98.5451 30.4477 98.5172 30.4944C98.4893 30.541 98.4753 30.5947 98.4769 30.649L98.5199 34.2747C98.5203 34.345 98.4948 34.413 98.4482 34.4656C98.4015 34.5183 98.3369 34.5518 98.2671 34.5597Z" fill="#B2B2B2"/>
<path d="M84.8582 30.2462L84.3741 31.0585C84.2056 31.3382 84.2647 31.5552 84.5515 31.7094C85.3082 32.1182 85.658 32.5737 85.6006 33.0757C85.5755 33.2766 85.4625 33.377 85.2616 33.377L81.7651 33.3608C81.7265 33.3615 81.6885 33.3518 81.6549 33.3327C81.6214 33.3136 81.5934 33.2858 81.5738 33.252C81.5542 33.2183 81.5437 33.1798 81.5433 33.1403C81.5429 33.1009 81.5527 33.0619 81.5716 33.0273L84.8905 27.1693C85.1021 26.7999 85.3118 26.8017 85.5198 27.1747L89.3983 34.0924C89.6242 34.4941 89.5077 34.7218 89.0487 34.7756L88.8335 34.7971C88.6741 34.8149 88.5129 34.7875 88.3684 34.7181C88.2238 34.6486 88.1016 34.5399 88.0159 34.4044L85.4284 30.2409C85.3982 30.1922 85.356 30.1521 85.3058 30.1244C85.2556 30.0968 85.199 30.0825 85.1417 30.0831C85.0844 30.0836 85.0283 30.0989 84.9786 30.1275C84.929 30.1561 84.8875 30.197 84.8582 30.2462Z" fill="#B2B2B2"/>
</svg>
