<svg width="184" height="63" viewBox="0 0 184 63" fill="none" xmlns="http://www.w3.org/2000/svg">
<path d="M78.8725 21.66C76.3765 19.6805 73.617 20.7671 72.9553 23.731C72.3152 26.6304 72.3259 31.816 76.4948 31.8698C77.5223 31.8806 78.2592 31.1759 79.1683 30.8155C79.2063 30.8015 79.2473 30.7972 79.2873 30.8031C79.3273 30.809 79.365 30.8249 79.3969 30.8492C79.4287 30.8735 79.4536 30.9054 79.4692 30.9419C79.4847 30.9784 79.4904 31.0182 79.4857 31.0576L79.3136 32.6552C79.292 32.874 79.1719 32.9887 78.9532 32.9995C78.0549 33.0479 77.1672 33.1124 76.2259 32.978C73.755 32.6301 71.2716 32.4705 68.7756 32.4992C67.7321 32.51 67.3985 31.9989 67.1941 31.0845C66.0268 25.8074 66.3873 19.0834 71.7396 16.1517C73.8698 14.9862 76.2438 14.7549 78.8617 15.4577C78.9513 15.4824 79.0302 15.5358 79.0866 15.6096C79.1429 15.6834 79.1735 15.7737 79.1737 15.8666L79.2329 21.4879C79.2329 21.7927 79.1128 21.8501 78.8725 21.66Z" fill="#B2B2B2"/>
<path d="M105.983 20.8047C105.836 20.8728 105.702 20.9571 105.58 21.0575C105.476 21.1421 105.392 21.2471 105.331 21.3658C105.27 21.4845 105.234 21.6145 105.226 21.7477C105.217 21.8809 105.236 22.0144 105.281 22.1399C105.326 22.2655 105.397 22.3804 105.488 22.4776C106.903 23.9892 108.597 24.9252 109.867 26.6734C111.086 28.3482 111.249 30.62 110.356 33.4889C110.296 33.6828 110.174 33.8512 110.008 33.968C109.843 34.0848 109.644 34.1433 109.442 34.1344L100.303 33.7471C100.107 33.7383 99.9215 33.6577 99.7816 33.5208C99.6417 33.3838 99.5571 33.2001 99.5441 33.0048L99.3666 30.3474C99.3487 30.0892 99.4455 30.0355 99.6571 30.1861C101.093 31.2243 102.341 32.951 104.315 31.9021C105.305 31.3749 105.225 30.3528 104.472 29.6858C103.207 28.5669 101.793 27.6202 100.824 26.3023C96.4887 20.3797 102.809 12.1871 110.012 16.0709C110.089 16.1118 110.153 16.1725 110.197 16.2464C110.242 16.3203 110.265 16.4047 110.265 16.4905L110.356 22.4615C110.36 22.7304 110.263 22.7735 110.066 22.5906L108.533 21.2027C107.769 20.5106 106.919 20.3779 105.983 20.8047Z" fill="#B2B2B2"/>
<path d="M38.6888 23.1764L40.5339 23.2893C40.6002 23.293 40.6665 23.2831 40.7288 23.26C40.791 23.237 40.8478 23.2015 40.8957 23.1556C40.9437 23.1097 40.9816 23.0544 41.0073 22.9932C41.033 22.932 41.0458 22.8662 41.0449 22.7998L40.9804 15.8552C40.9804 15.7277 41.0307 15.6054 41.1203 15.5148C41.21 15.4241 41.3317 15.3725 41.4591 15.3711L46.435 15.3442C46.5634 15.3442 46.6865 15.3952 46.7773 15.486C46.8681 15.5768 46.9191 15.6999 46.9191 15.8283L46.9299 31.4012C46.93 31.4676 46.9165 31.5333 46.8902 31.5943C46.8639 31.6552 46.8253 31.7101 46.7769 31.7555C46.7284 31.8009 46.6712 31.8359 46.6086 31.8582C46.5461 31.8806 46.4797 31.8898 46.4135 31.8854L41.5183 31.5519C41.4001 31.5441 41.2888 31.4933 41.2056 31.4091C41.1223 31.3248 41.0728 31.2129 41.0665 31.0946L40.9696 28.9483C40.964 28.8227 40.9099 28.7043 40.8185 28.6179C40.7272 28.5316 40.6058 28.4842 40.4802 28.4857L38.7211 28.5126C38.6575 28.514 38.5949 28.5279 38.5367 28.5535C38.4785 28.5792 38.4259 28.616 38.3819 28.662C38.3379 28.7079 38.3035 28.7621 38.2805 28.8214C38.2574 28.8807 38.2463 28.9439 38.2478 29.0075L38.3015 30.8956C38.304 30.9638 38.292 31.0318 38.2664 31.095C38.2408 31.1583 38.2021 31.2154 38.1528 31.2627C38.1035 31.3099 38.0448 31.3462 37.9805 31.3692C37.9162 31.3921 37.8478 31.4012 37.7798 31.3959L32.7125 31.0139C32.5907 31.0044 32.4771 30.9493 32.3943 30.8595C32.3115 30.7697 32.2657 30.6519 32.266 30.5298L32.4274 15.9251C32.4288 15.7995 32.4789 15.6793 32.5672 15.59C32.6556 15.5007 32.7751 15.4492 32.9007 15.4464L37.8174 15.3334C37.8823 15.332 37.9469 15.3436 38.0072 15.3676C38.0676 15.3917 38.1225 15.4276 38.1686 15.4732C38.2148 15.5189 38.2514 15.5734 38.2761 15.6335C38.3007 15.6936 38.313 15.758 38.3123 15.8229L38.2316 22.6869C38.23 22.8117 38.2767 22.9322 38.3619 23.0235C38.4471 23.1147 38.5642 23.1695 38.6888 23.1764Z" fill="#B2B2B2"/>
<path d="M49.9257 31.3489L53.6428 15.6469C53.6597 15.5787 53.6993 15.5182 53.7549 15.4752C53.8106 15.4322 53.8791 15.4093 53.9494 15.4102L60.625 15.3672C60.6968 15.3669 60.7665 15.3913 60.8223 15.4364C60.8782 15.4814 60.9168 15.5444 60.9317 15.6146L64.4228 32.0213C64.4327 32.0678 64.4318 32.1159 64.4202 32.162C64.4087 32.208 64.3868 32.2509 64.3561 32.2872C64.3255 32.3235 64.2871 32.3524 64.2436 32.3715C64.2001 32.3907 64.1528 32.3997 64.1054 32.3979L50.2162 31.7308C50.1704 31.7289 50.1256 31.7168 50.0851 31.6956C50.0445 31.6744 50.0091 31.6445 49.9814 31.608C49.9536 31.5716 49.9343 31.5294 49.9246 31.4847C49.915 31.4399 49.9154 31.3935 49.9257 31.3489ZM57.3867 22.0374C57.3842 22.016 57.3742 21.9961 57.3585 21.9814C57.3427 21.9666 57.3222 21.9579 57.3007 21.9567L57.263 21.9514C57.2395 21.9482 57.2157 21.9544 57.1967 21.9684C57.1776 21.9824 57.1648 22.0033 57.1608 22.0267L55.8806 29.6706C55.879 29.6835 55.8803 29.6965 55.8842 29.7089C55.8881 29.7213 55.8946 29.7327 55.9032 29.7423C55.9119 29.752 55.9225 29.7597 55.9343 29.765C55.9462 29.7702 55.959 29.7729 55.972 29.7728L58.1398 29.8104C58.1528 29.8105 58.1656 29.8079 58.1775 29.8026C58.1894 29.7974 58.2 29.7896 58.2086 29.78C58.2173 29.7703 58.2238 29.7589 58.2277 29.7465C58.2316 29.7342 58.2328 29.7211 58.2313 29.7082L57.3867 22.0374Z" fill="#B2B2B2"/>
<path d="M88.1299 28.3366C87.8609 27.8883 87.7407 27.9259 87.7694 28.4495L88.0061 32.8928C88.01 32.9522 88.0013 33.0117 87.9806 33.0676C87.9599 33.1234 87.9278 33.1743 87.8862 33.2169C87.8446 33.2595 87.7945 33.2929 87.7392 33.3149C87.6838 33.3369 87.6246 33.347 87.5651 33.3446L82.8098 33.151C82.6076 33.144 82.416 33.0582 82.2755 32.9117C82.135 32.7651 82.0565 32.5693 82.0567 32.3656L82.0406 15.6684C82.0406 15.5928 82.0711 15.5203 82.1256 15.4668C82.1801 15.4134 82.254 15.3833 82.331 15.3833L87.7694 15.3887C87.9595 15.3887 88.0527 15.4855 88.0492 15.6792C88.0312 18.254 87.9506 20.6855 87.8071 22.9734C87.7139 24.4581 87.9326 24.5065 88.4634 23.1187C89.2595 21.0279 90.1202 18.5911 91.0454 15.8083C91.0845 15.6908 91.1599 15.5883 91.2611 15.515C91.3623 15.4418 91.4843 15.4014 91.6102 15.3995L97.2692 15.3618C97.3038 15.361 97.338 15.3691 97.3685 15.3855C97.399 15.402 97.4249 15.4261 97.4437 15.4556C97.4626 15.4852 97.4736 15.5192 97.476 15.5546C97.4785 15.5899 97.472 15.6254 97.4575 15.6577L93.0734 25.378C92.9791 25.5833 92.9312 25.8068 92.933 26.0327C92.9349 26.2587 92.9865 26.4814 93.0841 26.6851L96.1342 33.0649C96.3099 33.4379 96.1915 33.61 95.7791 33.5813C94.2227 33.4737 92.6807 33.3895 91.153 33.3285C90.4214 33.3016 89.7114 32.7798 89.5661 32.1182C89.2506 30.6694 88.7718 29.4088 88.1299 28.3366Z" fill="#B2B2B2"/>
<path d="M124.026 15.612L128.033 34.4286C128.042 34.4732 128.041 34.5194 128.03 34.5634C128.018 34.6075 127.997 34.6485 127.967 34.6832C127.938 34.7179 127.901 34.7454 127.859 34.7637C127.817 34.7821 127.772 34.7907 127.727 34.789L112.692 34.1919C112.647 34.1899 112.604 34.1782 112.565 34.1575C112.525 34.1368 112.491 34.1077 112.464 34.0723C112.438 34.0368 112.419 33.9958 112.41 33.9524C112.401 33.9089 112.402 33.8639 112.412 33.8207L116.78 15.612C116.796 15.5465 116.833 15.4882 116.885 15.4462C116.938 15.4043 117.003 15.3812 117.07 15.3807L123.735 15.3753C123.803 15.3761 123.869 15.4 123.922 15.443C123.975 15.486 124.011 15.5455 124.026 15.612ZM121.39 29.0278C120.717 27.0967 120.744 24.988 120.615 22.9331C120.529 21.556 120.357 21.5453 120.099 22.9009C119.747 24.7262 119.401 26.8923 119.061 29.399C119.054 29.4497 119.058 29.5013 119.073 29.5504C119.088 29.5994 119.113 29.6448 119.147 29.6835C119.181 29.7221 119.223 29.7532 119.271 29.7747C119.318 29.7961 119.369 29.8074 119.421 29.8078L120.841 29.8024C121.386 29.8024 121.569 29.5442 121.39 29.0278Z" fill="#B2B2B2"/>
<path d="M145.726 28.1685H145.86C145.889 28.1685 145.905 28.1541 145.909 28.1254C146.199 24.3026 146.69 20.2215 147.383 15.8823C147.433 15.5738 147.616 15.4178 147.931 15.4143L152.961 15.3766C153.002 15.3766 153.043 15.3857 153.08 15.4032C153.117 15.4206 153.15 15.4461 153.175 15.4776C153.201 15.5091 153.22 15.5459 153.229 15.5852C153.238 15.6245 153.239 15.6654 153.23 15.7047L149.292 35.1991C149.266 35.3271 149.195 35.4412 149.092 35.5204C148.99 35.5996 148.862 35.6383 148.733 35.6295L143.762 35.3282C143.494 35.3116 143.24 35.2064 143.038 35.0292C142.837 34.852 142.7 34.6128 142.649 34.3492C142.061 31.3153 141.618 28.2348 141.32 25.1077C141.306 24.9463 141.259 24.8351 141.18 24.7742C141.127 24.7347 141.064 24.7114 140.992 24.7042C140.841 24.6899 140.757 24.7598 140.739 24.914C140.384 28.19 140.32 31.5681 139.572 34.7849C139.546 34.8941 139.482 34.9908 139.392 35.0585C139.302 35.1262 139.19 35.1607 139.077 35.1561L133.977 34.9248C133.707 34.9123 133.448 34.8109 133.24 34.636C133.033 34.4612 132.887 34.2225 132.826 33.9565L128.786 15.8177C128.775 15.7668 128.776 15.7141 128.787 15.6633C128.799 15.6126 128.822 15.5651 128.855 15.5244C128.887 15.4837 128.928 15.4507 128.975 15.4279C129.022 15.4051 129.073 15.3931 129.125 15.3927L134.214 15.3712C134.44 15.3712 134.569 15.4824 134.601 15.7047C135.355 20.4779 135.896 24.5626 136.226 27.9587C136.226 27.9802 136.237 27.9909 136.258 27.9909H136.414C136.579 27.9874 136.669 27.9049 136.683 27.7435C137.024 23.6768 137.592 19.6818 138.389 15.7585C138.41 15.6495 138.469 15.5512 138.556 15.4805C138.644 15.4099 138.754 15.3712 138.867 15.3712L143.106 15.4035C143.397 15.4035 143.572 15.547 143.633 15.8338C144.437 19.8109 145.039 23.8382 145.441 27.9156C145.459 28.0878 145.554 28.172 145.726 28.1685Z" fill="#B2B2B2"/>
<path d="M36.1229 32.4084L36.1713 37.438C36.172 37.4978 36.1608 37.5571 36.1384 37.6125C36.116 37.668 36.0829 37.7184 36.0409 37.761C35.9988 37.8035 35.9487 37.8373 35.8936 37.8603C35.8384 37.8834 35.7792 37.8952 35.7194 37.8952L30.5768 37.9006C30.457 37.9006 30.3421 37.853 30.2573 37.7682C30.1726 37.6835 30.125 37.5686 30.125 37.4487L30.1465 32.1878C30.1464 32.1271 30.1587 32.067 30.1824 32.0111C30.2061 31.9552 30.2408 31.9047 30.2845 31.8625C30.3282 31.8203 30.3799 31.7874 30.4366 31.7656C30.4933 31.7439 30.5538 31.7338 30.6145 31.736L35.6925 31.9619C35.8077 31.9674 35.9163 32.0167 35.9963 32.0997C36.0763 32.1827 36.1216 32.2931 36.1229 32.4084Z" fill="#B2B2B2"/>
<path d="M44.7132 32.7481L44.7993 37.4711C44.8008 37.5283 44.7906 37.5851 44.7696 37.6383C44.7485 37.6915 44.7169 37.7399 44.6768 37.7805C44.6366 37.8212 44.5886 37.8534 44.5357 37.8751C44.4828 37.8968 44.4261 37.9076 44.3689 37.9068L39.2103 37.8907C39.0975 37.8907 38.9894 37.8459 38.9097 37.7662C38.83 37.6865 38.7853 37.5784 38.7853 37.4657L38.8175 32.3931C38.8181 32.3354 38.8305 32.2785 38.8538 32.2257C38.8772 32.1729 38.911 32.1255 38.9533 32.0862C38.9956 32.047 39.0454 32.0167 39.0997 31.9974C39.1541 31.978 39.2118 31.9699 39.2694 31.9735L44.3205 32.3339C44.4257 32.3419 44.5241 32.3887 44.5967 32.4653C44.6693 32.5419 44.7108 32.6427 44.7132 32.7481Z" fill="#B2B2B2"/>
<path d="M56.6504 35.0179L53.3421 35.0341C53.2325 35.0354 53.1269 35.0756 53.0441 35.1475C52.9614 35.2194 52.9068 35.3184 52.8903 35.4268L52.5675 37.487C52.551 37.5954 52.4964 37.6944 52.4137 37.7663C52.3309 37.8382 52.2253 37.8784 52.1157 37.8797L46.9839 37.9174C46.9139 37.9183 46.8447 37.9033 46.7814 37.8736C46.718 37.8439 46.6623 37.8002 46.6182 37.7459C46.5742 37.6915 46.5431 37.6279 46.5272 37.5597C46.5114 37.4916 46.5112 37.4208 46.5266 37.3525L47.5863 32.7533C47.6112 32.6491 47.6714 32.5567 47.7567 32.492C47.8421 32.4272 47.9473 32.3941 48.0543 32.3983L61.9436 32.9308C62.0421 32.9341 62.1369 32.9688 62.2143 33.0297C62.2917 33.0907 62.3476 33.1747 62.3739 33.2697L63.4659 37.3041C63.485 37.3729 63.4879 37.4452 63.4744 37.5152C63.4609 37.5853 63.4314 37.6513 63.3882 37.7081C63.345 37.7649 63.2891 37.8109 63.2252 37.8425C63.1612 37.8742 63.0908 37.8906 63.0194 37.8905L57.667 37.8851C57.548 37.8852 57.4335 37.8394 57.3473 37.7573C57.2612 37.6751 57.21 37.5629 57.2044 37.444L57.113 35.459C57.1074 35.3401 57.0563 35.2279 56.9701 35.1458C56.884 35.0636 56.7694 35.0178 56.6504 35.0179Z" fill="#B2B2B2"/>
<path d="M66.5319 33.1379L76.4566 33.5736C76.5488 33.5776 76.6392 33.6002 76.7224 33.6401C76.8055 33.68 76.8798 33.7363 76.9406 33.8057C77.0014 33.8751 77.0476 33.9561 77.0763 34.0437C77.105 34.1314 77.1156 34.224 77.1075 34.3159L76.8547 37.3175C76.8403 37.4837 76.7656 37.639 76.6447 37.7539C76.5238 37.8688 76.3651 37.9356 76.1984 37.9415L70.8406 38.1083C70.6736 38.1122 70.511 38.0548 70.3834 37.9469L66.0639 34.3428C65.955 34.251 65.8775 34.1275 65.8422 33.9895C65.807 33.8515 65.8158 33.7059 65.8674 33.5731C65.919 33.4404 66.0107 33.327 66.1299 33.249C66.249 33.1709 66.3895 33.1321 66.5319 33.1379Z" fill="#B2B2B2"/>
<path d="M80.5224 33.4993L85.2992 33.9082C85.4205 33.9192 85.534 33.9728 85.6196 34.0594C85.7053 34.146 85.7575 34.2601 85.7672 34.3815L85.9985 37.3025C86.0044 37.3734 85.9956 37.4447 85.9727 37.5121C85.9498 37.5794 85.9131 37.6413 85.8651 37.6938C85.8172 37.7463 85.7589 37.7884 85.6939 37.8173C85.6289 37.8462 85.5586 37.8614 85.4874 37.8619L80.4471 37.9103C80.3784 37.911 80.3102 37.898 80.2466 37.8721C80.183 37.8461 80.1251 37.8077 80.0765 37.7591C80.0279 37.7105 79.9896 37.6527 79.9636 37.5891C79.9376 37.5254 79.9246 37.4573 79.9253 37.3885L79.963 34.005C79.9642 33.9343 79.9799 33.8646 80.0092 33.8003C80.0384 33.7359 80.0806 33.6782 80.133 33.6308C80.1855 33.5834 80.2471 33.5473 80.3141 33.5247C80.3811 33.5021 80.452 33.4934 80.5224 33.4993Z" fill="#B2B2B2"/>
<path d="M95.8323 37.8829L89.7645 37.8883C89.7313 37.8888 89.6987 37.8793 89.6709 37.8611C89.6431 37.8429 89.6214 37.8168 89.6085 37.7861L88.0808 34.0368C88.0696 34.0104 88.0654 33.9816 88.0686 33.9531C88.0718 33.9246 88.0823 33.8974 88.0991 33.8742C88.1158 33.8509 88.1383 33.8324 88.1643 33.8204C88.1904 33.8083 88.219 33.8032 88.2475 33.8055L94.2132 34.2735C94.2425 34.2751 94.2708 34.2843 94.2954 34.3004C94.3199 34.3165 94.3398 34.3387 94.353 34.3649L95.9829 37.6409C95.9958 37.6664 96.002 37.6949 96.0008 37.7235C95.9995 37.7521 95.9909 37.78 95.9757 37.8043C95.9606 37.8286 95.9395 37.8486 95.9143 37.8624C95.8892 37.8762 95.861 37.8833 95.8323 37.8829Z" fill="#B2B2B2"/>
<path d="M103.38 38.3072L98.1462 37.7263C97.9762 37.7079 97.8181 37.6306 97.6992 37.5078C97.5803 37.3849 97.5082 37.2243 97.4953 37.0539L97.3501 35.0958C97.3425 34.9935 97.3565 34.8907 97.3912 34.7941C97.4259 34.6976 97.4806 34.6094 97.5516 34.5353C97.6226 34.4612 97.7085 34.4029 97.8035 34.3642C97.8985 34.3255 98.0006 34.3071 98.1032 34.3104L106.85 34.5902C107.003 34.5969 107.15 34.6516 107.271 34.7467C107.391 34.8417 107.479 34.9722 107.521 35.1197C107.563 35.2672 107.558 35.4242 107.506 35.5686C107.454 35.713 107.358 35.8374 107.232 35.9242L103.87 38.1889C103.726 38.285 103.552 38.327 103.38 38.3072Z" fill="#B2B2B2"/>
<path d="M110.653 34.7264L115.553 35.0115C115.607 35.0148 115.659 35.0289 115.707 35.0528C115.754 35.0767 115.797 35.11 115.831 35.1506C115.866 35.1913 115.892 35.2385 115.908 35.2894C115.924 35.3404 115.93 35.3941 115.925 35.4472L115.715 37.5236C115.704 37.6215 115.658 37.7121 115.584 37.7776C115.51 37.8432 115.415 37.8792 115.317 37.8786L109.83 37.9001C109.766 37.9001 109.704 37.885 109.648 37.856C109.591 37.827 109.543 37.785 109.506 37.7335C109.469 37.6819 109.445 37.6223 109.436 37.5596C109.427 37.4969 109.433 37.4329 109.453 37.373L110.255 34.9953C110.283 34.9133 110.337 34.8426 110.409 34.7941C110.481 34.7455 110.566 34.7217 110.653 34.7264Z" fill="#B2B2B2"/>
<path d="M125.978 37.9209L120.943 37.8778C120.798 37.8763 120.659 37.8243 120.549 37.731C120.439 37.6377 120.365 37.5089 120.34 37.3668L120.044 35.6831C120.028 35.59 120.034 35.4945 120.061 35.4039C120.087 35.3133 120.134 35.23 120.198 35.1604C120.262 35.0908 120.341 35.0368 120.429 35.0024C120.517 34.9681 120.612 34.9544 120.706 34.9623L125.472 35.3388C125.586 35.3482 125.695 35.3888 125.787 35.4562C125.879 35.5236 125.95 35.6152 125.994 35.7207L126.553 37.0656C126.592 37.1599 126.607 37.2624 126.597 37.3639C126.587 37.4655 126.552 37.563 126.495 37.6476C126.438 37.7323 126.361 37.8016 126.271 37.8493C126.18 37.8969 126.08 37.9215 125.978 37.9209Z" fill="#B2B2B2"/>
<path d="M131.696 35.4792L136.951 35.888C137.045 35.8956 137.136 35.9238 137.217 35.9707C137.299 36.0175 137.368 36.0819 137.422 36.1591C137.476 36.2362 137.511 36.3243 137.527 36.417C137.542 36.5097 137.537 36.6046 137.511 36.6949L137.301 37.4104C137.263 37.5411 137.184 37.6562 137.075 37.7385C136.967 37.8208 136.835 37.8661 136.699 37.8676L132.105 37.9052C131.976 37.9065 131.85 37.8685 131.743 37.7965C131.637 37.7244 131.554 37.6217 131.508 37.5018L131.056 36.3399C131.017 36.24 131.005 36.132 131.019 36.0259C131.034 35.9199 131.075 35.8192 131.139 35.7334C131.203 35.6475 131.287 35.5791 131.385 35.5347C131.482 35.4903 131.589 35.4712 131.696 35.4792Z" fill="#B2B2B2"/>
<path d="M146.408 37.8473L141.518 37.9118C141.395 37.9134 141.275 37.8749 141.176 37.8021C141.077 37.7293 141.005 37.6262 140.97 37.5084L140.685 36.5616C140.659 36.4754 140.654 36.3842 140.671 36.2957C140.687 36.2073 140.725 36.124 140.78 36.053C140.835 35.9819 140.907 35.9251 140.988 35.8873C141.07 35.8494 141.159 35.8317 141.249 35.8354L146.403 36.0291C146.546 36.0345 146.682 36.0942 146.783 36.1961C146.884 36.298 146.942 36.4344 146.946 36.5778L146.962 37.2717C146.964 37.3459 146.95 37.4196 146.923 37.4887C146.896 37.5577 146.856 37.6208 146.804 37.6743C146.753 37.7277 146.691 37.7705 146.623 37.8002C146.555 37.8299 146.482 37.8459 146.408 37.8473Z" fill="#B2B2B2"/>
<path d="M37.2098 47.4807C37.7119 47.0683 37.6492 46.7725 37.0216 46.5932C36.4442 46.4282 36.0838 46.1413 35.9404 45.7325C35.8615 45.5137 35.9099 45.329 36.0856 45.1784C36.2757 45.0134 36.4604 44.9363 36.6397 44.9471C37.6474 45.0224 38.578 45.0439 39.4315 45.0117C39.7722 45.0009 39.9354 45.1641 39.921 45.5012C39.7005 51.4291 30.8516 50.2241 32.2126 44.4199C32.9657 41.2193 36.9624 40.6598 39.0711 42.8008C39.5445 43.2813 39.4745 43.6633 38.8613 43.9466L38.6569 44.038C38.3956 44.1569 38.1038 44.1908 37.8228 44.1348C37.5418 44.0788 37.2859 43.9357 37.0915 43.726C35.2948 41.7841 33.0141 45.3613 34.843 47.1203C35.0295 47.2996 35.2411 47.4413 35.4777 47.5453C36.1842 47.8716 36.7616 47.8501 37.2098 47.4807Z" fill="#B2B2B2"/>
<path d="M146.715 46.7171C146.317 46.4374 145.901 46.2635 145.467 46.1953C145.398 46.1846 145.331 46.1581 145.273 46.1177C145.215 46.0773 145.167 46.0242 145.133 45.9624C145.099 45.9006 145.079 45.8318 145.075 45.7612C145.072 45.6906 145.084 45.6201 145.112 45.5552C145.281 45.1607 145.589 44.9689 146.038 44.9796C147.027 45.0047 147.958 45.0298 148.829 45.0549C149.055 45.0621 149.177 45.1787 149.195 45.4046C149.631 50.4449 141.368 50.956 141.422 45.4261C141.447 43.2278 142.539 41.9583 144.698 41.6176C146.158 41.3881 147.4 41.7915 148.426 42.8279C148.885 43.2941 148.819 43.6617 148.227 43.9307L147.996 44.0383C147.755 44.1476 147.487 44.1815 147.227 44.1354C146.966 44.0893 146.726 43.9654 146.538 43.78C145.681 42.9337 144.863 42.9642 144.085 43.8715C143.052 45.0729 143.147 46.2151 144.37 47.2981C145.195 48.0297 145.991 47.9812 146.758 47.1528C146.909 46.9879 146.895 46.8426 146.715 46.7171Z" fill="#B2B2B2"/>
<path d="M56.5581 48.4177C56.0919 49.0596 55.4536 49.325 54.6431 49.2138C54.5814 49.205 54.5224 49.1824 54.4707 49.1477C54.4189 49.113 54.3756 49.067 54.3441 49.0133C54.3125 48.9595 54.2935 48.8993 54.2884 48.8371C54.2834 48.775 54.2925 48.7125 54.315 48.6543L56.7464 42.2638C56.7803 42.1738 56.8321 42.0917 56.8987 42.0223C56.9652 41.953 57.0452 41.8979 57.1337 41.8604C57.772 41.5842 58.4157 41.6201 59.0648 41.9679C59.219 42.0504 59.3267 42.1741 59.3876 42.3391L61.8244 48.8803C61.8961 49.0703 61.8298 49.1707 61.6253 49.1815L60.4957 49.2407C60.1873 49.255 59.9722 49.1205 59.8502 48.8372C59.4773 47.973 58.6166 47.6807 57.2682 47.9604C56.9741 48.0214 56.7374 48.1738 56.5581 48.4177ZM57.5156 46.3951L58.5269 46.4058C58.5594 46.4065 58.5917 46.4008 58.622 46.3891C58.6523 46.3773 58.68 46.3596 58.7035 46.3372C58.7269 46.3147 58.7458 46.2878 58.7589 46.258C58.772 46.2283 58.7791 46.1962 58.7798 46.1637V46.0992C58.7865 45.6747 58.7222 45.2664 58.6012 44.9639C58.4802 44.6613 58.3123 44.4892 58.1342 44.4854H57.9729C57.8844 44.4835 57.7962 44.5231 57.7131 44.6021C57.6301 44.6812 57.5539 44.798 57.4889 44.9459C57.424 45.0938 57.3715 45.2699 57.3346 45.4641C57.2976 45.6583 57.2769 45.8668 57.2736 46.0777V46.1422C57.2728 46.1747 57.2785 46.207 57.2903 46.2373C57.3021 46.2676 57.3198 46.2953 57.3422 46.3188C57.3647 46.3423 57.3915 46.3611 57.4213 46.3742C57.4511 46.3873 57.4831 46.3944 57.5156 46.3951Z" fill="#B2B2B2"/>
<path d="M83.0999 45.6514C82.7198 45.8379 82.501 46.0853 82.4436 46.3937C82.2715 47.3405 81.9344 48.2263 81.4324 49.0511C81.3895 49.1209 81.3285 49.1778 81.2558 49.2156C81.1831 49.2535 81.1015 49.2708 81.0197 49.2659C80.9379 49.2609 80.8591 49.2338 80.7915 49.1874C80.724 49.1411 80.6703 49.0772 80.6362 49.0027C80.2059 48.081 79.8849 47.1504 79.6733 46.2109C79.6016 45.8917 79.4115 45.7178 79.1031 45.6891C78.9094 45.6676 78.8019 45.7554 78.7803 45.9527L78.463 48.8198C78.4484 48.9428 78.3891 49.056 78.2967 49.1375C78.2043 49.219 78.0852 49.2629 77.9627 49.2609L76.9514 49.2501C76.6717 49.2501 76.5462 49.1103 76.5749 48.8305C76.7972 46.6502 77.1791 44.4267 77.7207 42.1603C77.7637 41.9846 77.8713 41.8698 78.0434 41.816C78.5849 41.6367 79.0995 41.6654 79.5872 41.9021C79.7414 41.9774 79.8455 42.0957 79.8993 42.2571L80.6739 44.5218C80.9608 45.3717 81.2512 45.3735 81.5453 44.5271L82.336 42.2571C82.3707 42.156 82.4293 42.0646 82.507 41.9906C82.5847 41.9167 82.6792 41.8623 82.7825 41.8321C83.2631 41.6923 83.7418 41.669 84.2188 41.7622C84.2965 41.778 84.3677 41.8167 84.4233 41.8732C84.4789 41.9298 84.5163 42.0016 84.5308 42.0796L85.7088 48.3572C85.8128 48.9274 85.5762 49.2304 84.9988 49.2663L84.6114 49.2878C84.4916 49.2958 84.3714 49.2798 84.2577 49.2407C84.144 49.2017 84.0391 49.1404 83.9491 49.0604C83.8591 48.9803 83.7857 48.8832 83.7332 48.7745C83.6807 48.6658 83.6501 48.5477 83.6432 48.4271L83.498 45.8827C83.4836 45.6066 83.3509 45.5295 83.0999 45.6514Z" fill="#B2B2B2"/>
<path d="M102.537 41.7434L101.472 41.7397C101.199 41.7388 100.977 41.9596 100.976 42.2329L100.953 48.7095C100.952 48.9828 101.173 49.2051 101.446 49.2061L102.511 49.2098C102.785 49.2107 103.007 48.99 103.008 48.7166L103.031 42.2401C103.031 41.9667 102.811 41.7444 102.537 41.7434Z" fill="#B2B2B2"/>
<path d="M120.459 45.3281L120.626 48.3082C120.662 48.9214 120.371 49.2334 119.754 49.2442L119.372 49.2496C118.86 49.2603 118.601 49.0075 118.598 48.4911L118.582 42.192C118.582 42.0091 118.668 41.8908 118.84 41.837C119.801 41.5286 120.572 41.7312 121.153 42.4448C121.924 43.3844 122.674 44.4154 123.401 45.5379C123.552 45.7674 123.756 45.8642 124.015 45.8284C124.064 45.8217 124.112 45.8045 124.154 45.778C124.196 45.7515 124.232 45.7163 124.259 45.6749C124.286 45.6334 124.304 45.5867 124.311 45.538C124.318 45.4892 124.314 45.4397 124.3 45.3927C123.999 44.3598 123.914 43.2894 124.047 42.1812C124.061 42.0628 124.119 41.9538 124.208 41.8745C124.297 41.7953 124.412 41.7513 124.531 41.7509L125.553 41.7401C125.683 41.7401 125.808 41.7917 125.899 41.8835C125.991 41.9753 126.043 42.0998 126.043 42.2297V48.6794C126.043 48.7935 126.007 48.9044 125.94 48.9963C125.873 49.0882 125.779 49.1561 125.672 49.1904C124.786 49.4629 124.031 49.1922 123.407 48.3781C122.593 47.3202 121.786 46.2408 120.986 45.1398C120.95 45.0879 120.897 45.0494 120.837 45.0303C120.776 45.0111 120.711 45.0122 120.651 45.0336C120.591 45.055 120.54 45.0953 120.505 45.1485C120.471 45.2017 120.454 45.2648 120.459 45.3281Z" fill="#B2B2B2"/>
</svg>
