<svg width="184" height="63" viewBox="0 0 184 63" fill="none" xmlns="http://www.w3.org/2000/svg">
<path d="M97.1264 39.7473C97.1264 40.9999 96.6288 42.2012 95.743 43.087C94.8573 43.9727 93.656 44.4703 92.4034 44.4703H38.6109C37.9907 44.4703 37.3765 44.3481 36.8035 44.1108C36.2305 43.8734 35.7098 43.5255 35.2712 43.087C34.8327 42.6484 34.4848 42.1277 34.2474 41.5547C34.0101 40.9817 33.8879 40.3675 33.8879 39.7473V25.1696C33.8879 24.5493 34.0101 23.9352 34.2474 23.3622C34.4848 22.7891 34.8327 22.2685 35.2712 21.8299C35.7098 21.3913 36.2305 21.0434 36.8035 20.8061C37.3765 20.5687 37.9907 20.4466 38.6109 20.4466H92.4034C93.656 20.4466 94.8573 20.9442 95.743 21.8299C96.6288 22.7156 97.1264 23.9169 97.1264 25.1696V39.7473ZM36.2225 23.3621C37.7179 21.7053 40.0202 21.8398 42.1128 21.9474C45.4748 22.1249 48.8261 22.0388 52.1774 21.985C59.5684 21.8721 67.9708 22.2325 73.7966 22.0227C75.794 21.9546 77.5441 21.9438 79.0467 21.9904C81.3867 22.0657 83.689 21.8775 86.029 21.985C88.1161 22.0819 89.9612 21.9312 91.9246 21.9151C92.9431 21.9079 94.1337 22.5875 95.4965 23.9538C95.516 23.9737 95.5403 23.9882 95.567 23.9958C95.5938 24.0035 95.6221 24.0041 95.6492 23.9976C95.6763 23.9911 95.7012 23.9777 95.7216 23.9588C95.7419 23.9398 95.757 23.9158 95.7654 23.8893L95.8515 23.615C95.8802 23.5181 95.8604 23.4321 95.7923 23.3568C94.5371 21.9223 93.2569 21.2086 91.9515 21.2158C74.0063 21.3162 56.0594 21.327 38.1106 21.2481C37.9205 21.2481 37.7484 21.3001 37.5942 21.4041L36.0719 22.4423C35.9962 22.4934 35.9347 22.5632 35.8933 22.6451C35.8519 22.7269 35.8319 22.8182 35.8352 22.9103L35.846 23.2276C35.8475 23.2707 35.8619 23.3123 35.8873 23.347C35.9128 23.3818 35.9481 23.4081 35.9886 23.4226C36.0292 23.4371 36.0732 23.4391 36.1149 23.4283C36.1566 23.4175 36.1941 23.3945 36.2225 23.3621ZM89.5846 42.3132C90.2517 42.6109 90.2194 42.7543 89.4878 42.7436C88.4586 42.7256 87.4437 42.6898 86.4432 42.636C86.2567 42.6252 86.1706 42.5266 86.185 42.3401C86.427 38.806 86.3571 35.2019 86.2495 31.7215C86.2424 31.4453 86.375 31.3055 86.6476 31.3019C87.0564 31.2947 87.4509 31.2033 87.831 31.0276C88.057 30.9236 88.1717 30.746 88.1753 30.495L88.2129 28.693C88.2165 28.5065 88.1305 28.3792 87.9547 28.311C87.4957 28.1246 87.0331 28.0672 86.5669 28.1389C86.3015 28.1784 86.1706 28.0654 86.1742 27.8L86.1903 24.2766C86.1903 23.6921 85.8999 23.398 85.3189 23.3944L83.3286 23.3836C82.7799 23.3801 82.5127 23.6526 82.5271 24.2013L82.6024 27.6117C82.606 27.7946 82.5217 27.9184 82.3496 27.9829L81.2468 28.4025C81.0711 28.467 80.9581 28.589 80.9079 28.7683C80.5529 30.0557 80.9743 30.9684 82.1721 31.5063C82.3765 31.596 82.4733 31.752 82.4625 31.9743C82.2868 35.5497 82.3442 39.0301 82.6347 42.4154C82.6598 42.7059 82.5289 42.8278 82.242 42.7812L79.7137 42.3455C79.5978 42.3263 79.4925 42.2666 79.4166 42.1769C79.3407 42.0872 79.2992 41.9735 79.2995 41.856L79.1866 24.0507C79.1859 23.9626 79.1676 23.8756 79.1329 23.7945C79.0981 23.7135 79.0475 23.6402 78.984 23.5786C78.9205 23.5171 78.8453 23.4687 78.7628 23.4362C78.6803 23.4036 78.5922 23.3876 78.5034 23.389L75.9536 23.4321C75.8915 23.4325 75.8303 23.4472 75.7747 23.4748C75.719 23.5025 75.6705 23.5425 75.6326 23.5918C75.5948 23.641 75.5686 23.6983 75.5562 23.7592C75.5438 23.82 75.5454 23.8829 75.561 23.9431C75.6434 24.273 75.6829 24.6675 75.6793 25.1265C75.6614 30.6062 75.6183 36.0177 75.5502 41.3611C75.543 41.9241 75.2651 42.2576 74.7164 42.3616L73.9041 42.523C73.4021 42.6198 73.1492 42.4136 73.1457 41.9044L73.0273 29.3385C73.0202 28.5423 72.6185 28.1192 71.8224 28.069L70.4991 27.9937C69.7173 27.947 69.33 28.3146 69.3372 29.0964C69.3551 31.5709 69.2941 34.2192 69.1543 37.0416C68.9929 40.2691 64.2645 40.608 63.9848 37.3105C63.723 34.1941 63.6316 31.2876 63.7105 28.5908C63.7127 28.5294 63.7023 28.4682 63.6799 28.4111C63.6574 28.3539 63.6234 28.302 63.58 28.2586C63.5366 28.2152 63.4847 28.1812 63.4275 28.1588C63.3704 28.1363 63.3092 28.1259 63.2479 28.1281L60.4506 28.2088C60.1673 28.2196 60.0275 28.3648 60.031 28.6445C60.0597 31.3772 60.0813 34.2354 60.0956 37.2191C60.1028 39.1341 60.82 40.6672 62.2473 41.8183C62.3585 41.908 62.4266 41.994 62.4517 42.0765C62.4876 42.1877 62.484 42.2899 62.441 42.3832C62.3621 42.5589 62.2294 42.6252 62.0429 42.5822C60.8344 42.3168 59.5917 42.22 58.3151 42.2917C58.2116 42.2975 58.1081 42.2824 58.0107 42.2473C57.9134 42.2121 57.8243 42.1577 57.7488 42.0872C57.6733 42.0168 57.613 41.9318 57.5717 41.8375C57.5303 41.7432 57.5087 41.6415 57.5082 41.5386L57.4114 24.126C57.4078 23.6311 57.1568 23.3836 56.6583 23.3836L53.1026 23.389C52.8624 23.3887 52.6276 23.4641 52.431 23.6048C52.2343 23.7456 52.0855 23.9446 52.0052 24.1744L47.5512 37.0738C47.44 37.4038 47.3271 37.4056 47.2123 37.0792L42.6346 23.9969C42.572 23.8164 42.4545 23.66 42.2984 23.5491C42.1422 23.4383 41.9552 23.3786 41.7631 23.3783L38.1859 23.3836C37.9457 23.3836 37.7153 23.4793 37.545 23.6496C37.3747 23.8199 37.2783 24.0511 37.2768 24.2927L37.2177 41.4418C37.2177 41.7466 37.067 41.8685 36.7658 41.8076L35.9751 41.6408C35.0749 41.4543 34.9082 41.7233 35.4748 42.4477C36.2494 43.4411 37.2786 43.9378 38.5625 43.9378C55.9554 43.9629 73.3465 43.9754 90.7358 43.9754C91.93 43.9754 93.9741 44.2282 94.8778 43.1954C95.4731 42.5176 95.3243 42.2325 94.4313 42.3401C94.1444 42.376 93.8038 42.3455 93.4093 42.2487C93.2336 42.2056 93.1457 42.0927 93.1457 41.9098L93.022 28.9673C93.0206 28.8557 92.9972 28.7454 92.9532 28.6429C92.9092 28.5403 92.8454 28.4474 92.7655 28.3695C92.6855 28.2915 92.591 28.2301 92.4874 28.1887C92.3837 28.1473 92.2729 28.1267 92.1613 28.1281L90.214 28.155C89.7263 28.1622 89.4789 28.4097 89.4717 28.8974C89.4358 32.8924 89.3766 37.0129 89.2942 41.2589C89.2834 41.8685 89.3802 42.22 89.5846 42.3132ZM93.0951 23.91C93.0943 23.8407 93.0798 23.7723 93.0526 23.7087C93.0253 23.6451 92.9858 23.5874 92.9362 23.5391C92.8867 23.4907 92.8281 23.4526 92.7638 23.4269C92.6995 23.4012 92.6308 23.3884 92.5616 23.3892L89.9367 23.4213C89.7969 23.423 89.6635 23.4802 89.5659 23.5803C89.4682 23.6803 89.4144 23.8151 89.4161 23.9549L89.4416 26.0419C89.4424 26.1111 89.4569 26.1795 89.4841 26.2431C89.5114 26.3067 89.5509 26.3644 89.6005 26.4127C89.65 26.4611 89.7086 26.4992 89.7729 26.5249C89.8372 26.5506 89.9059 26.5634 89.9751 26.5626L92.6 26.5305C92.7398 26.5288 92.8732 26.4716 92.9708 26.3715C93.0685 26.2715 93.1224 26.1367 93.1206 25.9969L93.0951 23.91Z" fill="#B2B2B2"/>
<path d="M155.561 44.2628C158.692 44.062 160.254 42.3801 160.247 39.2171C160.24 34.781 160.234 30.4525 160.231 26.2316C160.227 23.689 159.031 22.0501 156.643 21.3149C156.202 21.1787 155.124 21.1231 153.41 21.1482C147.941 21.2307 142.472 21.2486 137.003 21.202C134.206 21.1769 131.249 21.1876 128.133 21.2342C125.497 21.2737 122.536 21.2773 119.251 21.245C114.937 21.202 110.209 21.1733 105.066 21.1589C102.016 21.1535 99.16 21.7722 99.1277 25.3494C99.0775 30.9115 99.065 35.9357 99.0901 40.422C99.1008 42.649 100.677 43.6442 102.63 44.1122C102.895 44.1767 102.891 44.2251 102.619 44.2574C99.5473 44.6178 98.5522 41.8475 98.5522 39.3731C98.5557 34.5568 98.5324 29.8984 98.4822 25.3978C98.4607 23.6154 99.1725 22.2599 100.618 21.3311C101.4 20.8326 102.746 20.5618 104.658 20.5188C107.455 20.4614 110.698 20.4471 114.389 20.4758C127.414 20.5726 140.559 20.5618 153.824 20.4435C158.654 20.4004 160.817 21.7829 160.672 26.7695C160.546 30.9007 160.514 35.0302 160.575 39.1579C160.593 40.4059 160.496 41.3042 160.284 41.8529C159.188 44.7239 156.812 44.3331 154.29 44.2898C154.288 44.2897 154.283 44.2914 154.281 44.2922C154.277 44.2935 154.284 44.2898 154.288 44.2899C154.677 44.3003 155.102 44.2913 155.561 44.2628Z" fill="#B2B2B2"/>
<path d="M121.224 40.2619L125.425 40.1274C125.523 40.1244 125.62 40.1414 125.71 40.1775C125.801 40.2135 125.883 40.2678 125.951 40.3369C126.02 40.406 126.074 40.4885 126.109 40.5793C126.144 40.67 126.161 40.7671 126.157 40.8644L126.092 42.5158C126.085 42.6994 126.008 42.8732 125.875 43.0006C125.743 43.128 125.566 43.1991 125.382 43.199L117.631 43.1775C117.444 43.1775 117.264 43.1034 117.131 42.9714C116.998 42.8394 116.922 42.6602 116.921 42.4728L116.813 23.1505C116.812 23.0545 116.831 22.9594 116.868 22.8708C116.905 22.7822 116.96 22.702 117.029 22.6352C117.098 22.5683 117.179 22.5161 117.269 22.4817C117.359 22.4473 117.454 22.4315 117.55 22.4351L119.901 22.5212C120.086 22.5281 120.26 22.6068 120.388 22.7403C120.515 22.8739 120.586 23.0519 120.584 23.2366L120.493 39.5519C120.493 39.6469 120.512 39.7411 120.549 39.8286C120.586 39.9162 120.64 39.9955 120.708 40.0617C120.776 40.1279 120.857 40.1798 120.946 40.2142C121.035 40.2486 121.129 40.2648 121.224 40.2619Z" fill="#B2B2B2"/>
<path d="M126.841 38.7874C124.614 33.8438 125.071 28.2172 128.799 24.1236C130 22.8074 131.327 22.2354 132.78 22.4076C134.98 22.6712 137.734 22.4398 139.289 22.4883C139.783 22.5044 140.434 22.7626 140.843 23.1391C144.609 26.6428 145.882 30.9982 144.662 36.2053C144.021 38.9559 142.64 41.1148 140.52 42.682C140.142 42.9587 139.69 43.1126 139.224 43.1231C137.158 43.1661 135.028 43.1733 132.833 43.1446C131.403 43.1231 130.612 43.1177 129.488 42.144C128.247 41.0718 127.365 39.9529 126.841 38.7874ZM135.332 40.5141C136.972 40.517 138.545 39.7206 139.707 38.3002C140.868 36.8798 141.523 34.9518 141.526 32.9402C141.528 31.9441 141.37 30.9576 141.061 30.0368C140.752 29.116 140.298 28.2791 139.725 27.5738C139.153 26.8685 138.472 26.3086 137.723 25.9261C136.974 25.5436 136.17 25.346 135.359 25.3446C133.72 25.3418 132.146 26.1381 130.984 27.5585C129.823 28.9789 129.168 30.907 129.165 32.9186C129.163 33.9146 129.321 34.9012 129.63 35.822C129.939 36.7427 130.393 37.5797 130.966 38.285C131.538 38.9903 132.219 39.5502 132.968 39.9326C133.717 40.3151 134.521 40.5127 135.332 40.5141Z" fill="#B2B2B2"/>
<path d="M109.396 25.5799C107.352 24.7676 105.873 27.0161 106.959 28.5976C107.243 29.0064 107.797 29.4099 108.622 29.8079C111.795 31.341 114.082 32.6374 114.576 36.5643C114.871 38.8774 114.302 40.8497 112.871 42.4814C112.523 42.8759 112.034 43.0875 111.403 43.1162C109.531 43.1915 107.714 43.1879 105.954 43.1054C103.603 42.9979 102.618 40.0931 102.473 38.0436C102.464 37.91 102.507 37.7781 102.594 37.6757C102.68 37.5734 102.803 37.5085 102.936 37.4949C103.836 37.4088 104.743 37.4788 105.658 37.7047C105.833 37.7477 105.959 37.8517 106.034 38.0167C106.551 39.1625 106.992 40.5503 108.616 40.5019C109.689 40.4696 110.429 39.9048 110.838 38.8074C112.199 35.1657 107.202 34.4987 105.26 32.6428C102.441 29.9496 102.174 26.7669 104.458 23.0946C104.655 22.7791 105.057 22.5944 105.663 22.5406C108.051 22.3362 110.027 22.3649 111.591 22.6267C113.296 22.9118 114.173 25.752 114.044 27.242C114.026 27.4465 113.918 27.5738 113.721 27.624C111.749 28.1547 110.508 27.6831 109.999 26.2092C109.95 26.0674 109.87 25.9378 109.766 25.8292C109.663 25.7206 109.536 25.6355 109.396 25.5799Z" fill="#B2B2B2"/>
<path d="M144.48 25.1338V23.0198C144.48 22.9459 144.495 22.8727 144.523 22.8044C144.552 22.7362 144.593 22.6743 144.646 22.6223C144.698 22.5703 144.761 22.5292 144.829 22.5014C144.898 22.4736 144.971 22.4596 145.045 22.4603L154.609 22.5141C154.684 22.5148 154.757 22.5303 154.825 22.5598C154.894 22.5892 154.955 22.632 155.007 22.6856C155.059 22.7392 155.099 22.8025 155.126 22.8719C155.153 22.9413 155.165 23.0154 155.163 23.0897L155.115 25.1338C155.111 25.2766 155.052 25.4125 154.951 25.5135C154.85 25.6145 154.714 25.6731 154.572 25.6771L152.215 25.7363C152.07 25.7405 151.932 25.8013 151.83 25.9058C151.729 26.0102 151.672 26.1501 151.672 26.2957L151.591 42.5841C151.591 42.6585 151.577 42.7321 151.548 42.8007C151.519 42.8693 151.477 42.9315 151.424 42.9835C151.371 43.0356 151.308 43.0766 151.239 43.1041C151.169 43.1316 151.096 43.145 151.021 43.1436L148.471 43.1113C148.324 43.1099 148.183 43.0503 148.079 42.9455C147.976 42.8408 147.917 42.6993 147.917 42.5518L147.955 26.1828C147.955 26.1079 147.94 26.0338 147.911 25.9649C147.882 25.896 147.839 25.8335 147.786 25.7814C147.732 25.7292 147.668 25.6883 147.598 25.6612C147.529 25.6341 147.454 25.6212 147.379 25.6233L145.056 25.6933C144.981 25.6954 144.906 25.6826 144.837 25.6554C144.767 25.6283 144.703 25.5874 144.65 25.5352C144.596 25.4831 144.553 25.4207 144.524 25.3517C144.495 25.2828 144.48 25.2087 144.48 25.1338Z" fill="#B2B2B2"/>
<path d="M44.802 39.767C45.0961 40.6348 45.3328 41.2803 45.5121 41.7035C45.6591 42.0406 45.5479 42.2074 45.1786 42.2038L41.6552 42.1608C41.2356 42.1572 41.033 41.9438 41.0473 41.5206C41.1728 37.7982 41.1567 33.9484 40.9989 29.9714C40.9882 29.6952 40.9917 29.541 41.0096 29.5088C41.1961 29.125 41.3539 29.1376 41.483 29.5464C42.5696 33.0142 43.676 36.4211 44.802 39.767Z" fill="#B2B2B2"/>
<path d="M53.6354 29.465L53.5171 41.9395C53.5172 41.9819 53.5011 42.0228 53.4721 42.0538C53.4431 42.0848 53.4034 42.1035 53.3611 42.1063L49.3159 42.3322C49.2892 42.3333 49.2627 42.3281 49.2385 42.3169C49.2143 42.3057 49.1932 42.2888 49.1768 42.2677C49.1605 42.2467 49.1495 42.222 49.1447 42.1958C49.1398 42.1695 49.1414 42.1425 49.1491 42.117L53.3127 29.4112C53.3263 29.3751 53.352 29.3448 53.3855 29.3255C53.4189 29.3062 53.4581 29.2991 53.4962 29.3055C53.5343 29.3118 53.569 29.3312 53.5944 29.3603C53.6198 29.3894 53.6343 29.4264 53.6354 29.465Z" fill="#B2B2B2"/>
<path d="M68.907 42.8529C68.4372 42.8493 68.3439 42.6593 68.6273 42.2827C69.0845 41.6749 69.8376 41.8309 70.3486 42.3042C70.5494 42.4871 70.5171 42.6144 70.2518 42.6862C69.8286 42.8009 69.3803 42.8565 68.907 42.8529Z" fill="#B2B2B2"/>
</svg>
