<svg width="184" height="63" viewBox="0 0 184 63" fill="none" xmlns="http://www.w3.org/2000/svg">
<path d="M97.1927 28.7826L105.477 28.7072C105.681 28.7072 105.783 28.8095 105.783 29.0139L105.767 32.704C105.767 32.8941 105.672 32.9909 105.482 32.9945L97.268 33.129C97.0134 33.1362 96.8861 33.2688 96.8861 33.5271L96.9022 37.2387C96.9022 37.5041 97.0331 37.6368 97.2949 37.6368L106.811 37.7067C107.101 37.7103 107.248 37.8574 107.252 38.1478L107.306 41.5852C107.309 41.9115 107.15 42.0747 106.827 42.0747L94.928 42.1231C94.3506 42.1267 94.062 42.4172 94.062 42.9945L94.0512 48.2285C94.0513 48.3171 94.0179 48.4023 93.9578 48.4664C93.8977 48.5306 93.8155 48.5687 93.7284 48.5728L93.325 48.5889C93.0776 48.6033 92.9503 48.4867 92.9431 48.2393C92.8104 41.899 92.8319 35.512 93.0076 29.0784C93.0883 26.2328 92.7172 22.7309 92.9377 19.5249C93.083 17.4108 93.0668 15.3398 92.9861 13.2527C92.9846 13.2075 92.9924 13.1625 93.0088 13.1205C93.0253 13.0784 93.0501 13.0401 93.0818 13.0079C93.1135 12.9757 93.1514 12.9503 93.1932 12.9332C93.235 12.9161 93.2798 12.9076 93.325 12.9084H93.4756C93.6179 12.9098 93.7539 12.9669 93.8545 13.0675C93.955 13.1681 94.0122 13.3041 94.0136 13.4463L94.0673 18.9009C94.0688 19.1353 94.1629 19.3597 94.3292 19.525C94.4955 19.6903 94.7205 19.7831 94.9549 19.7831L107.053 19.7992C107.164 19.7992 107.22 19.8548 107.22 19.966L107.209 23.8874C107.209 24.0201 107.144 24.0865 107.015 24.0865L97.2088 24.1187C97.1218 24.1187 97.0383 24.1528 96.9768 24.2133C96.9153 24.2738 96.8807 24.3559 96.8807 24.4415L96.8753 28.4652C96.8753 28.6804 96.9811 28.7861 97.1927 28.7826Z" fill="#B2B2B2"/>
<path d="M44.9762 28.8679C44.9533 28.8534 44.9269 28.8453 44.8998 28.8445C44.8726 28.8438 44.8458 28.8504 44.8221 28.8636C44.7984 28.8768 44.7787 28.8962 44.7651 28.9197C44.7516 28.9432 44.7446 28.9699 44.7449 28.997L44.8579 41.6974C44.8615 41.9772 44.7234 42.117 44.4436 42.117L40.7912 42.1009C40.6742 42.1009 40.562 42.0538 40.4793 41.9701C40.3966 41.8864 40.3501 41.7728 40.3501 41.6544L40.3447 20.089C40.3447 19.9204 40.4289 19.8254 40.5975 19.8039C41.8311 19.6461 43.0181 19.6802 44.1585 19.9061C44.3271 19.942 44.458 20.0298 44.5513 20.1697C47.3126 24.3153 49.9627 28.5362 52.5018 32.8324C52.5699 32.9472 52.6721 32.992 52.8084 32.9669C52.8642 32.9566 52.9145 32.927 52.95 32.8836C52.9856 32.8401 53.0041 32.7857 53.0021 32.7302L52.8891 20.1912C52.8891 20.0785 52.9338 19.9704 53.0135 19.8907C53.0932 19.811 53.2013 19.7662 53.314 19.7662L57.0311 19.7555C57.2678 19.7555 57.3862 19.872 57.3862 20.1051V41.762C57.3862 41.859 57.3476 41.952 57.279 42.0206C57.2104 42.0892 57.1173 42.1278 57.0203 42.1278C56.1059 42.1242 55.1896 42.1242 54.2715 42.1278C53.6942 42.1278 53.2513 41.8839 52.9429 41.3962C50.3967 37.3546 47.8631 33.304 45.342 29.2445C45.2344 29.0723 45.1125 28.9468 44.9762 28.8679Z" fill="#B2B2B2"/>
<path d="M64.621 37.7058L74.1691 37.6359C74.2098 37.6351 74.2503 37.6425 74.2881 37.6576C74.3259 37.6727 74.3604 37.6952 74.3894 37.7237C74.4185 37.7523 74.4415 37.7863 74.4573 37.8239C74.473 37.8614 74.4811 37.9018 74.4811 37.9425L74.5188 41.751C74.5188 41.8314 74.4872 41.9086 74.4309 41.9659C74.3745 42.0233 74.2979 42.0562 74.2175 42.0576L60.1615 42.1114C60.0802 42.1114 60.0023 42.0791 59.9448 42.0216C59.8873 41.9641 59.855 41.8861 59.855 41.8048L59.8496 20.0511C59.8496 19.9698 59.8819 19.8918 59.9394 19.8343C59.9969 19.7768 60.0749 19.7445 60.1562 19.7445L74.2498 19.8252C74.2906 19.8252 74.3309 19.8333 74.3684 19.849C74.406 19.8648 74.44 19.8878 74.4686 19.9169C74.4971 19.9459 74.5196 19.9804 74.5347 20.0182C74.5498 20.056 74.5571 20.0965 74.5564 20.1372L74.4811 23.7413C74.4797 23.8216 74.4468 23.8983 74.3894 23.9546C74.3321 24.0109 74.2549 24.0425 74.1745 24.0425L64.5994 24.0264C64.5181 24.0264 64.4402 24.0587 64.3827 24.1162C64.3252 24.1737 64.2928 24.2517 64.2928 24.333L64.2767 28.5073C64.2767 28.5886 64.309 28.6666 64.3665 28.7241C64.424 28.7816 64.502 28.8139 64.5833 28.8139L72.7382 28.8193C72.8195 28.8193 72.8976 28.8516 72.9551 28.9091C73.0126 28.9666 73.0449 29.0446 73.0449 29.1259L73.0717 32.7031C73.0717 32.7844 73.0395 32.8624 72.982 32.9199C72.9245 32.9774 72.8465 33.0097 72.7652 33.0097L64.5242 33.042C64.4834 33.042 64.4431 33.0501 64.4056 33.0658C64.368 33.0816 64.3339 33.1046 64.3054 33.1337C64.2768 33.1627 64.2544 33.1972 64.2393 33.235C64.2242 33.2728 64.2168 33.3133 64.2175 33.354L64.3144 37.4046C64.3158 37.4849 64.3487 37.5615 64.406 37.6179C64.4634 37.6742 64.5406 37.7058 64.621 37.7058Z" fill="#B2B2B2"/>
<path d="M85.934 24.4634V41.634C85.934 41.7481 85.8886 41.8575 85.8079 41.9383C85.7272 42.019 85.6178 42.0643 85.5037 42.0643L81.7166 42.0751C81.6597 42.0751 81.6033 42.0638 81.5507 42.0418C81.4981 42.0198 81.4505 41.9876 81.4105 41.9471C81.3704 41.9066 81.3388 41.8585 81.3175 41.8057C81.2962 41.7528 81.2856 41.6963 81.2863 41.6393L81.3885 24.5226C81.3885 24.4094 81.3439 24.3007 81.2644 24.2202C81.1848 24.1396 81.0767 24.0936 80.9635 24.0922L76.7193 24.0761C76.6061 24.0761 76.4975 24.0315 76.4169 23.952C76.3364 23.8724 76.2904 23.7643 76.289 23.6511L76.2352 20.1761C76.2337 20.1183 76.244 20.0607 76.2653 20.0069C76.2866 19.9531 76.3186 19.9041 76.3593 19.8629C76.3999 19.8217 76.4485 19.7892 76.502 19.7672C76.5556 19.7452 76.613 19.7343 76.6709 19.735L90.1728 19.7942C90.2833 19.7941 90.3896 19.8364 90.4697 19.9126C90.5499 19.9887 90.5976 20.0927 90.6032 20.203L90.743 23.6081C90.746 23.6668 90.7368 23.7256 90.7162 23.7807C90.6955 23.8358 90.6638 23.886 90.623 23.9284C90.5822 23.9707 90.5331 24.0042 90.4788 24.0269C90.4245 24.0495 90.3661 24.0608 90.3073 24.06L86.3643 24.0331C86.2502 24.0331 86.1407 24.0784 86.06 24.1591C85.9793 24.2398 85.934 24.3493 85.934 24.4634Z" fill="#B2B2B2"/>
<path d="M113.686 29.2192C113.811 32.8591 113.842 37.0729 113.777 41.8604C113.777 42.0577 113.679 42.1545 113.481 42.1509L109.861 42.0917C109.603 42.0881 109.474 41.9573 109.474 41.699L109.49 20.252C109.49 20.0512 109.592 19.9382 109.797 19.9131C110.93 19.7804 112.058 19.7822 113.18 19.9185C113.275 19.9303 113.366 19.9629 113.448 20.014C113.53 20.065 113.6 20.1334 113.653 20.2143C116.444 24.4245 119.078 28.6239 121.556 32.8125C121.656 32.9775 121.792 33.0922 121.964 33.1568C121.99 33.1654 122.016 33.1681 122.043 33.1647C122.069 33.1612 122.094 33.1517 122.115 33.137C122.137 33.1223 122.154 33.1027 122.167 33.08C122.179 33.0572 122.185 33.0319 122.185 33.0062L122.083 20.3542C122.079 20.0207 122.246 19.8521 122.583 19.8485L125.907 19.827C126.259 19.8234 126.433 19.9974 126.429 20.3488C126.422 20.858 126.422 21.3619 126.429 21.8604C126.508 28.4948 126.519 35.1543 126.461 41.8389C126.461 41.881 126.453 41.9228 126.437 41.9616C126.421 42.0005 126.397 42.0357 126.367 42.0653C126.337 42.0948 126.301 42.1181 126.262 42.1337C126.223 42.1493 126.181 42.157 126.139 42.1563L123.094 42.124C122.909 42.1225 122.728 42.0744 122.566 41.9842C122.404 41.894 122.268 41.7645 122.169 41.6076L114.278 29.0363C113.858 28.3657 113.661 28.4266 113.686 29.2192Z" fill="#B2B2B2"/>
<path d="M137.87 24.3929L137.865 41.8647C137.865 41.9061 137.856 41.9471 137.84 41.9853C137.824 42.0235 137.801 42.0582 137.771 42.0872C137.742 42.1162 137.707 42.1391 137.668 42.1545C137.63 42.1698 137.589 42.1774 137.547 42.1767L133.836 42.139C133.754 42.1376 133.676 42.1041 133.618 42.0457C133.561 41.9874 133.529 41.9088 133.529 41.827L133.545 24.4897C133.545 24.4069 133.512 24.3276 133.454 24.2691C133.395 24.2106 133.316 24.1777 133.233 24.1777L128.661 24.1347C128.58 24.1333 128.503 24.1005 128.445 24.0433C128.388 23.9861 128.356 23.9089 128.354 23.828L128.322 20.1594C128.322 20.0767 128.355 19.9973 128.413 19.9388C128.472 19.8803 128.551 19.8474 128.634 19.8474H142.378C142.419 19.8474 142.46 19.8556 142.499 19.8717C142.537 19.8877 142.571 19.9111 142.6 19.9407C142.629 19.9702 142.652 20.0053 142.668 20.0437C142.683 20.0822 142.691 20.1234 142.69 20.1648L142.647 23.8603C142.647 23.9022 142.638 23.9437 142.622 23.9823C142.606 24.0208 142.582 24.0557 142.552 24.0848C142.522 24.1139 142.486 24.1367 142.447 24.1517C142.408 24.1668 142.366 24.1738 142.324 24.1723L138.187 24.0809C138.146 24.0802 138.105 24.0877 138.066 24.1031C138.028 24.1184 137.993 24.1413 137.963 24.1703C137.934 24.1994 137.91 24.234 137.894 24.2722C137.878 24.3104 137.87 24.3514 137.87 24.3929Z" fill="#B2B2B2"/>
</svg>
