<svg width="184" height="63" viewBox="0 0 184 63" fill="none" xmlns="http://www.w3.org/2000/svg">
<path d="M54.9695 23.6032C56.7339 19.5096 62.1239 18.9233 65.9862 18.8318C70.6877 18.7189 77.6107 20.1605 77.6107 26.2229C77.6072 29.4038 77.6 32.583 77.5892 35.7603C77.582 37.3956 77.4224 38.5826 77.1105 39.3214C75.5021 43.1353 70.2573 43.8507 66.6855 43.8023C63.3987 43.7593 61.3332 43.8238 58.8802 42.8986C55.7925 41.7367 54.2863 39.5383 54.3617 36.3036C54.4262 33.5351 54.419 30.8383 54.3401 28.2132C54.2827 26.2408 54.4925 24.7042 54.9695 23.6032ZM71.2059 26.3591C71.2046 25.633 70.9149 24.937 70.4006 24.4245C69.8862 23.9119 69.1893 23.6246 68.4631 23.6259L63.568 23.6344C62.8419 23.6357 62.1459 23.9254 61.6334 24.4397C61.1208 24.9541 60.8335 25.651 60.8347 26.3772L60.8525 36.5762C60.8538 37.3024 61.1435 37.9983 61.6578 38.5109C62.1722 39.0235 62.8692 39.3108 63.5953 39.3095L68.4904 39.3009C69.2166 39.2997 69.9125 39.01 70.4251 38.4956C70.9377 37.9813 71.2249 37.2843 71.2237 36.5582L71.2059 26.3591Z" fill="#B2B2B2"/>
<path d="M85.5136 27.6639L85.7019 43.2207C85.7019 43.4036 85.6122 43.504 85.4329 43.5219C83.6183 43.712 81.8019 43.7013 79.9838 43.4897C79.8331 43.4717 79.7578 43.3857 79.7578 43.2315L79.7793 19.3637C79.7793 19.2956 79.8134 19.2615 79.8815 19.2615L87.8643 19.2185C88.0056 19.2172 88.1437 19.26 88.2595 19.341C88.3752 19.422 88.4628 19.5372 88.5098 19.6704L93.7976 34.7968C94.02 35.4387 94.2782 35.4531 94.5723 34.8398C94.965 34.0168 95.0134 32.8495 95.2931 32.0157C96.6881 27.802 98.1298 23.6349 99.618 19.5144C99.6498 19.4292 99.7064 19.3557 99.7805 19.3038C99.8545 19.2519 99.9423 19.224 100.032 19.2239L107.504 19.2131C107.708 19.2131 107.811 19.3171 107.811 19.5251L107.805 43.2476C107.805 43.3282 107.776 43.4058 107.722 43.4647C107.668 43.5237 107.594 43.5595 107.515 43.565C105.804 43.6833 104.102 43.6726 102.41 43.5327C102.23 43.5184 102.141 43.4215 102.141 43.2422C102.094 37.8988 102.146 33.1956 102.297 29.1325C102.372 27.1206 102.082 27.0668 101.425 28.9711L96.5142 43.2207C96.4496 43.4108 96.3169 43.5166 96.1161 43.5381C94.5992 43.721 93.102 43.6941 91.6245 43.4574C91.4452 43.4287 91.3268 43.3301 91.2694 43.1615C90.2115 40.0523 89.123 36.9664 88.0042 33.9038C87.3587 32.1341 86.8907 29.5897 85.8632 27.5779C85.623 27.1117 85.5064 27.1403 85.5136 27.6639Z" fill="#B2B2B2"/>
<path d="M116.703 19.5355L116.853 43.3441C116.853 43.4197 116.823 43.4922 116.77 43.5457C116.716 43.5992 116.644 43.6292 116.568 43.6292H110.904C110.828 43.6292 110.756 43.5992 110.702 43.5457C110.649 43.4922 110.619 43.4197 110.619 43.3441L110.629 19.4441C110.629 19.4062 110.637 19.3687 110.652 19.3337C110.666 19.2988 110.688 19.2671 110.715 19.2406C110.742 19.214 110.774 19.1931 110.809 19.1791C110.844 19.1651 110.882 19.1583 110.92 19.159L116.423 19.2505C116.497 19.2519 116.569 19.2825 116.621 19.3358C116.673 19.3891 116.703 19.4609 116.703 19.5355Z" fill="#B2B2B2"/>
<path d="M120.64 20.3757C120.669 19.9884 120.511 19.7051 120.166 19.5258C119.948 19.4146 119.959 19.3357 120.199 19.2891C120.801 19.1815 121.397 19.1654 121.985 19.2407C122.372 19.2945 122.374 19.359 121.99 19.4343C121.854 19.4594 121.723 19.5114 121.597 19.5903C121.517 19.6411 121.451 19.712 121.407 19.796C121.363 19.88 121.341 19.9741 121.345 20.0691L121.409 22.7695C121.413 22.981 121.312 23.1173 121.108 23.1783L120.941 23.2267C120.923 23.2324 120.905 23.2341 120.886 23.2319C120.868 23.2297 120.85 23.2235 120.834 23.2138C120.818 23.2041 120.805 23.1911 120.795 23.1757C120.784 23.1603 120.777 23.1428 120.774 23.1245C120.609 22.2889 120.565 21.3727 120.64 20.3757Z" fill="#B2B2B2"/>
<path d="M124.087 21.5595L123.845 23.1141C123.839 23.1547 123.818 23.1919 123.787 23.2194C123.755 23.2469 123.715 23.2629 123.673 23.2647L123.452 23.2701C123.41 23.2709 123.368 23.2623 123.33 23.2449C123.291 23.2275 123.257 23.2018 123.23 23.1697C123.203 23.1376 123.184 23.0999 123.174 23.0595C123.164 23.0192 123.164 22.9771 123.173 22.9366C123.467 21.6276 123.49 20.4926 123.242 19.5315C123.196 19.3379 123.271 19.2303 123.468 19.2088L124.06 19.1335C124.322 19.1048 124.478 19.2195 124.528 19.4777C124.664 20.1627 124.589 20.6899 124.302 21.0592C124.187 21.2063 124.116 21.373 124.087 21.5595Z" fill="#B2B2B2"/>
<path d="M126.832 21.365C126.796 21.2825 126.728 21.2162 126.627 21.166C126.516 21.1086 126.462 21.0189 126.466 20.897L126.536 19.606C126.544 19.4849 126.596 19.3709 126.682 19.2856C126.768 19.2003 126.883 19.1497 127.004 19.1434C127.119 19.1398 127.233 19.1505 127.348 19.1756C127.7 19.251 127.816 19.459 127.698 19.7996C127.361 20.7679 127.366 21.7702 127.714 22.8066C127.722 22.8298 127.721 22.8547 127.714 22.8772C127.706 22.8996 127.691 22.9184 127.671 22.9304L127.418 23.1025C127.325 23.1635 127.267 23.1402 127.246 23.0326C127.07 22.1791 126.932 21.6232 126.832 21.365Z" fill="#B2B2B2"/>
<path d="M125.744 21.554L125.379 21.5751C125.186 21.5862 125.039 21.7516 125.05 21.9445L125.098 22.783C125.109 22.9759 125.275 23.1233 125.468 23.1122L125.833 23.0911C126.026 23.08 126.173 22.9146 126.162 22.7216L126.114 21.8832C126.103 21.6903 125.937 21.5429 125.744 21.554Z" fill="#B2B2B2"/>
</svg>
