<svg width="184" height="63" viewBox="0 0 184 63" fill="none" xmlns="http://www.w3.org/2000/svg">
<path d="M137.357 15.3206C138.76 14.277 140.112 13.1402 141.413 11.9101C141.453 11.873 141.502 11.8484 141.555 11.8392C141.608 11.8301 141.663 11.8368 141.713 11.8587C141.762 11.8805 141.804 11.9164 141.833 11.9619C141.862 12.0075 141.877 12.0605 141.876 12.1145C141.88 21.5175 141.88 32.05 141.876 43.7122C141.876 46.7838 140.413 47.1173 137.648 47.1173C106.577 47.1209 75.5086 47.1209 44.4417 47.1173C42.3061 47.1173 40.3965 46.4825 40.3857 44.1157C40.3499 35.6954 40.3373 27.2643 40.348 18.8225C40.3534 16.2135 42.715 15.611 44.9958 15.611C75.514 15.6003 106.016 15.5985 136.502 15.6057C136.809 15.6058 137.11 15.5058 137.357 15.3206ZM66.6774 22.1602C66.6773 22.0981 66.6649 22.0365 66.6411 21.9791C66.6172 21.9217 66.5823 21.8696 66.5382 21.8257C66.4942 21.7818 66.4419 21.7471 66.3844 21.7234C66.327 21.6997 66.2654 21.6875 66.2032 21.6877L63.9978 21.6915C63.9356 21.6916 63.8741 21.704 63.8167 21.7279C63.7593 21.7518 63.7072 21.7867 63.6633 21.8307C63.6194 21.8748 63.5846 21.927 63.5609 21.9845C63.5372 22.042 63.525 22.1035 63.5251 22.1657L63.5508 36.8403C63.5509 36.9025 63.5632 36.964 63.5871 37.0214C63.611 37.0788 63.6461 37.1309 63.6901 37.1748C63.7341 37.2187 63.7863 37.2535 63.8437 37.2771C63.9012 37.3008 63.9628 37.313 64.025 37.3129L66.2305 37.309C66.2927 37.3089 66.3542 37.2965 66.4116 37.2726C66.469 37.2488 66.5211 37.2138 66.565 37.1698C66.6089 37.1257 66.6436 37.0735 66.6673 37.016C66.691 36.9586 66.7032 36.897 66.703 36.8348L66.6774 22.1602ZM92.5752 24.32C92.6761 24.3176 92.7755 24.2943 92.867 24.2516C92.9585 24.2089 93.0401 24.1478 93.1068 24.072C93.1735 23.9962 93.2237 23.9074 93.2544 23.8112C93.2851 23.7151 93.2957 23.6136 93.2853 23.5132L93.1616 22.3297C93.1426 22.1462 93.055 21.9766 92.9164 21.8549C92.7777 21.7332 92.5982 21.6684 92.4138 21.6735L90.9991 21.7111C90.8348 21.7146 90.6765 21.7733 90.5497 21.8777C90.4228 21.9821 90.3348 22.1262 90.2998 22.2867L90.047 23.4755C90.0233 23.5837 90.0245 23.6959 90.0505 23.8035C90.0765 23.9112 90.1266 24.0115 90.1971 24.097C90.2675 24.1825 90.3565 24.2508 90.4572 24.2969C90.5579 24.343 90.6677 24.3656 90.7785 24.3631L92.5752 24.32ZM82.8656 28.6288C82.8549 30.7877 82.8638 32.9466 82.8925 35.1054C82.9248 37.5691 86.0126 37.5745 87.7985 37.3271C88.1284 37.284 88.2807 37.0957 88.2556 36.7622L88.1535 35.3206C88.1391 35.1126 88.0297 34.9889 87.8253 34.9494L86.5397 34.6966C86.4175 34.6732 86.3071 34.6087 86.2269 34.5137C86.1466 34.4188 86.1013 34.2991 86.0985 34.1748L86.0125 28.5696C86.0089 28.3222 86.1308 28.1841 86.3783 28.1554L87.5509 28.0156C87.9418 27.969 88.1391 27.7502 88.1427 27.3593L88.1535 26.6654C88.1606 26.3139 87.9885 26.1257 87.6371 26.1006L86.346 26.0037C86.1236 25.9858 86.0107 25.8657 86.0071 25.6433L85.9695 23.411C85.9675 23.2615 85.9146 23.1173 85.8196 23.0027C85.7246 22.8881 85.5932 22.81 85.4477 22.7816C84.9098 22.6668 84.3682 22.6202 83.8231 22.6417C83.1884 22.6668 82.8728 22.9968 82.8764 23.6315L82.8925 25.5895C82.8925 25.7904 82.7921 25.9087 82.5913 25.9446L81.5423 26.1382C81.4431 26.1561 81.3504 26.2004 81.2738 26.2666C81.1972 26.3329 81.1394 26.4185 81.1066 26.5148C80.956 26.9523 80.9794 27.379 81.1766 27.795C81.277 28.003 81.4419 28.125 81.6714 28.1608L82.5859 28.3007C82.776 28.3294 82.8692 28.4387 82.8656 28.6288ZM53.2959 36.6385C53.6832 36.7533 54.04 36.8878 54.3664 37.042C56.8623 38.2254 59.4605 37.3217 60.5633 34.9387C61.6445 32.5987 61.5208 28.7794 59.3368 26.8429C57.7696 25.4551 55.8062 25.3511 53.4465 26.5309C53.2027 26.6493 52.9606 26.5775 52.7203 26.3157C52.6408 26.2294 52.5442 26.1608 52.4366 26.1144C52.3291 26.068 52.2131 26.045 52.0963 26.0468L50.0791 26.0737C49.8855 26.0773 49.7886 26.1759 49.7886 26.3695L49.7725 40.6514C49.7725 40.8141 49.8371 40.97 49.9521 41.085C50.0671 41.2001 50.2231 41.2647 50.3858 41.2647L52.4782 41.27C52.5594 41.2701 52.6398 41.2538 52.7146 41.2223C52.7895 41.1907 52.8572 41.1445 52.9139 41.0863C52.9705 41.0282 53.015 40.9592 53.0445 40.8836C53.0741 40.808 53.0883 40.7272 53.0862 40.646L52.9893 36.8752C52.9821 36.6565 53.0843 36.5776 53.2959 36.6385ZM76.2653 28.7848C76.38 29.0825 76.4052 29.3317 76.3406 29.5325C76.2575 29.7866 76.0967 30.0082 75.8806 30.1664C75.6645 30.3246 75.404 30.4115 75.1357 30.4147C72.8764 30.447 68.6268 31.0818 68.7828 34.1802C68.9818 38.0533 73.027 37.9941 75.7704 36.9128C75.939 36.8447 76.1057 36.8465 76.2707 36.9182C77.2855 37.3593 78.3471 37.4669 79.4553 37.241C79.6489 37.2015 79.7278 37.085 79.6919 36.8913C79.3692 35.0301 79.2867 32.8372 79.4445 30.3125C79.5843 28.0371 79.1271 26.504 76.7118 25.9607C73.8931 25.326 70.1868 25.6756 69.2131 28.8816C69.0876 29.2976 69.24 29.5397 69.6703 29.6078C70.3732 29.7154 71.1389 29.6473 71.9673 29.4034C72.1394 29.3532 72.2775 29.2528 72.3815 29.1022C73.2888 27.7968 74.4256 27.5171 75.792 28.263C76.0215 28.3885 76.1792 28.5625 76.2653 28.7848ZM99.2992 36.66C99.8641 36.8322 100.467 37.2302 100.945 37.3593C107.976 39.2636 109.423 27.9188 103.909 26.0037C102.389 25.4766 100.976 25.6344 99.6704 26.4771C99.5819 26.533 99.4806 26.5653 99.3761 26.571C99.2716 26.5766 99.1674 26.5554 99.0734 26.5094C98.1015 26.0253 97.0543 25.8908 95.9318 26.1059C95.7669 26.1382 95.6844 26.2368 95.6844 26.4018L95.7006 40.6138C95.7006 41.0405 95.9139 41.2557 96.3407 41.2593L98.3579 41.2862C98.8026 41.2934 99.0231 41.0728 99.0195 40.6245L98.9926 36.8913C98.989 36.6762 99.0912 36.5991 99.2992 36.66ZM129.181 33.6477C129.466 34.234 129.24 34.8472 128.632 35.1431C127.148 35.8567 125.982 35.5035 125.136 34.0834C125.046 33.9328 124.917 33.8287 124.748 33.7714C124.074 33.5454 123.305 33.4809 122.441 33.5777C122.387 33.583 122.335 33.599 122.288 33.6248C122.241 33.6507 122.2 33.6857 122.167 33.7279C122.134 33.7701 122.109 33.8186 122.096 33.8705C122.082 33.9223 122.078 33.9764 122.086 34.0296C122.629 37.8973 127.465 38.0748 130.214 37.0366C133.097 35.95 133.506 31.8295 130.219 30.8504C128.794 30.4201 126.68 30.248 125.577 29.2636C125.497 29.1913 125.437 29.1003 125.401 28.999C125.365 28.8977 125.355 28.7892 125.372 28.6833C125.388 28.5775 125.431 28.4777 125.496 28.3931C125.561 28.3084 125.646 28.2415 125.744 28.1985C126.879 27.6928 128.003 27.7735 128.901 28.6342C129.722 29.4232 130.739 29.6509 131.951 29.3174C132.029 29.2961 132.096 29.245 132.137 29.1748C132.178 29.1046 132.19 29.0208 132.172 28.9408C131.365 25.5411 127.433 25.2399 124.582 26.1167C123.176 26.5506 122.439 27.5548 122.371 29.1291C122.306 30.5851 122.909 31.5067 124.178 31.894C125.656 32.3495 127.137 32.778 128.622 33.1797C128.743 33.2133 128.856 33.2725 128.952 33.3533C129.049 33.434 129.127 33.5344 129.181 33.6477ZM116.739 36.6762C117.228 37.5476 118.928 37.4024 119.724 37.2517C119.809 37.2355 119.886 37.1906 119.941 37.1248C119.996 37.059 120.026 36.9765 120.025 36.8913L120.015 26.4717C120.015 26.1849 119.871 26.0414 119.584 26.0414L117.083 26.0575C116.807 26.0575 116.669 26.1956 116.669 26.4717L116.647 33.1259C116.647 33.435 116.568 33.7392 116.416 34.0095C116.265 34.2798 116.046 34.5071 115.781 34.6697C115.308 34.9602 114.879 35.0911 114.496 35.0624C113.273 34.962 112.629 34.2967 112.564 33.0667C112.428 30.3878 112.399 28.1895 112.478 26.4717C112.493 26.1741 112.351 26.0271 112.053 26.0306L109.67 26.0791C109.394 26.0862 109.262 26.2279 109.272 26.504C109.387 28.8207 109.437 31.2682 109.423 33.8467C109.407 36.9613 112.032 38.1501 114.711 37.3647C115.265 37.2033 115.77 36.8268 116.325 36.5471C116.504 36.4574 116.642 36.5005 116.739 36.6762ZM93.2184 26.461C93.2183 26.4144 93.209 26.3683 93.191 26.3253C93.173 26.2823 93.1467 26.2432 93.1136 26.2104C93.0805 26.1775 93.0413 26.1515 92.9982 26.1338C92.9551 26.1161 92.9089 26.1071 92.8623 26.1072L90.5061 26.1155C90.4595 26.1156 90.4133 26.125 90.3703 26.143C90.3273 26.161 90.2882 26.1873 90.2554 26.2203C90.2225 26.2534 90.1965 26.2927 90.1788 26.3358C90.1611 26.3789 90.1521 26.4251 90.1523 26.4717L90.1891 36.9827C90.1892 37.0294 90.1985 37.0755 90.2165 37.1185C90.2345 37.1615 90.2608 37.2006 90.2939 37.2334C90.3269 37.2663 90.3662 37.2923 90.4093 37.31C90.4524 37.3277 90.4986 37.3367 90.5452 37.3365L92.9014 37.3283C92.948 37.3281 92.9942 37.3188 93.0372 37.3008C93.0802 37.2828 93.1193 37.2565 93.1521 37.2234C93.185 37.1904 93.211 37.1511 93.2287 37.108C93.2464 37.0649 93.2554 37.0187 93.2552 36.972L93.2184 26.461Z" fill="#B2B2B2"/>
<path d="M52.8709 31.6902C52.8953 33.6865 54.0903 35.2904 55.54 35.2727C56.9897 35.255 58.1451 33.6224 58.1207 31.6261C58.0963 29.6298 56.9013 28.0258 55.4516 28.0436C54.002 28.0613 52.8465 29.6939 52.8709 31.6902Z" fill="#B2B2B2"/>
<path d="M98.8637 31.6996C98.8845 33.69 100.065 35.2913 101.499 35.2763C102.934 35.2613 104.081 33.6356 104.06 31.6452C104.039 29.6548 102.859 28.0535 101.424 28.0685C99.9891 28.0835 98.8428 29.7092 98.8637 31.6996Z" fill="#B2B2B2"/>
<path d="M75.1846 35.2298L73.1567 35.4503C72.9767 35.4708 72.7954 35.4262 72.6454 35.3246C72.4954 35.223 72.3868 35.071 72.3391 34.8963L72.0808 33.928C72.0297 33.7405 72.0527 33.5405 72.1448 33.3693C72.2368 33.1981 72.3911 33.0689 72.5758 33.0081L75.4428 32.0668C75.5767 32.0223 75.7205 32.0161 75.8577 32.0488C75.9949 32.0814 76.1203 32.1518 76.2198 32.2518C76.3192 32.3518 76.3888 32.4776 76.4207 32.615C76.4526 32.7524 76.4456 32.896 76.4004 33.0297L75.8195 34.7187C75.7733 34.8555 75.689 34.9762 75.5765 35.0667C75.4641 35.1573 75.3281 35.2138 75.1846 35.2298Z" fill="#B2B2B2"/>
</svg>
