<svg width="184" height="63" viewBox="0 0 184 63" fill="none" xmlns="http://www.w3.org/2000/svg">
<path d="M138.543 15.3351L174.155 31.5384C174.194 31.5561 174.228 31.5848 174.251 31.621C174.274 31.6572 174.287 31.6994 174.287 31.7425C174.287 31.7856 174.274 31.8277 174.251 31.8639C174.228 31.9001 174.194 31.9288 174.155 31.9466L138.603 48.2743C138.568 48.2903 138.531 48.2973 138.493 48.2948C138.455 48.2922 138.419 48.2802 138.387 48.2599C138.355 48.2395 138.329 48.2115 138.311 48.1783C138.293 48.1451 138.284 48.108 138.284 48.0702L138.229 15.5392C138.229 15.5021 138.239 15.4657 138.257 15.4331C138.274 15.4005 138.3 15.3729 138.331 15.3527C138.362 15.3324 138.398 15.3202 138.435 15.3172C138.472 15.3141 138.509 15.3203 138.543 15.3351ZM150.4 31.3542C150.41 28.1053 150.41 24.8546 150.4 21.6024C150.4 21.4862 150.394 21.39 150.38 21.3136C150.371 21.2584 150.349 21.206 150.316 21.1606C150.283 21.1152 150.24 21.078 150.191 21.052C150.141 21.0259 150.086 21.0118 150.03 21.0105C149.974 21.0093 149.918 21.021 149.868 21.0448L139.006 25.9282C138.938 25.9591 138.88 26.0088 138.84 26.0715C138.8 26.1342 138.778 26.2071 138.778 26.2817C138.778 26.3562 138.8 26.4292 138.84 26.4918C138.88 26.5545 138.938 26.6042 139.006 26.6351C142.726 28.3176 146.435 29.9786 150.132 31.618C150.208 31.6512 150.274 31.6595 150.331 31.6429C150.404 31.623 150.465 31.5865 150.515 31.5334C150.531 31.5135 150.525 31.5019 150.495 31.4986C150.482 31.4952 150.468 31.4903 150.455 31.4836C150.419 31.4637 150.4 31.4206 150.4 31.3542ZM162.133 37.1486C162.181 37.1704 162.233 37.1799 162.285 37.1762C162.337 37.1725 162.387 37.1558 162.431 37.1274C162.474 37.0991 162.51 37.0602 162.535 37.0142C162.56 36.9683 162.572 36.9169 162.571 36.8648L162.586 26.7496C162.586 26.6986 162.573 26.6485 162.548 26.6038C162.523 26.5592 162.488 26.5213 162.445 26.4937C162.402 26.4661 162.353 26.4496 162.302 26.4456C162.251 26.4416 162.2 26.4502 162.153 26.4708L151.057 31.5085C151.003 31.533 150.957 31.5725 150.925 31.6224C150.893 31.6723 150.876 31.7304 150.876 31.7898C150.876 31.8492 150.893 31.9073 150.925 31.9572C150.957 32.007 151.003 32.0466 151.057 32.071L162.133 37.1486ZM149.932 42.5945C149.986 42.6187 150.044 42.6291 150.102 42.6248C150.161 42.6205 150.217 42.6017 150.266 42.5699C150.315 42.5382 150.355 42.4946 150.383 42.4433C150.411 42.3919 150.426 42.3343 150.425 42.2759L150.41 32.295C150.41 32.237 150.395 32.1801 150.367 32.1293C150.338 32.0786 150.298 32.0357 150.249 32.0046C150.2 31.9734 150.144 31.955 150.086 31.951C150.028 31.9469 149.97 31.9574 149.918 31.9814L138.976 36.9893C138.916 37.0177 138.865 37.0627 138.83 37.119C138.795 37.1753 138.776 37.2405 138.777 37.307C138.777 37.3734 138.797 37.4383 138.833 37.494C138.869 37.5498 138.92 37.594 138.981 37.6215L149.932 42.5945Z" fill="#B2B2B2"/>
<path d="M14.1438 33.7396C14.0741 35.3989 14.0757 36.9687 14.1487 38.4488C14.162 38.7475 14.0193 38.9001 13.7206 38.9067L12.2919 38.9316C11.9866 38.935 11.834 38.784 11.834 38.4786L11.839 23.8534C11.839 23.6709 11.9286 23.5879 12.1078 23.6045C12.3168 23.6244 12.5558 23.7439 12.7549 23.7389C17.7694 23.6028 21.7783 23.5613 24.7817 23.6144C25.8237 23.631 26.6069 24.0044 27.1313 24.7345C27.4764 25.2157 27.654 25.979 27.6639 27.0243C27.6772 28.3385 27.6689 29.6577 27.639 30.9818C27.6234 31.6395 27.3512 32.2649 26.8805 32.7244C26.4098 33.184 25.778 33.4411 25.1202 33.4409H14.4524C14.2533 33.4409 14.1504 33.5405 14.1438 33.7396ZM25.0355 31.1909C25.0807 31.1909 25.1253 31.182 25.167 31.1648C25.2087 31.1475 25.2465 31.1222 25.2784 31.0903C25.3103 31.0584 25.3356 31.0205 25.3529 30.9789C25.3701 30.9372 25.379 30.8925 25.379 30.8474L25.3591 26.2926C25.3591 26.2023 25.3236 26.1157 25.2603 26.0514C25.1969 25.9872 25.1108 25.9504 25.0206 25.9491L14.3479 25.8695C14.3019 25.8694 14.2564 25.8786 14.2141 25.8965C14.1717 25.9144 14.1334 25.9406 14.1014 25.9735C14.0694 26.0065 14.0443 26.0456 14.0276 26.0884C14.0109 26.1312 14.003 26.1769 14.0044 26.2229L14.1736 30.9072C14.1762 30.9965 14.2135 31.0813 14.2777 31.1436C14.3418 31.2059 14.4277 31.2407 14.5171 31.2407L25.0355 31.1909Z" fill="#B2B2B2"/>
<path d="M31.2526 36.3373C31.2493 36.5464 31.3522 36.6493 31.5613 36.646L44.2103 36.5862C44.6848 36.5862 44.9271 36.8218 44.9371 37.2931L44.9619 38.2887C44.9686 38.7267 44.7529 38.9458 44.3148 38.9458L29.0573 38.9358C29.0177 38.9358 28.9798 38.9201 28.9517 38.8921C28.9237 38.8641 28.908 38.8261 28.908 38.7865C28.918 34.7278 28.9611 30.7006 29.0374 26.705C29.0441 26.3631 28.9794 25.5285 28.8433 24.201C28.8068 23.836 28.9711 23.6468 29.3361 23.6336L30.7548 23.5888C31.1 23.5755 31.2725 23.7414 31.2725 24.0865L31.2526 36.3373Z" fill="#B2B2B2"/>
<path d="M48.5067 33.898L48.6162 38.5574C48.6228 38.7863 48.5117 38.9058 48.2827 38.9158L46.8092 38.9705C46.4906 38.9838 46.3297 38.8328 46.3263 38.5175C46.2567 34.7542 46.2434 30.9444 46.2865 27.0881C46.3064 25.2612 46.854 23.8176 48.8054 23.6683C50.4016 23.5421 54.0074 23.5206 59.6225 23.6035C60.4422 23.6135 61.0296 23.8159 61.3847 24.2109C61.9323 24.8115 62.2061 25.603 62.2061 26.5853C62.2127 32.2138 62.1596 36.2376 62.0468 38.6569C62.0449 38.7098 62.0244 38.7603 61.9888 38.7994C61.9533 38.8386 61.905 38.8639 61.8526 38.871C61.1823 38.9539 60.6098 38.9158 60.1352 38.7565C60.0853 38.7392 60.0418 38.707 60.0106 38.6643C59.9795 38.6216 59.9622 38.5704 59.961 38.5175L59.8664 34.0423C59.8598 33.7204 59.6972 33.5595 59.3786 33.5595L48.8352 33.5645C48.6129 33.5645 48.5034 33.6756 48.5067 33.898ZM59.8614 26.217C59.8614 26.1364 59.8294 26.0592 59.7725 26.0023C59.7156 25.9453 59.6383 25.9133 59.5578 25.9133H48.8651C48.7846 25.9133 48.7073 25.9453 48.6504 26.0023C48.5934 26.0592 48.5615 26.1364 48.5615 26.217V31.0157C48.5615 31.0963 48.5934 31.1735 48.6504 31.2304C48.7073 31.2874 48.7846 31.3194 48.8651 31.3194H59.5578C59.6383 31.3194 59.7156 31.2874 59.7725 31.2304C59.8294 31.1735 59.8614 31.0963 59.8614 31.0157V26.217Z" fill="#B2B2B2"/>
<path d="M70.9718 30.3925C71.068 30.4234 71.1712 30.4242 71.2674 30.3948C71.3636 30.3654 71.4481 30.3073 71.5095 30.2282C73.0062 28.3034 74.6555 26.2691 76.4576 24.1252C76.5968 23.9611 76.7696 23.8287 76.9645 23.7368C77.1594 23.645 77.3719 23.5958 77.5876 23.5926L79.0561 23.5826C79.5638 23.5793 79.6601 23.7751 79.3448 24.17C77.2806 26.7752 75.2463 29.3803 73.2418 31.9854C72.661 32.7454 72.3491 33.434 72.3059 34.0513C72.2031 35.5679 72.1749 37.0165 72.2213 38.3971C72.2233 38.4624 72.212 38.5274 72.1882 38.5883C72.1643 38.6492 72.1283 38.7048 72.0824 38.7517C72.0364 38.7986 71.9814 38.8358 71.9206 38.8613C71.8598 38.8867 71.7945 38.8999 71.7285 38.8998L70.479 38.8949C70.1671 38.8949 70.0061 38.7372 69.9962 38.422L69.8817 33.6879C69.8753 33.3194 69.7496 32.9616 69.5232 32.6674L62.8976 24.1252C62.6188 23.7668 62.7068 23.5876 63.1614 23.5876L64.5851 23.5926C65.0763 23.5926 65.4778 23.7801 65.7898 24.1551C67.3661 26.0368 68.984 28.0246 70.6433 30.1187C70.7628 30.268 70.8723 30.3593 70.9718 30.3925Z" fill="#B2B2B2"/>
<path d="M93.423 33.0014C93.4197 32.623 93.2289 32.4339 92.8505 32.4339L82.1479 32.4438C81.5577 32.4438 80.9914 32.2104 80.5727 31.7945C80.154 31.3785 79.9167 30.8138 79.9128 30.2236C79.9062 29.1982 79.9045 28.0533 79.9078 26.7889C79.9128 24.8922 80.4355 23.7125 82.4665 23.6627C86.5517 23.5598 90.2719 23.603 93.6271 23.7921C94.8849 23.8618 95.5934 24.6732 95.7527 26.2263C95.8191 26.8868 95.5237 27.1738 94.8666 27.0875L94.1299 26.993C93.944 26.9697 93.793 26.8818 93.6769 26.7291C93.0895 25.9426 92.3926 26.1915 91.5861 26.1318C88.6724 25.9227 85.747 25.8497 82.81 25.9127C82.4615 25.9227 82.2889 26.1019 82.2923 26.4503L82.3022 29.5666C82.3029 29.6424 82.3184 29.7174 82.3481 29.7872C82.3777 29.857 82.4208 29.9203 82.4749 29.9734C82.5289 30.0266 82.593 30.0686 82.6633 30.097C82.7336 30.1254 82.8088 30.1397 82.8846 30.139C86.4289 30.0992 89.6348 30.0843 92.5021 30.0942C94.636 30.1042 95.751 31.1263 95.8473 33.1606C95.9269 34.81 95.8506 36.1192 95.6183 37.0883C95.1852 38.8903 93.6769 38.8057 92.0889 38.8505C90.642 38.887 88.2028 38.9152 84.7713 38.9351C83.3675 38.945 81.8243 39.1193 80.7889 38.1983C80.082 37.5645 79.8033 36.7099 79.9526 35.6347C79.9759 35.4688 80.0704 35.3692 80.2364 35.336C81.9936 35.0025 82.0434 36.4859 83.2281 36.5108C86.5368 36.5805 89.7559 36.6237 92.8854 36.6402C93.277 36.6436 93.4711 36.4494 93.4678 36.0578L93.423 33.0014Z" fill="#B2B2B2"/>
<path d="M113.291 36.1469C113.291 36.5149 113.217 36.8792 113.076 37.219C112.935 37.5588 112.728 37.8674 112.467 38.1272C112.206 38.387 111.897 38.5928 111.557 38.7331C111.216 38.8734 110.852 38.9452 110.484 38.9446L100.11 38.9265C99.7417 38.9258 99.3774 38.8527 99.0376 38.7113C98.6978 38.5698 98.3892 38.3628 98.1294 38.1021C97.8696 37.8414 97.6637 37.5321 97.5235 37.1919C97.3832 36.8516 97.3114 36.487 97.312 36.119L97.329 26.402C97.3296 26.0339 97.4028 25.6696 97.5442 25.3298C97.6856 24.9901 97.8926 24.6815 98.1533 24.4217C98.414 24.1619 98.7233 23.956 99.0636 23.8157C99.4039 23.6755 99.7684 23.6036 100.136 23.6043L110.51 23.6224C110.879 23.623 111.243 23.6962 111.583 23.8376C111.922 23.979 112.231 24.186 112.491 24.4467C112.751 24.7074 112.957 25.0167 113.097 25.357C113.237 25.6973 113.309 26.0618 113.308 26.4299L113.291 36.1469ZM110.921 26.1672C110.921 26.113 110.911 26.0592 110.89 26.0092C110.869 25.9591 110.838 25.9136 110.8 25.8753C110.762 25.837 110.716 25.8066 110.666 25.7859C110.616 25.7652 110.562 25.7547 110.508 25.7548L100.134 25.7729C100.079 25.773 100.026 25.7837 99.9755 25.8046C99.9254 25.8254 99.8799 25.856 99.8416 25.8944C99.8033 25.9328 99.7729 25.9784 99.7522 26.0286C99.7316 26.0788 99.721 26.1325 99.7211 26.1868L99.7386 36.2223C99.7387 36.2766 99.7495 36.3303 99.7703 36.3804C99.7912 36.4305 99.8217 36.476 99.8601 36.5143C99.8985 36.5526 99.9442 36.5829 99.9943 36.6036C100.044 36.6243 100.098 36.6349 100.153 36.6348L110.527 36.6167C110.581 36.6166 110.634 36.6058 110.685 36.585C110.735 36.5641 110.78 36.5336 110.818 36.4951C110.857 36.4567 110.887 36.4111 110.908 36.3609C110.929 36.3108 110.939 36.257 110.939 36.2028L110.921 26.1672Z" fill="#B2B2B2"/>
<path d="M128.478 35.0367L128.433 23.9757C128.433 23.7201 128.561 23.594 128.817 23.5974L130.534 23.6073C130.746 23.6106 130.853 23.7185 130.853 23.9309L130.813 38.6806C130.813 38.8631 130.721 38.9527 130.539 38.9494L128.284 38.9295C128.081 38.9262 127.914 38.8482 127.781 38.6955L117.661 27.1466C117.322 26.7584 117.153 26.8214 117.153 27.3358L117.188 38.5661C117.191 38.8017 117.075 38.9195 116.84 38.9195L115.187 38.9245C115.093 38.9245 115.003 38.8878 114.937 38.8225C114.871 38.7571 114.833 38.6685 114.833 38.5761L114.824 24.0105C114.823 23.9239 114.854 23.84 114.909 23.7736C114.965 23.7071 115.042 23.6623 115.127 23.6471C115.963 23.5044 116.823 23.526 117.706 23.7118C117.878 23.7484 118.021 23.833 118.134 23.9657L127.876 35.2607C128.277 35.7287 128.478 35.654 128.478 35.0367Z" fill="#B2B2B2"/>
</svg>
