<svg width="184" height="63" viewBox="0 0 184 63" fill="none" xmlns="http://www.w3.org/2000/svg">
<path d="M45.883 35.2841C45.9439 34.8215 46.2183 34.522 46.706 34.3858C46.8387 34.3499 46.9266 34.3965 46.9696 34.5256C47.1883 35.2141 47.0234 35.6068 46.4747 35.7037C46.3062 35.7288 46.2882 35.7969 46.4209 35.9081C46.5141 35.9834 46.6146 36.0461 46.7221 36.0964C47.3712 36.4119 47.3372 36.611 46.6199 36.6934C46.4478 36.715 46.2129 36.7329 45.9152 36.7472C45.6678 36.758 45.528 36.8853 45.4957 37.1292L45.4634 37.3928C45.4311 37.651 45.5459 37.7801 45.8077 37.7801L46.7275 37.7854C46.7985 37.7868 46.8677 37.8082 46.9276 37.8471C46.9875 37.8861 47.0355 37.9411 47.0664 38.006C47.235 38.3646 47.1561 38.6407 46.8297 38.8344C44.9793 39.921 42.8814 38.5762 41.1439 37.7908C40.9753 37.7191 40.8713 37.5936 40.8319 37.4143C40.5952 36.3545 40.6543 35.4186 41.6119 34.7354C42.7684 33.907 43.7797 33.4336 44.5704 32.1318C44.6858 31.9398 44.7367 31.7155 44.7157 31.4917C44.5382 29.808 44.0863 28.1189 46.1842 27.5164C48.4812 26.8602 49.1159 25.623 50.3424 23.9231C50.3648 23.8937 50.3782 23.8583 50.3806 23.8213C50.3831 23.7844 50.3746 23.7475 50.3562 23.7154C50.3379 23.6832 50.3104 23.6572 50.2774 23.6406C50.2443 23.6239 50.207 23.6174 50.1703 23.6219C49.3239 23.7079 48.4632 23.7707 47.5882 23.8102C45.6355 23.8962 44.6296 25.7951 43.5807 27.156C43.5231 27.2314 43.4459 27.2894 43.3575 27.3237C43.2691 27.3581 43.173 27.3674 43.0796 27.3508C42.9863 27.3341 42.8993 27.2921 42.8283 27.2292C42.7573 27.1664 42.7049 27.0853 42.6769 26.9947C42.0798 25.042 44.3553 24.5955 44.1132 23.1216C44.0236 22.5873 43.9715 22.0547 43.9572 21.524C43.95 21.3518 44.0325 21.2604 44.2047 21.2496L47.4484 21.0613C48.2839 21.0147 48.3449 20.7727 47.6312 20.3351C46.8315 19.851 45.6051 19.5605 43.9518 19.4637C43.8354 19.4571 43.7237 19.4142 43.6322 19.341C43.5407 19.2678 43.4739 19.1679 43.4408 19.0549L43.3978 18.9043C43.3888 18.8739 43.3875 18.8418 43.3938 18.8107C43.4002 18.7797 43.4141 18.7507 43.4342 18.7262C43.4544 18.7018 43.4803 18.6827 43.5096 18.6706C43.5388 18.6585 43.5706 18.6538 43.6022 18.6568C44.366 18.725 45.0384 18.716 45.6194 18.6299C45.9027 18.5869 45.9332 18.4757 45.7108 18.2964C43.8711 16.844 41.1385 17.2367 38.1745 17.2582C36.6145 17.269 35.7054 17.9145 34.3176 18.2641C34.2273 18.2869 34.1481 18.3404 34.0939 18.4153C34.0397 18.4902 34.0141 18.5815 34.0217 18.673C34.0325 18.8272 34.1114 18.9186 34.2584 18.9473C34.9075 19.0728 35.6893 19.1087 36.6038 19.0549C36.6463 19.0532 36.6878 19.0673 36.7198 19.0943C36.7518 19.1213 36.7719 19.1591 36.7759 19.2001L36.7921 19.3669C36.8017 19.4557 36.7776 19.5447 36.7246 19.6157C36.6715 19.6867 36.5937 19.7344 36.5069 19.7488L32.2789 20.4589C32.1713 20.4768 32.1211 20.5414 32.1282 20.6525L32.139 20.8139C32.139 20.8354 32.1498 20.8462 32.1713 20.8462C33.3583 20.9 34.5543 21.0004 35.7592 21.1474C35.9311 21.169 36.0889 21.2517 36.2013 21.3791C36.3138 21.5065 36.3729 21.6695 36.3671 21.836C36.3599 21.9615 36.2972 22.0726 36.1788 22.1695C36.1401 22.2015 36.0946 22.2249 36.0454 22.2379C35.9962 22.2509 35.9445 22.2532 35.8937 22.2448C35.7216 22.2197 35.5566 22.2322 35.3988 22.2824C35.1657 22.3542 35.1245 22.4869 35.2751 22.6805C35.3361 22.763 35.4132 22.8275 35.5064 22.8742C35.6534 22.9566 35.7628 23.0732 35.8345 23.2238C36.1788 23.9303 36.6701 24.5184 37.3084 24.9882C37.4304 25.0779 37.4949 25.1998 37.5021 25.354L37.5505 27.2744C37.5541 27.4465 37.4734 27.5129 37.3084 27.4734C36.8494 27.3694 36.5446 27.1291 36.394 26.7526C35.9421 25.6265 35.2895 24.7605 34.436 24.1544C33.0535 23.17 31.6334 24.063 30.2348 22.6698C29.9515 22.39 29.7811 22.4456 29.7237 22.8365L29.6753 23.1915C29.6179 23.5753 29.7327 23.8998 30.0196 24.1652C31.1008 25.1765 32.1767 26.8925 33.7582 27.2529C34.3391 27.3856 34.8233 27.6258 35.2106 27.9737C35.9242 28.6228 36.3187 29.4602 36.394 30.4858C36.4047 30.6615 36.4926 30.7816 36.6576 30.8462C37.5505 31.2012 38.2498 31.7338 39.202 31.7714C40.4786 31.8216 41.6585 31.6208 42.7415 31.169C42.8151 31.1377 42.8957 31.1266 42.975 31.1367C43.0544 31.1468 43.1296 31.1777 43.1931 31.2264C43.2565 31.2751 43.3059 31.3397 43.3362 31.4138C43.3665 31.4878 43.3766 31.5685 43.3655 31.6477C43.2651 32.3757 42.8921 32.7469 42.2466 32.7612C41.0201 32.7899 39.7937 32.7899 38.5672 32.7612C37.4053 32.7289 36.6845 32.191 36.3994 31.1098C36.3904 31.0754 36.3735 31.0436 36.35 31.017C36.3265 30.9904 36.297 30.9697 36.264 30.9566C36.231 30.9435 36.1954 30.9384 36.16 30.9416C36.1246 30.9449 36.0905 30.9564 36.0605 30.9753C35.5082 31.3196 35.3935 31.7409 35.7162 32.2394C36.1788 32.9567 36.7921 33.6183 37.5559 34.2244C37.7388 34.3678 37.9432 34.4611 38.1692 34.5041C39.4422 34.7408 39.9084 35.5817 39.5677 37.027C39.5283 37.2027 39.4297 37.3318 39.2719 37.4143C38.0526 38.0705 36.7777 38.5959 35.4473 38.9904C34.6027 39.2432 33.9464 38.8882 33.2041 38.5493C33.0284 38.4704 32.9495 38.3359 32.9674 38.1458C32.9782 38.0024 33.0266 37.8679 33.1126 37.7424C33.1576 37.6745 33.2209 37.6208 33.2952 37.5875C33.3694 37.5542 33.4516 37.5426 33.5322 37.5541C34.0773 37.633 34.6081 37.6994 35.1245 37.7532C35.4114 37.7854 35.6319 37.6886 35.7861 37.4627C35.8937 37.3049 35.8704 37.1686 35.7162 37.0539C35.189 36.6737 34.5059 36.5249 33.6667 36.6074C33.6298 36.6109 33.5925 36.6043 33.5591 36.5883C33.5256 36.5723 33.4971 36.5475 33.4767 36.5166C33.4562 36.4856 33.4446 36.4497 33.443 36.4126C33.4414 36.3755 33.4499 36.3387 33.4677 36.3061C33.525 36.2021 33.6147 36.1806 33.7366 36.2416C33.9231 36.3312 34.0468 36.2775 34.1078 36.0802C34.1652 35.8937 34.1078 35.7467 33.9356 35.6391C33.3923 35.2895 33.1772 34.7246 33.1664 34.0522C33.1664 33.8084 33.2704 33.7492 33.4784 33.8747C33.9518 34.1616 34.357 34.522 34.6941 34.956C34.759 35.0414 34.8501 35.1033 34.9539 35.1324C35.0577 35.1615 35.1686 35.1562 35.2697 35.1173L35.4795 35.0366C35.5354 35.0151 35.5852 34.9805 35.6247 34.9356C35.6643 34.8906 35.6924 34.8368 35.7067 34.7787C35.7209 34.7206 35.721 34.6599 35.7067 34.6018C35.6924 34.5436 35.6643 34.4898 35.6247 34.4449L34.1723 32.7935C34.0074 32.6106 33.8227 32.5873 33.6183 32.7236C33.3744 32.8849 33.2005 33.1019 33.0965 33.3745C33.0355 33.5358 32.9262 33.6506 32.7684 33.7187C31.3913 34.3212 31.5473 36.602 31.8163 37.7801C31.8557 37.9558 31.9454 38.1028 32.0852 38.2211C32.8347 38.8344 33.3601 39.5964 33.6613 40.5073C33.8658 41.1259 33.6344 41.4864 33.543 42.0189C33.4175 42.7433 33.6147 42.8455 34.1347 42.3255C34.9147 41.5563 35.7055 40.8301 36.7544 40.4482C39.7238 39.3544 42.4887 39.6162 45.0492 41.2335C45.6768 41.6316 46.342 42.3166 47.0449 43.2884C47.174 43.4677 47.1292 43.5609 46.9104 43.5681C46.2864 43.5825 45.7467 43.396 45.2913 43.0087C45.155 42.8903 45.0116 42.8832 44.8609 42.9872C44.4987 43.2418 44.2818 43.5878 44.21 44.0254C44.1813 44.1975 44.0917 44.3302 43.9411 44.4234C42.8473 45.094 41.6638 45.2429 40.3908 44.8699C40.2186 44.8197 40.0483 44.8251 39.8797 44.886C38.5816 45.3594 37.2744 45.354 35.9583 44.8699C35.7933 44.8089 35.6373 44.8287 35.4903 44.9291C34.9631 45.2913 34.4019 45.4634 33.8066 45.4455C33.6237 45.4419 33.4515 45.4831 33.2902 45.5692L32.2466 46.134C32.1986 46.159 32.1452 46.1718 32.0911 46.1712C32.037 46.1706 31.9839 46.1566 31.9366 46.1306C31.8892 46.1045 31.849 46.0671 31.8195 46.0217C31.7901 45.9763 31.7723 45.9243 31.7678 45.8704L31.6495 44.2029C31.6385 44.0496 31.5667 43.9069 31.4498 43.8061C31.3328 43.7052 31.1803 43.6545 31.0255 43.665C30.9717 43.6685 30.9161 43.6703 30.8587 43.6703C30.3638 43.6847 30.1541 43.9357 30.2294 44.4234L30.5575 46.5213C30.5727 46.6155 30.554 46.7121 30.5048 46.7938C30.4556 46.8756 30.3789 46.9372 30.2885 46.9678C30.1845 47.0037 30.077 47.018 29.9658 47.0109C29.6287 46.9965 29.4278 46.8226 29.3633 46.4891C29.1374 45.3343 28.4596 44.5274 27.33 44.0684C27.165 44.0039 27.0377 43.8945 26.948 43.7403C26.0407 42.2126 25.0993 40.7978 24.1239 39.496C23.5896 38.786 23.283 38.0401 23.2041 37.2583C23.0911 36.1394 22.9781 32.8365 23.9518 32.0727C23.9974 32.0371 24.0523 32.0152 24.1099 32.0095C24.1674 32.0038 24.2255 32.0145 24.2772 32.0404C24.329 32.0663 24.3724 32.1063 24.4024 32.1558C24.4323 32.2053 24.4477 32.2622 24.4467 32.3201C24.3499 35.2608 25.0061 37.9379 26.4155 40.3513C26.8064 41.0148 27.269 41.4774 27.8033 41.7392C28.6425 42.1516 28.8254 41.9543 28.352 41.1475C27.8069 40.2186 27.373 39.306 27.0502 38.4094C26.5697 37.0682 26.1106 35.7718 25.6731 34.5202C25.6014 34.3122 25.6749 34.2154 25.8937 34.2298L26.5822 34.262C26.6633 34.2658 26.7441 34.2484 26.8164 34.2115C26.8887 34.1747 26.95 34.1197 26.9942 34.0521C27.0384 33.9845 27.0638 33.9066 27.068 33.8264C27.0722 33.7462 27.0549 33.6664 27.0179 33.595C26.5231 32.6124 26.1716 31.5329 25.9636 30.3567C25.8847 29.9048 25.9941 29.8528 26.2918 30.2007C27.217 31.2801 27.9109 32.5945 28.3735 34.1437C28.4013 34.2368 28.4045 34.3354 28.3829 34.4298C28.3612 34.5241 28.3153 34.6109 28.2498 34.6816C27.174 35.8597 28.2444 36.9678 28.9598 38.0329C29.3436 38.6031 29.5605 39.3275 29.6107 40.2061C29.6287 40.5037 29.7847 40.6418 30.0787 40.6203L30.3208 40.5988C30.5288 40.5844 30.64 40.4715 30.6543 40.2599C30.735 38.8828 29.756 37.3067 29.4225 36.1824C29.3759 36.0246 29.3902 35.8722 29.4655 35.7252L30.6059 33.4874C30.692 33.3189 30.8175 33.188 30.9824 33.0947L33.0212 31.9382C33.0537 31.9197 33.082 31.8945 33.104 31.8643C33.1261 31.834 33.1414 31.7994 33.1491 31.7628C33.1567 31.7261 33.1564 31.6883 33.1483 31.6517C33.1402 31.6152 33.1243 31.5808 33.1019 31.5509C33.023 31.4469 32.9244 31.377 32.806 31.3411C32.4689 31.2407 32.1713 31.2532 31.9131 31.3787C31.4182 31.6226 30.9341 31.9149 30.4607 32.2556C30.3068 32.3659 30.1245 32.4293 29.9363 32.4379C29.748 32.4465 29.562 32.3999 29.4009 32.304C29.0674 32.1067 28.915 31.8575 28.9437 31.5563C28.9581 31.3985 29.0782 31.2461 29.3041 31.099C29.5372 30.952 29.7112 30.8354 29.8259 30.7494C30.5252 30.233 30.4427 29.9281 29.5785 29.8349C29.453 29.8206 29.193 29.8116 28.7985 29.808C28.6156 29.8044 28.4865 29.7184 28.4112 29.5498C28.2785 29.2521 28.4255 28.9204 28.8523 28.5546C29.0173 28.4112 29.0423 28.2444 28.9276 28.0544C27.9234 26.3976 27.2439 24.5525 26.8888 22.5191C26.8566 22.3362 26.749 22.2502 26.5661 22.2609C26.3725 22.2717 26.1967 22.3398 26.0389 22.4653C25.9026 22.5765 25.7466 22.6267 25.5709 22.616C25.0079 22.5801 24.6296 22.2968 24.4359 21.766C24.357 21.5509 24.4108 21.3769 24.5973 21.2442C24.7874 21.1044 24.9308 20.934 25.0276 20.7332C25.0665 20.6493 25.0776 20.5552 25.0592 20.4651C25.0408 20.375 24.9938 20.2936 24.9254 20.233C23.9715 19.3938 23.4461 18.1243 23.3493 16.4244C23.2955 15.4275 23.776 14.9774 24.7909 15.0742C26.0568 15.1926 27.3389 15.562 28.6371 16.1824C29.1159 16.4137 29.245 16.7472 29.3579 17.2259C29.3814 17.3226 29.4271 17.4123 29.4916 17.488C29.5561 17.5637 29.6374 17.6232 29.7291 17.6617C29.9443 17.7513 30.172 17.7657 30.4123 17.7047C30.6884 17.6366 30.7547 17.4788 30.6113 17.2313C30.5826 17.1847 30.5485 17.1399 30.5091 17.0968C30.4409 17.0251 30.4553 16.9911 30.5521 16.9946C31.463 17.009 32.4115 17.0359 33.3977 17.0753C34.2799 17.1148 35.2249 17.0664 36.2326 16.9301C39.5104 16.4926 42.7845 16.5266 46.0551 17.0323C46.6899 17.1291 47.3156 17.1435 47.9325 17.0753C48.777 16.9839 49.6269 16.9731 50.4284 16.7149C51.9741 16.2129 53.5072 15.7036 55.0277 15.1872C55.3456 15.0796 55.692 15.0939 55.9993 15.2271C56.3066 15.3604 56.5528 15.6032 56.6899 15.908C57.3193 17.3066 56.0336 19.8618 55.0385 20.7924C54.8986 20.9251 54.9004 21.056 55.0438 21.1851C55.2016 21.3285 55.3415 21.4863 55.4634 21.6585C55.5419 21.7735 55.5874 21.9078 55.595 22.0468C55.6027 22.1859 55.5722 22.3244 55.5068 22.4473C55.4415 22.5703 55.3438 22.673 55.2242 22.7445C55.1047 22.8159 54.9679 22.8533 54.8287 22.8526L53.8012 22.8473C53.6255 22.8473 53.509 22.9297 53.4516 23.0947C53.0212 24.2817 52.5461 25.4454 52.0261 26.5858C51.7679 27.1507 51.3752 27.3336 50.9771 27.78C50.8516 27.9235 50.8659 28.0526 51.0201 28.1673L51.6764 28.6676C51.8091 28.768 51.888 28.9007 51.9131 29.0657C51.9705 29.4924 51.7876 29.7184 51.3644 29.7435C50.8588 29.7722 50.3908 29.8564 49.9605 29.9963C49.6413 30.1039 49.6305 30.2348 49.9282 30.389L51.2622 31.0883C51.328 31.1223 51.385 31.1711 51.4287 31.2308C51.4725 31.2906 51.5018 31.3597 51.5143 31.4327C51.5268 31.5057 51.5222 31.5806 51.5008 31.6515C51.4795 31.7224 51.442 31.7874 51.3913 31.8414L51.2031 32.0511C51.041 32.2272 50.8242 32.3432 50.5878 32.3803C50.3515 32.4174 50.1095 32.3734 49.9013 32.2556C49.0191 31.7607 48.2158 31.5078 47.4914 31.4971C46.8315 31.4899 46.7867 31.6513 47.3569 31.9812C47.798 32.2358 48.2588 32.5299 48.7394 32.8634C49.7668 33.5735 50.1057 34.7946 50.805 35.8113C50.909 35.9619 50.9251 36.1197 50.8534 36.2846C50.4302 37.2708 50.0501 38.2696 49.713 39.2809C49.5444 39.7829 49.5301 40.1595 49.67 40.4105C49.8887 40.805 50.0967 40.7978 50.294 40.389C50.7996 39.3382 51.2856 38.2821 51.7518 37.2206C52.2144 36.1663 52.1283 35.5315 52.0207 34.4449C51.8701 32.9818 53.231 31.2012 54.2692 30.2652C54.4414 30.1075 54.497 30.1415 54.436 30.3675C54.1294 31.5186 53.3655 32.5783 53.4623 33.8532C53.4767 34.0361 53.5735 34.1437 53.7528 34.176L54.2585 34.2782C54.4378 34.3104 54.5131 34.4162 54.4844 34.5955C54.0379 37.2529 52.5532 39.4691 51.3214 41.7123C51.3017 41.7486 51.2894 41.7885 51.2852 41.8296C51.2811 41.8707 51.2851 41.9122 51.2971 41.9518C51.3091 41.9913 51.3289 42.028 51.3552 42.0599C51.3815 42.0917 51.4139 42.118 51.4505 42.1372C51.6406 42.2377 51.8414 42.1982 52.053 42.0189C54.323 40.1075 55.6015 37.6617 55.8884 34.6816C55.9709 33.8496 56.048 33.1557 56.1197 32.5998C56.2165 31.8898 56.3671 31.8772 56.5715 32.5622C56.9122 33.699 57.0611 34.9703 57.018 36.3761C56.9822 37.5236 56.6361 38.6138 55.9798 39.6467C54.843 41.4362 53.7618 42.9137 52.7361 44.0792C52.6178 44.2154 52.4743 44.3105 52.3058 44.3643C51.3483 44.6834 50.9323 45.3845 51.0578 46.4675C51.0793 46.6468 51.0076 46.776 50.8427 46.8548C50.6024 46.9732 50.3406 46.9606 50.0573 46.8172C49.9826 46.779 49.9251 46.714 49.8961 46.6352C49.8672 46.5565 49.8691 46.4697 49.9013 46.3922C50.12 45.8794 50.2366 45.3289 50.2509 44.7408C50.2572 44.5456 50.2086 44.3527 50.1106 44.1842C50.0126 44.0158 49.8692 43.8787 49.6969 43.7887L49.557 43.7134C49.141 43.491 48.9169 43.6165 48.8846 44.0899L48.7662 45.822C48.7519 46.0193 48.6461 46.1161 48.4489 46.1125C47.9863 46.0982 47.5721 45.9493 47.2063 45.666C47.0664 45.5585 46.9068 45.5029 46.7275 45.4993C46.3187 45.4849 45.9888 45.4311 45.7377 45.3379C44.8519 45.0044 44.8806 44.8089 45.8238 44.7516C46.021 44.7408 46.3797 44.7874 46.8997 44.8914C47.079 44.9273 47.2152 44.8645 47.3085 44.7031C47.4483 44.4521 47.4645 44.1939 47.3569 43.9285C47.2923 43.7636 47.269 43.5932 47.2869 43.4175C47.3999 42.3793 46.8405 41.5348 47.0772 40.5558C47.2816 39.7166 47.7173 39.0065 48.3843 38.4256C48.518 38.3129 48.6168 38.1656 48.6694 38.0006C49.2827 36.1179 48.9007 34.5668 47.5236 33.3475C47.4107 33.2465 47.2658 33.1885 47.1143 33.1836C46.9629 33.1787 46.8145 33.2272 46.6952 33.3207L44.9093 34.7246C44.7336 34.8609 44.73 35.0026 44.8986 35.1496C45.0994 35.3253 45.3737 35.4168 45.7216 35.4239C45.8148 35.4239 45.8686 35.3773 45.883 35.2841ZM51.3217 17.3362C51.3158 17.2942 51.2966 17.2546 51.2652 17.2194C51.2338 17.1843 51.1908 17.1544 51.1386 17.1315C51.0865 17.1085 51.0262 17.093 50.9613 17.0857C50.8963 17.0785 50.8279 17.0797 50.7601 17.0892C50.6922 17.0987 50.6262 17.1165 50.5658 17.1413C50.5053 17.1662 50.4516 17.1977 50.4078 17.2342C50.364 17.2706 50.3309 17.3112 50.3104 17.3536C50.2899 17.396 50.2824 17.4395 50.2883 17.4815C50.2941 17.5234 50.3134 17.5631 50.3448 17.5983C50.3762 17.6334 50.4192 17.6633 50.4714 17.6862C50.5235 17.7092 50.5838 17.7247 50.6488 17.7319C50.7137 17.7392 50.7821 17.738 50.8499 17.7285C50.9178 17.7189 50.9838 17.7012 51.0443 17.6764C51.1047 17.6515 51.1583 17.6199 51.2021 17.5835C51.246 17.5471 51.2791 17.5065 51.2996 17.4641C51.3201 17.4216 51.3276 17.3782 51.3217 17.3362ZM49.8475 26.4621C49.5068 27.0036 49.5857 27.0753 50.0842 26.6773C50.6508 26.2254 51.108 25.5799 51.4559 24.7408C52.1229 23.1234 52.7559 21.5598 53.3548 20.05C53.6165 19.3938 53.7779 18.7178 53.8389 18.0221C53.854 17.8496 53.8046 17.6777 53.7003 17.5396C53.5959 17.4015 53.444 17.307 53.2741 17.2744L52.5156 17.1291C52.1426 17.0574 51.9382 17.2098 51.9024 17.5864C51.8701 17.9414 51.7177 18.361 51.4451 18.8451C51.3591 18.9993 51.3322 19.1643 51.3644 19.34C51.6083 20.5987 51.4702 21.818 50.9502 22.9979C50.8821 23.1485 50.8498 23.3063 50.8534 23.4713C50.8749 24.3678 50.5396 25.3648 49.8475 26.4621ZM29.557 24.2889C29.3203 23.5573 29.0477 23.0158 28.7393 22.6644C28.5743 22.4779 28.4883 22.2591 28.4811 22.0081L28.3681 17.979C28.364 17.813 28.296 17.6551 28.1786 17.5387C28.0611 17.4223 27.9034 17.3564 27.7388 17.3551L27.1309 17.3497C26.7974 17.3497 26.6109 17.5146 26.5715 17.8446C26.5141 18.3646 26.5213 18.7339 26.593 18.9527C27.3353 21.2586 28.1207 23.283 28.9491 25.0259C29.5695 26.3348 30.6131 27.33 32.0798 28.0113C32.3129 28.1189 32.3757 28.0562 32.2681 27.8231C31.9561 27.1668 31.1169 26.6235 30.7996 26.2362C30.129 25.4185 29.7148 24.7694 29.557 24.2889ZM45.9707 22.4382C45.9744 22.3952 45.9528 22.3505 45.907 22.3065C45.8612 22.2626 45.7921 22.2202 45.7037 22.1819C45.6153 22.1436 45.5093 22.11 45.3917 22.0832C45.2742 22.0564 45.1474 22.0367 45.0186 22.0255C44.8898 22.0142 44.7616 22.0115 44.6412 22.0175C44.5208 22.0235 44.4106 22.0382 44.3168 22.0606C44.2231 22.0829 44.1477 22.1126 44.095 22.148C44.0422 22.1833 44.0132 22.2236 44.0094 22.2666C44.0056 22.3095 44.0273 22.3542 44.0731 22.3982C44.1189 22.4422 44.188 22.4845 44.2764 22.5228C44.3648 22.5612 44.4708 22.5947 44.5883 22.6215C44.7058 22.6484 44.8326 22.668 44.9614 22.6793C45.0902 22.6905 45.2185 22.6932 45.3389 22.6872C45.4593 22.6812 45.5695 22.6666 45.6632 22.6442C45.7569 22.6218 45.8323 22.5921 45.8851 22.5567C45.9378 22.5214 45.9669 22.4811 45.9707 22.4382ZM35.259 44.7731C35.3238 44.7675 35.3847 44.7399 35.4317 44.6949C35.4787 44.6499 35.5088 44.5901 35.5172 44.5256L35.6893 43.24C35.696 43.1893 35.689 43.1377 35.669 43.0906C35.6489 43.0435 35.6166 43.0027 35.5753 42.9725C35.534 42.9422 35.4854 42.9236 35.4344 42.9186C35.3835 42.9136 35.3322 42.9224 35.2858 42.9441L33.4462 43.7941C33.3966 43.8167 33.3546 43.853 33.325 43.8988C33.2955 43.9445 33.2796 43.9978 33.2794 44.0523L33.274 44.644C33.2738 44.6838 33.282 44.7232 33.298 44.7597C33.314 44.7961 33.3374 44.8288 33.3668 44.8557C33.3962 44.8826 33.4309 44.903 33.4686 44.9156C33.5064 44.9282 33.5464 44.9328 33.586 44.9291L35.259 44.7731Z" fill="#B2B2B2"/>
<path d="M140.046 33.3437L137.695 33.3329C137.633 33.3329 137.571 33.3206 137.513 33.2967C137.455 33.2729 137.403 33.2379 137.359 33.1939C137.314 33.1499 137.28 33.0977 137.256 33.0403C137.233 32.9829 137.221 32.9214 137.222 32.8595V30.5357C137.222 30.1842 137.398 30.0121 137.749 30.0193L144.957 30.1215C145.035 30.1225 145.112 30.1398 145.182 30.1722C145.253 30.2046 145.316 30.2514 145.368 30.3097C145.42 30.3679 145.459 30.4362 145.482 30.5103C145.506 30.5845 145.514 30.6627 145.506 30.7401C145.318 32.5368 145.312 34.2151 144.339 35.6944C142.051 39.1766 138.696 40.2954 134.274 39.051C131.882 38.3804 130.216 36.9316 129.277 34.7046C127.885 31.4017 128.167 28.2997 130.121 25.3985C130.681 24.5701 131.482 23.9013 132.526 23.392C135.796 21.7962 138.965 21.8392 142.031 23.5211C143.166 24.1451 143.876 25.065 144.258 26.2538C144.301 26.3889 144.292 26.5352 144.232 26.6638C144.172 26.7923 144.066 26.8937 143.935 26.9477L141.052 28.1527C140.629 28.332 140.266 28.2459 139.965 27.8945C138.33 25.9508 136.619 25.4649 134.833 26.4367C133.686 27.0607 133.008 28.0738 132.8 29.476C132.515 31.4448 132.612 33.9354 134.349 35.1726C136.508 36.7075 138.558 36.4511 140.498 34.4034C140.581 34.3143 140.637 34.2028 140.658 34.0826C140.68 33.9623 140.665 33.8385 140.618 33.7261C140.57 33.6138 140.49 33.5178 140.389 33.4499C140.287 33.382 140.168 33.3451 140.046 33.3437Z" fill="#B2B2B2"/>
<path d="M65.0868 34.2943L65.1837 38.9635C65.1872 39.15 65.094 39.2432 64.9039 39.2432L61.246 39.2486C61.0667 39.2486 60.9771 39.1589 60.9771 38.9796V23.2507C60.977 23.1541 61.0147 23.0613 61.082 22.992C61.1493 22.9227 61.2409 22.8823 61.3375 22.8795C63.4748 22.8257 65.5512 22.8383 67.5667 22.9172C69.4602 22.9979 71.4612 23.5896 72.3004 25.2948C72.8114 26.3384 72.876 28.7322 72.4779 29.851C71.9615 31.2855 70.9466 32.1803 69.4333 32.5353C69.3402 32.5563 69.2543 32.6016 69.1845 32.6667C69.1147 32.7318 69.0635 32.8143 69.0361 32.9058C69.0087 32.9972 69.0061 33.0943 69.0287 33.1871C69.0512 33.2798 69.098 33.3649 69.1643 33.4336C70.9186 35.2703 72.5514 37.1838 74.0627 39.1742C74.0677 39.1807 74.0748 39.1866 74.0758 39.1948C74.0763 39.1989 74.0754 39.2032 74.0731 39.2071C74.0709 39.2111 74.0674 39.2146 74.063 39.2171C74.0587 39.2197 74.0537 39.2213 74.0487 39.2217C72.7074 39.2862 71.0237 39.2773 68.9976 39.1948C68.8864 39.1912 68.8021 39.141 68.7447 39.0442L65.8668 34.0737C65.3217 33.1342 65.0617 33.2077 65.0868 34.2943ZM64.7533 26.3599L64.7426 29.7381C64.7426 29.8579 64.7902 29.9728 64.8749 30.0576C64.9596 30.1423 65.0746 30.1899 65.1944 30.1899H65.4741C66.1926 30.1921 66.8822 29.9792 67.3916 29.5979C67.9009 29.2167 68.1883 28.6983 68.1907 28.1566V27.9629C68.1918 27.6943 68.1227 27.428 67.9873 27.1793C67.852 26.9305 67.6529 26.7043 67.4016 26.5134C67.1503 26.3226 66.8517 26.1709 66.5228 26.067C66.1939 25.9631 65.8412 25.9091 65.4849 25.9081H65.2052C65.0853 25.9081 64.9704 25.9557 64.8857 26.0404C64.8009 26.1251 64.7533 26.2401 64.7533 26.3599Z" fill="#B2B2B2"/>
<path d="M79.3738 26.6715L79.4061 28.8447C79.4075 28.9336 79.4438 29.0185 79.5072 29.0808C79.5706 29.1432 79.656 29.1782 79.745 29.1782L83.8009 29.1567C83.8908 29.1567 83.977 29.1924 84.0406 29.2559C84.1041 29.3195 84.1398 29.4057 84.1398 29.4956L84.1667 32.3197C84.1667 32.3646 84.1578 32.4092 84.1404 32.4506C84.123 32.4921 84.0976 32.5297 84.0655 32.5612C84.0335 32.5928 83.9955 32.6176 83.9538 32.6343C83.912 32.651 83.8674 32.6593 83.8224 32.6586L79.6965 32.6263C79.6511 32.6256 79.6061 32.634 79.564 32.651C79.5219 32.6681 79.4836 32.6934 79.4515 32.7255C79.4194 32.7576 79.3941 32.7959 79.377 32.838C79.36 32.8801 79.3516 32.9252 79.3523 32.9706L79.4115 35.4127C79.4122 35.4572 79.4216 35.5012 79.4393 35.542C79.457 35.5829 79.4825 35.6199 79.5145 35.6508C79.5465 35.6818 79.5842 35.7062 79.6256 35.7225C79.667 35.7389 79.7112 35.747 79.7557 35.7463L83.8009 35.6763C83.8459 35.6756 83.8905 35.6839 83.9323 35.7006C83.974 35.7173 84.012 35.7421 84.044 35.7737C84.0761 35.8052 84.1015 35.8428 84.1189 35.8843C84.1363 35.9258 84.1452 35.9703 84.1452 36.0152L84.1613 38.9093C84.1613 38.9991 84.1256 39.0853 84.062 39.1489C83.9985 39.2124 83.9123 39.2481 83.8224 39.2481L75.1134 39.2428C75.0236 39.2428 74.9373 39.2071 74.8738 39.1435C74.8102 39.08 74.7745 38.9938 74.7745 38.9039L74.7638 23.1857C74.7638 23.0958 74.7995 23.0096 74.863 22.9461C74.9266 22.8825 75.0128 22.8468 75.1027 22.8468L83.7686 22.9006C83.8557 22.902 83.939 22.9368 84.0011 22.9979C84.0632 23.059 84.0994 23.1417 84.1021 23.2288L84.1613 26.0529C84.1621 26.0983 84.1536 26.1434 84.1366 26.1855C84.1195 26.2276 84.0942 26.2658 84.0621 26.2979C84.03 26.33 83.9918 26.3554 83.9497 26.3724C83.9076 26.3895 83.8625 26.3979 83.8171 26.3971L79.7181 26.3272C79.6727 26.3265 79.6276 26.3349 79.5855 26.3519C79.5434 26.369 79.5051 26.3943 79.473 26.4264C79.4409 26.4585 79.4156 26.4968 79.3985 26.5389C79.3815 26.581 79.3731 26.6261 79.3738 26.6715Z" fill="#B2B2B2"/>
<path d="M87.2975 23.3148C87.2989 23.1887 87.35 23.0684 87.4396 22.9797C87.5292 22.8911 87.6502 22.8414 87.7762 22.8414L92.4884 22.8575C93.6352 22.8614 94.77 23.0714 95.8281 23.4756C96.8862 23.8797 97.8468 24.47 98.655 25.2128C99.4633 25.9556 100.103 26.8363 100.539 27.8047C100.974 28.7731 101.196 29.8101 101.192 30.8565V31.3514C101.184 33.4638 100.257 35.4864 98.6149 36.9743C96.9727 38.4622 94.7496 39.2936 92.4346 39.2858L87.7224 39.2696C87.6591 39.2696 87.5964 39.2571 87.5379 39.2327C87.4795 39.2083 87.4265 39.1725 87.382 39.1275C87.3374 39.0825 87.3023 39.0291 87.2785 38.9704C87.2548 38.9117 87.243 38.8488 87.2437 38.7855L87.2975 23.3148ZM90.6864 27.1556L91.1382 35.2729C91.1424 35.3457 91.1608 35.4169 91.1925 35.4826C91.2242 35.5483 91.2686 35.607 91.3231 35.6555C91.3776 35.7039 91.4411 35.7412 91.51 35.7651C91.5789 35.789 91.6518 35.799 91.7246 35.7946L92.5799 35.7516C93.1664 35.7188 93.7407 35.5701 94.2699 35.3138C94.7991 35.0576 95.2728 34.6989 95.664 34.2582C96.0552 33.8176 96.3561 33.3037 96.5496 32.7458C96.7432 32.188 96.8255 31.5971 96.7918 31.0071L96.7811 30.765C96.7486 30.1748 96.6007 29.5967 96.346 29.0638C96.0912 28.5309 95.7346 28.0537 95.2964 27.6595C94.8582 27.2653 94.3471 26.9619 93.7924 26.7665C93.2377 26.5711 92.6502 26.4876 92.0635 26.5208L91.2082 26.5692C91.1354 26.5734 91.0641 26.5918 90.9984 26.6235C90.9328 26.6552 90.874 26.6996 90.8256 26.7541C90.7771 26.8085 90.7398 26.8721 90.716 26.941C90.6921 27.0099 90.682 27.0828 90.6864 27.1556Z" fill="#B2B2B2"/>
<path d="M117.577 26.252C117.522 26.2573 117.471 26.2835 117.435 26.3253C117.398 26.3671 117.378 26.4215 117.378 26.4779L117.33 39.1191C117.33 39.1373 117.326 39.1552 117.319 39.1719C117.312 39.1886 117.302 39.2036 117.29 39.2162C117.277 39.2288 117.262 39.2385 117.246 39.245C117.23 39.2514 117.212 39.2544 117.195 39.2536L113.306 39.2321C113.209 39.2321 113.161 39.1837 113.161 39.0869C113.125 35.9633 113.098 32.7465 113.08 29.4365C113.076 28.5651 113.037 27.6936 112.962 26.8222C112.944 26.6106 112.831 26.4761 112.623 26.4187C111.905 26.2215 111.161 26.1462 110.39 26.1928C110.314 26.1979 110.237 26.1877 110.164 26.1628C110.091 26.1379 110.024 26.0988 109.966 26.0478C109.909 25.9967 109.862 25.9347 109.829 25.8655C109.795 25.7962 109.776 25.7209 109.772 25.6441L109.653 23.5731C109.635 23.236 109.795 23.0567 110.132 23.0352C113.514 22.8021 116.876 22.8021 120.218 23.0352C120.616 23.0639 120.806 23.279 120.788 23.6807L120.692 25.9346C120.677 26.3255 120.478 26.4815 120.095 26.4026C119.252 26.2269 118.413 26.1767 117.577 26.252Z" fill="#B2B2B2"/>
<path d="M126.399 22.8726L122.849 22.8664C122.664 22.866 122.515 23.0151 122.515 23.1993L122.487 38.9067C122.487 39.0909 122.636 39.2405 122.82 39.2408L126.37 39.247C126.555 39.2473 126.704 39.0982 126.704 38.914L126.732 23.2067C126.732 23.0225 126.583 22.8729 126.399 22.8726Z" fill="#B2B2B2"/>
<path d="M151.978 29.1675L156.298 29.1514C156.38 29.1514 156.46 29.1843 156.518 29.2428C156.577 29.3013 156.61 29.3806 156.61 29.4634L156.626 32.3467C156.626 32.4294 156.593 32.5088 156.534 32.5673C156.476 32.6258 156.396 32.6587 156.314 32.6587L152.005 32.6425C151.923 32.6425 151.845 32.6746 151.786 32.732C151.728 32.7893 151.694 32.8673 151.693 32.9491L151.655 35.4075C151.655 35.4493 151.662 35.4909 151.678 35.5298C151.694 35.5686 151.717 35.6039 151.747 35.6335C151.776 35.6631 151.812 35.6865 151.85 35.7022C151.889 35.7179 151.931 35.7256 151.973 35.7248L156.298 35.6495C156.339 35.6488 156.38 35.6563 156.419 35.6717C156.457 35.6871 156.492 35.7099 156.522 35.739C156.551 35.768 156.575 35.8027 156.591 35.8409C156.607 35.8791 156.615 35.9201 156.615 35.9615L156.62 38.9362C156.62 39.019 156.588 39.0983 156.529 39.1569C156.47 39.2154 156.391 39.2482 156.308 39.2482L147.519 39.2536C147.436 39.2536 147.357 39.2207 147.298 39.1622C147.24 39.1037 147.207 39.0244 147.207 38.9416L147.228 23.1697C147.228 23.0869 147.261 23.0076 147.32 22.9491C147.378 22.8905 147.457 22.8577 147.54 22.8577L156.292 22.863C156.375 22.863 156.454 22.8959 156.513 22.9544C156.571 23.0129 156.604 23.0923 156.604 23.175L156.626 26.0852C156.626 26.1266 156.618 26.1677 156.601 26.2059C156.585 26.2441 156.562 26.2787 156.532 26.3077C156.503 26.3368 156.468 26.3597 156.429 26.375C156.391 26.3904 156.35 26.3979 156.308 26.3972L151.994 26.338C151.912 26.338 151.834 26.3702 151.775 26.4275C151.717 26.4849 151.684 26.5628 151.682 26.6447L151.661 28.8502C151.66 28.892 151.668 28.9336 151.683 28.9725C151.699 29.0113 151.722 29.0466 151.752 29.0762C151.782 29.1058 151.817 29.1292 151.856 29.1449C151.895 29.1605 151.936 29.1683 151.978 29.1675Z" fill="#B2B2B2"/>
<path d="M164.096 33.3354C164.057 33.3146 164.013 33.3045 163.969 33.3061C163.925 33.3076 163.882 33.3207 163.844 33.3442C163.807 33.3676 163.776 33.4005 163.755 33.4395C163.734 33.4786 163.724 33.5224 163.725 33.5667L163.924 38.8061C163.935 39.1002 163.793 39.2472 163.499 39.2472H159.992C159.894 39.2472 159.799 39.2086 159.73 39.14C159.66 39.0714 159.621 38.9784 159.621 38.8814L159.615 23.2493C159.615 23.0772 159.7 22.9857 159.868 22.975C162.389 22.7777 164.688 22.7562 166.765 22.9104C169.196 23.0933 170.716 24.1763 171.326 26.1595C172.214 29.0212 170.928 31.8238 167.959 32.7006C167.921 32.7115 167.887 32.7314 167.859 32.7587C167.831 32.786 167.81 32.8198 167.798 32.8571C167.787 32.8944 167.784 32.934 167.792 32.9724C167.799 33.0108 167.816 33.0468 167.84 33.0772C169.547 35.1715 171.269 37.2156 173.004 39.2095C173.008 39.2125 173.01 39.2165 173.011 39.221C173.012 39.2254 173.012 39.2301 173.01 39.2342C173.008 39.2384 173.005 39.2419 173.001 39.2443C172.994 39.2489 172.984 39.2474 172.975 39.248C172.292 39.29 170.595 39.2718 167.883 39.1934C167.837 39.1935 167.791 39.1817 167.75 39.1592C167.709 39.1366 167.673 39.104 167.647 39.0643C166.528 37.3035 165.509 35.5606 164.591 33.8357C164.473 33.6133 164.308 33.4466 164.096 33.3354ZM163.542 26.3047L163.585 29.7474C163.587 29.8061 163.6 29.8639 163.623 29.9175C163.647 29.9711 163.681 30.0196 163.724 30.06C163.766 30.1005 163.816 30.1322 163.871 30.1533C163.926 30.1744 163.984 30.1846 164.043 30.1832H164.156C164.94 30.1716 165.689 29.9419 166.238 29.5444C166.787 29.147 167.09 28.6143 167.082 28.0637V27.8808C167.078 27.6081 166.997 27.3391 166.845 27.0893C166.692 26.8395 166.471 26.6138 166.193 26.4249C165.915 26.2361 165.587 26.0879 165.226 25.9888C164.865 25.8897 164.48 25.8417 164.091 25.8475H163.978C163.919 25.8489 163.862 25.8618 163.808 25.8855C163.754 25.9093 163.706 25.9434 163.665 25.9858C163.625 26.0283 163.593 26.0783 163.572 26.133C163.551 26.1877 163.541 26.2461 163.542 26.3047Z" fill="#B2B2B2"/>
<path d="M45.9792 25.3453C45.5836 25.7354 45.5013 26.2934 45.7955 26.5917C46.0896 26.89 46.6487 26.8155 47.0443 26.4254C47.4398 26.0354 47.5221 25.4773 47.228 25.1791C46.9338 24.8808 46.3747 24.9553 45.9792 25.3453Z" fill="#B2B2B2"/>
<path d="M33.8492 26.544C33.3399 26.6265 32.958 26.3127 32.7034 25.6027C32.6281 25.3911 32.6998 25.2566 32.9186 25.1992C33.3023 25.1024 33.6968 25.1114 34.102 25.2261C34.2777 25.2799 34.3943 25.3947 34.4516 25.5704C34.5969 26.033 34.3064 26.4687 33.8492 26.544Z" fill="#B2B2B2"/>
</svg>
