
<svg width="184" height="63" viewBox="0 0 184 63" fill="none" xmlns="http://www.w3.org/2000/svg">
<path d="M101.496 18.8399L101.197 18.6285C100.511 18.1427 99.561 18.3051 99.0751 18.9913L89.6814 32.2585C89.1956 32.9447 89.358 33.8948 90.0442 34.3806L90.3427 34.592C91.0289 35.0778 91.979 34.9154 92.4648 34.2292L101.859 20.962C102.344 20.2759 102.182 19.3258 101.496 18.8399Z" fill="#B2B2B2"/>
<path d="M46.6636 22.7376C45.4371 21.5685 44.207 21.5811 42.9734 22.7752C42.1288 23.5875 42.7583 24.7064 41.9514 25.5025C41.1391 26.3094 39.5845 26.1265 39.0627 25.1314C38.8332 24.6938 38.7884 24.129 38.9282 23.4369C39.3658 21.2386 40.6262 19.7054 42.7098 18.8376C46.5344 17.24 50.9562 20.4191 50.7787 24.4858C50.7659 24.7872 50.6626 25.0778 50.4822 25.3196C50.3018 25.5614 50.0527 25.7433 49.7674 25.8414C48.7597 26.1928 48.0174 25.9651 47.5404 25.1582C47.0939 24.4105 47.3575 23.3992 46.6636 22.7376Z" fill="#B2B2B2"/>
<path d="M55.5065 33.7215C54.9094 33.6946 54.5329 34.0228 53.9358 34.055C53.7493 34.0658 53.6578 33.9779 53.6614 33.7915C53.708 29.1043 53.7314 24.5714 53.7314 20.1927C53.7314 19.1886 54.307 18.6004 55.4581 18.4283C55.6123 18.4068 55.7611 18.4301 55.9046 18.4982C56.8155 18.9501 57.2745 19.4343 57.2817 19.9507C57.3283 24.376 57.3427 29.0003 57.3247 33.8237C57.3248 33.8754 57.3113 33.9262 57.2857 33.9711C57.26 34.016 57.223 34.0534 57.1784 34.0795C57.1337 34.1057 57.083 34.1196 57.0313 34.12C56.9796 34.1205 56.9287 34.1073 56.8837 34.082C56.4784 33.8596 56.0194 33.7395 55.5065 33.7215Z" fill="#B2B2B2"/>
<path d="M65.2967 34.0719C64.2531 33.6021 63.2813 33.6254 62.3812 34.1418C62.3506 34.1588 62.3161 34.1675 62.2811 34.167C62.2461 34.1664 62.2119 34.1566 62.1819 34.1386C62.1519 34.1206 62.1272 34.095 62.1103 34.0644C62.0933 34.0338 62.0847 33.9992 62.0853 33.9643C62.1642 29.5246 62.1893 24.8393 62.1606 19.9083C62.1606 19.3704 62.591 18.8863 63.4517 18.4559C63.5951 18.3842 63.7439 18.3591 63.8981 18.3806C65.0062 18.5312 65.5568 19.0979 65.5496 20.0805C65.5245 24.8321 65.5496 29.4242 65.6249 33.8567C65.6285 34.097 65.5191 34.1687 65.2967 34.0719Z" fill="#B2B2B2"/>
<path d="M70.4995 18.3971L70.435 18.3973C69.4902 18.3989 68.7257 19.1661 68.7274 20.1108L68.7632 40.6273C68.7648 41.572 69.532 42.3365 70.4768 42.3349L70.5413 42.3348C71.486 42.3331 72.2506 41.5659 72.2489 40.6212L72.2131 20.1048C72.2115 19.16 71.4443 18.3955 70.4995 18.3971Z" fill="#B2B2B2"/>
<path d="M82.0647 22.0598C80.7145 21.6187 79.2352 22.3126 78.8909 23.7812C78.7977 24.1756 78.7206 24.5145 78.6596 24.7978C78.5843 25.1568 78.3827 25.4768 78.0916 25.6999C77.8004 25.9229 77.4389 26.0342 77.0727 26.0136C75.701 25.9329 75.1416 24.7871 75.4052 23.5014C76.1582 19.7897 79.574 17.5359 83.1889 18.757C85.3245 19.4778 87.4708 21.9629 87.1319 24.4266C86.906 26.0565 85.3621 26.7182 84.1948 25.5402C84.011 25.3565 83.8985 25.1123 83.8775 24.8516C83.7412 23.3383 83.1369 22.4076 82.0647 22.0598Z" fill="#B2B2B2"/>
<path d="M89.3364 30.3005L89.5515 18.9772C89.5527 18.9118 89.578 18.8491 89.6228 18.8014C89.6675 18.7537 89.7284 18.7243 89.7936 18.719L92.381 18.4716C92.4165 18.4686 92.4522 18.4729 92.486 18.4842C92.5198 18.4954 92.5509 18.5134 92.5776 18.537C92.6042 18.5607 92.6259 18.5894 92.6411 18.6216C92.6563 18.6538 92.6648 18.6888 92.6661 18.7244L92.9727 25.7658C92.9763 25.8228 92.9611 25.8795 92.9297 25.9272L89.8151 30.4512C89.7829 30.4967 89.737 30.5308 89.6841 30.5487C89.6312 30.5665 89.574 30.5671 89.5208 30.5503C89.4676 30.5336 89.4211 30.5004 89.3879 30.4555C89.3548 30.4106 89.3367 30.3563 89.3364 30.3005Z" fill="#B2B2B2"/>
<path d="M110.116 22.1246C107.986 21.3984 106.899 22.6734 106.48 24.5722C105.936 27.0413 102.886 26.2237 103.161 23.8998C103.656 19.661 108.061 17.0789 111.929 19.1822C113.79 20.1935 115.323 22.4904 114.931 24.6906C114.726 25.8256 113.564 26.5195 112.553 25.8955C111.133 25.0294 111.864 22.7217 110.116 22.1246Z" fill="#B2B2B2"/>
<path d="M126.329 26.687C126.716 24.7236 126.517 22.0447 123.892 21.9479C122.458 21.8977 121.023 21.8655 119.589 21.8511C118.562 21.8404 117.33 20.63 117.895 19.5219C118.217 18.8835 118.707 18.5339 119.363 18.4729C123.467 18.091 128.395 18.0587 129.557 22.9538C130.374 26.4019 129.718 30.63 126.028 32.0286C124.129 32.7494 121.472 32.5181 119.315 32.2976C118.406 32.2061 117.281 31.0227 117.932 30.0598C118.341 29.4519 118.922 29.1561 119.702 29.1346C121.19 29.0879 122.678 29.0575 124.167 29.0432C125.259 29.0378 126.125 27.7468 126.329 26.687Z" fill="#B2B2B2"/>
<path d="M133.77 18.4016H133.705C132.781 18.4016 132.032 19.1506 132.032 20.0745V40.6555C132.032 41.5795 132.781 42.3285 133.705 42.3285H133.77C134.694 42.3285 135.443 41.5795 135.443 40.6555V20.0745C135.443 19.1506 134.694 18.4016 133.77 18.4016Z" fill="#B2B2B2"/>
<path d="M139.347 18.5521L138.988 18.7241C138.241 19.0822 137.925 19.9785 138.283 20.7261L148.245 41.5182C148.603 42.2657 149.5 42.5814 150.247 42.2232L150.606 42.0512C151.354 41.6931 151.669 40.7968 151.311 40.0493L141.349 19.2571C140.991 18.5096 140.095 18.194 139.347 18.5521Z" fill="#B2B2B2"/>
<path d="M147.928 30.5385L148.057 18.8064C148.057 18.7762 148.063 18.7464 148.074 18.7186C148.086 18.6909 148.103 18.6658 148.125 18.6447C148.146 18.6236 148.172 18.6071 148.2 18.596C148.228 18.585 148.258 18.5797 148.288 18.5804L151.171 18.7149C151.229 18.7177 151.284 18.7427 151.324 18.7848C151.364 18.8268 151.387 18.8827 151.386 18.9408L151.564 37.1819C151.565 37.2338 151.549 37.2846 151.517 37.3257C151.486 37.3669 151.441 37.3959 151.39 37.4078C151.34 37.4198 151.287 37.4141 151.24 37.3916C151.193 37.369 151.156 37.331 151.134 37.2841L147.949 30.6407C147.934 30.6088 147.927 30.5738 147.928 30.5385Z" fill="#B2B2B2"/>
<path d="M117.778 28.1548V22.7164C117.778 22.6923 117.784 22.6686 117.794 22.6468C117.805 22.6251 117.819 22.6057 117.838 22.59C117.856 22.5743 117.877 22.5625 117.9 22.5556C117.923 22.5486 117.948 22.5466 117.971 22.5496L121.194 22.9638C121.235 22.9691 121.274 22.9895 121.302 23.0213C121.329 23.053 121.345 23.0937 121.344 23.1359L121.323 27.7513C121.323 27.7935 121.308 27.8343 121.28 27.8661C121.252 27.8978 121.214 27.9182 121.172 27.9234L117.971 28.3215C117.948 28.3245 117.923 28.3225 117.9 28.3156C117.877 28.3086 117.856 28.2969 117.838 28.2812C117.819 28.2655 117.805 28.2461 117.794 28.2243C117.784 28.2025 117.778 28.1789 117.778 28.1548Z" fill="#B2B2B2"/>
<path d="M139.267 25.0884C139.874 26.3615 140.463 27.6489 141.037 28.9507C141.403 29.7827 141.584 30.6667 141.581 31.6027C141.566 34.7227 141.563 37.8462 141.57 40.9733C141.573 41.583 141.131 42.0258 140.241 42.302C140.065 42.3558 139.883 42.3576 139.692 42.3074C138.638 42.0205 138.111 41.3319 138.111 40.2418C138.118 35.5905 138.12 30.9697 138.116 26.3794C138.116 25.4865 137.896 24.4483 137.917 23.4531C137.924 23.22 138.011 23.1859 138.176 23.3509C138.505 23.6737 138.869 24.2528 139.267 25.0884Z" fill="#B2B2B2"/>
<path d="M110.381 35.2561L104.942 27.596C104.929 27.577 104.919 27.5554 104.914 27.5327C104.909 27.5099 104.909 27.4864 104.913 27.4634C104.917 27.4404 104.925 27.4185 104.938 27.3988C104.95 27.3791 104.966 27.362 104.985 27.3486L107.557 25.5734C107.576 25.56 107.597 25.5505 107.62 25.5454C107.643 25.5403 107.666 25.5397 107.689 25.5437C107.712 25.5477 107.734 25.5561 107.754 25.5686C107.774 25.5811 107.791 25.5974 107.804 25.6165L113.162 33.1743C113.188 33.2118 113.198 33.2578 113.191 33.3029C113.184 33.348 113.16 33.3886 113.124 33.4164L110.634 35.2992C110.614 35.3134 110.592 35.3236 110.569 35.3292C110.546 35.3348 110.522 35.3356 110.498 35.3316C110.474 35.3276 110.452 35.3188 110.432 35.3059C110.411 35.2929 110.394 35.2759 110.381 35.2561Z" fill="#B2B2B2"/>
<path d="M42.1127 34.1622C41.1014 33.6511 40.2568 33.5005 39.1702 34.1138C39.1247 34.1398 39.0728 34.1525 39.0204 34.1505C38.9681 34.1485 38.9171 34.1319 38.8732 34.1025C38.8293 34.073 38.7941 34.0318 38.7716 33.9836C38.749 33.9353 38.7399 33.8817 38.7452 33.8287C38.9999 31.4941 38.9963 29.2366 38.7345 27.0562C38.726 26.9884 38.7367 26.9196 38.7654 26.8576C38.7941 26.7955 38.8396 26.7427 38.8967 26.7052C38.9538 26.6677 39.0203 26.6469 39.0886 26.6453C39.1569 26.6436 39.2243 26.6611 39.2832 26.6958C40.2156 27.2373 41.1372 27.2319 42.0481 26.6797C42.0976 26.6504 42.1541 26.635 42.2116 26.6353C42.2691 26.6356 42.3254 26.6515 42.3746 26.6813C42.4238 26.7112 42.4639 26.7538 42.4908 26.8046C42.5176 26.8555 42.53 26.9127 42.5269 26.9701C42.3798 29.1828 42.3798 31.4905 42.5269 33.8932C42.5295 33.9432 42.5189 33.993 42.4962 34.0376C42.4735 34.0822 42.4394 34.1201 42.3974 34.1473C42.3555 34.1746 42.307 34.1903 42.2571 34.1929C42.2071 34.1955 42.1573 34.1849 42.1127 34.1622Z" fill="#B2B2B2"/>
<path d="M50.7513 27.1278L50.7727 33.7012C50.7727 33.7502 50.7537 33.7973 50.7195 33.8325C50.6854 33.8676 50.6388 33.8881 50.5898 33.8895L47.3892 33.9971C47.364 33.9978 47.3389 33.9935 47.3155 33.9843C47.292 33.9752 47.2706 33.9614 47.2526 33.9439C47.2345 33.9263 47.2201 33.9053 47.2104 33.8821C47.2006 33.8589 47.1956 33.834 47.1956 33.8088L47.217 27.0471C47.217 27.0219 47.2221 26.997 47.2319 26.9738C47.2417 26.9506 47.2561 26.9296 47.2741 26.912C47.2922 26.8944 47.3136 26.8807 47.337 26.8715C47.3605 26.8624 47.3855 26.8581 47.4107 26.8588L50.5683 26.9395C50.6173 26.9409 50.6638 26.9614 50.698 26.9965C50.7321 27.0317 50.7513 27.0788 50.7513 27.1278Z" fill="#B2B2B2"/>
<path d="M78.7776 27.1064L78.8099 33.7336C78.8099 33.7821 78.7906 33.8286 78.7563 33.8629C78.722 33.8972 78.6755 33.9165 78.627 33.9165L75.4963 33.9327C75.4723 33.9327 75.4485 33.9279 75.4263 33.9187C75.4041 33.9096 75.3839 33.8961 75.3669 33.8791C75.35 33.8621 75.3365 33.8419 75.3273 33.8197C75.3181 33.7975 75.3134 33.7738 75.3134 33.7498V27.0634C75.3133 27.0389 75.3183 27.0147 75.3278 26.9921C75.3373 26.9696 75.3513 26.9491 75.3688 26.9321C75.3864 26.915 75.4072 26.9017 75.43 26.8928C75.4529 26.884 75.4772 26.8798 75.5017 26.8805L78.6001 26.9235C78.6477 26.9249 78.6928 26.9448 78.7259 26.9789C78.7591 27.0131 78.7776 27.0588 78.7776 27.1064Z" fill="#B2B2B2"/>
<path d="M99.1058 41.7595C97.5404 39.0269 96.4377 35.9607 94.7862 33.1958C94.7426 33.1236 94.7203 33.0406 94.7222 32.9567C94.7241 32.8727 94.7501 32.7915 94.797 32.7224L96.5721 30.0866C96.6147 30.0232 96.6734 29.9723 96.7421 29.9391C96.8109 29.9059 96.8872 29.8916 96.9633 29.8976C97.0394 29.9036 97.1125 29.9298 97.1752 29.9734C97.2379 30.017 97.2878 30.0765 97.3199 30.1457L101.838 39.7316C102.287 40.6855 102.075 41.4601 101.204 42.0554C100.928 42.2455 100.601 42.3513 100.225 42.3728C99.9997 42.3843 99.7759 42.333 99.5783 42.2248C99.3808 42.1165 99.2172 41.9554 99.1058 41.7595Z" fill="#B2B2B2"/>
<path d="M118.019 33.0056C118.994 33.4359 119.981 33.6313 120.978 33.5919C121.027 33.5904 121.076 33.599 121.122 33.6171C121.168 33.6351 121.21 33.6623 121.245 33.697C121.28 33.7317 121.308 33.7732 121.327 33.8189C121.346 33.8646 121.355 33.9136 121.354 33.963C121.322 36.0036 121.327 38.1822 121.37 40.4988C121.388 41.3954 120.843 42.0014 119.735 42.317C119.509 42.3816 119.301 42.3691 119.111 42.2794C118.189 41.8347 117.745 41.1354 117.777 40.1815C117.852 37.7644 117.831 35.4441 117.712 33.2207C117.71 33.1833 117.718 33.146 117.734 33.1122C117.751 33.0785 117.775 33.0495 117.806 33.028C117.837 33.0064 117.872 32.9931 117.91 32.9892C117.947 32.9852 117.985 32.9909 118.019 33.0056Z" fill="#B2B2B2"/>
<path d="M49.3209 40.7248L50.5796 42.9733C51.1427 43.981 50.8881 44.6983 49.8158 45.125C49.762 45.1465 49.7082 45.1681 49.6544 45.1896C48.6252 45.5984 47.8649 45.3061 47.3736 44.3128C46.6385 42.8209 46.1472 42.1324 45.8997 42.2471C45.6559 42.3583 45.2076 42.3942 44.5549 42.3548C41.4134 42.1665 39.2241 39.7566 38.8421 36.7603C38.731 35.8746 39.1864 35.2147 40.2085 34.7807C40.3125 34.7377 40.4183 34.7198 40.5258 34.727C41.7954 34.831 42.4283 35.4783 42.4247 36.6689C42.4247 38.7291 44.953 39.5091 46.3946 38.3526C47.379 37.5618 46.9648 36.6527 47.4597 35.6791C48.0729 34.4742 49.7459 34.4203 50.4721 35.5069C51.3543 36.8195 50.3322 39.1379 49.4016 40.1008C49.2187 40.2873 49.1918 40.4953 49.3209 40.7248Z" fill="#B2B2B2"/>
<path d="M62.0591 36.7979C62.484 33.7156 66.0343 34.3127 65.577 37.0991C64.4582 43.9254 55.5017 44.0653 53.7858 37.4972C53.4523 36.2205 53.7965 35.3562 54.8185 34.9044C55.3457 34.6713 55.846 34.6856 56.3194 34.9474C57.7072 35.7167 56.9541 36.8248 57.6911 37.9006C58.9767 39.778 61.7524 38.998 62.0591 36.7979Z" fill="#B2B2B2"/>
<path d="M83.5106 37.4646C83.8871 36.8083 83.6826 35.9315 84.1345 35.3021C85.0113 34.081 87.0178 34.6352 87.1038 36.2866C87.362 41.0472 82.3056 43.6938 78.3303 41.5313C76.5946 40.5882 75.5869 38.9242 75.3072 36.5394C75.2391 35.9441 75.603 35.4062 76.3991 34.9256C76.5031 34.8647 76.6143 34.8234 76.7326 34.8019C78.9005 34.463 78.5724 36.6792 79.2555 37.8143C80.2991 39.5625 82.5369 39.1375 83.5106 37.4646Z" fill="#B2B2B2"/>
<path d="M106.453 35.8359C106.631 36.9495 106.905 38.0683 108.008 38.6277C109.977 39.639 111.354 38.079 111.655 36.1802C111.699 35.9083 111.805 35.6504 111.967 35.4271C112.129 35.2038 112.341 35.0214 112.586 34.8946C114.081 34.12 114.98 35.3195 114.953 36.7074C114.883 40.5804 110.875 43.27 107.287 42.0274C104.938 41.2133 103.574 39.5673 103.194 37.0893C102.774 34.362 106.152 33.9156 106.453 35.8359Z" fill="#B2B2B2"/>
<path d="M92.7157 35.513C92.7427 35.4998 92.7726 35.4941 92.8026 35.4965C92.8325 35.4989 92.8615 35.5094 92.8865 35.5268C92.9115 35.5442 92.9317 35.568 92.9451 35.5957C92.9586 35.6235 92.9648 35.6543 92.9631 35.6852C92.8591 37.1914 92.8125 38.8285 92.8233 40.5964C92.8268 41.5862 92.2853 42.169 91.1987 42.3447C90.9656 42.3806 90.6662 42.307 90.3004 42.1241C90.0553 42.0021 89.8484 41.8157 89.7023 41.5852C89.5563 41.3547 89.4766 41.0889 89.472 40.8169L89.3967 35.8519C89.3955 35.7912 89.411 35.7314 89.4413 35.6789C89.4717 35.6263 89.5158 35.583 89.5689 35.5537C89.622 35.5244 89.6822 35.5101 89.7429 35.5124C89.8035 35.5147 89.8623 35.5336 89.9131 35.5668C90.6733 36.051 91.6076 36.033 92.7157 35.513Z" fill="#B2B2B2"/>
</svg>
