<svg width="184" height="63" viewBox="0 0 184 63" fill="none" xmlns="http://www.w3.org/2000/svg">
<path d="M14.6776 16.147C24.3925 17.9706 32.7842 22.672 38.9542 30.4128C39.0653 30.5526 39.0635 30.6907 38.9488 30.827C32.9025 38.2001 25.1779 42.8496 15.775 44.7753C15.2765 44.8758 14.7798 44.8955 14.2849 44.8345C14.1056 44.813 13.9783 44.7198 13.903 44.5548C13.6735 44.0599 13.4171 43.3499 13.1338 42.4246C10.4621 33.6708 10.7059 25.064 13.8654 16.6042C13.9244 16.4449 14.0383 16.3117 14.1869 16.228C14.3356 16.1443 14.5093 16.1157 14.6776 16.147Z" fill="#B2B2B2"/>
<path d="M170.832 21.9244L174.382 21.8544C174.414 21.8537 174.445 21.8616 174.473 21.8771C174.501 21.8927 174.524 21.9154 174.54 21.9428C174.556 21.9703 174.564 22.0015 174.564 22.0333C174.564 22.0651 174.555 22.0962 174.538 22.1234L168.099 32.7904C168.082 32.8179 168.073 32.8495 168.073 32.8819L168.051 38.8421C168.051 38.8892 168.032 38.9343 167.999 38.9676C167.966 39.0009 167.921 39.0196 167.874 39.0196L164.167 39.0089C164.12 39.0089 164.075 38.9901 164.042 38.9568C164.008 38.9236 163.99 38.8784 163.99 38.8313V32.9088C163.989 32.8764 163.98 32.8448 163.963 32.8173L157.411 22.0212C157.394 21.9936 157.385 21.962 157.385 21.9297C157.385 21.8975 157.394 21.8658 157.411 21.8381C157.427 21.8105 157.451 21.7879 157.48 21.7728C157.508 21.7576 157.54 21.7505 157.572 21.7522L161.569 21.9566C161.598 21.9578 161.627 21.9663 161.653 21.9813C161.678 21.9963 161.699 22.0174 161.714 22.0427L166.007 29.2025C166.023 29.228 166.045 29.2491 166.071 29.2638C166.098 29.2784 166.127 29.2861 166.158 29.2861C166.188 29.2861 166.217 29.2784 166.244 29.2638C166.27 29.2491 166.292 29.228 166.308 29.2025L170.687 22.0104C170.702 21.9851 170.723 21.964 170.749 21.949C170.774 21.934 170.803 21.9255 170.832 21.9244Z" fill="#B2B2B2"/>
<path d="M54.85 33.3878C54.8067 33.4139 54.7693 33.4487 54.7402 33.49C54.711 33.5313 54.6907 33.5782 54.6806 33.6278C54.6705 33.6773 54.6708 33.7284 54.6814 33.7778C54.6921 33.8272 54.7128 33.8739 54.7424 33.9149L58.0721 38.5411C58.3268 38.8961 58.2353 39.07 57.7978 39.0629L54.7747 39.0145C54.5517 39.0112 54.3325 38.9548 54.1352 38.8501C53.9379 38.7453 53.768 38.5952 53.6396 38.412L48.8629 31.6126C48.8233 31.5559 48.8008 31.4891 48.7982 31.42C48.7955 31.3509 48.8128 31.2825 48.848 31.2229C48.8831 31.1634 48.9347 31.1152 48.9964 31.0842C49.0582 31.0531 49.1276 31.0405 49.1964 31.0478C50.5251 31.1877 52.5746 31.037 53.4406 29.8751C54.3497 28.654 54.183 26.6368 52.8328 25.7815C51.5471 24.9639 49.0296 25.0446 47.3728 25.1199C47.3125 25.1227 47.2556 25.1485 47.2144 25.1917C47.1732 25.2349 47.1509 25.2922 47.1523 25.3512L47.163 38.6379C47.163 38.8854 47.0393 39.0109 46.7919 39.0145L43.5213 39.036C43.4693 39.0367 43.4176 39.0271 43.3694 39.0076C43.3211 38.9882 43.2772 38.9594 43.2401 38.9229C43.2031 38.8863 43.1737 38.8428 43.1536 38.7948C43.1336 38.7468 43.1232 38.6953 43.1232 38.6433L43.1178 22.1128C43.1178 22.0832 43.1237 22.0538 43.135 22.0264C43.1464 21.999 43.163 21.9741 43.184 21.9531C43.205 21.9321 43.2299 21.9155 43.2573 21.9041C43.2847 21.8928 43.3141 21.8869 43.3438 21.8869C45.9868 21.8403 48.6495 21.8493 51.332 21.9138C54.5972 21.9891 57.3029 23.7051 57.9484 27.0403C58.4648 29.7119 57.432 31.8278 54.85 33.3878Z" fill="#B2B2B2"/>
<path d="M70.0031 35.4631C72.0257 34.3388 71.8535 32.1764 71.8912 29.7019C71.9306 27.1773 71.9127 24.7351 71.8374 22.3754C71.8266 22.0598 71.9808 21.9002 72.3 21.8966L75.3285 21.859C75.3918 21.8583 75.4547 21.8701 75.5134 21.8939C75.5721 21.9176 75.6255 21.9527 75.6705 21.9973C75.7156 22.0418 75.7513 22.0948 75.7757 22.1533C75.8001 22.2117 75.8127 22.2744 75.8127 22.3377C75.827 25.49 75.8162 28.653 75.7804 31.8267C75.7266 36.0369 73.7112 38.4862 69.7341 39.1748C65.8933 39.8364 61.9396 38.4701 60.7077 34.5486C60.4065 33.5875 60.2505 32.3306 60.2397 30.7778C60.2218 27.8981 60.2092 25.0668 60.2021 22.2839C60.2021 22.015 60.3365 21.8805 60.6055 21.8805L63.9568 21.859C64.1935 21.859 64.31 21.9791 64.3064 22.2194C64.2204 26.114 64.215 29.3989 64.2903 32.0742C64.328 33.3544 64.8874 34.8875 66.1139 35.447C67.5519 36.0997 68.8483 36.105 70.0031 35.4631Z" fill="#B2B2B2"/>
<path d="M91.0788 30.1932C91.2007 30.3761 91.389 30.516 91.6436 30.6128C91.9412 30.7276 92.1457 30.828 92.2568 30.914C94.9465 32.9958 94.1073 37.0733 91.1541 38.3212C90.0782 38.7767 88.7316 39.0188 87.1143 39.0475C84.1772 39.1013 81.2419 39.0564 78.3084 38.913C78.1506 38.9058 78.0718 38.8233 78.0718 38.6655L78.1094 22.2534C78.1094 22.0777 78.1973 21.9845 78.373 21.9737C79.933 21.9056 82.5312 21.8805 86.1675 21.8984C87.7956 21.902 89.2014 22.1459 90.3849 22.63C93.3488 23.8403 94.1342 27.8425 91.2133 29.6176C91.1659 29.6465 91.1247 29.6844 91.0921 29.7293C91.0596 29.7741 91.0363 29.8249 91.0238 29.8785C91.0112 29.9322 91.0096 29.9877 91.0191 30.0418C91.0285 30.0958 91.0488 30.1473 91.0788 30.1932ZM81.9771 25.212L81.9663 28.5149C81.9663 28.6148 82.006 28.7105 82.0766 28.7812C82.1472 28.8518 82.243 28.8914 82.3429 28.8914L86.0761 28.9022C86.8489 28.9046 87.5907 28.6992 88.1384 28.331C88.6861 27.9628 88.995 27.4621 88.997 26.9388V26.8312C88.998 26.5718 88.9235 26.3147 88.7778 26.0745C88.6321 25.8343 88.418 25.6158 88.1477 25.4315C87.8774 25.2472 87.5563 25.1006 87.2027 25.0002C86.8491 24.8997 86.4699 24.8474 86.0868 24.8462L82.3536 24.8355C82.3042 24.8355 82.2552 24.8452 82.2095 24.8641C82.1639 24.883 82.1223 24.9108 82.0874 24.9457C82.0524 24.9807 82.0247 25.0222 82.0057 25.0679C81.9868 25.1136 81.9771 25.1626 81.9771 25.212ZM81.9448 32.275V35.5886C81.9448 35.7056 81.9913 35.8178 82.074 35.9005C82.1567 35.9832 82.2689 36.0297 82.3859 36.0297H86.9852C87.7456 36.0297 88.4748 35.8376 89.0125 35.4956C89.5502 35.1536 89.8523 34.6898 89.8523 34.2061V33.6574C89.8523 33.1738 89.5502 32.71 89.0125 32.368C88.4748 32.026 87.7456 31.8339 86.9852 31.8339H82.3859C82.2689 31.8339 82.1567 31.8803 82.074 31.9631C81.9913 32.0458 81.9448 32.158 81.9448 32.275Z" fill="#B2B2B2"/>
<path d="M102.445 29.0726L106.437 22.5045C106.691 22.0885 107.062 21.8787 107.55 21.8751L110.111 21.859C110.598 21.8554 110.711 22.0616 110.449 22.4776C108.463 25.6262 106.55 28.7426 104.71 31.8267C104.29 32.526 104.068 33.2684 104.043 34.0537C103.996 35.6173 104.018 37.1863 104.107 38.7606C104.118 38.9256 104.041 39.008 103.876 39.008H100.331C100.13 39.008 100.03 38.9058 100.03 38.7014L100.073 33.7956C100.076 33.2428 99.9295 32.6998 99.648 32.2248C97.6167 28.7964 95.5389 25.3733 93.4146 21.9556C93.4102 21.9486 93.4034 21.9425 93.4024 21.9343C93.4019 21.9302 93.4028 21.9259 93.4051 21.922C93.4073 21.918 93.4108 21.9145 93.4152 21.912C93.4195 21.9094 93.4245 21.9078 93.4296 21.9074C94.2006 21.8572 95.5579 21.8554 97.5016 21.902C97.561 21.9035 97.6192 21.92 97.6709 21.9501C97.7226 21.9801 97.7661 22.0228 97.7975 22.0742L101.977 29.0726C102.131 29.3308 102.287 29.3308 102.445 29.0726Z" fill="#B2B2B2"/>
<path d="M116.937 25.4703L116.954 38.5257C116.954 38.6613 116.899 38.7913 116.802 38.8871C116.705 38.9829 116.574 39.0368 116.437 39.0368L113.452 39.026C113.158 39.0224 113.011 38.8736 113.011 38.5796L112.978 22.1298C112.978 21.9684 113.059 21.8859 113.22 21.8823C115.695 21.8644 118.153 21.868 120.595 21.8931C124.318 21.9361 127.518 23.5983 127.803 27.6866C128.164 32.9529 123.532 34.5612 119.025 34.3192C118.562 34.2941 118.331 34.0502 118.331 33.5876V31.6726C118.331 31.5907 118.347 31.5096 118.379 31.4343C118.412 31.359 118.459 31.2911 118.518 31.2347C118.578 31.1783 118.648 31.1347 118.725 31.1064C118.802 31.078 118.884 31.0657 118.965 31.0701C121.176 31.1885 124.253 30.7097 123.812 27.6435C123.392 24.7334 119.675 25.0131 117.271 25.1207C117.049 25.1314 116.937 25.248 116.937 25.4703Z" fill="#B2B2B2"/>
<path d="M134.404 35.7804L141.268 35.7266C141.328 35.7258 141.387 35.7405 141.44 35.7692C141.492 35.7978 141.537 35.8396 141.569 35.8904C141.6 35.9411 141.619 35.9992 141.622 36.0591C141.625 36.119 141.612 36.1786 141.585 36.2322L140.262 38.8358C140.233 38.8938 140.189 38.9427 140.133 38.9769C140.078 39.0111 140.015 39.0293 139.95 39.0294L130.493 39.0187C130.401 39.0187 130.312 38.9818 130.246 38.9163C130.18 38.8507 130.144 38.7618 130.144 38.669L130.128 22.1924C130.127 22.146 130.137 22.1001 130.155 22.0573C130.173 22.0146 130.199 21.9758 130.232 21.9432C130.265 21.9107 130.304 21.885 130.347 21.8678C130.39 21.8505 130.436 21.842 130.483 21.8427L133.732 21.8912C133.823 21.8926 133.911 21.93 133.975 21.9954C134.04 22.0609 134.076 22.149 134.076 22.2408L134.049 35.4307C134.049 35.4771 134.058 35.523 134.076 35.5658C134.094 35.6086 134.12 35.6474 134.153 35.6799C134.186 35.7124 134.225 35.7381 134.269 35.7553C134.312 35.7726 134.358 35.7811 134.404 35.7804Z" fill="#B2B2B2"/>
<path d="M156.152 35.6998C156.089 35.5917 156 35.5019 155.892 35.4396C155.785 35.3772 155.663 35.3446 155.539 35.3448H148.546C148.429 35.3445 148.315 35.379 148.218 35.444C148.12 35.5091 148.043 35.6018 147.997 35.7105L146.91 38.3302C146.706 38.818 146.338 39.06 145.808 39.0564L143.193 39.0403C142.72 39.0367 142.58 38.8179 142.774 38.384L150.009 22.1763C150.088 22.0006 150.226 21.911 150.423 21.9074L153.597 21.8428C153.772 21.8392 153.905 21.911 153.995 22.058C154.4 22.7215 154.76 23.4046 155.076 24.1075C157.307 29.0636 159.532 34.0071 161.752 38.9381C161.756 38.948 161.758 38.9588 161.757 38.9697C161.757 38.9805 161.753 38.9909 161.747 39.0001C161.741 39.0092 161.733 39.0167 161.724 39.0218C161.714 39.027 161.703 39.0296 161.692 39.0295L157.626 38.9865C157.554 38.9865 157.507 38.9524 157.486 38.8843C156.998 37.4642 156.553 36.4027 156.152 35.6998ZM149.562 31.9505C149.546 31.9887 149.54 32.0302 149.544 32.0714C149.548 32.1127 149.562 32.1523 149.585 32.1868C149.608 32.2213 149.639 32.2497 149.675 32.2695C149.711 32.2892 149.752 32.2997 149.794 32.3001L154.404 32.284C154.445 32.2836 154.486 32.2731 154.522 32.2533C154.558 32.2335 154.589 32.2052 154.612 32.1706C154.635 32.1361 154.649 32.0965 154.653 32.0553C154.657 32.0141 154.651 31.9725 154.635 31.9343L152.311 26.2753C152.292 26.2291 152.259 26.1897 152.217 26.1622C152.175 26.1347 152.125 26.1203 152.075 26.1209C152.025 26.1215 151.976 26.137 151.935 26.1655C151.893 26.1939 151.861 26.234 151.843 26.2807L149.562 31.9505Z" fill="#B2B2B2"/>
</svg>
