<svg width="184" height="63" viewBox="0 0 184 63" fill="none" xmlns="http://www.w3.org/2000/svg">
<path d="M46.861 37.1345L46.7588 37.043C46.6956 36.9822 46.6119 36.9473 46.5242 36.9453C46.4365 36.9433 46.3513 36.9743 46.2854 37.0322C45.3423 37.8499 44.4081 38.6335 43.4828 39.383C42.7226 39.9998 41.878 40.8712 40.9492 41.9973C39.9953 43.1556 38.559 44.3695 36.6404 45.639C34.3327 47.1614 30.7394 48.6514 28.6307 45.8811C28.5195 45.7377 28.4855 45.5763 28.5285 45.397C28.6504 44.8806 28.9015 44.4305 29.2816 44.0468C31.4154 41.9059 33.9759 40.3638 36.9632 39.4206C37.0073 39.4071 37.0541 39.4046 37.0994 39.4136C37.1447 39.4225 37.1871 39.4425 37.2228 39.4718C37.2585 39.5011 37.2864 39.5388 37.304 39.5815C37.3215 39.6242 37.3283 39.6706 37.3236 39.7165C37.1514 41.1689 34.9298 42.1103 33.8325 42.8096C33.7768 42.8456 33.7312 42.8952 33.6999 42.9537C33.6686 43.0121 33.6527 43.0774 33.6538 43.1433C33.6549 43.2092 33.6729 43.2734 33.7061 43.3299C33.7392 43.3864 33.7864 43.4332 33.8432 43.4658C34.0584 43.5913 34.3363 43.6093 34.677 43.5196C36.2334 43.1144 37.3666 42.1981 38.0767 40.7708C38.1592 40.6095 38.1735 40.4409 38.1197 40.2652C38.0444 39.9998 37.9045 39.7703 37.7001 39.5766C37.5531 39.4332 37.5567 39.2951 37.7109 39.1624L39.1687 37.9037C39.2783 37.8088 39.3493 37.6769 39.3682 37.5331C39.387 37.3893 39.3524 37.2436 39.2709 37.1237C37.9207 35.1065 36.3123 33.3421 34.3704 31.7875C32.6132 30.3817 31.1787 28.6603 30.067 26.6234C28.195 23.1968 30.2552 20.7708 32.1703 18.1296C32.7405 17.3478 33.4613 16.6126 34.3327 15.9241C35.7206 14.8375 37.0654 13.6433 38.6146 12.8579C40.0598 12.1192 41.5248 11.4539 43.0095 10.8622C43.3661 10.721 43.7636 10.7234 44.1186 10.8688C44.4736 11.0142 44.7585 11.2914 44.9137 11.6422C45.4947 12.9583 45.4893 14.2242 44.8976 15.4399C44.2252 16.817 42.2348 17.8983 40.9869 19.0925C39.8841 20.1575 38.9427 20.7116 37.6463 21.3033C37.6006 21.3247 37.5506 21.3354 37.5001 21.3346C37.4496 21.3338 37.3999 21.3215 37.3548 21.2987C37.3098 21.2759 37.2705 21.2432 37.2399 21.203C37.2093 21.1628 37.1883 21.1162 37.1784 21.0666C37.0421 20.3781 37.3146 19.7613 37.996 19.2162C38.7921 18.5814 39.4251 17.875 39.8949 17.0968C39.9339 17.0327 39.9548 16.9592 39.9554 16.8842C39.9559 16.8092 39.936 16.7354 39.8979 16.6708C39.8598 16.6062 39.8049 16.5531 39.739 16.5173C39.6731 16.4815 39.5987 16.4642 39.5237 16.4674C39.0898 16.4817 38.6541 16.5929 38.2165 16.8009C37.9466 16.9288 37.7035 17.1097 37.5011 17.3334C36.4539 18.4954 35.6184 19.5353 34.9944 20.4534C33.8055 22.2124 34.5102 23.6272 35.5215 25.4185C36.5221 27.1864 37.7611 28.6585 39.2386 29.8348C40.1029 30.5234 40.7538 31.1886 41.1913 31.8305C42.1703 33.2668 43.3806 34.6223 43.655 36.4136C43.6628 36.4664 43.6847 36.5161 43.7185 36.5575C43.7523 36.5988 43.7966 36.6302 43.8468 36.6484C43.8969 36.6666 43.9511 36.6709 44.0035 36.6608C44.0559 36.6507 44.1046 36.6267 44.1445 36.5911C44.7147 36.0891 45.3243 35.5852 45.9734 35.0796C47.1407 34.1759 48.265 34.504 48.7222 32.4276C49.3354 29.6125 50.2087 26.4674 51.3419 22.9924C51.8009 21.583 52.1488 20.2651 52.3855 19.0387C52.8051 16.8762 53.4828 14.4824 53.1708 12.2877C52.9485 10.7564 53.447 10.4677 54.6663 11.4216L56.7803 13.0677C56.9238 13.1825 56.9829 13.3313 56.9578 13.5142C56.5418 16.3293 56.5508 18.8898 56.9847 21.1957C57.5764 24.3372 58.0337 27.4518 58.3564 30.5395C58.3674 30.6555 58.4227 30.7629 58.511 30.8391C58.5992 30.9152 58.7134 30.9544 58.8298 30.9483C59.7299 30.8981 60.4992 31.0057 61.1375 31.2711C61.6539 31.4862 61.6414 31.6656 61.0999 31.809C60.6193 31.9345 60.0975 31.9632 59.5345 31.8951C59.4537 31.8843 59.3714 31.8943 59.2956 31.9242C59.2197 31.9541 59.1527 32.0029 59.101 32.0659C59.0493 32.129 59.0145 32.2042 59 32.2844C58.9855 32.3647 58.9917 32.4473 59.0181 32.5244L60.223 36.1985C60.2544 36.2931 60.3078 36.3789 60.3788 36.4488C60.4498 36.5188 60.5364 36.5709 60.6314 36.6008C60.7265 36.6308 60.8273 36.6377 60.9256 36.6211C61.0239 36.6044 61.1168 36.5647 61.1967 36.5051C62.7818 35.3252 64.5497 34.4179 66.5006 33.7832C66.6225 33.7437 66.714 33.7796 66.775 33.8908L66.8449 34.0145C66.8808 34.0826 66.8664 34.1346 66.8019 34.1705C64.8044 35.275 62.9109 36.5105 61.1214 37.8768C61.0665 37.9177 61.027 37.9756 61.0094 38.0412C60.9918 38.1067 60.9972 38.1758 61.0246 38.2372C62.1219 40.7439 62.7029 43.8155 63.4667 45.9295C64.288 48.2032 65.2634 50.6256 66.393 53.1969C66.7911 54.1078 67.0099 55.2051 67.0493 56.489C67.0977 58.1888 65.7099 59.5982 64.0369 59.5767C63.5062 59.5695 63.0418 59.3956 62.6437 59.0549C59.6564 56.4872 57.1049 54.1831 54.989 52.1426C53.2031 50.4212 50.7771 46.9247 51.7561 44.3158C52.7782 41.5903 54.6143 39.5623 57.2645 38.2318C57.4223 38.1529 57.4599 38.0346 57.3774 37.8768C56.5562 36.263 56.0075 34.5883 55.7314 32.8526C55.7227 32.799 55.7023 32.748 55.6717 32.7032C55.6411 32.6583 55.6011 32.6207 55.5544 32.593C55.5078 32.5653 55.4556 32.5482 55.4016 32.5429C55.3476 32.5375 55.2931 32.5441 55.2419 32.5621C54.0943 32.9673 52.9216 33.4264 51.7238 33.9392C50.5673 34.4341 50.0455 34.547 49.7604 35.9134C49.244 38.3663 48.351 40.0608 45.9788 41.2066C45.8972 41.2456 45.8062 41.2608 45.7163 41.2503C45.6265 41.2398 45.5414 41.204 45.4711 41.1472C45.4007 41.0903 45.3479 41.0147 45.3187 40.929C45.2896 40.8434 45.2853 40.7512 45.3064 40.6632C45.5933 39.5085 46.1187 38.395 46.8825 37.3227C46.9291 37.2546 46.922 37.1918 46.861 37.1345ZM53.542 25.4453C52.8857 26.7902 52.3765 28.1888 52.0143 29.6412C51.7991 30.5018 51.2289 31.2227 51.0138 32.1371C51.004 32.1824 51.0062 32.2295 51.0204 32.2736C51.0346 32.3178 51.0601 32.3574 51.0945 32.3885C51.1289 32.4196 51.1708 32.4411 51.2162 32.4508C51.2615 32.4605 51.3086 32.458 51.3527 32.4437L54.9568 31.2603C55.0533 31.2283 55.1334 31.1596 55.1797 31.069C55.226 30.9784 55.2348 30.8732 55.2042 30.7762C54.5963 28.7536 54.0262 27.0806 54.1875 24.9774C54.2162 24.5649 54.1086 24.5255 53.8648 24.859C53.7859 24.9702 53.6783 25.1656 53.542 25.4453ZM60.6534 48.9365C59.4413 45.8237 58.5124 42.8723 57.8669 40.0823C57.806 39.8097 57.6554 39.7452 57.4151 39.8886C54.7631 41.497 52.805 43.724 53.8217 47.0323C54.0943 47.9181 54.6914 48.759 55.613 49.5551C57.8562 51.497 59.8573 53.8101 62.4608 55.7467C62.7298 55.9439 62.823 55.8811 62.7405 55.5584C62.1416 53.1843 61.4459 50.9771 60.6534 48.9365Z" fill="#B2B2B2"/>
<path d="M86.8178 34.1426C86.7784 33.8306 86.6044 33.6746 86.296 33.6746L84.607 33.6693C84.1193 33.6693 83.8628 33.4272 83.8377 32.943L83.8162 32.6418C83.7875 32.1397 84.0242 31.8905 84.5263 31.8941L88.2864 31.8995C88.3264 31.8995 88.366 31.9074 88.4029 31.9229C88.4398 31.9384 88.4732 31.9611 88.5013 31.9896C88.5293 32.0181 88.5514 32.052 88.5662 32.0892C88.581 32.1263 88.5883 32.1661 88.5876 32.2061C88.5589 33.9095 88.5643 35.6183 88.6038 37.3325C88.6217 38.0964 88.2666 38.5733 87.5386 38.7634C85.0588 39.4035 81.0244 39.5057 79.147 37.1819C76.7156 34.1695 76.7694 30.5009 79.6473 27.7897C81.6538 25.9016 85.4461 25.9715 87.6678 27.1173C88.2057 27.3935 88.3473 27.8059 88.0927 28.3545L87.9206 28.7203C87.6624 29.2726 87.2661 29.3999 86.7318 29.1023C83.9184 27.5208 80.3251 28.4998 79.7118 31.8403C79.416 33.4487 79.8302 35.1647 81.2127 36.1652C82.4391 37.0546 83.9919 37.363 85.8711 37.0904C86.3731 37.0187 86.6762 36.7336 86.7802 36.2351C86.9057 35.6255 86.9183 34.928 86.8178 34.1426Z" fill="#B2B2B2"/>
<path d="M162.488 36.4369L162.563 34.0808C162.567 33.9932 162.537 33.9076 162.48 33.8408C162.423 33.7741 162.344 33.7311 162.257 33.7204L160.567 33.5213C160.216 33.4783 160.039 33.2792 160.035 32.9242L160.03 32.623C160.022 32.1819 160.239 31.9542 160.68 31.9398L164.306 31.8215C164.496 31.8143 164.591 31.9058 164.591 32.0958L164.602 38.1044C164.602 38.2909 164.514 38.4128 164.338 38.4702C162.803 38.9759 161.134 39.1928 159.33 39.1211C154.86 38.949 151.547 33.5805 154.059 29.6698C156.377 26.0442 160.304 25.4525 164.032 27.3029C164.523 27.5432 164.625 27.8946 164.338 28.3572L163.999 28.9006C163.745 29.313 163.397 29.4152 162.956 29.2072C161.988 28.7446 161.367 28.4864 161.095 28.4326C157.62 27.744 155.791 29.885 155.957 33.1071C156.076 35.4094 157.098 36.8618 159.47 37.1846C160.496 37.3209 161.412 37.2061 162.219 36.8403C162.395 36.7614 162.484 36.6269 162.488 36.4369Z" fill="#B2B2B2"/>
<path d="M96.5279 36.4681L95.963 38.1733C95.7909 38.6861 95.4359 38.9354 94.8979 38.921L93.6284 38.8941C93.1264 38.8834 92.9883 38.6521 93.2143 38.2002C93.8454 36.9271 94.464 35.672 95.0701 34.4347C96.0598 32.4121 96.7269 29.8355 97.8727 27.6085C98.3837 26.6187 99.1583 26.1453 100.17 26.6886C100.331 26.7747 100.444 26.902 100.509 27.0706C101.756 30.3017 103.186 33.4485 104.796 36.5111C105.075 37.0419 105.249 37.6874 105.318 38.4477C105.332 38.627 105.249 38.7363 105.07 38.7758C104.511 38.8905 103.964 38.8977 103.429 38.7973C103.232 38.7614 103.087 38.6575 102.994 38.4853L101.864 36.4143C101.753 36.2135 101.583 36.1131 101.353 36.1131L97.0012 36.1292C96.761 36.1292 96.6032 36.2422 96.5279 36.4681ZM97.3832 33.7731C97.3597 33.825 97.3496 33.8819 97.3539 33.9387C97.3582 33.9955 97.3768 34.0503 97.4079 34.098C97.439 34.1457 97.4816 34.1848 97.5318 34.2117C97.582 34.2386 97.6382 34.2524 97.6951 34.2518L100.74 34.2465C100.794 34.247 100.848 34.2344 100.897 34.2097C100.945 34.185 100.987 34.1489 101.019 34.1046C101.051 34.0602 101.071 34.0089 101.079 33.9549C101.086 33.901 101.081 33.846 101.063 33.7946L99.7178 29.97C99.6954 29.9059 99.6544 29.8499 99.5999 29.8095C99.5454 29.769 99.48 29.7458 99.4122 29.7429C99.3444 29.74 99.2773 29.7575 99.2195 29.7932C99.1618 29.8289 99.1161 29.8811 99.0884 29.9431L97.3832 33.7731Z" fill="#B2B2B2"/>
<path d="M116.846 34.7843C117.248 34.1926 117.517 33.5327 117.653 32.8047C118.037 30.775 118.671 28.8564 119.557 27.049C119.611 26.9387 119.692 26.8439 119.792 26.7734C119.891 26.7029 120.007 26.6589 120.127 26.6455C121.081 26.5343 121.972 26.5397 122.801 26.6616C123.045 26.6975 123.167 26.8392 123.167 27.0866V38.2593C123.167 38.4034 123.112 38.5422 123.013 38.648C122.914 38.7538 122.779 38.8186 122.634 38.8295L121.816 38.8887C121.49 38.9138 121.321 38.7632 121.311 38.4368C121.199 35.7866 121.241 32.8406 121.434 29.5987C121.436 29.5757 121.43 29.5527 121.418 29.533C121.406 29.5132 121.389 29.4976 121.368 29.4882C121.346 29.4789 121.323 29.4762 121.3 29.4805C121.278 29.4849 121.257 29.4961 121.241 29.5126C120.954 29.8354 120.717 30.1904 120.531 30.5777C119.265 33.1921 118.286 35.801 117.594 38.4045C117.554 38.5444 117.472 38.6502 117.346 38.7219C116.367 39.2598 115.679 38.7649 115.264 37.8182C114.146 35.2146 113.299 32.5214 112.725 29.7386C112.715 29.6884 112.684 29.6579 112.634 29.6471C112.577 29.6364 112.528 29.6346 112.489 29.6418C112.446 29.6525 112.419 29.692 112.408 29.7601C111.983 32.482 112.187 35.6557 112.171 38.3023C112.171 38.6681 111.987 38.851 111.617 38.851L110.235 38.8456C110.116 38.8456 110.003 38.7986 109.919 38.7149C109.835 38.6311 109.788 38.5176 109.788 38.3992L109.778 27.1243C109.778 26.7298 109.975 26.5379 110.369 26.5487L113.054 26.6294C113.201 26.6341 113.342 26.6906 113.452 26.7889C113.563 26.8873 113.635 27.0212 113.656 27.1673C113.749 27.8164 113.875 28.331 114.033 28.7111C114.843 30.6692 115.634 32.6756 116.405 34.7305C116.516 35.0318 116.663 35.0497 116.846 34.7843Z" fill="#B2B2B2"/>
<path d="M130.583 26.5753H129.766C129.471 26.5753 129.233 26.8138 129.233 27.1079V38.3398C129.233 38.6339 129.471 38.8723 129.766 38.8723H130.583C130.877 38.8723 131.116 38.6339 131.116 38.3398V27.1079C131.116 26.8138 130.877 26.5753 130.583 26.5753Z" fill="#B2B2B2"/>
<path d="M139.394 30.3356L139.367 38.2915C139.364 38.6214 139.199 38.7972 138.872 38.8187L137.936 38.8886C137.851 38.8945 137.766 38.8829 137.686 38.8545C137.605 38.8261 137.532 38.7816 137.469 38.7236C137.407 38.6656 137.357 38.5955 137.322 38.5175C137.288 38.4394 137.27 38.3552 137.269 38.27L137.221 27.221C137.221 26.8516 137.404 26.6454 137.77 26.6024C138.985 26.4571 139.771 26.4087 140.578 27.4738C141.144 28.2233 141.695 28.9836 142.229 29.7546C143.369 31.3953 144.214 33.4502 145.37 35.193C145.711 35.7023 145.882 35.6503 145.882 35.0371L145.876 27.1726C145.876 26.7602 146.082 26.5576 146.495 26.5647L147.092 26.5701C147.54 26.5737 147.764 26.7996 147.764 27.2479L147.77 38.3722C147.77 38.5551 147.684 38.6734 147.511 38.7272C145.966 39.2042 144.872 38.7882 144.23 37.4792C142.946 34.8398 141.454 32.4174 139.755 30.2119C139.518 29.9035 139.398 29.9447 139.394 30.3356Z" fill="#B2B2B2"/>
<path d="M65.5341 32.2437C66.5675 32.4222 67.4721 32.1801 67.5545 31.7029C67.6369 31.2257 66.866 30.6942 65.8326 30.5157C64.7992 30.3372 63.8946 30.5793 63.8122 31.0565C63.7297 31.5337 64.5007 32.0652 65.5341 32.2437Z" fill="#B2B2B2"/>
</svg>
