<svg width="184" height="63" viewBox="0 0 184 63" fill="none" xmlns="http://www.w3.org/2000/svg">
<path d="M37.1391 34.9937L37.1498 34.7678C37.1549 34.6575 37.1377 34.5473 37.0993 34.4438C37.0609 34.3403 37.002 34.2455 36.9262 34.1652C36.8504 34.0849 36.7593 34.0207 36.6581 33.9763C36.557 33.932 36.448 33.9085 36.3376 33.9071C32.4394 33.839 28.2902 33.8408 23.89 33.9125C20.9798 33.9609 18.7743 33.0142 18.8281 29.7651C18.8998 25.4653 18.9088 21.1529 18.855 16.828C18.8538 16.7322 18.8728 16.6371 18.9108 16.5491C18.9488 16.461 19.0048 16.382 19.0753 16.317C19.1459 16.2521 19.2293 16.2027 19.3201 16.1721C19.411 16.1415 19.5073 16.1304 19.6027 16.1395C23.2965 16.5017 26.8701 16.6344 30.3236 16.5376C31.5357 16.5053 32.6886 16.6631 33.7824 17.0109C35.9843 17.7174 37.4744 18.3217 38.2526 18.8237C41.0462 20.6168 43.2069 22.9944 44.7346 25.9566C44.7463 25.9794 44.7525 26.0047 44.7525 26.0303C44.7525 26.0559 44.7464 26.081 44.7347 26.1034C44.723 26.1257 44.7061 26.1446 44.6854 26.1584C44.6647 26.1723 44.641 26.1805 44.6162 26.1825C44.4333 26.2041 44.2486 26.1503 44.0622 26.0212C42.4197 24.8987 40.5603 24.3088 38.4839 24.2514C34.6754 24.1474 30.8077 24.1097 26.8808 24.1384C26.7067 24.1393 26.5392 24.2062 26.4116 24.3258C26.2841 24.4454 26.2058 24.6089 26.1923 24.7839L26.1493 25.3757C26.1098 25.9064 26.3555 26.1736 26.8862 26.1772C31.6666 26.2023 36.3985 26.2184 41.0821 26.2256C42.1615 26.2256 43.1226 26.7205 43.9653 27.7102C44.4817 28.3163 44.7507 29.2613 44.7722 30.5451C44.8224 33.4535 44.8601 36.2202 44.8852 38.8453C44.8995 40.3766 44.7973 41.8397 44.5786 43.2348C44.5577 43.3687 44.489 43.4905 44.3851 43.5776C44.2812 43.6647 44.1493 43.711 44.0137 43.7081C40.8292 43.64 37.4349 43.579 33.8308 43.5252C30.424 43.4786 27.1928 42.4691 24.1374 40.4967C22.0234 39.1304 20.5925 37.2961 19.2531 35.0206C18.6757 34.0416 18.8783 33.8408 19.8609 34.4182C21.5751 35.4331 23.257 35.9208 24.9067 35.8813C28.5287 35.7953 32.3228 35.7684 36.2891 35.8006C36.5077 35.8022 36.7183 35.7191 36.8768 35.5686C37.0353 35.4181 37.1293 35.2121 37.1391 34.9937Z" fill="#B2B2B2"/>
<path d="M63.7126 35.5893C64.4334 33.9379 62.7551 32.819 61.3565 32.4317C60.0511 32.0695 58.5808 31.7055 56.9455 31.3397C55.7244 31.0653 54.1537 30.2746 53.8686 28.9567C53.4436 27.0201 54.7077 25.7184 56.5313 25.2557C59.3769 24.5296 64.116 24.9115 64.2505 28.7415C64.2541 28.8347 64.2075 28.885 64.1107 28.8921L63.9654 28.9029C63.8896 28.9075 63.8146 28.8852 63.7536 28.8399C63.6926 28.7947 63.6495 28.7293 63.6319 28.6554C63.2912 27.1564 62.3929 26.2186 60.9369 25.8421C58.7924 25.2862 57.0334 25.4691 55.6599 26.3908C53.3306 27.9615 54.9229 30.3015 57.0907 30.7533C58.475 31.0438 59.8593 31.3343 61.2435 31.6248C63.4867 32.0928 65.8535 34.3413 63.9869 36.7135C62.2333 38.9513 57.7201 38.7039 55.5092 37.6011C54.1537 36.9269 53.4185 35.7955 53.3038 34.2068C53.2894 33.9988 53.3844 33.8805 53.5889 33.8518L53.7556 33.8249C53.8003 33.8187 53.8457 33.8303 53.8827 33.8573C53.9196 33.8843 53.9454 33.9246 53.9546 33.9701C54.2236 35.5229 54.9104 36.5522 56.0149 37.0578C58.0214 37.9723 62.5614 38.2413 63.7126 35.5893Z" fill="#B2B2B2"/>
<path d="M82.3524 25.8756C82.3253 26.2731 82.5558 26.6125 82.8672 26.6337C83.1787 26.655 83.4532 26.35 83.4803 25.9525C83.5074 25.555 83.2768 25.2155 82.9654 25.1943C82.6539 25.1731 82.3795 25.4781 82.3524 25.8756Z" fill="#B2B2B2"/>
<path d="M172.831 25.2575L172.433 25.2582C172.353 25.2584 172.288 25.3235 172.288 25.4037L172.31 37.7545C172.31 37.8347 172.375 37.8996 172.455 37.8994L172.853 37.8988C172.934 37.8986 172.998 37.8335 172.998 37.7533L172.977 25.4025C172.977 25.3223 172.911 25.2574 172.831 25.2575Z" fill="#B2B2B2"/>
<path d="M70.1781 30.0781C72.8032 27.7274 77.1389 28.077 78.1663 31.7887C78.758 33.9243 78.2793 36.7537 76.2513 37.8672C74.0781 39.065 72.1326 38.8212 70.4148 37.1357C69.7944 36.526 69.5505 36.6515 69.6832 37.5122C69.8518 38.6454 69.8392 39.8253 69.6456 41.0518C69.6276 41.1665 69.5613 41.24 69.4465 41.2723C69.3927 41.2867 69.3354 41.2867 69.2744 41.2723C69.174 41.2472 69.1184 41.1827 69.1076 41.0787C68.9929 40.0243 68.9785 38.9467 69.0646 37.8457C69.1435 36.8129 69.1507 35.816 69.0861 34.8549C69.0036 33.589 69.0305 32.2657 69.1668 30.885C69.2206 30.3417 69.0915 29.906 68.9678 29.4326C68.8387 28.9341 68.9785 28.8427 69.3874 29.1582C69.6384 29.3519 69.7908 29.6191 69.8446 29.9598C69.884 30.2036 69.9952 30.2431 70.1781 30.0781ZM77.6726 33.0608C77.6826 32.5834 77.5985 32.1086 77.425 31.6637C77.2516 31.2188 76.9922 30.8124 76.6616 30.4677C76.3311 30.1231 75.9359 29.8469 75.4987 29.6549C75.0614 29.463 74.5906 29.359 74.1132 29.3491L73.4463 29.3351C72.9689 29.3251 72.4942 29.4092 72.0492 29.5827C71.6043 29.7561 71.1979 30.0155 70.8533 30.3461C70.5086 30.6766 70.2324 31.0718 70.0405 31.509C69.8485 31.9463 69.7446 32.4171 69.7346 32.8945L69.7089 34.1207C69.6989 34.5981 69.783 35.0729 69.9565 35.5178C70.1299 35.9627 70.3893 36.3691 70.7199 36.7138C71.0504 37.0584 71.4456 37.3346 71.8828 37.5266C72.3201 37.7185 72.7909 37.8225 73.2683 37.8324L73.9352 37.8464C74.4126 37.8564 74.8874 37.7723 75.3323 37.5988C75.7772 37.4254 76.1836 37.166 76.5282 36.8354C76.8729 36.5049 77.1491 36.1097 77.341 35.6725C77.533 35.2352 77.6369 34.7644 77.6469 34.287L77.6726 33.0608Z" fill="#B2B2B2"/>
<path d="M89.2206 29.7219C89.7047 29.4906 90.1297 29.1033 90.5816 28.9311C92.6633 28.1404 96.2728 28.8451 96.2405 31.7284C96.219 33.7438 96.2423 35.7305 96.3105 37.6886C96.314 37.8356 96.2441 37.9217 96.1007 37.9468L95.8102 38.0006C95.6165 38.0364 95.5233 37.9575 95.5305 37.7639C95.5807 35.9564 95.5932 34.2064 95.5681 32.5137C95.4928 27.7746 88.7741 28.802 88.6773 32.4008C88.6307 34.2225 88.6719 35.9995 88.801 37.7316C88.8154 37.8894 88.7436 37.9701 88.5859 37.9737L88.0157 37.9952C87.8937 37.9988 87.8346 37.9378 87.8381 37.8123C87.9063 35.4777 87.9816 33.1288 88.0641 30.7655C88.0802 30.2007 87.9296 29.9425 87.7575 29.4314C87.6965 29.2485 87.7628 29.1553 87.9565 29.1517C88.3008 29.1445 88.5697 29.2916 88.7634 29.5928C88.8781 29.7721 89.0305 29.8151 89.2206 29.7219Z" fill="#B2B2B2"/>
<path d="M110.179 33.5144C110.179 34.8269 109.658 36.0857 108.729 37.0138C107.801 37.9419 106.543 38.4633 105.23 38.4633C103.917 38.4633 102.659 37.9419 101.731 37.0138C100.802 36.0857 100.281 34.8269 100.281 33.5144C100.281 32.2019 100.802 30.9431 101.731 30.015C102.659 29.0869 103.917 28.5655 105.23 28.5655C106.543 28.5655 107.801 29.0869 108.729 30.015C109.658 30.9431 110.179 32.2019 110.179 33.5144ZM104.45 37.8511C104.994 37.9528 105.553 37.9428 106.095 37.8215C106.638 37.7003 107.153 37.4702 107.612 37.1445C108.071 36.8187 108.464 36.4037 108.77 35.923C109.075 35.4423 109.286 34.9054 109.392 34.343C109.497 33.7805 109.494 33.2036 109.383 32.645C109.272 32.0865 109.056 31.5573 108.746 31.0876C108.436 30.618 108.038 30.2171 107.576 29.9079C107.114 29.5986 106.597 29.3871 106.053 29.2854C105.509 29.1836 104.95 29.1936 104.408 29.3149C103.865 29.4361 103.35 29.6662 102.891 29.9919C102.432 30.3177 102.039 30.7327 101.733 31.2134C101.428 31.6941 101.217 32.231 101.111 32.7934C101.006 33.3559 101.009 33.9328 101.12 34.4914C101.231 35.0499 101.447 35.5791 101.757 36.0488C102.067 36.5184 102.465 36.9193 102.927 37.2285C103.389 37.5378 103.906 37.7493 104.45 37.8511Z" fill="#B2B2B2"/>
<path d="M115.337 29.6673C117.511 28.5538 119.017 27.8329 121.045 29.947C121.085 29.9888 121.133 30.022 121.186 30.0445C121.24 30.067 121.297 30.0784 121.355 30.0779C121.413 30.0774 121.47 30.065 121.523 30.0416C121.576 30.0181 121.624 29.9841 121.663 29.9416C123.218 28.2633 126.472 27.9674 127.693 30.1245C127.988 30.6409 128.133 31.5482 128.129 32.8464C128.126 34.4781 128.131 36.0937 128.145 37.6931C128.149 37.8903 128.054 37.9872 127.86 37.9836L127.667 37.9782C127.64 37.9783 127.615 37.973 127.591 37.9625C127.567 37.952 127.545 37.9367 127.527 37.9175C127.51 37.8983 127.496 37.8755 127.488 37.8508C127.479 37.8261 127.476 37.7998 127.478 37.7738C127.665 35.7906 127.683 33.829 127.532 31.8889C127.382 29.9685 125.843 28.8765 123.955 29.3445C122.244 29.7713 121.405 30.874 121.437 32.6527C121.47 34.3526 121.504 36.0112 121.54 37.6286C121.543 37.8294 121.446 37.928 121.249 37.9244L120.964 37.919C120.785 37.9155 120.697 37.8222 120.7 37.6393L120.84 31.1519C120.844 30.9655 120.788 30.7969 120.674 30.6463C119.472 29.0648 117.959 28.8496 116.133 30.0008C115.058 30.6786 114.837 31.5339 114.853 32.841C114.878 34.4333 114.896 36.0327 114.907 37.6393C114.907 37.7935 114.832 37.8742 114.681 37.8814L114.461 37.8921C114.292 37.8993 114.21 37.8186 114.213 37.6501L114.331 30.1568C114.335 30.0205 114.31 29.8878 114.256 29.7587L114.154 29.4951C114.054 29.2477 114.127 29.1742 114.374 29.2746C114.572 29.3571 114.749 29.47 114.907 29.6135C115.036 29.7318 115.18 29.7497 115.337 29.6673Z" fill="#B2B2B2"/>
<path d="M132.97 34.2719C132.916 34.9569 133.113 35.5683 133.561 36.1062C136.041 39.0648 138.785 37.9997 140.963 35.5199C140.984 35.4967 141.01 35.4789 141.04 35.468C141.069 35.457 141.101 35.4532 141.132 35.4569C141.163 35.4605 141.194 35.4716 141.22 35.489C141.247 35.5065 141.27 35.53 141.286 35.5576L141.351 35.6813C141.469 35.8929 141.447 36.0901 141.286 36.273C140.293 37.4026 139.348 38.075 138.451 38.2902C135.041 39.1186 132.152 37.2574 132.141 33.7232C132.141 31.8728 132.841 30.1353 134.53 29.2316C137.537 27.6178 141.517 29.2585 141.845 32.8679C141.857 32.9968 141.841 33.1266 141.8 33.249C141.758 33.3714 141.692 33.4838 141.605 33.579C141.518 33.6741 141.412 33.75 141.294 33.8017C141.176 33.8534 141.049 33.8798 140.92 33.8792L133.416 33.8631C133.14 33.8631 132.991 33.9994 132.97 34.2719ZM132.991 33.2122L140.92 33.2767C140.942 33.2768 140.963 33.2685 140.979 33.2535C140.995 33.2385 141.005 33.2179 141.006 33.1961V33.1799C141.011 32.6589 140.913 32.1419 140.716 31.6587C140.519 31.1755 140.229 30.7354 139.86 30.3637C139.492 29.992 139.054 29.696 138.57 29.4925C138.086 29.289 137.567 29.182 137.042 29.1778H136.934C135.875 29.1691 134.856 29.5778 134.1 30.3141C133.345 31.0504 132.915 32.054 132.905 33.1046V33.1208C132.904 33.1325 132.906 33.1443 132.91 33.1553C132.914 33.1664 132.92 33.1765 132.928 33.1851C132.936 33.1937 132.946 33.2005 132.957 33.2052C132.968 33.2098 132.979 33.2122 132.991 33.2122Z" fill="#B2B2B2"/>
<path d="M146.747 29.7161C147.152 29.5225 147.554 29.3199 147.952 29.1083C149.98 28.0109 153.864 28.7156 153.875 31.5881C153.882 33.5964 153.902 35.5867 153.934 37.5591C153.937 37.7671 153.833 37.8747 153.622 37.8818H153.455C153.287 37.8854 153.208 37.8047 153.218 37.6398C153.344 35.4701 153.364 33.582 153.278 31.9754C153.202 30.5158 152.356 29.6283 150.739 29.3127C149.06 28.9899 146.602 30.2917 146.527 32.1852C146.458 34.0428 146.451 35.8628 146.505 37.6451C146.506 37.6781 146.5 37.7108 146.487 37.7413C146.475 37.7718 146.456 37.7993 146.432 37.822C146.408 37.8448 146.38 37.8624 146.349 37.8736C146.318 37.8848 146.285 37.8895 146.252 37.8872L146.016 37.8711C145.965 37.8683 145.917 37.8467 145.882 37.8107C145.847 37.7747 145.827 37.727 145.827 37.6774L145.763 29.5117C145.763 29.3145 145.84 29.2768 145.994 29.3988L146.354 29.6731C146.41 29.7154 146.476 29.7417 146.545 29.7493C146.614 29.7569 146.684 29.7454 146.747 29.7161Z" fill="#B2B2B2"/>
<path d="M166.848 30.0499C166.893 30.0038 166.922 29.9443 166.93 29.8804C166.939 29.8165 166.927 29.7515 166.896 29.6949C166.713 29.3686 166.76 29.1211 167.036 28.9526C167.445 28.7016 167.622 28.8145 167.569 29.2915C167.418 30.6219 167.384 31.9183 167.466 33.1807C167.563 34.5631 167.23 36.0693 167.563 37.6024C167.628 37.9072 167.52 37.9915 167.24 37.8552C166.989 37.7297 166.837 37.5253 166.783 37.242C166.676 36.7005 166.432 36.6288 166.052 37.0268C165.403 37.7046 164.626 38.1529 163.722 38.3716C159.548 39.3829 156.88 34.5201 158.623 31.1419C160.167 28.1565 163.803 27.8606 166.299 30.0607C166.493 30.2328 166.676 30.2293 166.848 30.0499ZM162.424 37.9038C162.96 37.9498 163.501 37.8828 164.015 37.7065C164.53 37.5303 165.007 37.2483 165.421 36.8767C165.835 36.5051 166.177 36.0512 166.428 35.5408C166.678 35.0303 166.832 34.4735 166.881 33.902C166.93 33.3305 166.873 32.7555 166.713 32.2099C166.553 31.6643 166.293 31.1587 165.949 30.7221C165.604 30.2855 165.182 29.9263 164.705 29.6651C164.228 29.4039 163.707 29.2458 163.17 29.1999C162.634 29.1539 162.093 29.2209 161.579 29.3971C161.065 29.5734 160.587 29.8553 160.173 30.2269C159.759 30.5985 159.417 31.0525 159.167 31.5629C158.916 32.0733 158.762 32.6302 158.713 33.2017C158.664 33.7732 158.721 34.3482 158.881 34.8938C159.041 35.4394 159.301 35.9449 159.646 36.3816C159.99 36.8182 160.413 37.1774 160.89 37.4386C161.366 37.6997 161.888 37.8578 162.424 37.9038Z" fill="#B2B2B2"/>
<path d="M83.1527 28.9315L82.7977 28.9303C82.7175 28.93 82.6522 28.9948 82.652 29.075L82.6215 37.8001C82.6212 37.8803 82.686 37.9456 82.7662 37.9459L83.1213 37.9471C83.2015 37.9474 83.2667 37.8826 83.267 37.8024L83.2975 29.0773C83.2977 28.9971 83.2329 28.9318 83.1527 28.9315Z" fill="#B2B2B2"/>
</svg>
