<svg width="184" height="63" viewBox="0 0 184 63" fill="none" xmlns="http://www.w3.org/2000/svg">
<path d="M52.3792 10.2208L74.106 10.323C74.2727 10.3237 74.4377 10.3572 74.5914 10.4217C74.7452 10.4861 74.8847 10.5802 75.0021 10.6986C75.1195 10.817 75.2124 10.9573 75.2755 11.1116C75.3387 11.2659 75.3708 11.4311 75.3701 11.5978L75.3217 33.3246C75.3209 33.5754 75.2458 33.8204 75.106 34.0286C74.9661 34.2368 74.7676 34.3989 74.5357 34.4944C74.3038 34.5899 74.0488 34.6146 73.8029 34.5654C73.557 34.5161 73.3311 34.3951 73.1539 34.2176L51.4701 12.3832C51.2935 12.2047 51.1738 11.9779 51.1262 11.7314C51.0785 11.4849 51.1049 11.2297 51.2022 10.9983C51.2995 10.7668 51.4632 10.5694 51.6727 10.431C51.8823 10.2926 52.1281 10.2194 52.3792 10.2208Z" fill="#B2B2B2"/>
<path d="M79.7437 34.4398C79.3815 34.6048 79.0337 34.6174 78.7001 34.4775C77.9632 34.1709 77.947 33.3425 77.9524 32.6378C77.9882 25.2539 77.9758 17.9955 77.9148 10.8626C77.9112 10.4645 78.1084 10.2655 78.5064 10.2655L101.153 10.3085C101.311 10.3094 101.466 10.3474 101.607 10.4194C101.747 10.4914 101.868 10.5954 101.961 10.7229C102.053 10.8503 102.114 10.9977 102.138 11.1528C102.162 11.308 102.149 11.4666 102.1 11.6157C101.924 12.15 101.553 12.7023 100.986 13.2725C94.3232 19.9894 87.4915 26.873 80.4913 33.9234C80.2744 34.1404 80.0211 34.3154 79.7437 34.4398Z" fill="#B2B2B2"/>
<path d="M104.585 33.1571L104.542 11.7155C104.542 11.5349 104.576 11.3559 104.645 11.1889C104.714 11.0218 104.815 10.87 104.942 10.742C105.069 10.6141 105.221 10.5126 105.388 10.4433C105.554 10.374 105.733 10.3384 105.914 10.3384L127.361 10.3007C127.632 10.3003 127.898 10.3804 128.123 10.5307C128.349 10.6811 128.525 10.895 128.629 11.1455C128.734 11.3959 128.761 11.6716 128.709 11.9378C128.656 12.2039 128.526 12.4485 128.335 12.6407L106.925 34.1254C106.733 34.3166 106.489 34.4467 106.224 34.4993C105.958 34.552 105.683 34.5248 105.432 34.4213C105.182 34.3177 104.968 34.1424 104.817 33.9175C104.667 33.6925 104.586 33.428 104.585 33.1571Z" fill="#B2B2B2"/>
<path d="M80.0768 44.6317C80.2776 44.5671 80.4121 44.4363 80.4802 44.239C80.8353 43.2241 81.341 42.22 81.9972 41.2266C82.0563 41.137 82.1369 41.0636 82.2315 41.0129C82.3262 40.9622 82.432 40.936 82.5394 40.9365C82.6467 40.9371 82.7523 40.9644 82.8464 41.016C82.9406 41.0676 83.0203 41.1418 83.0785 41.232C83.5985 42.0353 84.0719 43.0161 84.4987 44.1745C84.6027 44.4542 84.798 44.6729 85.0849 44.8307C85.1127 44.8458 85.1441 44.8529 85.1757 44.8513C85.2072 44.8497 85.2377 44.8394 85.2638 44.8216C85.2899 44.8039 85.3106 44.7792 85.3237 44.7505C85.3367 44.7217 85.3415 44.6899 85.3377 44.6586C85.1118 42.9767 85.0599 41.3844 85.1818 39.8818C85.2069 39.5913 85.3647 39.4407 85.6552 39.43L86.5534 39.3923C86.8762 39.3815 87.0377 39.5358 87.0377 39.8549L87.086 48.5693C87.0862 48.6508 87.063 48.7306 87.0191 48.7993C86.9753 48.868 86.9126 48.9226 86.8386 48.9566C86.4046 49.1574 85.9492 49.213 85.4722 49.1234C85.3765 49.1048 85.2861 49.0647 85.2078 49.006C85.1296 48.9474 85.0656 48.8716 85.0204 48.7845L82.8472 44.4649C82.8139 44.3993 82.7632 44.3443 82.7005 44.3058C82.6378 44.2673 82.5658 44.2469 82.4922 44.2469C82.4187 44.2469 82.3465 44.2673 82.2838 44.3058C82.2211 44.3443 82.1704 44.3993 82.1371 44.4649C81.5454 45.6591 80.9376 46.8964 80.3136 48.1766C80.0733 48.6715 79.7774 48.9745 79.4259 49.0857C79.0602 49.2041 78.6765 49.1987 78.2748 49.0696C78.0633 49.0014 77.9574 48.8562 77.9574 48.6339V39.8872C77.9571 39.8135 77.9723 39.7405 78.0019 39.6729C78.0316 39.6054 78.0751 39.5446 78.1297 39.4945C78.1843 39.4445 78.2489 39.4062 78.3192 39.3821C78.3896 39.358 78.4642 39.3487 78.5384 39.3547L79.2861 39.4138C79.6805 39.4461 79.8778 39.6613 79.8778 40.0593L79.8671 44.4811C79.8671 44.6281 79.9369 44.6783 80.0768 44.6317Z" fill="#B2B2B2"/>
<path d="M96.9567 47.8806C97.8497 45.8795 99.0438 43.8013 100.539 41.6461C100.582 41.585 100.607 41.5133 100.612 41.4389C100.616 41.3646 100.6 41.2904 100.565 41.2246C100.53 41.1589 100.477 41.1042 100.413 41.0665C100.348 41.0289 100.275 41.0098 100.2 41.0113L97.2742 41.0705C96.9729 41.0741 96.8223 40.9252 96.8223 40.624L96.8169 39.8817C96.8133 39.5984 96.9532 39.4549 97.2365 39.4513L102.578 39.4244C103.31 39.4208 103.521 39.7526 103.213 40.4196C102.227 42.5534 101.054 44.68 99.6948 46.7994C99.659 46.8532 99.6302 46.9034 99.6087 46.95C99.5757 47.0165 99.5607 47.0905 99.5652 47.1646C99.5697 47.2388 99.5936 47.3104 99.6344 47.3724C99.6752 47.4345 99.7315 47.4847 99.7978 47.5182C99.8641 47.5517 99.938 47.5672 100.012 47.5632L102.718 47.4287C103.091 47.4108 103.322 47.5847 103.412 47.9505L103.541 48.4831C103.558 48.5482 103.56 48.6162 103.547 48.6822C103.534 48.7483 103.506 48.8107 103.466 48.8652C103.426 48.9196 103.375 48.9647 103.315 48.9972C103.255 49.0297 103.189 49.0489 103.121 49.0533C101.228 49.1662 99.2213 49.1609 97.2902 48.9618C96.6375 48.8937 95.9741 48.96 95.2999 49.1609C95.1913 49.1932 95.0772 49.2027 94.9649 49.1889C94.8525 49.175 94.7443 49.1381 94.6472 49.0804C94.5501 49.0228 94.4661 48.9456 94.4007 48.8539C94.3352 48.7622 94.2898 48.6579 94.2671 48.5476C94.1918 48.1962 94.0573 47.8806 93.8637 47.6009C93.7166 47.3893 93.5123 47.2817 93.2505 47.2781L91.045 47.2405C90.8894 47.2373 90.7383 47.2938 90.6225 47.3987C90.5066 47.5036 90.4346 47.6489 90.421 47.8053C90.317 49.0174 89.6464 49.4549 88.4092 49.1178C88.3382 49.0987 88.2721 49.0644 88.2157 49.0171C88.1594 48.9699 88.1139 48.9109 88.0827 48.8443C88.0514 48.7778 88.0352 48.7052 88.0349 48.6316C88.0346 48.5581 88.0503 48.4854 88.081 48.4185C88.3105 47.9236 88.497 47.4539 88.6404 47.0092C89.4473 44.5455 90.3026 42.1338 91.2064 39.7741C91.2852 39.5661 91.434 39.4477 91.6527 39.4191C92.1082 39.3617 92.535 39.4065 92.9331 39.5535C93.1124 39.6217 93.2325 39.7454 93.2934 39.9247L96.0315 47.8376C96.3041 48.6301 96.6125 48.6445 96.9567 47.8806ZM91.1633 45.2448C91.1513 45.2779 91.1474 45.3133 91.1518 45.3483C91.1563 45.3832 91.1691 45.4165 91.1891 45.4455C91.2092 45.4744 91.2358 45.4982 91.2669 45.5147C91.298 45.5313 91.3326 45.5402 91.3678 45.5406L92.9922 45.5998C93.0269 45.6011 93.0614 45.5942 93.0929 45.5796C93.1244 45.565 93.152 45.5432 93.1735 45.516C93.195 45.4887 93.2098 45.4568 93.2166 45.4227C93.2234 45.3887 93.2221 45.3535 93.2128 45.3201L92.4973 42.6681C92.4847 42.6232 92.4582 42.5834 92.4215 42.5544C92.3849 42.5255 92.34 42.509 92.2934 42.5072C92.2467 42.5054 92.2008 42.5184 92.162 42.5445C92.1233 42.5705 92.0937 42.6081 92.0777 42.652L91.1633 45.2448Z" fill="#B2B2B2"/>
<path d="M104.552 39.9126C104.551 39.8455 104.564 39.7789 104.589 39.7166C104.614 39.6544 104.651 39.5976 104.698 39.5497C104.745 39.5017 104.801 39.4635 104.862 39.4372C104.924 39.4108 104.99 39.3969 105.057 39.3962L108.349 39.3801C108.794 39.3773 109.235 39.4654 109.647 39.6395C110.059 39.8135 110.434 40.0699 110.75 40.3942C111.066 40.7184 111.318 41.1041 111.49 41.5291C111.662 41.9541 111.752 42.4102 111.755 42.8712L111.765 45.5662C111.768 46.0268 111.684 46.4835 111.516 46.9101C111.349 47.3368 111.102 47.725 110.79 48.0527C110.478 48.3804 110.106 48.6411 109.697 48.8199C109.287 48.9988 108.848 49.0922 108.403 49.095L105.111 49.1111C105.044 49.1118 104.977 49.0991 104.914 49.0738C104.851 49.0484 104.794 49.0109 104.746 48.9634C104.698 48.9158 104.66 48.8593 104.634 48.7969C104.608 48.7345 104.595 48.6677 104.595 48.6001L104.552 39.9126ZM106.531 41.6501L106.51 46.8572C106.51 47.0356 106.581 47.2066 106.707 47.3327C106.833 47.4588 107.004 47.5296 107.182 47.5296L107.86 47.535C108.372 47.5363 108.864 47.3269 109.227 46.9526C109.59 46.5783 109.795 46.07 109.796 45.5393L109.807 42.9895C109.808 42.7267 109.759 42.4664 109.662 42.2233C109.566 41.9802 109.424 41.7592 109.246 41.5729C109.067 41.3866 108.854 41.2386 108.62 41.1374C108.386 41.0362 108.135 40.9837 107.882 40.9831L107.204 40.9777C107.025 40.9777 106.854 41.0485 106.728 41.1746C106.602 41.3007 106.531 41.4718 106.531 41.6501Z" fill="#B2B2B2"/>
<path d="M114.709 47.7193L114.445 48.5423C114.395 48.6978 114.298 48.8345 114.168 48.9343C114.039 49.0341 113.882 49.0925 113.719 49.1018C113.586 49.1089 113.22 49.1287 112.622 49.1609C112.561 49.1651 112.5 49.1541 112.444 49.1289C112.388 49.1038 112.34 49.0653 112.302 49.0169C112.265 48.9685 112.24 48.9116 112.23 48.8513C112.22 48.7911 112.225 48.7293 112.245 48.6714C113.152 45.9782 114.133 43.1416 115.187 40.1615C115.489 39.3062 116.403 39.2039 117.129 39.5428C117.312 39.6253 117.436 39.7616 117.501 39.9517L120.545 48.5746C120.564 48.6287 120.571 48.6864 120.564 48.7434C120.558 48.8004 120.539 48.8552 120.508 48.9038C120.478 48.9524 120.437 48.9935 120.388 49.024C120.34 49.0545 120.285 49.0738 120.228 49.0802L119.292 49.1932C118.912 49.2398 118.673 49.0749 118.576 48.6983C118.462 48.2429 118.22 47.8161 117.85 47.4181C117.714 47.2674 117.544 47.1957 117.339 47.2029L115.247 47.3051C114.971 47.3194 114.791 47.4575 114.709 47.7193ZM115.322 45.2825C115.312 45.3106 115.308 45.3407 115.312 45.3703C115.316 45.4 115.326 45.4284 115.343 45.4531C115.36 45.4778 115.382 45.4981 115.409 45.5124C115.435 45.5267 115.464 45.5346 115.494 45.5353L117.242 45.5837C117.273 45.5853 117.303 45.5794 117.331 45.5665C117.359 45.5536 117.383 45.5341 117.402 45.5097C117.42 45.4853 117.433 45.4568 117.438 45.4266C117.443 45.3963 117.44 45.3654 117.431 45.3363L116.618 42.7273C116.606 42.6904 116.582 42.6583 116.551 42.6353C116.519 42.6123 116.482 42.5997 116.443 42.5991C116.404 42.5985 116.366 42.61 116.334 42.632C116.301 42.654 116.277 42.6854 116.263 42.722L115.322 45.2825Z" fill="#B2B2B2"/>
<path d="M123.821 43.7548C123.523 43.3065 123.378 43.3513 123.385 43.8892L123.45 48.5746C123.457 48.9942 123.252 49.2039 122.836 49.2039H122.245C121.786 49.2039 121.556 48.9744 121.556 48.5154L121.583 39.7903C121.583 39.5823 121.683 39.455 121.884 39.4083C122.641 39.2326 123.195 39.4137 123.546 39.9516C124.5 41.422 125.431 42.9425 126.338 44.5132C126.826 45.3596 127.066 45.2932 127.059 44.3142L127.032 39.914C127.032 39.5338 127.22 39.3474 127.597 39.3545L127.968 39.3599C128.377 39.3635 128.581 39.5715 128.581 39.9839L128.587 48.7736C128.587 48.8601 128.557 48.944 128.502 49.0108C128.447 49.0776 128.37 49.1231 128.285 49.1394C127.618 49.2685 127.09 49.0031 126.699 48.3433C125.82 46.855 124.861 45.3255 123.821 43.7548Z" fill="#B2B2B2"/>
</svg>
