<svg width="184" height="63" viewBox="0 0 184 63" fill="none" xmlns="http://www.w3.org/2000/svg">
<path d="M71.4788 30.0184C71.4394 29.8857 71.373 29.7781 71.2798 29.6956C68.357 27.0706 65.5025 25.2685 62.716 24.2895C60.593 23.5471 58.4807 22.8281 56.3792 22.1324C53.7649 21.2663 50.9839 18.8887 52.1027 15.8387C54.2437 10.0022 61.0215 9.9484 64.4696 14.7575C66.5317 17.6336 68.5184 20.4953 70.4298 23.3427C71.3712 24.7467 72.5977 26.0808 73.8995 27.1351C74.122 27.3144 74.4032 27.4045 74.6878 27.3876C74.9725 27.3706 75.24 27.248 75.4379 27.0437C77.7008 24.7055 79.7521 22.4193 81.5918 20.1851C82.3234 19.2993 82.9724 18.358 83.5391 17.361C84.2957 16.0377 84.9466 15.1735 85.4917 14.7682C87.3027 13.427 89.3038 13.5507 91.495 15.1394C92.0867 15.5661 92.4471 16.2672 92.5762 17.2427C92.8308 19.2007 92.0777 20.5617 90.3169 21.3255C85.793 23.2728 81.6079 25.4191 78.0738 28.9372C77.5932 29.4141 77.6022 29.8785 78.1006 30.3304C79.987 32.0482 82.1387 33.375 84.5557 34.311C87.5538 35.4729 89.4294 36.244 90.1824 36.6241C92.743 37.9151 92.8936 40.9006 91.2368 42.9501C89.8668 44.6499 88.0881 45.2883 85.9006 44.8651C82.8021 44.2626 82.4094 42.1432 81.3605 39.7602C80.2523 37.232 78.5041 35.7742 76.3739 33.7516C75.2981 32.7295 74.5449 32.8425 73.4799 33.7193C69.6283 36.8715 67.2453 41.5407 64.5934 46.0754C63.4243 48.0729 62.3879 49.4106 61.4841 50.0883C59.8919 51.2861 57.9285 51.8527 55.5939 51.7882C53.0441 51.7165 51.2958 50.447 50.3491 47.9797C48.1705 42.2938 57.638 39.9807 61.0215 38.2056C64.8552 36.1938 68.305 33.6099 71.3712 30.4541C71.4896 30.3286 71.5254 30.1833 71.4788 30.0184Z" fill="#B2B2B2"/>
<path d="M131.936 27.4736C130.58 30.5129 132.581 34.4989 135.502 35.7631C137.67 36.7044 141.226 36.3171 143.915 36.3225C144.391 36.324 144.848 36.1379 145.187 35.8046C145.527 35.4712 145.721 35.0176 145.728 34.542C145.742 33.3836 145.785 32.1285 145.857 30.7765C145.975 28.4903 149.02 28.9852 150.72 29.0229C151.753 29.0444 152.266 29.55 152.258 30.5398C152.237 33.8211 152.214 37.0039 152.188 40.088C152.184 40.5598 151.993 41.0107 151.658 41.3423C151.322 41.6739 150.869 41.8592 150.397 41.8577C146.847 41.847 143.323 41.8631 139.827 41.9062C134.389 41.9707 129.343 39.7814 126.503 34.9885C124.58 31.7466 124.319 28.4276 125.717 25.0315C127.697 20.2332 132.898 17.5005 137.944 17.1831C140.175 17.0433 144.324 17.0576 150.392 17.2262C151.568 17.2549 152.165 17.8573 152.183 19.0336L152.215 20.8679C152.233 21.9115 151.72 22.4691 150.677 22.5409C147.127 22.774 143.817 22.808 140.747 22.6431C138.803 22.5391 137.277 22.7435 136.169 23.2563C134.193 24.1708 132.782 25.5766 131.936 27.4736Z" fill="#B2B2B2"/>
<path d="M109.993 26.6389C111.478 26.7249 116.497 26.9778 115.501 23.96C115.186 23.0061 114.547 22.5219 113.586 22.5076C110.38 22.4646 107.176 22.4664 103.974 22.513C103.46 22.52 102.97 22.7287 102.608 23.094C102.247 23.4593 102.044 23.9519 102.043 24.4656C102.028 29.5974 102.01 34.7615 101.989 39.9579C101.985 41.1198 101.422 41.7509 100.3 41.8514C98.9925 41.9643 96.0769 42.1741 96.0446 40.329C95.9299 33.232 95.8564 26.2569 95.8241 19.4038C95.8205 18.0984 96.4857 17.426 97.8198 17.3866C103.529 17.218 109.383 17.1857 115.383 17.2897C117.84 17.3327 119.807 18.1522 121.284 19.748C125.329 24.1267 122.796 31.0498 116.873 31.7222C113.473 32.106 110.793 32.1651 108.831 31.8998C107.698 31.7455 107.069 31.0104 106.943 29.6943C106.739 27.5282 107.755 26.5097 109.993 26.6389Z" fill="#B2B2B2"/>
</svg>
